<svg xmlns="http://www.w3.org/2000/svg" viewBox="0 0 228.69 263.02"><defs><style>.cls-1{fill:#9ebc51;}.cls-2{fill:#82993c;}.cls-3{fill:#bceceb;}.cls-4{fill:#9ee3e4;}.cls-5{fill:#9ee2e6;}.cls-6{fill:#efcc7a;}.cls-7{fill:#fcb514;}</style></defs><title>Airplane</title><g id="Layer_2" data-name="Layer 2"><g id="Layer_2-2" data-name="Layer 2"><path class="cls-1" d="M31.32,118.23A4.28,4.28,0,0,0,27.06,114H24a4.27,4.27,0,0,0-4.26,4.26v11l11.58-5.53Z"/><path class="cls-1" d="M52.11,108a4.28,4.28,0,0,0-4.26-4.26H44.79A4.28,4.28,0,0,0,40.53,108v11.31l11.58-5.53Z"/><path class="cls-2" d="M207.53,118.48a4.28,4.28,0,0,0-4.26-4.26h-3.06a4.28,4.28,0,0,0-4.26,4.26v4.43l11.58,5.53Z"/><path class="cls-2" d="M186.53,108a4.28,4.28,0,0,0-4.26-4.26h-3.06A4.28,4.28,0,0,0,175,108v4.92l11.58,5.53Z"/><path class="cls-3" d="M116.36.08l-.55,0,.56.11Z"/><path class="cls-3" d="M119,244.72c-1.81-6-3.25-14.19-4.37-23.9-3.93,19.8-8,31.67-9.08,31.67-1.6,0,3.48-25.11,6.72-63.29-.59-13.21-.85-27.51-.85-42-5.4-41-6.07-81,1.14-122.74-.12-8.26,0-12.89.7-12.89.31,0,.72,1,1.18,2.81q.59-2.88,1.21-5.76a33.84,33.84,0,0,0,0-8.59,7.06,7.06,0,0,0-.92,0c-13.47-.93-20.2,28.76-20.2,33.25S97,87,97,87c-.13,1,.54,5.71-5.88,8.12l-39,18.63-11.58,5.53-9.21,4.41L19.74,129.2,6.51,135.52c-10.67,4.71-7.58,21.83,4.58,19L98.7,142.71c.27.12,1.29-.52,1.5,1.79s5.48,80.31,5.48,80.31c-.17,1.34.95,7-6.92,10.09S84.59,240.85,83.43,242c-3.92,2.42-5,18.08,5.08,17.33l15.92-3.66c3.71-.82,6-.2,7.63,1L112,263c1.11-.55,1.83-1.88,2.71-3.28.89,1.4,1.61,2.73,2.72,3.28l-.07-6.35a6.66,6.66,0,0,1,1.36-.77l0-.34a7.51,7.51,0,0,0-.76.26C118.25,252.12,118.59,248.41,119,244.72Z"/><path class="cls-4" d="M222.18,135.44l-14.65-7L196,122.91l-9.42-4.51L175,112.87,137.6,95c-6.42-2.41-5.75-7.08-5.87-8.12,0,0,2.45-49.21,2.45-53.71,0-4.22-5.94-30.6-17.81-33L115.81,0a1.13,1.13,0,0,1-.18,0V0a33.84,33.84,0,0,1,0,8.59q-.63,2.88-1.21,5.76c.13.52.27,1.09.41,1.74.69,3.2,1.49,8,2.31,14.17,1-7,2-11.36,3-12.09l-.72,32.55c2,21.4,3.65,50,3.65,81.9,0,15.71-.81,30.55-2.09,44.09l.56,28,.35,17.41.62,30.6a26.13,26.13,0,0,1-3-6.29c-.19-.56-.37-1.14-.56-1.74-.37,3.69-.71,7.4-1,11.1a7.51,7.51,0,0,1,.76-.26,11,11,0,0,1,5.52.05l15.91,3.66c10.09.75,9-14.91,5.09-17.33-1.17-1.17-7.46-4-15.34-7.12s-6.75-8.75-6.91-10.09c0,0,5.27-78,5.48-80.31s1.23-1.67,1.5-1.79l87.6,11.77C229.77,157.27,232.85,140.15,222.18,135.44Z"/><path class="cls-5" d="M120.1,18.19c-1,.73-2,5.07-3,12.09.75,5.72,1.53,12.6,2.26,20.46Z"/><path class="cls-6" d="M114.59,220.82c1.12,9.71,2.56,17.9,4.37,23.9.19.6.37,1.18.56,1.74a26.13,26.13,0,0,0,3,6.29l-.62-30.6-.35-17.41-.56-28c-.46,4.9-1,9.63-1.55,14.16C118,202.16,116.3,212.23,114.59,220.82Z"/><path class="cls-6" d="M114.71,132.64c0-23.89-.46-45.94-1-64.49-.45-16.31-.92-29.91-1.14-39.69,0-1.42-.06-2.75-.08-4-7.21,41.77-6.54,81.73-1.14,122.74,0,14.5.26,28.8.85,42,.75-8.78,1.4-18.26,1.84-28.28C114.47,151.9,114.71,142.44,114.71,132.64Z"/><path class="cls-7" d="M113.22,11.56c-.68,0-.82,4.63-.7,12.89,0,1.26,0,2.59.08,4,.22,9.78.69,23.38,1.14,39.69.51,18.55,1,40.6,1,64.49,0,9.8-.24,19.26-.64,28.28-.44,10-1.09,19.5-1.84,28.28-3.24,38.18-8.32,63.29-6.72,63.29,1.1,0,5.15-11.87,9.08-31.67,1.71-8.59,3.39-18.66,4.8-29.93.57-4.53,1.09-9.26,1.55-14.16,1.28-13.54,2.09-28.38,2.09-44.09,0-31.9-1.65-60.5-3.65-81.9-.73-7.86-1.51-14.74-2.26-20.46-.82-6.16-1.62-11-2.31-14.17-.14-.65-.28-1.22-.41-1.74C113.94,12.54,113.53,11.56,113.22,11.56Z"/></g></g></svg>