<svg xmlns="http://www.w3.org/2000/svg" viewBox="0 0 265.8 145.56"><defs><style>.cls-1{fill:#9ebc51;}.cls-2,.cls-3{fill:none;stroke-miterlimit:10;}.cls-2{stroke:#fefefd;stroke-width:1.48px;}.cls-3{stroke:#fff;}.cls-4{fill:#fff;}</style></defs><title>ChinaGreen</title><g id="Layer_2" data-name="Layer 2"><g id="Landing_page_Home" data-name="Landing page // Home"><rect id="BackGround" class="cls-1" width="265.8" height="145.56"/><rect class="cls-2" x="6.61" y="5.82" width="253.57" height="134.05"/><polyline class="cls-3" points="6.61 5.82 55.96 70.99 208.6 70.99 260.18 5.82"/><line class="cls-3" x1="199.68" y1="71.37" x2="260.18" y2="139.87"/><line class="cls-3" x1="64.64" y1="70.99" x2="6.61" y2="139.49"/><path class="cls-4" d="M111.5,31.72a24.25,24.25,0,0,1-2.58,3c-.26-.34-.76-1-1.07-1.28a22.55,22.55,0,0,0,3.65-4.51,28.39,28.39,0,0,0,2.19-4.1l2,.73c-.08.19-.29.24-.58.24a30.17,30.17,0,0,1-2,3.63l.63.2c0,.19-.21.29-.52.34V40.22h-1.7Zm1.62,10.59c-.58,2.37-1.59,4.54-3.84,5.74l-1.41-1a7.29,7.29,0,0,0,3.68-5.19Zm3.39,3.91c0,.68.26.81,1.64.81H123c1.15,0,1.36-.36,1.46-2.92a4.69,4.69,0,0,0,1.6.68c-.24,3.1-.79,3.83-2.9,3.83h-5.14c-2.61,0-3.26-.49-3.26-2.37V41.61l2.24.13c0,.18-.15.31-.52.36Zm6.42-16.77h-3.86a18.34,18.34,0,0,1-2.72,4.3,12.77,12.77,0,0,0-1.22-1,20,20,0,0,0,3.94-7.88l2,.57c-.08.19-.26.26-.54.26-.24.76-.5,1.52-.81,2.25h11.06c.78.05.89.08,1,.08a30.37,30.37,0,0,1-2.16,4.88l-1.18-.27a26.42,26.42,0,0,1,2.74,5.2l-1.53.7a28,28,0,0,0-3.16-6l1.46-.6.31.42a29.13,29.13,0,0,0,1.25-2.87h-4.87v8.66c0,1.8-.74,2-4.18,2a6.18,6.18,0,0,0-.57-1.57c1.25,0,2.29,0,2.63,0s.42-.08.42-.39Zm-1.57,3.23c-.07.19-.26.26-.54.26a19.08,19.08,0,0,1-3.5,5.82,6.67,6.67,0,0,0-1.33-.88,15.94,15.94,0,0,0,3.36-5.82Zm-3.08,6.84a15.53,15.53,0,0,1,4.6,3.13l-1.23,1.15a15.85,15.85,0,0,0-4.54-3.21Zm12.32,8.32a19.54,19.54,0,0,0-4.8-5.45l1.43-.84a18,18,0,0,1,4.88,5.38Z"/><path class="cls-4" d="M143,30.26l1,.26-.16.36a34,34,0,0,1-2.51,11.22A18.23,18.23,0,0,1,144.42,45l-1.07,1.43a18.63,18.63,0,0,0-2.79-2.71,14.16,14.16,0,0,1-5.16,5.45,7.57,7.57,0,0,0-1.1-1.43,12.39,12.39,0,0,0,4.91-5.09c-1-.73-2-1.41-3-2l-.31,1.15L134.43,41c.65-2.29,1.46-5.61,2.22-9H134V30.34h3c.42-2,.79-3.84,1.1-5.51l2.14.26c0,.18-.18.29-.52.31-.29,1.49-.66,3.19-1,4.94h4ZM138.32,32c-.55,2.42-1.15,4.88-1.7,7,1.1.6,2.22,1.33,3.32,2.06A31,31,0,0,0,142.1,32Zm19.91,4.49v1.69h-6.29V46.8c0,2-.79,2.32-5.4,2.27a8.84,8.84,0,0,0-.66-1.75c1.26,0,2.4,0,3.14,0s1.14,0,1.14-.55V38.16h-6.39V36.47h6.39V32l.86,0a25.7,25.7,0,0,0,3.87-4.25h-10V26.19h11.38l.34-.11,1.38.86a.76.76,0,0,1-.42.26,33.92,33.92,0,0,1-5.58,6v3.24Z"/><path class="cls-4" d="M160.86,45.55a1.55,1.55,0,0,1,1.53-1.67,1.64,1.64,0,0,1,0,3.28A1.5,1.5,0,0,1,160.86,45.55Zm2.37-4.23h-1.72L161.14,27h2.46Z"/></g></g></svg>