<svg xmlns="http://www.w3.org/2000/svg" viewBox="0 0 264.24 144.24"><defs><style>.cls-1{fill:#fcb514;}.cls-2,.cls-24,.cls-25,.cls-31{fill:none;}.cls-2{stroke:#fefefd;stroke-width:1.47px;}.cls-2,.cls-24,.cls-25,.cls-30,.cls-31,.cls-32,.cls-33,.cls-35,.cls-37{stroke-miterlimit:10;}.cls-3{fill:#9ebc51;}.cls-4{fill:#fff;}.cls-5{fill:#b28f49;}.cls-6{fill:#c1895d;}.cls-7{fill:#fedaa7;}.cls-8{fill:#e5b385;}.cls-9{fill:#f7ecd2;}.cls-10{fill:#d6a174;}.cls-11{fill:#c38a5e;}.cls-12{fill:#fde9ca;}.cls-13{fill:#c62626;}.cls-14{fill:#bf4040;}.cls-15{fill:#aa710b;}.cls-16{fill:#cc1b1b;}.cls-17{fill:#a51414;}.cls-18{fill:#933838;}.cls-19{fill:#6d0a0a;}.cls-20{fill:#ce631b;}.cls-21{fill:#bfae98;}.cls-22{fill:#b3a28b;}.cls-23{fill:#9d907f;}.cls-24,.cls-25{stroke:#9d907f;}.cls-24,.cls-30,.cls-31,.cls-35{stroke-width:0.18px;}.cls-25{stroke-width:0.26px;}.cls-26{fill:#a09182;}.cls-27,.cls-32,.cls-33,.cls-35,.cls-37{fill:#bdb098;}.cls-28{fill:#b1a08d;}.cls-29{fill:#a1937f;}.cls-30{fill:#a3927f;}.cls-30,.cls-31,.cls-32,.cls-33,.cls-35,.cls-37{stroke:#665c4f;}.cls-32{stroke-width:0.16px;}.cls-33{stroke-width:0.16px;}.cls-34{fill:#b29f8e;}.cls-36{fill:#665c4f;}.cls-37{stroke-width:0.18px;}</style></defs><title>China PostCard</title><g id="Layer_2" data-name="Layer 2"><g id="Landing_page_Home" data-name="Landing page // Home"><g id="China_PostCard" data-name="China PostCard"><g id="Background"><rect id="BackGround-2" data-name="BackGround" class="cls-1" width="264.24" height="144.24"/><rect class="cls-2" x="6.08" y="6.19" width="252.07" height="132.83"/></g><g id="China"><path class="cls-3" d="M21.25,45.63q-2-2.66-2-7.5V27.25c0-3.33.66-5.87,2-7.6s3.56-2.6,6.76-2.6c3,0,5.12.76,6.38,2.26s1.89,3.68,1.89,6.51v2.56H30.9V25.75a16.63,16.63,0,0,0-.15-2.54A2.54,2.54,0,0,0,30,21.7,2.74,2.74,0,0,0,28,21.12a3,3,0,0,0-2,.62,3,3,0,0,0-.89,1.66,13.94,13.94,0,0,0-.2,2.68V39.29A7.66,7.66,0,0,0,25.58,43,2.6,2.6,0,0,0,28,44.18a2.64,2.64,0,0,0,1.9-.6,2.81,2.81,0,0,0,.8-1.6,16.81,16.81,0,0,0,.17-2.65V36.58h5.36V39a11.09,11.09,0,0,1-1.85,6.83C33.17,47.48,31,48.29,28,48.29S22.57,47.4,21.25,45.63Z"/><path class="cls-4" d="M26.1,47c-3.36,0-5.8-1-7.24-2.9s-2.11-4.53-2.11-7.88V25.37c0-3.46.71-6.14,2.09-8s3.87-2.84,7.26-2.84c3.18,0,5.49.83,6.87,2.48s2,3.94,2,6.91v3.19H28.38V23.87a16.82,16.82,0,0,0-.14-2.44,1.91,1.91,0,0,0-.59-1.15,2.16,2.16,0,0,0-1.51-.42,2.36,2.36,0,0,0-1.61.46,2.32,2.32,0,0,0-.7,1.32,13.5,13.5,0,0,0-.19,2.56V37.41a7.21,7.21,0,0,0,.59,3.42,2,2,0,0,0,1.91.85,2.1,2.1,0,0,0,1.47-.43A2.18,2.18,0,0,0,28.22,40a15.7,15.7,0,0,0,.16-2.55V34.07H35v3.08a11.74,11.74,0,0,1-2,7.21C31.67,46.13,29.34,47,26.1,47Zm0-31.23c-3,0-5.07.79-6.25,2.35S18,22.19,18,25.37V36.25c0,3.08.63,5.48,1.86,7.13h0c1.19,1.59,3.29,2.4,6.23,2.4S30.92,45,32,43.6a10.54,10.54,0,0,0,1.72-6.45V35.33h-4.1v2.12a17.06,17.06,0,0,1-.18,2.76,3.4,3.4,0,0,1-1,1.94,3.23,3.23,0,0,1-2.34.78,3.18,3.18,0,0,1-3-1.46,8.12,8.12,0,0,1-.77-4.06V24.2a14.39,14.39,0,0,1,.22-2.81,3.26,3.26,0,0,1,3.54-2.78,3.4,3.4,0,0,1,2.38.75,3.22,3.22,0,0,1,1,1.86,16.83,16.83,0,0,1,.16,2.65v2h4.1V23.94A9.39,9.39,0,0,0,32,17.83C30.87,16.48,28.89,15.8,26.1,15.8Z"/><path class="cls-3" d="M40.22,17.39h5.55V30.11H52V17.39h5.58V47.87H52V34.1H45.77V47.87H40.22Z"/><path class="cls-4" d="M56.33,46.62H49.48V32.84h-5V46.62H37.7V14.88h6.81V27.6h5V14.88h6.85Zm-5.59-1.26h4.33V16.14H50.74V28.86H43.25V16.14H39V45.36h4.29V31.59h7.49Z"/><path class="cls-3" d="M62.42,17.39h5.51V47.87H62.42Z"/><path class="cls-4" d="M66.67,46.62H59.9V14.88h6.77Zm-5.51-1.26h4.25V16.14H61.16Z"/><path class="cls-3" d="M72.65,17.39h3.88L84,34.78V17.39h4.61V47.87h-3.7L77.4,29.66V47.87H72.65Z"/><path class="cls-4" d="M87.32,46.62H82.57L76.14,31V46.62h-6V14.88h4.93l6.39,14.95V14.88h5.87Zm-3.91-1.26h2.65V16.14H82.71V36L74.23,16.14H71.39V45.36h3.5V24.59Z"/><path class="cls-3" d="M97.79,17.39h6l6.12,30.48h-5.18l-1.2-7H98.16l-1.24,7H91.67Zm5.09,19.91-2.07-12.8L98.73,37.3Z"/><path class="cls-4" d="M108.75,46.62h-6.47l-1.21-7H96.8l-1.24,7H89l6.36-31.74h7Zm-5.41-1.26h3.87l-5.86-29.22H96.41L90.55,45.36h4l1.25-7h6.38ZM101.73,36H96.1L98.92,18.7Zm-4.15-1.25h2.67l-1.33-8.24Z"/></g><path class="cls-5" d="M10,138.2H254.17a3.27,3.27,0,0,0,3.28-3.26V65.57a3.2,3.2,0,0,0-.35-1.45L244.54,38.88A3.25,3.25,0,0,0,242,37.09l-7.72-.93a3.29,3.29,0,0,1-1.74-.75L226.19,30a3.22,3.22,0,0,0-.87-.53L216,25.63a3.25,3.25,0,0,0-1.69-.21l-7.9,1.08a3.45,3.45,0,0,0-.72.18l-5.43,2.07a3.27,3.27,0,0,0-2.1,2.75h0a3.21,3.21,0,0,1-.9,2L187,44.06a3,3,0,0,1-.55.45L166.25,57.85a3.26,3.26,0,0,1-2.88.36l-6.86-2.36a3.28,3.28,0,0,0-3.89,1.42l-12.56,21.2a3.36,3.36,0,0,1-.83.93l-16.7,12.76a3.29,3.29,0,0,1-3.55.28l-13-7a3.28,3.28,0,0,0-2.93-.09L85.46,93.46a3.27,3.27,0,0,1-2.67,0L67.61,87a3.28,3.28,0,0,0-2-.18L51.33,90.14a3.18,3.18,0,0,0-1.29.63L25.51,110.38,7.92,124.94a3.26,3.26,0,0,0-1.18,2.52v7.48A3.26,3.26,0,0,0,10,138.2Z"/><g id="Great_Wall" data-name="Great Wall"><path class="cls-6" d="M189,70.69c1.14-3.8,16.9-15.9,18.9-24.85l2.53,1-2,4.54s-10.64,14.78-10.67,18.24Z"/><path class="cls-7" d="M208.24,50.07C207,52.68,197,66.83,194.72,69.61H202s7.39-19.76,8.85-20.8S208.24,50.07,208.24,50.07Z"/><path class="cls-6" d="M157.88,87.41s-1-1.89-9,1.88-13.68,28.46-13.68,28.46h1.57v2.87l6.33-.51,10-20L156,93.88l1.18-4.81Z"/><rect class="cls-7" x="199.3" y="90.6" width="2.71" height="4.38"/><rect class="cls-8" x="199.3" y="88.11" width="2.71" height="2.48"/><rect class="cls-9" x="199.3" y="86.01" width="3.38" height="2.1"/><rect class="cls-8" x="172.91" y="90.6" width="26.39" height="4.38"/><rect class="cls-10" x="172.91" y="88.11" width="26.39" height="2.48"/><rect class="cls-7" x="189.01" y="71.97" width="13" height="14.04"/><rect class="cls-6" x="193.67" y="80.97" width="4.04" height="5.04" transform="translate(391.38 166.98) rotate(-180)"/><rect class="cls-6" x="197.14" y="74.85" width="4.04" height="2.91" transform="translate(398.32 152.62) rotate(-180)"/><rect class="cls-6" x="190.05" y="74.85" width="4.04" height="2.91" transform="translate(384.15 152.62) rotate(-180)"/><rect class="cls-7" x="173.88" y="86.01" width="25.42" height="2.1"/><polyline class="cls-8" points="172.91 86.01 172.91 84.11 174.86 84.11 174.86 84.8 175.87 84.8 175.87 84.11 177.73 84.11 177.73 84.85 178.7 84.85 178.7 84.11 180.54 84.11 180.54 84.87 182.2 84.87 182.2 84.11 183.86 84.11 183.86 85.06 185.28 85.06 185.28 84.11 186.9 84.11 186.9 85.06 188.77 85.06 188.77 84.11 190.26 84.11 190.26 85.06 191.68 85.06 191.68 84.87 191.68 84.11 193.51 84.11 193.51 84.85 194.48 84.85 194.48 84.11 196.35 84.11 196.35 84.8 197.35 84.8 197.35 84.11 199.3 84.11 199.3 86.01"/><rect class="cls-11" x="191.51" y="92.79" width="2.95" height="1.03" transform="translate(385.97 186.6) rotate(-180)"/><rect class="cls-11" x="183.02" y="91.61" width="3.09" height="0.92" transform="translate(369.12 184.14) rotate(-180)"/><rect class="cls-11" x="174.71" y="93.08" width="3.46" height="0.97" transform="translate(352.88 187.13) rotate(-180)"/><rect class="cls-7" x="157.04" y="90.6" width="15.87" height="4.38"/><rect class="cls-11" x="169.39" y="91.82" width="1.96" height="0.97" transform="translate(340.75 184.61) rotate(-180)"/><rect class="cls-11" x="163.65" y="93.08" width="2.34" height="0.97" transform="translate(329.64 187.13) rotate(-180)"/><rect class="cls-11" x="160.02" y="91.82" width="2.15" height="0.97" transform="translate(322.18 184.61) rotate(-180)"/><rect class="cls-8" x="157.04" y="88.11" width="15.87" height="2.48"/><rect class="cls-12" x="156.35" y="86.01" width="17.53" height="2.1"/><rect class="cls-12" x="156.35" y="77.25" width="17.53" height="2.1"/><rect class="cls-6" x="189.01" y="71.97" width="13" height="1.79" transform="translate(391.02 145.73) rotate(-180)"/><rect class="cls-9" x="188.08" y="70.69" width="14.61" height="1.28" transform="translate(390.76 142.66) rotate(-180)"/><polygon class="cls-8" points="202.01 70.69 202.01 68.52 200.27 68.52 200.27 69.61 197.78 69.61 197.78 68.52 195.34 68.52 195.34 69.61 193.49 69.61 193.49 68.52 191.37 68.52 191.37 69.61 190.21 69.61 190.21 68.52 189.01 68.52 189.01 70.69 202.01 70.69"/><rect class="cls-7" x="157.04" y="79.35" width="15.87" height="6.66"/><circle class="cls-6" cx="170.37" cy="83.66" r="0.98"/><circle class="cls-6" cx="159.55" cy="83.66" r="0.98"/><circle class="cls-6" cx="163.16" cy="83.66" r="0.98"/><circle class="cls-6" cx="166.77" cy="83.66" r="0.98"/><rect class="cls-6" x="157.04" y="79.35" width="15.87" height="1.62" transform="translate(329.95 160.33) rotate(-180)"/><polygon class="cls-7" points="172.91 77.25 172.91 73.99 169.91 73.99 169.91 75.14 168.52 75.14 168.52 73.99 166.76 73.99 166.76 75.14 165.29 75.14 165.29 73.99 163.13 73.99 163.13 75.14 161.47 75.14 161.47 73.99 159.62 73.99 159.62 75.14 158.56 75.14 158.56 73.99 157.04 73.99 157.04 77.25 172.91 77.25"/><rect class="cls-7" x="33.74" y="128.25" width="6.16" height="9.96"/><rect class="cls-8" x="33.74" y="122.6" width="6.16" height="5.64"/><rect class="cls-9" x="32.22" y="117.82" width="7.68" height="4.78"/><rect class="cls-8" x="39.9" y="128.25" width="59.98" height="9.96"/><rect class="cls-10" x="39.9" y="122.6" width="59.98" height="5.64"/><rect class="cls-7" x="33.74" y="85.92" width="29.54" height="31.91"/><rect class="cls-6" x="43.52" y="106.38" width="9.19" height="11.45"/><rect class="cls-6" x="35.63" y="92.46" width="9.19" height="6.62"/><rect class="cls-6" x="51.73" y="92.46" width="9.19" height="6.62"/><rect class="cls-7" x="39.9" y="117.82" width="57.78" height="4.78"/><polyline class="cls-8" points="99.87 117.82 99.87 113.51 95.44 113.51 95.44 115.08 93.16 115.08 93.16 113.51 88.92 113.51 88.92 115.18 86.71 115.18 86.71 113.51 82.55 113.51 82.55 115.23 78.77 115.23 78.77 113.51 75 113.51 75 115.67 71.77 115.67 71.77 113.51 68.08 113.51 68.08 115.67 63.83 115.67 63.83 113.51 60.45 113.51 60.45 115.67 57.22 115.67 57.22 115.23 57.22 113.51 53.05 113.51 53.05 115.18 50.85 115.18 50.85 113.51 46.61 113.51 46.61 115.08 44.33 115.08 44.33 113.51 39.9 113.51 39.9 117.82"/><rect class="cls-11" x="50.91" y="133.23" width="6.71" height="2.34"/><rect class="cls-11" x="69.88" y="130.55" width="7.03" height="2.09"/><rect class="cls-11" x="87.92" y="133.89" width="7.86" height="2.19"/><rect class="cls-7" x="99.87" y="128.25" width="36.07" height="9.96"/><rect class="cls-11" x="103.41" y="131.03" width="4.46" height="2.19"/><rect class="cls-11" x="115.6" y="133.89" width="5.32" height="2.19"/><rect class="cls-11" x="124.3" y="131.03" width="4.88" height="2.19"/><rect class="cls-8" x="99.87" y="122.6" width="36.07" height="5.64"/><rect class="cls-12" x="97.67" y="117.82" width="39.85" height="4.78"/><rect class="cls-12" x="97.67" y="97.91" width="39.85" height="4.78"/><rect class="cls-6" x="33.74" y="85.92" width="29.54" height="4.08"/><rect class="cls-9" x="32.22" y="83.02" width="33.2" height="2.9"/><polygon class="cls-7" points="33.74 83.02 33.74 78.08 37.7 78.08 37.7 80.55 43.36 80.55 43.36 78.08 48.9 78.08 48.9 80.55 53.11 80.55 53.11 78.08 57.93 78.08 57.93 80.55 60.55 80.55 60.55 78.08 63.28 78.08 63.28 83.02 33.74 83.02"/><rect class="cls-7" x="99.87" y="102.69" width="36.07" height="15.13"/><ellipse class="cls-6" cx="105.64" cy="112.48" rx="2.23" ry="2.22"/><ellipse class="cls-6" cx="130.25" cy="112.48" rx="2.23" ry="2.22"/><ellipse class="cls-6" cx="122.05" cy="112.48" rx="2.23" ry="2.22"/><ellipse class="cls-6" cx="113.84" cy="112.48" rx="2.23" ry="2.22"/><rect class="cls-6" x="99.87" y="102.69" width="36.07" height="3.68"/><polygon class="cls-7" points="99.87 97.91 99.87 90.52 106.69 90.52 106.69 93.13 109.86 93.13 109.86 90.52 113.84 90.52 113.84 93.11 117.19 93.11 117.19 90.52 122.1 90.52 122.1 93.11 125.88 93.11 125.88 90.52 130.09 90.52 130.09 93.11 132.48 93.11 132.48 90.52 135.94 90.52 135.94 97.91 99.87 97.91"/><rect class="cls-7" x="228.13" y="48" width="1.27" height="2.06"/><rect class="cls-8" x="228.13" y="46.83" width="1.27" height="1.17"/><rect class="cls-9" x="228.13" y="45.84" width="1.59" height="0.99"/><rect class="cls-8" x="215.71" y="48" width="12.42" height="2.06"/><rect class="cls-10" x="215.71" y="46.83" width="12.42" height="1.17"/><rect class="cls-7" x="223.29" y="39.24" width="6.12" height="6.61"/><rect class="cls-6" x="225.48" y="43.47" width="1.9" height="2.37" transform="translate(452.86 89.32) rotate(-180)"/><rect class="cls-6" x="227.11" y="40.59" width="1.9" height="1.37" transform="translate(456.13 82.56) rotate(-180)"/><rect class="cls-6" x="223.78" y="40.59" width="1.9" height="1.37" transform="translate(449.46 82.56) rotate(-180)"/><rect class="cls-7" x="216.17" y="45.84" width="11.97" height="0.99"/><polyline class="cls-8" points="215.71 45.84 215.71 44.95 216.63 44.95 216.63 45.28 217.1 45.28 217.1 44.95 217.98 44.95 217.98 45.3 218.44 45.3 218.44 44.95 219.3 44.95 219.3 45.31 220.08 45.31 220.08 44.95 220.86 44.95 220.86 45.4 221.53 45.4 221.53 44.95 222.29 44.95 222.29 45.4 223.17 45.4 223.17 44.95 223.88 44.95 223.88 45.4 224.54 45.4 224.54 45.31 224.54 44.95 225.41 44.95 225.41 45.3 225.86 45.3 225.86 44.95 226.74 44.95 226.74 45.28 227.21 45.28 227.21 44.95 228.13 44.95 228.13 45.84"/><rect class="cls-11" x="224.46" y="49.03" width="1.39" height="0.48" transform="translate(450.31 98.55) rotate(-180)"/><rect class="cls-11" x="220.47" y="48.48" width="1.45" height="0.43" transform="translate(442.39 97.39) rotate(-180)"/><rect class="cls-11" x="216.56" y="49.17" width="1.63" height="0.45" transform="translate(434.74 98.8) rotate(-180)"/><rect class="cls-7" x="208.24" y="48" width="7.47" height="2.06"/><rect class="cls-11" x="214.05" y="48.58" width="0.92" height="0.45" transform="translate(429.03 97.61) rotate(-180)"/><rect class="cls-11" x="211.35" y="49.17" width="1.1" height="0.45" transform="translate(423.8 98.8) rotate(-180)"/><rect class="cls-11" x="209.64" y="48.58" width="1.01" height="0.45" transform="translate(420.29 97.61) rotate(-180)"/><rect class="cls-8" x="208.24" y="46.83" width="7.47" height="1.17"/><rect class="cls-12" x="207.91" y="45.84" width="8.25" height="0.99"/><rect class="cls-12" x="207.91" y="41.72" width="8.25" height="0.99"/><rect class="cls-6" x="223.29" y="39.24" width="6.12" height="0.84" transform="translate(452.69 79.32) rotate(-180)"/><rect class="cls-9" x="222.85" y="38.64" width="6.88" height="0.6" transform="translate(452.57 77.87) rotate(-180)"/><polygon class="cls-7" points="229.41 38.64 229.41 37.61 228.59 37.61 228.59 38.13 227.41 38.13 227.41 37.61 226.27 37.61 226.27 38.13 225.4 38.13 225.4 37.61 224.4 37.61 224.4 38.13 223.85 38.13 223.85 37.61 223.29 37.61 223.29 38.64 229.41 38.64"/><rect class="cls-7" x="208.24" y="42.71" width="7.47" height="3.13"/><circle class="cls-6" cx="214.51" cy="44.74" r="0.46"/><circle class="cls-6" cx="209.42" cy="44.74" r="0.46"/><circle class="cls-6" cx="211.12" cy="44.74" r="0.46"/><circle class="cls-6" cx="212.82" cy="44.74" r="0.46"/><rect class="cls-6" x="208.24" y="42.71" width="7.47" height="0.76" transform="translate(423.95 86.19) rotate(-180)"/><polygon class="cls-7" points="215.71 41.72 215.71 40.19 214.3 40.19 214.3 40.73 213.64 40.73 213.64 40.19 212.82 40.19 212.82 40.73 212.12 40.73 212.12 40.19 211.11 40.19 211.11 40.73 210.32 40.73 210.32 40.19 209.45 40.19 209.45 40.73 208.96 40.73 208.96 40.19 208.24 40.19 208.24 41.72 215.71 41.72"/><path class="cls-7" d="M135.94,122.6c4-4.39,6.81-31.9,21.1-34.49V95s-12.5,46.39-21.1,43.22"/><line class="cls-7" x1="137.52" y1="119.72" x2="157.04" y2="88.11"/></g><g id="Flag"><rect id="Flag-2" data-name="Flag" class="cls-13" x="117.85" y="15.09" width="46.87" height="30.48"/><polygon class="cls-1" points="124 18.73 124.94 21.63 127.99 21.63 125.52 23.42 126.47 26.31 124 24.52 121.53 26.31 122.47 23.42 120 21.63 123.05 21.63 124 18.73"/><polygon class="cls-1" points="133.35 16.18 133.22 17.07 134.03 17.46 133.15 17.62 133.01 18.51 132.6 17.71 131.71 17.86 132.34 17.22 131.92 16.43 132.72 16.82 133.35 16.18"/><polygon class="cls-1" points="133.4 28.65 133.24 29.54 134.03 29.96 133.14 30.08 132.98 30.96 132.59 30.16 131.7 30.28 132.35 29.66 131.96 28.85 132.75 29.27 133.4 28.65"/><polygon class="cls-1" points="134.73 20.36 135.29 21.06 136.14 20.75 135.64 21.49 136.2 22.2 135.34 21.96 134.84 22.71 134.8 21.81 133.93 21.57 134.77 21.25 134.73 20.36"/><polygon class="cls-1" points="135.07 24.95 135.34 25.8 136.25 25.8 135.52 26.33 135.79 27.18 135.07 26.65 134.34 27.18 134.62 26.33 133.89 25.8 134.79 25.8 135.07 24.95"/></g><g id="Forbidden_Cirt" data-name="Forbidden Cirt"><rect class="cls-14" x="201.33" y="102.82" width="41.17" height="22.6"/><polygon class="cls-15" points="191.33 138.21 197.06 125.43 246.81 125.43 253.12 138.36 191.33 138.21"/><rect class="cls-16" x="198.49" y="104.54" width="2.84" height="20.89"/><rect class="cls-17" x="200.29" y="104.54" width="1.04" height="20.89"/><rect class="cls-1" x="198.49" y="102.82" width="2.84" height="1.71"/><rect class="cls-18" x="201.33" y="102.82" width="41.17" height="1.71"/><rect class="cls-16" x="209.49" y="104.54" width="2.84" height="20.89"/><rect class="cls-17" x="211.29" y="104.54" width="1.04" height="20.89"/><rect class="cls-1" x="209.49" y="102.82" width="2.84" height="1.71"/><rect class="cls-16" x="220.5" y="104.54" width="2.84" height="20.89"/><rect class="cls-17" x="222.3" y="104.54" width="1.04" height="20.89"/><rect class="cls-1" x="220.5" y="102.82" width="2.84" height="1.71"/><rect class="cls-16" x="231.5" y="104.54" width="2.84" height="20.89"/><rect class="cls-17" x="233.3" y="104.54" width="1.04" height="20.89"/><rect class="cls-1" x="231.5" y="102.82" width="2.84" height="1.71"/><rect class="cls-16" x="242.5" y="104.54" width="2.84" height="20.89"/><rect class="cls-17" x="244.3" y="104.54" width="1.04" height="20.89"/><rect class="cls-1" x="242.5" y="102.82" width="2.84" height="1.71"/><rect class="cls-19" x="198.49" y="99.09" width="46.85" height="3.74"/><polygon class="cls-18" points="201.84 125.43 201.84 114.98 202.88 114.98 202.88 114.13 207.71 114.13 207.71 114.98 208.7 114.98 208.7 125.43 201.84 125.43"/><polygon class="cls-18" points="212.98 125.43 212.98 114.98 214.02 114.98 214.02 114.13 218.85 114.13 218.85 114.98 219.85 114.98 219.85 125.43 212.98 125.43"/><polygon class="cls-18" points="223.98 125.43 223.98 114.98 225.02 114.98 225.02 114.13 229.86 114.13 229.86 114.98 230.85 114.98 230.85 125.43 223.98 125.43"/><polygon class="cls-18" points="234.99 125.43 234.99 114.98 236.03 114.98 236.03 114.13 240.86 114.13 240.86 114.98 241.85 114.98 241.85 125.43 234.99 125.43"/><path class="cls-20" d="M221.92,86.94h16c2.67,10.11,11,6.07,16.25,3.31,0,5.43-5.71,7-8.87,8.84H198.5c-3.16-1.88-8.87-3.41-8.87-8.84,5.24,2.76,13.58,6.8,16.25-3.31h16"/><path class="cls-20" d="M221.92,69.64h16c2.67,10.11,6.92,7.75,12.16,5,0,5.43-1.62,5.28-4.78,7.16H198.5c-3.16-1.88-5.29-1.66-5.29-7.09,5.24,2.76,10,5,12.67-5.06h16"/><rect class="cls-14" x="205.88" y="81.79" width="32.08" height="5.14"/><rect class="cls-18" x="205.88" y="81.79" width="32.08" height="0.92"/><path class="cls-1" d="M221.59,68s14.95-.08,16.14,0,1-2.16-.49-2.9c-1.15-.58.39-2.47,2-1.73,2.67,2.2,2.2,6.3-1.66,6.3H205.88c-3.86,0-4.33-4.1-1.66-6.3,1.66-.74,3.2,1.15,2.05,1.73-1.5.74-1.69,3-.49,2.9s16.14,0,16.14,0"/></g><rect class="cls-21" x="160.17" y="137.71" width="13.95" height="0.65"/><rect class="cls-22" x="164.74" y="134.56" width="1.67" height="3.14"/><rect class="cls-22" x="167.85" y="134.56" width="1.67" height="3.14"/><rect class="cls-23" x="164.74" y="136.95" width="1.67" height="0.76"/><rect class="cls-23" x="167.85" y="136.95" width="1.67" height="0.76"/><line class="cls-24" x1="164.74" y1="136.3" x2="166.41" y2="136.3"/><line class="cls-24" x1="167.85" y1="136.3" x2="169.52" y2="136.3"/><path class="cls-25" d="M165.17,136.3a.44.44,0,1,0,.87,0"/><path class="cls-25" d="M168.25,136.3a.44.44,0,1,0,.87,0"/><rect class="cls-26" x="164.74" y="134.56" width="1.67" height="0.72"/><rect class="cls-26" x="167.85" y="134.56" width="1.67" height="0.72"/><polygon class="cls-27" points="167.15 129.35 169.64 129.35 170.51 134.56 163.78 134.56 164.74 129.35 167.15 129.35"/><polygon class="cls-28" points="164.43 131.08 169.93 131.08 169.64 129.35 164.74 129.35 164.43 131.08"/><polygon class="cls-29" points="167.15 129.35 167.15 131.08 164.43 131.08 164.74 129.35 167.15 129.35"/><rect class="cls-30" x="165.27" y="124.47" width="3.85" height="4.88"/><line class="cls-31" x1="165.93" y1="124.47" x2="165.93" y2="129.35"/><line class="cls-31" x1="166.77" y1="124.47" x2="166.77" y2="129.35"/><line class="cls-31" x1="167.63" y1="129.27" x2="167.59" y2="124.47"/><line class="cls-31" x1="168.41" y1="129.35" x2="168.41" y2="124.47"/><line class="cls-31" x1="165.27" y1="125.29" x2="169.12" y2="125.29"/><line class="cls-31" x1="165.27" y1="126.15" x2="169.12" y2="126.15"/><line class="cls-31" x1="165.27" y1="127.02" x2="169.12" y2="127.02"/><line class="cls-31" x1="165.27" y1="127.77" x2="169.12" y2="127.77"/><line class="cls-31" x1="165.27" y1="128.54" x2="169.12" y2="128.54"/><path class="cls-32" d="M165.27,124.47c-.62,0-1.49-.14-1.49.82v4.51h1.49v-5.33"/><path class="cls-33" d="M169.12,124.47c.65,0,1.54-.14,1.54.82v4.51h-1.54v-5.33"/><path class="cls-32" d="M165.27,126.15c-.43,0-.53,0-.53.47h-1"/><path class="cls-32" d="M169.12,126.15c.43,0,.53,0,.53.47h1"/><circle class="cls-32" cx="164.54" cy="130.37" r="0.57"/><circle class="cls-32" cx="169.93" cy="130.37" r="0.57"/><polygon class="cls-34" points="167.15 131.08 167.15 134.49 163.78 134.49 164.43 131.08 167.15 131.08"/><path class="cls-35" d="M167.15,123.44h1.15c.4,0,.33.26.33.26v.7h-2.94v-.7s-.07-.26.33-.26h1.16"/><path class="cls-31" d="M165.8,123.48a1,1,0,0,0,.79.32c.5,0,.49.6.49.6"/><path class="cls-31" d="M168.54,123.51a1,1,0,0,1-.79.32c-.51,0-.49.6-.49.6"/><polyline class="cls-35" points="166.59 123.8 166.59 123 167.61 123 167.61 123.8"/><path class="cls-36" d="M167.32,123.65a.36.36,0,0,0,0-.71.36.36,0,0,0,0,.71Z"/><path class="cls-36" d="M166.88,123.66a.36.36,0,0,0,0-.71.36.36,0,0,0,0,.71Z"/><path class="cls-37" d="M165.8,119.58v-.49s-.08-.21.22-.21h.57s.11-.11.11.29"/><path class="cls-36" d="M167,123.66a.36.36,0,0,0,0-.71.36.36,0,0,0,0,.71Z"/><path class="cls-36" d="M166.85,123.61a.36.36,0,0,0,0-.71.36.36,0,0,0,0,.71Z"/><rect class="cls-37" x="165.31" y="119.12" width="3.57" height="3.91" rx="1.21" ry="1.21"/><path class="cls-37" d="M165.93,120.47h.51s.15,0,.15.26"/><path class="cls-37" d="M168,120.47h-.51s-.15,0-.15.26"/><ellipse class="cls-37" cx="167.8" cy="120.79" rx="0.19" ry="0.11"/><ellipse class="cls-37" cx="166.21" cy="120.79" rx="0.19" ry="0.11"/><line class="cls-37" x1="166.4" y1="122.14" x2="167.8" y2="122.14"/><polyline class="cls-37" points="167.02 121.08 166.85 121.42 167.16 121.58"/><path class="cls-31" d="M165.58,120.54c.18.19.33-.14.15-.39.31.13.81,0,.6-.25h.9"/><path class="cls-31" d="M166.93,119.9h.9c-.18.2.32.32.63.19-.18.25,0,.59.15.39"/><rect class="cls-37" x="166.26" y="117.49" width="0.27" height="1.38"/><rect class="cls-37" x="165.22" y="117.54" width="0.99" height="0.99"/><rect class="cls-21" x="164.38" y="137.71" width="13.95" height="0.65"/><rect class="cls-22" x="168.95" y="134.56" width="1.67" height="3.14"/><rect class="cls-22" x="172.06" y="134.56" width="1.67" height="3.14"/><rect class="cls-23" x="168.95" y="136.95" width="1.67" height="0.76"/><rect class="cls-23" x="172.06" y="136.95" width="1.67" height="0.76"/><line class="cls-24" x1="168.95" y1="136.3" x2="170.62" y2="136.3"/><line class="cls-24" x1="172.06" y1="136.3" x2="173.73" y2="136.3"/><path class="cls-25" d="M169.38,136.3a.44.44,0,1,0,.87,0"/><path class="cls-25" d="M172.46,136.3a.44.44,0,1,0,.87,0"/><rect class="cls-26" x="168.95" y="134.56" width="1.67" height="0.72"/><rect class="cls-26" x="172.06" y="134.56" width="1.67" height="0.72"/><polygon class="cls-27" points="171.35 129.35 173.85 129.35 174.72 134.56 167.99 134.56 168.95 129.35 171.35 129.35"/><polygon class="cls-28" points="168.63 131.08 174.14 131.08 173.85 129.35 168.95 129.35 168.63 131.08"/><polygon class="cls-29" points="171.35 129.35 171.35 131.08 168.63 131.08 168.95 129.35 171.35 129.35"/><rect class="cls-30" x="169.48" y="124.47" width="3.85" height="4.88"/><line class="cls-31" x1="170.14" y1="124.47" x2="170.14" y2="129.35"/><line class="cls-31" x1="170.98" y1="124.47" x2="170.98" y2="129.35"/><line class="cls-31" x1="171.84" y1="129.27" x2="171.8" y2="124.47"/><line class="cls-31" x1="172.62" y1="129.35" x2="172.62" y2="124.47"/><line class="cls-31" x1="169.48" y1="125.29" x2="173.33" y2="125.29"/><line class="cls-31" x1="169.48" y1="126.15" x2="173.33" y2="126.15"/><line class="cls-31" x1="169.48" y1="127.02" x2="173.33" y2="127.02"/><line class="cls-31" x1="169.48" y1="127.77" x2="173.33" y2="127.77"/><line class="cls-31" x1="169.48" y1="128.54" x2="173.33" y2="128.54"/><path class="cls-32" d="M169.48,124.47c-.62,0-1.49-.14-1.49.82v4.51h1.49v-5.33"/><path class="cls-33" d="M173.33,124.47c.65,0,1.54-.14,1.54.82v4.51h-1.54v-5.33"/><path class="cls-32" d="M169.48,126.15c-.43,0-.53,0-.53.47h-1"/><path class="cls-32" d="M173.33,126.15c.43,0,.53,0,.53.47h1"/><circle class="cls-32" cx="168.75" cy="130.37" r="0.57"/><circle class="cls-32" cx="174.14" cy="130.37" r="0.57"/><polygon class="cls-34" points="171.35 131.08 171.35 134.49 167.99 134.49 168.63 131.08 171.35 131.08"/><path class="cls-35" d="M171.36,123.44h1.15c.4,0,.33.26.33.26v.7H169.9v-.7s-.07-.26.33-.26h1.16"/><path class="cls-31" d="M170,123.48a1,1,0,0,0,.79.32c.5,0,.49.6.49.6"/><path class="cls-31" d="M172.75,123.51a1,1,0,0,1-.79.32c-.51,0-.49.6-.49.6"/><polyline class="cls-35" points="170.8 123.8 170.8 123 171.82 123 171.82 123.8"/><path class="cls-36" d="M171.53,123.65a.36.36,0,0,0,0-.71.36.36,0,0,0,0,.71Z"/><path class="cls-36" d="M171.09,123.66a.36.36,0,0,0,0-.71.36.36,0,0,0,0,.71Z"/><path class="cls-37" d="M170,119.58v-.49s-.08-.21.22-.21h.57s.11-.11.11.29"/><path class="cls-36" d="M171.23,123.66a.36.36,0,0,0,0-.71.36.36,0,0,0,0,.71Z"/><path class="cls-36" d="M171.06,123.61a.36.36,0,0,0,0-.71.36.36,0,0,0,0,.71Z"/><rect class="cls-37" x="169.52" y="119.12" width="3.57" height="3.91" rx="1.21" ry="1.21"/><path class="cls-37" d="M170.14,120.47h.51s.15,0,.15.26"/><path class="cls-37" d="M172.25,120.47h-.51s-.15,0-.15.26"/><ellipse class="cls-37" cx="172.01" cy="120.79" rx="0.19" ry="0.11"/><ellipse class="cls-37" cx="170.42" cy="120.79" rx="0.19" ry="0.11"/><line class="cls-37" x1="170.61" y1="122.14" x2="172.01" y2="122.14"/><polyline class="cls-37" points="171.23 121.08 171.06 121.42 171.37 121.58"/><path class="cls-31" d="M169.79,120.54c.18.19.33-.14.15-.39.31.13.81,0,.6-.25h.9"/><path class="cls-31" d="M171.14,119.9h.9c-.18.2.32.32.63.19-.18.25,0,.59.15.39"/><rect class="cls-37" x="170.47" y="117.49" width="0.27" height="1.38"/><rect class="cls-37" x="169.43" y="117.54" width="0.99" height="0.99"/><rect class="cls-21" x="152.57" y="137.71" width="13.95" height="0.65"/><rect class="cls-22" x="157.14" y="134.56" width="1.67" height="3.14"/><rect class="cls-22" x="160.25" y="134.56" width="1.67" height="3.14"/><rect class="cls-23" x="157.14" y="136.95" width="1.67" height="0.76"/><rect class="cls-23" x="160.25" y="136.95" width="1.67" height="0.76"/><line class="cls-24" x1="157.14" y1="136.3" x2="158.81" y2="136.3"/><line class="cls-24" x1="160.25" y1="136.3" x2="161.92" y2="136.3"/><path class="cls-25" d="M157.57,136.3a.44.44,0,1,0,.87,0"/><path class="cls-25" d="M160.65,136.3a.44.44,0,1,0,.87,0"/><rect class="cls-26" x="157.14" y="134.56" width="1.67" height="0.72"/><rect class="cls-26" x="160.25" y="134.56" width="1.67" height="0.72"/><polygon class="cls-27" points="159.55 129.35 162.04 129.35 162.91 134.56 156.18 134.56 157.15 129.35 159.55 129.35"/><polygon class="cls-28" points="156.83 131.08 162.33 131.08 162.04 129.35 157.15 129.35 156.83 131.08"/><polygon class="cls-29" points="159.55 129.35 159.55 131.08 156.83 131.08 157.15 129.35 159.55 129.35"/><rect class="cls-30" x="157.68" y="124.47" width="3.85" height="4.88"/><line class="cls-31" x1="158.33" y1="124.47" x2="158.33" y2="129.35"/><line class="cls-31" x1="159.17" y1="124.47" x2="159.17" y2="129.35"/><line class="cls-31" x1="160.03" y1="129.27" x2="159.99" y2="124.47"/><line class="cls-31" x1="160.81" y1="129.35" x2="160.81" y2="124.47"/><line class="cls-31" x1="157.68" y1="125.29" x2="161.52" y2="125.29"/><line class="cls-31" x1="157.68" y1="126.15" x2="161.52" y2="126.15"/><line class="cls-31" x1="157.68" y1="127.02" x2="161.52" y2="127.02"/><line class="cls-31" x1="157.68" y1="127.77" x2="161.52" y2="127.77"/><line class="cls-31" x1="157.68" y1="128.54" x2="161.52" y2="128.54"/><path class="cls-32" d="M157.68,124.47c-.63,0-1.5-.14-1.5.82v4.51h1.5v-5.33"/><path class="cls-33" d="M161.52,124.47c.65,0,1.54-.14,1.54.82v4.51h-1.54v-5.33"/><path class="cls-32" d="M157.68,126.15c-.43,0-.54,0-.54.47h-1"/><path class="cls-32" d="M161.52,126.15c.43,0,.54,0,.54.47h1"/><circle class="cls-32" cx="156.94" cy="130.37" r="0.57"/><circle class="cls-32" cx="162.33" cy="130.37" r="0.57"/><polygon class="cls-34" points="159.55 131.08 159.55 134.49 156.18 134.49 156.83 131.08 159.55 131.08"/><path class="cls-35" d="M159.55,123.44h1.15c.4,0,.33.26.33.26v.7h-2.94v-.7s-.07-.26.33-.26h1.16"/><path class="cls-31" d="M158.2,123.48a1,1,0,0,0,.79.32c.51,0,.49.6.49.6"/><path class="cls-31" d="M160.94,123.51a1,1,0,0,1-.79.32c-.51,0-.49.6-.49.6"/><polyline class="cls-35" points="158.99 123.8 158.99 123 160.01 123 160.01 123.8"/><path class="cls-36" d="M159.72,123.65a.36.36,0,0,0,0-.71.36.36,0,0,0,0,.71Z"/><path class="cls-36" d="M159.28,123.66a.36.36,0,0,0,0-.71.36.36,0,0,0,0,.71Z"/><path class="cls-37" d="M158.2,119.58v-.49s-.08-.21.22-.21H159s.11-.11.11.29"/><path class="cls-36" d="M159.42,123.66a.36.36,0,0,0,0-.71.36.36,0,0,0,0,.71Z"/><path class="cls-36" d="M159.26,123.61a.36.36,0,0,0,0-.71.36.36,0,0,0,0,.71Z"/><rect class="cls-37" x="157.71" y="119.12" width="3.57" height="3.91" rx="1.21" ry="1.21"/><path class="cls-37" d="M158.33,120.47h.51s.15,0,.15.26"/><path class="cls-37" d="M160.44,120.47h-.51s-.15,0-.15.26"/><ellipse class="cls-37" cx="160.2" cy="120.79" rx="0.19" ry="0.11"/><ellipse class="cls-37" cx="158.61" cy="120.79" rx="0.19" ry="0.11"/><line class="cls-37" x1="158.8" y1="122.14" x2="160.2" y2="122.14"/><polyline class="cls-37" points="159.42 121.08 159.25 121.42 159.56 121.58"/><path class="cls-31" d="M158,120.54c.18.19.33-.14.15-.39.31.13.81,0,.6-.25h.9"/><path class="cls-31" d="M159.33,119.9h.9c-.18.2.32.32.63.19-.18.25,0,.59.15.39"/><rect class="cls-37" x="158.66" y="117.49" width="0.27" height="1.38"/><rect class="cls-37" x="157.62" y="117.54" width="0.99" height="0.99"/><rect class="cls-21" x="169.93" y="137.71" width="13.95" height="0.65"/><rect class="cls-22" x="174.5" y="134.56" width="1.67" height="3.14"/><rect class="cls-22" x="177.61" y="134.56" width="1.67" height="3.14"/><rect class="cls-23" x="174.5" y="136.95" width="1.67" height="0.76"/><rect class="cls-23" x="177.61" y="136.95" width="1.67" height="0.76"/><line class="cls-24" x1="174.5" y1="136.3" x2="176.17" y2="136.3"/><line class="cls-24" x1="177.61" y1="136.3" x2="179.28" y2="136.3"/><path class="cls-25" d="M174.92,136.3a.44.44,0,1,0,.88,0"/><path class="cls-25" d="M178,136.3a.44.44,0,1,0,.87,0"/><rect class="cls-26" x="174.5" y="134.56" width="1.67" height="0.72"/><rect class="cls-26" x="177.61" y="134.56" width="1.67" height="0.72"/><polygon class="cls-27" points="176.9 129.35 179.4 129.35 180.26 134.56 173.54 134.56 174.5 129.35 176.9 129.35"/><polygon class="cls-28" points="174.18 131.08 179.69 131.08 179.4 129.35 174.5 129.35 174.18 131.08"/><polygon class="cls-29" points="176.9 129.35 176.9 131.08 174.18 131.08 174.5 129.35 176.9 129.35"/><rect class="cls-30" x="175.03" y="124.47" width="3.85" height="4.88"/><line class="cls-31" x1="175.69" y1="124.47" x2="175.69" y2="129.35"/><line class="cls-31" x1="176.52" y1="124.47" x2="176.52" y2="129.35"/><line class="cls-31" x1="177.38" y1="129.27" x2="177.35" y2="124.47"/><line class="cls-31" x1="178.17" y1="129.35" x2="178.17" y2="124.47"/><line class="cls-31" x1="175.03" y1="125.29" x2="178.88" y2="125.29"/><line class="cls-31" x1="175.03" y1="126.15" x2="178.88" y2="126.15"/><line class="cls-31" x1="175.03" y1="127.02" x2="178.88" y2="127.02"/><line class="cls-31" x1="175.03" y1="127.77" x2="178.88" y2="127.77"/><line class="cls-31" x1="175.03" y1="128.54" x2="178.88" y2="128.54"/><path class="cls-32" d="M175,124.47c-.62,0-1.49-.14-1.49.82v4.51H175v-5.33"/><path class="cls-33" d="M178.88,124.47c.64,0,1.54-.14,1.54.82v4.51h-1.54v-5.33"/><path class="cls-32" d="M175,126.15c-.43,0-.53,0-.53.47h-1"/><path class="cls-32" d="M178.88,126.15c.43,0,.53,0,.53.47h1"/><circle class="cls-32" cx="174.29" cy="130.37" r="0.57"/><circle class="cls-32" cx="179.68" cy="130.37" r="0.57"/><polygon class="cls-34" points="176.9 131.08 176.9 134.49 173.54 134.49 174.18 131.08 176.9 131.08"/><path class="cls-35" d="M176.9,123.44h1.16c.4,0,.32.26.32.26v.7h-2.93v-.7s-.07-.26.33-.26h1.15"/><path class="cls-31" d="M175.56,123.48a1,1,0,0,0,.79.32c.5,0,.49.6.49.6"/><path class="cls-31" d="M178.29,123.51a1,1,0,0,1-.79.32c-.5,0-.49.6-.49.6"/><polyline class="cls-35" points="176.34 123.8 176.34 123 177.36 123 177.36 123.8"/><path class="cls-36" d="M177.08,123.65a.36.36,0,0,0,0-.71.36.36,0,0,0,0,.71Z"/><path class="cls-36" d="M176.64,123.66a.36.36,0,0,0,0-.71.36.36,0,0,0,0,.71Z"/><path class="cls-37" d="M175.56,119.58v-.49s-.08-.21.22-.21h.57s.11-.11.11.29"/><path class="cls-36" d="M176.78,123.66a.36.36,0,0,0,0-.71.36.36,0,0,0,0,.71Z"/><path class="cls-36" d="M176.61,123.61a.36.36,0,0,0,0-.71.36.36,0,0,0,0,.71Z"/><rect class="cls-37" x="175.07" y="119.12" width="3.57" height="3.91" rx="1.21" ry="1.21"/><path class="cls-37" d="M175.69,120.47h.51s.15,0,.15.26"/><path class="cls-37" d="M177.79,120.47h-.51s-.14,0-.14.26"/><ellipse class="cls-37" cx="177.56" cy="120.79" rx="0.19" ry="0.11"/><ellipse class="cls-37" cx="175.97" cy="120.79" rx="0.19" ry="0.11"/><line class="cls-37" x1="176.16" y1="122.14" x2="177.56" y2="122.14"/><polyline class="cls-37" points="176.78 121.08 176.61 121.42 176.92 121.58"/><path class="cls-31" d="M175.33,120.54c.19.19.34-.14.15-.39.32.13.82,0,.61-.25H177"/><path class="cls-31" d="M176.69,119.9h.9c-.19.2.32.32.63.19-.18.25,0,.59.15.39"/><rect class="cls-37" x="176.02" y="117.49" width="0.27" height="1.38"/><rect class="cls-37" x="174.98" y="117.54" width="0.99" height="0.99"/><rect class="cls-21" x="176.9" y="137.71" width="13.95" height="0.65"/><rect class="cls-22" x="181.47" y="134.56" width="1.67" height="3.14"/><rect class="cls-22" x="184.58" y="134.56" width="1.67" height="3.14"/><rect class="cls-23" x="181.47" y="136.95" width="1.67" height="0.76"/><rect class="cls-23" x="184.58" y="136.95" width="1.67" height="0.76"/><line class="cls-24" x1="181.47" y1="136.3" x2="183.14" y2="136.3"/><line class="cls-24" x1="184.58" y1="136.3" x2="186.25" y2="136.3"/><path class="cls-25" d="M181.9,136.3a.44.44,0,1,0,.87,0"/><path class="cls-25" d="M185,136.3a.44.44,0,1,0,.87,0"/><rect class="cls-26" x="181.47" y="134.56" width="1.67" height="0.72"/><rect class="cls-26" x="184.58" y="134.56" width="1.67" height="0.72"/><polygon class="cls-27" points="183.87 129.35 186.37 129.35 187.24 134.56 180.51 134.56 181.47 129.35 183.87 129.35"/><polygon class="cls-28" points="181.15 131.08 186.66 131.08 186.37 129.35 181.47 129.35 181.15 131.08"/><polygon class="cls-29" points="183.87 129.35 183.87 131.08 181.15 131.08 181.47 129.35 183.87 129.35"/><rect class="cls-30" x="182" y="124.47" width="3.85" height="4.88"/><line class="cls-31" x1="182.66" y1="124.47" x2="182.66" y2="129.35"/><line class="cls-31" x1="183.5" y1="124.47" x2="183.5" y2="129.35"/><line class="cls-31" x1="184.35" y1="129.27" x2="184.32" y2="124.47"/><line class="cls-31" x1="185.14" y1="129.35" x2="185.14" y2="124.47"/><line class="cls-31" x1="182" y1="125.29" x2="185.85" y2="125.29"/><line class="cls-31" x1="182" y1="126.15" x2="185.85" y2="126.15"/><line class="cls-31" x1="182" y1="127.02" x2="185.85" y2="127.02"/><line class="cls-31" x1="182" y1="127.77" x2="185.85" y2="127.77"/><line class="cls-31" x1="182" y1="128.54" x2="185.85" y2="128.54"/><path class="cls-32" d="M182,124.47c-.62,0-1.49-.14-1.49.82v4.51H182v-5.33"/><path class="cls-33" d="M185.85,124.47c.65,0,1.54-.14,1.54.82v4.51h-1.54v-5.33"/><path class="cls-32" d="M182,126.15c-.43,0-.53,0-.53.47h-1"/><path class="cls-32" d="M185.85,126.15c.43,0,.53,0,.53.47h1"/><circle class="cls-32" cx="181.27" cy="130.37" r="0.57"/><circle class="cls-32" cx="186.66" cy="130.37" r="0.57"/><polygon class="cls-34" points="183.87 131.08 183.87 134.49 180.51 134.49 181.15 131.08 183.87 131.08"/><path class="cls-35" d="M183.87,123.44H185c.4,0,.33.26.33.26v.7h-2.94v-.7s-.07-.26.33-.26h1.16"/><path class="cls-31" d="M182.53,123.48a1,1,0,0,0,.79.32c.5,0,.49.6.49.6"/><path class="cls-31" d="M185.27,123.51a1,1,0,0,1-.79.32c-.51,0-.5.6-.5.6"/><polyline class="cls-35" points="183.32 123.8 183.32 123 184.34 123 184.34 123.8"/><path class="cls-36" d="M184.05,123.65a.36.36,0,0,0,0-.71.36.36,0,0,0,0,.71Z"/><path class="cls-36" d="M183.61,123.66a.36.36,0,0,0,0-.71.36.36,0,0,0,0,.71Z"/><path class="cls-37" d="M182.53,119.58v-.49s-.08-.21.22-.21h.57s.11-.11.11.29"/><path class="cls-36" d="M183.75,123.66a.36.36,0,0,0,0-.71.36.36,0,0,0,0,.71Z"/><path class="cls-36" d="M183.58,123.61a.36.36,0,0,0,0-.71.36.36,0,0,0,0,.71Z"/><rect class="cls-37" x="182.04" y="119.12" width="3.57" height="3.91" rx="1.21" ry="1.21"/><path class="cls-37" d="M182.66,120.47h.51s.15,0,.15.26"/><path class="cls-37" d="M184.77,120.47h-.51s-.15,0-.15.26"/><ellipse class="cls-37" cx="184.53" cy="120.79" rx="0.19" ry="0.11"/><ellipse class="cls-37" cx="182.94" cy="120.79" rx="0.19" ry="0.11"/><line class="cls-37" x1="183.13" y1="122.14" x2="184.53" y2="122.14"/><polyline class="cls-37" points="183.75 121.08 183.58 121.42 183.89 121.58"/><path class="cls-31" d="M182.31,120.54c.18.19.33-.14.15-.39.31.13.81,0,.6-.25h.9"/><path class="cls-31" d="M183.66,119.9h.9c-.18.2.32.32.63.19-.18.25,0,.59.15.39"/><rect class="cls-37" x="182.99" y="117.49" width="0.27" height="1.38"/><rect class="cls-37" x="181.95" y="117.54" width="0.99" height="0.99"/></g></g></g></svg>