<svg xmlns="http://www.w3.org/2000/svg" viewBox="0 0 256.23 140"><defs><style>.cls-1{fill:#fcb514;}.cls-2{fill:#ba9958;}.cls-3{fill:#efcc7a;}.cls-4{fill:#e2dede;}.cls-5{fill:#ed98e9;}.cls-6{fill:#aa1b1b;}.cls-7,.cls-9{fill:#6c6b6a;}.cls-8{fill:#424242;}.cls-11,.cls-9{stroke:#424242;stroke-width:0.6px;}.cls-11,.cls-12,.cls-13,.cls-14,.cls-15,.cls-16,.cls-17,.cls-20,.cls-24,.cls-39,.cls-9{stroke-miterlimit:10;}.cls-10{fill:#59a3a5;}.cls-11,.cls-12,.cls-13,.cls-14,.cls-15,.cls-17,.cls-20,.cls-24,.cls-30{fill:none;}.cls-12,.cls-13,.cls-14,.cls-15{stroke:#c62626;}.cls-12,.cls-39{stroke-width:0.74px;}.cls-13{stroke-width:1.11px;}.cls-14{stroke-width:1.62px;}.cls-15{stroke-width:0.41px;}.cls-16{fill:#ddd;}.cls-16,.cls-17{stroke:#bab6b6;stroke-width:1.06px;}.cls-18{fill:#3f3f3f;}.cls-19{fill:#c62626;}.cls-20{stroke:#999;}.cls-20,.cls-24{stroke-width:1.47px;}.cls-21{fill:#c91f1f;}.cls-22{fill:#efcece;}.cls-23{fill:#a08484;}.cls-24{stroke:#fefefd;}.cls-25{fill:#9ebc51;}.cls-26,.cls-39{fill:#fff;}.cls-27{fill:#dec18c;}.cls-28{fill:#050008;}.cls-29{fill:#426e9b;}.cls-31{fill:#00afde;}.cls-32{fill:#e26d76;}.cls-33{fill:#ba6b42;}.cls-34{fill:#defcfa;}.cls-35{fill:#e3c288;}.cls-36{fill:#e3ecff;}.cls-37{fill:#f1c056;}.cls-38{fill:#c2702e;}.cls-39{stroke:#b7b7b7;}.cls-40{fill:#ef70ad;fill-rule:evenodd;}</style></defs><title>Japan PostCard (2)</title><g id="Layer_2" data-name="Layer 2"><g id="Landing_page_Home" data-name="Landing page // Home"><g id="Japan_PostCard" data-name="Japan PostCard"><g id="Japan_PostCard-2" data-name="Japan PostCard"><g id="Background"><rect id="BackGround-2" data-name="BackGround" class="cls-1" width="256.23" height="139.87"/><rect class="cls-2" x="195.25" y="113.25" width="14.64" height="26.63"/><rect class="cls-2" x="234.28" y="113.25" width="14.64" height="26.63"/><rect class="cls-3" x="203.75" y="122.49" width="9.62" height="17.5"/><rect class="cls-2" x="152.53" y="113.11" width="14.64" height="26.63"/><rect class="cls-2" x="167.85" y="117.39" width="12.34" height="22.49"/><rect class="cls-3" x="176.95" y="122.38" width="9.62" height="17.5"/><g id="MiyaJima"><rect class="cls-4" x="212.82" y="114.22" width="26.62" height="16.31"/><rect class="cls-5" x="222.14" y="116.64" width="7.71" height="13.89"/><rect class="cls-6" x="239.44" y="114.22" width="1.37" height="16.31"/><rect class="cls-6" x="211.45" y="114.22" width="1.37" height="16.31"/><rect class="cls-7" x="208.56" y="130.53" width="35.22" height="9.35"/><rect class="cls-6" x="207.25" y="124.24" width="1.31" height="15.63"/><rect class="cls-6" x="243.79" y="124.24" width="1.31" height="15.63"/><rect class="cls-6" x="208.56" y="125.46" width="35.22" height="1.11"/><rect class="cls-6" x="208.56" y="127.99" width="35.22" height="1.11"/><rect class="cls-8" x="208.47" y="130.53" width="35.32" height="1.27"/><rect class="cls-6" x="212.82" y="115.53" width="26.62" height="1.11"/><rect class="cls-6" x="225.16" y="114.22" width="1.95" height="16.31"/><rect class="cls-6" x="218.27" y="114.22" width="1.27" height="25.66"/><rect class="cls-6" x="232.63" y="114.22" width="1.27" height="25.66"/><rect class="cls-4" x="212.03" y="96.79" width="28.2" height="12.03"/><path class="cls-9" d="M226.13,109.08h15.48c0,2.41,7.18,2,7.18,2,0,.62-3.11,1.88-6.42,3.18H209.89c-3.31-1.3-6.42-2.56-6.42-3.18,0,0,7.18.45,7.18-2h15.48"/><rect class="cls-6" x="211.35" y="96.79" width="1.37" height="12.03"/><rect class="cls-6" x="239.44" y="96.79" width="1.37" height="12.03"/><rect class="cls-6" x="225.48" y="85.5" width="1.19" height="26.72" transform="translate(127.22 324.94) rotate(-90)"/><rect class="cls-6" x="225.64" y="96.79" width="0.97" height="2.66"/><rect class="cls-10" x="215.85" y="101.51" width="6.12" height="5.5"/><rect class="cls-10" x="230.2" y="101.51" width="6.12" height="5.5"/><rect class="cls-4" x="212.03" y="79.4" width="28.2" height="12.03"/><rect class="cls-10" x="223.02" y="82.06" width="6.12" height="9.64"/><path class="cls-9" d="M226.62,74.32H242.1c0,2.41,7.18,2,7.18,2,0,.62-3.12,1.88-6.42,3.18H210.38c-3.31-1.3-6.43-2.56-6.43-3.18,0,0,7.19.45,7.19-2h15.48"/><path class="cls-9" d="M226.62,91.71H242.1c0,2.41,7.18,2,7.18,2,0,.62-3.12,1.88-6.42,3.18H210.38c-3.31-1.3-6.43-2.56-6.43-3.18,0,0,7.19.45,7.19-2h15.48"/><rect class="cls-6" x="211.35" y="79.4" width="1.37" height="12.03"/><rect class="cls-6" x="239.44" y="79.4" width="1.37" height="12.03"/><rect class="cls-6" x="225.48" y="68.11" width="1.19" height="26.72" transform="translate(144.61 307.55) rotate(-90)"/><rect class="cls-6" x="225.64" y="79.4" width="0.97" height="2.66"/><rect class="cls-4" x="212.03" y="62" width="28.2" height="12.03"/><path class="cls-9" d="M226.62,56.91H242.1c0,2.42,7.18,2,7.18,2,0,.62-3.12,1.87-6.42,3.17H210.38c-3.31-1.3-6.43-2.55-6.43-3.17,0,0,7.19.45,7.19-2h15.48"/><path class="cls-9" d="M225.24,19.16s4.58,9.8,6.83,12.58c1.79,2.22,8.65,7.46,8.65,7.46,0,2.41,7.18,2,7.18,2,0,.62-3.12,1.87-6.42,3.17H209c-3.31-1.3-6.43-2.55-6.43-3.17,0,0,7.19.45,7.19-2,0,0,7.75-5.07,9.65-7.46,2.16-2.71,5.8-12.58,5.8-12.58Z"/><rect class="cls-6" x="211.35" y="62" width="1.37" height="12.03"/><rect class="cls-6" x="239.44" y="62" width="1.37" height="12.03"/><rect class="cls-6" x="225.48" y="50.7" width="1.19" height="26.72" transform="translate(162.01 290.14) rotate(-90)"/><rect class="cls-6" x="225.64" y="62" width="0.97" height="2.66"/><rect class="cls-10" x="215.85" y="66.72" width="6.12" height="5.5"/><rect class="cls-10" x="230.2" y="66.72" width="6.12" height="5.5"/><rect class="cls-4" x="212.03" y="44.61" width="28.2" height="12.03"/><rect class="cls-6" x="211.35" y="44.61" width="1.37" height="12.03"/><rect class="cls-6" x="239.44" y="44.61" width="1.37" height="12.03"/><rect class="cls-6" x="225.48" y="33.31" width="1.19" height="26.72" transform="translate(179.4 272.75) rotate(-90)"/><rect class="cls-6" x="225.64" y="44.61" width="0.97" height="2.66"/><rect class="cls-10" x="223.02" y="47.27" width="6.12" height="9.37"/><line class="cls-11" x1="225.24" y1="19.16" x2="225.24" y2="10.19"/></g><line class="cls-12" x1="178.97" y1="35.89" x2="178.97" y2="80.35"/><path class="cls-13" d="M180.45,35.89h-2.77s-1.61,18.6-1.61,24.82c0,4.64-2.41,18.62-2.41,18.62h10.62s-2.39-14-2.39-18.62C181.89,54.49,180.45,35.89,180.45,35.89Z"/><line class="cls-14" x1="161.45" y1="129.51" x2="169.22" y2="132.98"/><line class="cls-14" x1="164.72" y1="122.7" x2="172.42" y2="126.8"/><path class="cls-14" d="M174.54,79.43c0,5-3.52,40.75-19.56,59.7h11.87s5.93-18.5,13-18.5"/><line class="cls-14" x1="166.77" y1="117.49" x2="179.82" y2="120.63"/><path class="cls-14" d="M178.14,79.43s1.9,32.35,0,40.79"/><line class="cls-14" x1="169.06" y1="110.48" x2="178.98" y2="110.48"/><line class="cls-14" x1="171" y1="103.1" x2="178.97" y2="103.1"/><line class="cls-14" x1="172.42" y1="95.76" x2="178.56" y2="95.76"/><line class="cls-14" x1="173.72" y1="88.39" x2="178.57" y2="88.39"/><line class="cls-14" x1="174.3" y1="83.29" x2="178.34" y2="83.29"/><line class="cls-15" x1="174.54" y1="79.43" x2="178.34" y2="83.29"/><line class="cls-15" x1="178.14" y1="79.43" x2="174.3" y2="83.29"/><line class="cls-15" x1="173.72" y1="88.39" x2="178.34" y2="83.29"/><line class="cls-15" x1="174.3" y1="83.29" x2="178.57" y2="88.39"/><line class="cls-15" x1="178.56" y1="95.76" x2="173.72" y2="88.39"/><line class="cls-15" x1="178.57" y1="88.39" x2="172.42" y2="95.76"/><line class="cls-15" x1="178.34" y1="102.95" x2="172.42" y2="95.76"/><line class="cls-15" x1="178.56" y1="95.76" x2="171" y2="103.1"/><line class="cls-15" x1="178.56" y1="110.48" x2="170.82" y2="103.1"/><line class="cls-15" x1="169.01" y1="110.66" x2="178.97" y2="103.1"/><line class="cls-15" x1="178.14" y1="120.22" x2="169.01" y2="110.66"/><line class="cls-15" x1="166.77" y1="117.49" x2="178.56" y2="110.78"/><line class="cls-15" x1="172.42" y1="126.8" x2="166.77" y2="117.49"/><line class="cls-15" x1="165.03" y1="122.86" x2="179.82" y2="120.63"/><line class="cls-15" x1="169.22" y1="132.98" x2="165.03" y2="122.86"/><line class="cls-15" x1="161.45" y1="129.51" x2="172.42" y2="126.8"/><line class="cls-15" x1="166.85" y1="139.13" x2="161.45" y2="129.51"/><line class="cls-15" x1="154.98" y1="139.13" x2="169.22" y2="132.98"/><line class="cls-14" x1="196.13" y1="129.41" x2="188.36" y2="132.89"/><line class="cls-14" x1="192.86" y1="122.6" x2="185.16" y2="126.7"/><path class="cls-14" d="M183,79.33c0,5,3.52,40.76,19.57,59.7H190.73s-5.93-18.5-13-18.5"/><line class="cls-14" x1="190.81" y1="117.39" x2="177.76" y2="120.53"/><path class="cls-14" d="M179.44,79.33s-1.9,32.35,0,40.8"/><line class="cls-14" x1="188.52" y1="110.38" x2="178.6" y2="110.38"/><line class="cls-14" x1="186.58" y1="103.01" x2="178.61" y2="103.01"/><line class="cls-14" x1="185.16" y1="95.66" x2="179.02" y2="95.66"/><line class="cls-14" x1="183.86" y1="88.3" x2="179.01" y2="88.3"/><line class="cls-14" x1="183.28" y1="83.19" x2="179.24" y2="83.19"/><line class="cls-15" x1="179.24" y1="83.19" x2="183.04" y2="79.33"/><line class="cls-15" x1="179.44" y1="79.33" x2="183.28" y2="83.19"/><line class="cls-15" x1="183.86" y1="88.3" x2="179.24" y2="83.19"/><line class="cls-15" x1="183.28" y1="83.19" x2="179.01" y2="88.3"/><line class="cls-15" x1="179.02" y1="95.66" x2="183.86" y2="88.3"/><line class="cls-15" x1="179.01" y1="88.3" x2="185.16" y2="95.66"/><line class="cls-15" x1="179.24" y1="102.85" x2="185.16" y2="95.66"/><line class="cls-15" x1="179.02" y1="95.66" x2="186.58" y2="103.01"/><line class="cls-15" x1="179.02" y1="110.38" x2="186.76" y2="103.01"/><line class="cls-15" x1="188.57" y1="110.56" x2="178.61" y2="103.01"/><line class="cls-15" x1="179.44" y1="120.13" x2="188.57" y2="110.56"/><line class="cls-15" x1="190.81" y1="117.39" x2="179.02" y2="110.68"/><line class="cls-15" x1="185.16" y1="126.7" x2="190.81" y2="117.39"/><line class="cls-15" x1="192.55" y1="122.76" x2="177.76" y2="120.53"/><line class="cls-15" x1="188.36" y1="132.89" x2="192.55" y2="122.76"/><line class="cls-15" x1="196.13" y1="129.41" x2="185.16" y2="126.7"/><line class="cls-15" x1="190.73" y1="139.03" x2="196.13" y2="129.41"/><line class="cls-15" x1="202.61" y1="139.03" x2="188.36" y2="132.89"/><rect class="cls-16" x="165.98" y="71.61" width="25.98" height="8.06"/><line class="cls-17" x1="169.19" y1="71.61" x2="169.19" y2="79.66"/><line class="cls-17" x1="172.3" y1="71.61" x2="172.3" y2="79.66"/><line class="cls-17" x1="175.91" y1="71.61" x2="175.91" y2="79.66"/><line class="cls-17" x1="178.97" y1="71.61" x2="178.97" y2="79.66"/><line class="cls-17" x1="182.54" y1="71.61" x2="182.54" y2="79.66"/><line class="cls-17" x1="186.23" y1="71.61" x2="186.23" y2="79.66"/><line class="cls-17" x1="189.34" y1="79.66" x2="189.34" y2="71.61"/><line class="cls-17" x1="165.98" y1="75.64" x2="191.96" y2="75.64"/><line class="cls-12" x1="175.56" y1="66.72" x2="178.98" y2="67.43"/><line class="cls-12" x1="182.4" y1="66.72" x2="178.98" y2="67.43"/><line class="cls-12" x1="175.91" y1="63.33" x2="178.97" y2="64.66"/><line class="cls-12" x1="182.08" y1="63.33" x2="178.97" y2="64.66"/><line class="cls-12" x1="181.89" y1="60.71" x2="179.02" y2="61.35"/><line class="cls-12" x1="176.08" y1="60.28" x2="179.02" y2="61.35"/><line class="cls-12" x1="176.17" y1="57.24" x2="178.97" y2="58.12"/><line class="cls-12" x1="181.81" y1="57.24" x2="178.97" y2="58.12"/><line class="cls-12" x1="181.44" y1="54.5" x2="178.97" y2="55.04"/><line class="cls-12" x1="176.31" y1="54.41" x2="178.97" y2="55.04"/><line class="cls-12" x1="176.56" y1="50.49" x2="178.97" y2="50.49"/><line class="cls-12" x1="181.3" y1="50.49" x2="178.97" y2="50.49"/><line class="cls-12" x1="176.73" y1="47.94" x2="178.97" y2="47.94"/><line class="cls-12" x1="181.3" y1="47.94" x2="178.97" y2="47.94"/><line class="cls-12" x1="177.06" y1="43.52" x2="178.97" y2="43.52"/><line class="cls-12" x1="181.13" y1="43.52" x2="178.97" y2="43.52"/><line class="cls-12" x1="175.56" y1="66.72" x2="178.97" y2="71.25"/><line class="cls-12" x1="174.95" y1="71.18" x2="178.98" y2="67.43"/><line class="cls-12" x1="183.01" y1="71.23" x2="178.98" y2="67.43"/><line class="cls-12" x1="178.97" y1="71.25" x2="182.4" y2="66.72"/><line class="cls-12" x1="175.91" y1="63.33" x2="178.98" y2="67.43"/><line class="cls-12" x1="175.56" y1="66.72" x2="178.79" y2="64.58"/><line class="cls-12" x1="182.4" y1="66.72" x2="178.79" y2="64.58"/><line class="cls-12" x1="182.08" y1="63.33" x2="178.98" y2="67.43"/><line class="cls-12" x1="176.08" y1="60.28" x2="178.97" y2="64.66"/><line class="cls-12" x1="181.89" y1="60.71" x2="178.97" y2="64.66"/><line class="cls-12" x1="179.02" y1="61.35" x2="182.08" y2="63.33"/><line class="cls-12" x1="175.91" y1="63.33" x2="179.02" y2="61.35"/><line class="cls-12" x1="176.17" y1="57.24" x2="179.02" y2="61.35"/><line class="cls-12" x1="176.08" y1="60.28" x2="178.97" y2="58.12"/><line class="cls-12" x1="181.89" y1="60.71" x2="178.97" y2="58.12"/><line class="cls-12" x1="179.02" y1="61.35" x2="181.81" y2="57.24"/><line class="cls-12" x1="178.97" y1="54.87" x2="181.81" y2="57.3"/><line class="cls-12" x1="178.97" y1="58.12" x2="181.68" y2="54.45"/><line class="cls-12" x1="178.97" y1="54.87" x2="176.17" y2="57.24"/><line class="cls-12" x1="178.97" y1="58.12" x2="176.32" y2="54.34"/><line class="cls-12" x1="176.56" y1="50.49" x2="178.97" y2="54.87"/><line class="cls-12" x1="181.3" y1="50.49" x2="178.97" y2="54.87"/><line class="cls-12" x1="178.97" y1="50.49" x2="176.32" y2="54.34"/><line class="cls-12" x1="181.68" y1="54.51" x2="178.97" y2="50.49"/><line class="cls-12" x1="176.79" y1="47.94" x2="178.97" y2="50.49"/><line class="cls-12" x1="181.24" y1="47.94" x2="178.97" y2="50.49"/><line class="cls-12" x1="178.97" y1="47.94" x2="181.45" y2="50.41"/><line class="cls-12" x1="176.56" y1="50.49" x2="178.97" y2="47.94"/><line class="cls-12" x1="176.99" y1="43.52" x2="178.97" y2="47.94"/><line class="cls-12" x1="178.97" y1="43.46" x2="176.74" y2="47.79"/><line class="cls-12" x1="181.3" y1="47.94" x2="178.97" y2="43.52"/><line class="cls-12" x1="181" y1="43.52" x2="179.04" y2="47.94"/><line class="cls-12" x1="177.68" y1="35.89" x2="178.97" y2="43.29"/><line class="cls-12" x1="180.45" y1="35.89" x2="178.97" y2="43.29"/><rect class="cls-18" x="175.81" y="34.79" width="6.31" height="0.99"/><rect class="cls-18" x="176.52" y="31.46" width="5.22" height="0.82"/><rect class="cls-4" x="177.25" y="32.28" width="3.76" height="2.51"/><rect class="cls-7" x="177.25" y="32.86" width="3.76" height="0.41"/><rect class="cls-7" x="177.25" y="33.89" width="3.76" height="0.41"/><rect class="cls-19" x="178.16" y="19.38" width="1.93" height="12.08"/><line class="cls-20" x1="179.13" y1="19.38" x2="179.13" y2="13"/><g id="Pagoda"><polygon class="cls-6" points="88.79 108.92 100.39 108.92 97.11 110.63 91.88 110.63 88.79 108.92"/><rect class="cls-21" x="91.88" y="110.63" width="5.22" height="29.24"/><rect class="cls-6" x="94.49" y="110.63" width="2.61" height="29.24"/><rect class="cls-21" x="93.24" y="91.51" width="2.71" height="17.4"/><rect class="cls-6" x="94.59" y="91.51" width="1.35" height="17.4"/><polygon class="cls-6" points="45.93 108.92 57.54 108.92 54.25 110.63 49.03 110.63 45.93 108.92"/><rect class="cls-21" x="49.03" y="110.63" width="5.22" height="29.24"/><rect class="cls-6" x="51.64" y="110.63" width="2.61" height="29.24"/><rect class="cls-21" x="50.38" y="91.51" width="2.71" height="17.4"/><rect class="cls-6" x="51.74" y="91.51" width="1.35" height="17.4"/><polygon class="cls-21" points="39.03 98.86 39.03 100.95 42.35 100.95 42.35 103.52 103.97 103.52 103.97 100.95 107.13 100.95 107.13 98.86 39.03 98.86"/><polygon class="cls-6" points="73.08 98.86 73.08 103.52 103.97 103.52 103.97 100.95 107.13 100.95 107.13 98.86 73.08 98.86"/><rect class="cls-21" x="47.82" y="89.73" width="7.84" height="1.78"/><rect class="cls-21" x="90.67" y="89.73" width="7.84" height="1.78"/><rect class="cls-18" x="70.79" y="89.73" width="4.58" height="10.49"/><path class="cls-21" d="M73.08,85.31V90S43.9,92.93,31.81,86.08V83.33S46.55,85.31,73.08,85.31Z"/><path class="cls-22" d="M73.08,77.13v4.69s-44.36,3.09-56.46-3.76V76.42S30.55,77.76,47.82,78C55.87,78.06,58.9,78.61,73.08,77.13Z"/><path class="cls-23" d="M73.08,77.13v4.69s44.37,3.09,56.46-3.76V76.42S115.62,77.76,98.35,78C90.3,78.06,87.27,78.61,73.08,77.13Z"/><path class="cls-7" d="M73.05,81.62v3.7s-33.49,2.11-46.42-2.08l-.57-2S46.51,81.62,73.05,81.62Z"/><path class="cls-6" d="M73.08,85.31V90s29.19,2.93,41.28-3.92V83.33S99.62,85.31,73.08,85.31Z"/><path class="cls-18" d="M73.05,81.62v3.7s33.5,2.11,46.43-2.08l.57-2S99.59,81.62,73.05,81.62Z"/></g><rect class="cls-24" x="5.9" y="6" width="244.43" height="128.81"/></g><g id="Japan"><path class="cls-25" d="M16.27,42.85A7.87,7.87,0,0,0,19,42.5a2,2,0,0,0,1.23-1.27,9.23,9.23,0,0,0,.33-2.87V15.56h4.1V38.44a13.28,13.28,0,0,1-.55,4.25,4.13,4.13,0,0,1-2,2.35,8.33,8.33,0,0,1-3.93.77h-2Z"/><path class="cls-25" d="M68.21,15.9h4l6.33,29.56H74.62L73.26,38h-6l-1.43,7.44H61.92Zm4.5,19.16L70.22,21.74,67.77,35.06Z"/><path class="cls-25" d="M47.35,15.56H54.7q3.86,0,5.59,2.08C61.44,19,62,21.06,62,23.73a8,8,0,0,1-1.86,5.62,7,7,0,0,1-5.42,2H51.48V45.11H47.35Zm6,12.84a7.84,7.84,0,0,0,2.83-.4,2.57,2.57,0,0,0,1.45-1.39,7.23,7.23,0,0,0,.44-2.84,12.08,12.08,0,0,0-.33-3.32,2.33,2.33,0,0,0-1.3-1.5,8,8,0,0,0-3.06-.44H51.48V28.4Z"/><path class="cls-25" d="M34,15.56h4l6.34,29.55H40.43l-1.36-7.44H33l-1.42,7.44H27.73Zm4.51,19.15L36,21.4,33.58,34.71Z"/><path class="cls-25" d="M81.53,15.56h2.82l8.42,19.63V15.56h3.44V45.11H93.58L85.05,24.93V45.11H81.53Z"/><path class="cls-26" d="M16.42,44.59H13.83V40.42h.61A7.44,7.44,0,0,0,17,40.11a1.42,1.42,0,0,0,.88-.91,8.93,8.93,0,0,0,.29-2.66V13.12h5.32V36.61a14.24,14.24,0,0,1-.58,4.45,4.74,4.74,0,0,1-2.25,2.69A8.87,8.87,0,0,1,16.42,44.59Zm-1.37-1.22h1.37a7.77,7.77,0,0,0,3.64-.69,3.44,3.44,0,0,0,1.67-2,12.6,12.6,0,0,0,.52-4V14.34H19.37v22.2A9.77,9.77,0,0,1,19,39.6a2.66,2.66,0,0,1-1.59,1.65,7.28,7.28,0,0,1-2.37.37Z"/><path class="cls-26" d="M43.27,43.9H38.09l-1.35-7.45h-5L30.28,43.9H25.14L31.7,13.12h5Zm-4.16-1.22h2.65L35.69,14.34h-3l-6,28.34h2.62l1.43-7.44h7.05ZM37.43,33.5H31L34.2,16.23Zm-4.94-1.22H36l-1.75-9.36Z"/><path class="cls-26" d="M50.26,43.9H44.91V13.12h8c2.74,0,4.78.78,6.05,2.3a9.92,9.92,0,0,1,1.88,6.49,8.54,8.54,0,0,1-2,6,7.63,7.63,0,0,1-5.86,2.2H50.26Zm-4.13-1.22H49V28.92h3.87a6.5,6.5,0,0,0,5-1.81,7.37,7.37,0,0,0,1.7-5.2c0-2.52-.53-4.44-1.59-5.71s-2.76-1.86-5.12-1.86H46.13Zm5.43-15.5H49V16.08h2.55a8.4,8.4,0,0,1,3.31.49,2.93,2.93,0,0,1,1.63,1.87,12.54,12.54,0,0,1,.36,3.5A7.81,7.81,0,0,1,56.4,25a3.19,3.19,0,0,1-1.78,1.7A8.4,8.4,0,0,1,51.56,27.18ZM50.26,26h1.3a7.37,7.37,0,0,0,2.61-.36,2,2,0,0,0,1.11-1.07,6.63,6.63,0,0,0,.39-2.6,11.75,11.75,0,0,0-.3-3.14,1.76,1.76,0,0,0-1-1.12,7.57,7.57,0,0,0-2.81-.38H50.26Z"/><path class="cls-26" d="M77.46,43.9H72.28l-1.36-7.45h-5L64.47,43.9H59.33l6.56-30.78h5ZM73.3,42.68H76L69.88,14.34h-3l-6,28.34h2.62l1.43-7.44h7ZM71.62,33.5H65.21l3.18-17.27Zm-5-1.22h3.48L68.4,22.92Z"/><path class="cls-26" d="M95,43.9H91.34L83.83,26.12V43.9H79.09V13.12h3.84l7.4,17.27V13.12H95Zm-2.84-1.22h1.62V14.34H91.55v22l-9.43-22H80.31V42.68h2.3V20.1Z"/></g><g id="Chopper"><path class="cls-27" d="M78.89,128.06s-.36,3.78-2.84,4.13-7.93.35-8.76-1.42c-.36-1.06-.48-3.54.12-4s6.86-3.42,6.86-3.42l3.31,2.83Z"/><circle class="cls-28" cx="69.89" cy="128.53" r="0.83"/><circle class="cls-28" cx="75.81" cy="128.65" r="0.83"/><path class="cls-29" d="M73.68,129H72A.83.83,0,0,0,73.68,129Z"/><path class="cls-30" d="M74.63,130.42c0,.94-1.9.94-1.9,0,0,.83-2,1.06-2,0"/><path class="cls-31" d="M79.42,132.6v-3.54l2.37-3.77s2.6-11.21-7.34-11.21H71s-5.69.94-7,4.6-.83,7.79,1.78,9.91c.12,2.36.23,3.78.23,3.78.12.47.71.59.95-.24v-3.54s-1.77-1.53-1.3-2.12,6-2.72,6-2.72h2.48l5.45,2.6s-.24,1.77-1,1.89v4.36C78.71,133.19,79.18,133.31,79.42,132.6Z"/><ellipse class="cls-26" cx="78.29" cy="118.27" rx="0.3" ry="0.53" transform="translate(-45.64 49.29) rotate(-27.4)"/><ellipse class="cls-26" cx="76.05" cy="116.5" rx="0.3" ry="0.53" transform="translate(-63.06 118.79) rotate(-57.81)"/><ellipse class="cls-26" cx="72.79" cy="115.85" rx="0.53" ry="0.29"/><ellipse class="cls-26" cx="69.48" cy="116.44" rx="0.53" ry="0.3" transform="translate(-61.89 82.84) rotate(-44.83)"/><ellipse class="cls-26" cx="67.41" cy="118.27" rx="0.53" ry="0.3" transform="translate(-62.44 159.15) rotate(-77.8)"/><ellipse class="cls-26" cx="66.34" cy="120.86" rx="0.3" ry="0.53" transform="translate(-8.89 5.32) rotate(-4.31)"/><ellipse class="cls-26" cx="66.93" cy="123.81" rx="0.3" ry="0.53" transform="translate(-49.46 44.68) rotate(-27.4)"/><ellipse class="cls-26" cx="79.12" cy="120.75" rx="0.3" ry="0.53"/><ellipse class="cls-26" cx="78.53" cy="123.69" rx="0.53" ry="0.3" transform="translate(-64.92 153.51) rotate(-69.33)"/><path class="cls-26" d="M67.29,122.22c0,3,2.4,3.48,5.44,3.48s5.56-.45,5.56-3.48a5.5,5.5,0,0,0-11,0Z"/><ellipse class="cls-32" cx="72.73" cy="121.81" rx="4.56" ry="4.07"/><polygon class="cls-26" points="74.33 121.39 75.75 120.1 74.45 119.03 73.03 120.33 71.49 118.92 70.19 119.98 71.61 121.63 70.19 122.93 71.37 124.11 72.91 122.81 74.45 124.23 75.75 122.93 74.33 121.39"/><path class="cls-32" d="M72.91,123.4c-.47,0-6.16,1.39-7,2.52s.59,2.77,1.53,1.89c.83-.38,3.67-1.89,5.21-1.89s5.57,1.89,5.57,1.89c.47.25,2-1,1.42-1.89S72.91,123.4,72.91,123.4Z"/><path class="cls-33" d="M86.82,123.22c.35-.7.83-2,.35-2.36s-.83.12-.83.48-.23,1.65-.59,1.65c.24-.59.83-2,.59-2.36s-.59-.36-.71-.24-.35,1.89-.83,2.13c.24-.71,1-2.13.36-2.48s-.59.12-.59.23-.12,1.42-.36,1.54a.76.76,0,0,1-1.06-.12c0-.83.12-2.12-.12-2-.24-.11-.83-.23-.83.12a7.49,7.49,0,0,1,0,1.65c-.12.12-.24.48-.24-.59s0-1.29-.71-1.18c0,.36-.35,1.66.12,2.13s.59.71.48.94a3.21,3.21,0,0,1-2.13.71c-.12.12-.24.82.11.94s2.13-.12,2.84-1.18a4.75,4.75,0,0,0,2.37,1A2.84,2.84,0,0,0,86.82,123.22Z"/><path class="cls-33" d="M58.61,123.22c-.36-.7-.83-2-.36-2.36s.83.12.83.48.24,1.65.59,1.65c-.23-.59-.82-2-.59-2.36s.59-.36.71-.24.36,1.89.83,2.13c-.24-.71-.95-2.13-.35-2.48s.59.12.59.23.12,1.42.35,1.54a.77.77,0,0,0,1.07-.12c0-.83-.12-2.12.12-2,.23-.11.82-.23.82.12a8.16,8.16,0,0,0,0,1.65c.12.12.24.48.24-.59s0-1.29.71-1.18c0,.36.36,1.66-.12,2.13s-.59.71-.47.94a3.21,3.21,0,0,0,2.13.71c.12.12.24.82-.12.94s-2.13-.12-2.84-1.18a4.71,4.71,0,0,1-2.37,1A2.84,2.84,0,0,1,58.61,123.22Z"/><ellipse class="cls-34" cx="64.54" cy="123.78" rx="0.39" ry="0.29" transform="translate(-71.42 155.43) rotate(-75.57)"/><path class="cls-35" d="M82.32,125.7c-.36-.12-2-.47-2.13-.94-.36.11-1.07.7-.36,1.18s1.19.7,1.78.47A1.16,1.16,0,0,0,82.32,125.7Z"/><path class="cls-35" d="M63.2,125.56c.36-.08,2-.27,2.21-.72.34.15,1,.81.23,1.21s-1.25.58-1.81.28A1.1,1.1,0,0,1,63.2,125.56Z"/><path class="cls-27" d="M70.36,132.6c-1.47.48-4,1.26-4.56,2.32.69.15,1.81.42,1.72.78,1-.93,1.9-2.43,2.93-2.21Z"/><path class="cls-27" d="M75.25,132.83c1.46.48,4,1.26,4.55,2.33-.69.14-1.81.42-1.72.78-1-.93-1.9-2.44-2.93-2.22Z"/><polygon class="cls-36" points="75.45 132.54 76.76 135.73 68.83 135.73 69.89 132.54 75.45 132.54"/><path class="cls-37" d="M75.05,135.61h0a.21.21,0,0,0,.22-.22l-.11-2.52a.23.23,0,0,0-.24-.21h0a.23.23,0,0,0-.23.22l.11,2.53A.23.23,0,0,0,75.05,135.61Z"/><rect class="cls-37" x="71.67" y="132.66" width="0.47" height="2.95" rx="0.14" ry="0.14" transform="translate(143.81 268.27) rotate(180)"/><rect class="cls-37" x="70.01" y="132.66" width="0.47" height="2.95" rx="0.14" ry="0.14" transform="translate(140.49 268.27) rotate(180)"/><path class="cls-37" d="M73.38,132.66h0a.23.23,0,0,0-.23.22l.11,2.53a.23.23,0,0,0,.25.2h0a.21.21,0,0,0,.22-.22l-.11-2.52A.23.23,0,0,0,73.38,132.66Z"/><path class="cls-38" d="M76.52,135.73H69.06a13.78,13.78,0,0,1,1,1.89h1.66c.11-.83,2-1.06,2.25.12h1.3Z"/><circle class="cls-27" cx="74.63" cy="138.68" r="1.07"/><circle class="cls-27" cx="70.72" cy="138.68" r="1.07"/><ellipse class="cls-27" cx="79.12" cy="136.56" rx="1.42" ry="1.42"/><ellipse class="cls-27" cx="66.34" cy="135.97" rx="1.42" ry="1.42"/></g><g id="Flag"><rect id="Flag-2" data-name="Flag" class="cls-39" x="105.39" y="13.73" width="45.45" height="29.56"/><ellipse class="cls-19" cx="128.11" cy="28.86" rx="7.34" ry="7.31"/></g><g id="Flower"><g id="Flower-2" data-name="Flower"><path class="cls-40" d="M105,65.86l-.08-.12-.08,0a4.8,4.8,0,0,1-1,.29,2.55,2.55,0,0,1-.55,0,1.84,1.84,0,0,1-.65-.17,2.2,2.2,0,0,1-.44-.28,1.24,1.24,0,0,1-.34-.48.45.45,0,0,1,.1-.44.48.48,0,0,1,.3-.15h0s.05,0,0-.09l-.08-.09a.46.46,0,0,1,.15-.68,1.4,1.4,0,0,1,.6-.15,2.08,2.08,0,0,1,.78.15l.25.13s0,0,0,0a3.83,3.83,0,0,0,.66,1.16l.2.24h0l.09-.12a.63.63,0,0,1-.1-.12,3.88,3.88,0,0,1-.58-.87,1.75,1.75,0,0,1-.21-.67,1.86,1.86,0,0,1,.18-1,1,1,0,0,1,.28-.36.46.46,0,0,1,.69.12l0,.06a.06.06,0,0,0,.06,0,.07.07,0,0,0,0,0,.62.62,0,0,1,.11-.17.47.47,0,0,1,.68.05,1.37,1.37,0,0,1,.36.79,2.56,2.56,0,0,1,0,.39,1.44,1.44,0,0,1-.08.46,3,3,0,0,1-.36.72,4.37,4.37,0,0,1-.45.59v0l.09.11.07-.09a5.33,5.33,0,0,0,.59-.82,4.4,4.4,0,0,0,.21-.5s0,0,0,0a1.49,1.49,0,0,1,.57-.23,2,2,0,0,1,.49,0,1.25,1.25,0,0,1,.57.16.46.46,0,0,1,.24.36.44.44,0,0,1-.12.35l-.06.06a.05.05,0,0,0,0,.09l.15,0a.44.44,0,0,1,.29.38.47.47,0,0,1-.09.33,1.27,1.27,0,0,1-.44.45,2,2,0,0,1-.7.29l-.21,0h0a3.14,3.14,0,0,0-.46-.28,4.93,4.93,0,0,0-.73-.27l-.34-.09v.15l.22.06a4.35,4.35,0,0,1,1.05.42,2,2,0,0,1,.4.32,1.9,1.9,0,0,1,.26.37,1.82,1.82,0,0,1,.22.63,1,1,0,0,1,0,.45.45.45,0,0,1-.65.24l0,0a.06.06,0,0,0-.08.06s0,.07,0,.1a.46.46,0,0,1-.53.48,1.34,1.34,0,0,1-.67-.31,1.94,1.94,0,0,1-.51-.63v0s0-.07,0-.11a.53.53,0,0,1,0-.12,3.41,3.41,0,0,0,.1-.54,5.68,5.68,0,0,0,0-.59l0-.41v0l-.14,0c0,.06,0,.11,0,.17s0,.3,0,.45a3.06,3.06,0,0,1-.1.79,1.55,1.55,0,0,1-.27.6,1.91,1.91,0,0,1-.67.59,1,1,0,0,1-.46.12.46.46,0,0,1-.44-.4,1.09,1.09,0,0,1,0-.18.06.06,0,0,0-.09-.07.48.48,0,0,1-.2.07.45.45,0,0,1-.5-.37,1.4,1.4,0,0,1,.12-.83,2.08,2.08,0,0,1,.35-.54l.16-.15h0a3.13,3.13,0,0,0,1-.18l.53-.2Zm.53,0,.25.33a.15.15,0,0,0,0,.21.17.17,0,0,0,.19,0,.15.15,0,0,0,.07-.18c0-.09-.09-.12-.21-.1l-.24-.33h0a.33.33,0,0,0,.1-.3,0,0,0,0,1,0,0l.36-.12.08.06a.16.16,0,0,0,.15,0,.17.17,0,0,0,.07-.13.15.15,0,0,0-.15-.15.16.16,0,0,0-.16.15s0,0,0,0l-.1,0-.27.09v0a.35.35,0,0,0-.24-.17s0,0,0,0v-.38c.09,0,.14-.1.12-.17a.15.15,0,0,0-.14-.13.16.16,0,0,0-.16.11c0,.08,0,.14.12.19v.41a.36.36,0,0,0-.28.21l-.37-.13s0,0,0,0a.15.15,0,0,0-.28-.09.17.17,0,0,0,0,.21.15.15,0,0,0,.21,0s0,0,0,0l.35.11s0,0,0,0a.57.57,0,0,0,0,.13.3.3,0,0,0,.1.17l-.23.32h0a.15.15,0,0,0-.19.11.15.15,0,0,0,.11.18.16.16,0,0,0,.19-.11.17.17,0,0,0,0-.14c.07-.11.15-.21.23-.32s0,0,0,0l.13,0A.31.31,0,0,0,105.56,65.82Z"/><path class="cls-26" d="M105.56,65.82a.31.31,0,0,1-.19,0l-.13,0s0,0,0,0-.16.21-.23.32a.17.17,0,0,1,0,.14.16.16,0,0,1-.19.11.15.15,0,0,1-.11-.18.15.15,0,0,1,.19-.11h0l.23-.32a.3.3,0,0,1-.1-.17.57.57,0,0,1,0-.13s0,0,0,0l-.35-.11s0,0,0,0a.15.15,0,0,1-.21,0,.17.17,0,0,1,0-.21.15.15,0,0,1,.28.09s0,0,0,0l.37.13a.36.36,0,0,1,.28-.21v-.41c-.1,0-.14-.11-.12-.19a.16.16,0,0,1,.16-.11.15.15,0,0,1,.14.13c0,.07,0,.14-.12.17v.38s0,0,0,0a.35.35,0,0,1,.24.17v0l.27-.09.1,0s0,0,0,0a.16.16,0,0,1,.16-.15.15.15,0,0,1,.15.15.17.17,0,0,1-.07.13.16.16,0,0,1-.15,0l-.08-.06-.36.12a0,0,0,0,0,0,0,.33.33,0,0,1-.1.3h0l.24.33c.12,0,.18,0,.21.1a.15.15,0,0,1-.07.18.17.17,0,0,1-.19,0,.15.15,0,0,1,0-.21Z"/></g><g id="Flower-3" data-name="Flower"><path class="cls-40" d="M191.6,25.91l-.08-.12-.08,0a4.91,4.91,0,0,1-1,.3,2.45,2.45,0,0,1-.54,0,1.65,1.65,0,0,1-.65-.17,1.57,1.57,0,0,1-.44-.28,1,1,0,0,1-.34-.48.43.43,0,0,1,.1-.43.41.41,0,0,1,.29-.15h0a.05.05,0,0,0,0-.09l-.08-.09a.46.46,0,0,1,.15-.68,1.21,1.21,0,0,1,.6-.15,1.9,1.9,0,0,1,.78.15,1.19,1.19,0,0,1,.25.13,0,0,0,0,1,0,0,3.6,3.6,0,0,0,.66,1.16l.2.25h0l.09-.11-.1-.12a4.37,4.37,0,0,1-.59-.88,1.88,1.88,0,0,1,0-1.67,1.13,1.13,0,0,1,.28-.37.46.46,0,0,1,.69.13l0,.06a.07.07,0,0,0,.05,0,.07.07,0,0,0,.06,0,.46.46,0,0,1,.11-.16.43.43,0,0,1,.28-.13.51.51,0,0,1,.4.17,1.5,1.5,0,0,1,.36.8,2.36,2.36,0,0,1,0,.38,1.43,1.43,0,0,1-.07.46,2.7,2.7,0,0,1-.36.72,5.22,5.22,0,0,1-.45.6h0l.09.11.07-.08a4.75,4.75,0,0,0,.58-.83,3.06,3.06,0,0,0,.22-.49s0,0,0,0a1.65,1.65,0,0,1,.57-.22,1.57,1.57,0,0,1,.48-.05,1.18,1.18,0,0,1,.58.16.43.43,0,0,1,.23.36.42.42,0,0,1-.12.35l-.05.06s0,.07,0,.09a.8.8,0,0,1,.15,0,.45.45,0,0,1,.29.39.55.55,0,0,1-.09.33,1.45,1.45,0,0,1-.44.45,2,2,0,0,1-.71.29l-.2,0h0a3.35,3.35,0,0,0-.45-.27,4.66,4.66,0,0,0-.74-.27l-.34-.09v.15l.23.06a3.61,3.61,0,0,1,1,.42,2,2,0,0,1,.4.31,1.46,1.46,0,0,1,.27.38,1.75,1.75,0,0,1,.22.63,1.08,1.08,0,0,1,0,.44.48.48,0,0,1-.42.31.5.5,0,0,1-.24-.06l0,0s-.08,0-.08.06,0,.06,0,.1a.46.46,0,0,1-.53.48,1.35,1.35,0,0,1-.66-.31,2.09,2.09,0,0,1-.52-.63v0a.31.31,0,0,1-.05-.12.53.53,0,0,1,0-.12,3.1,3.1,0,0,0,.1-.53,3.88,3.88,0,0,0,0-.59c0-.14,0-.27,0-.41v0l-.13,0c0,.05,0,.11,0,.17s0,.29,0,.44a3.49,3.49,0,0,1-.1.79,1.63,1.63,0,0,1-.27.6,1.73,1.73,0,0,1-.67.59,1.09,1.09,0,0,1-.46.12.45.45,0,0,1-.44-.4.55.55,0,0,1,0-.18.07.07,0,0,0,0-.06s0,0-.07,0a.65.65,0,0,1-.21.07.47.47,0,0,1-.49-.37,1.39,1.39,0,0,1,.12-.83,1.93,1.93,0,0,1,.35-.54l.16-.15h0a3.4,3.4,0,0,0,1-.18l.53-.2Zm.53-.05.24.34a.15.15,0,0,0,.19.23.16.16,0,0,0,.07-.18c0-.08-.09-.11-.21-.09l-.24-.33h0a.34.34,0,0,0,.1-.3s0,0,0,0l.36-.12a.21.21,0,0,0,.08.06.12.12,0,0,0,.14,0,.12.12,0,0,0,.07-.13.15.15,0,1,0-.3,0s0,0,0,0l-.1,0-.27.08,0,0a.33.33,0,0,0-.23-.17s0,0,0,0v-.37a.17.17,0,0,0,.12-.18.16.16,0,0,0-.14-.13.16.16,0,0,0-.16.12c0,.08,0,.14.12.19v.41a.37.37,0,0,0-.28.2l-.38-.12s0,0,0,0a.16.16,0,0,0-.11-.14.15.15,0,0,0-.17.06.14.14,0,0,0,0,.2.15.15,0,0,0,.21,0s0,0,0,0l.35.12s0,0,0,0a.66.66,0,0,0,0,.14.33.33,0,0,0,.1.17l-.23.31s0,0,0,0a.16.16,0,1,0,.11.19.17.17,0,0,0,0-.15,3.71,3.71,0,0,0,.23-.32s0,0,0,0l.13,0A.32.32,0,0,0,192.13,25.86Z"/><path class="cls-26" d="M192.13,25.86a.32.32,0,0,1-.19.05l-.13,0s0,0,0,0a3.71,3.71,0,0,1-.23.32.17.17,0,0,1,0,.15.16.16,0,1,1-.11-.19s0,0,0,0l.23-.31a.33.33,0,0,1-.1-.17.66.66,0,0,1,0-.14s0,0,0,0l-.35-.12s0,0,0,0a.15.15,0,0,1-.21,0,.14.14,0,0,1,0-.2.15.15,0,0,1,.17-.06.16.16,0,0,1,.11.14s0,0,0,0l.38.12a.37.37,0,0,1,.28-.2v-.41c-.1,0-.14-.11-.12-.19a.16.16,0,0,1,.16-.12.16.16,0,0,1,.14.13.17.17,0,0,1-.12.18v.37s0,0,0,0a.33.33,0,0,1,.23.17l0,0,.27-.08.1,0s0,0,0,0a.15.15,0,1,1,.3,0,.12.12,0,0,1-.07.13.12.12,0,0,1-.14,0,.21.21,0,0,1-.08-.06l-.36.12s0,0,0,0a.34.34,0,0,1-.1.3h0l.24.33c.12,0,.18,0,.21.09a.16.16,0,0,1-.07.18.15.15,0,0,1-.19-.23Z"/></g><g id="Flower-4" data-name="Flower"><path class="cls-40" d="M160.7,97l0-.07-.05,0a2.79,2.79,0,0,1-.58.18,1.83,1.83,0,0,1-.33,0,1.26,1.26,0,0,1-.38-.1,1.24,1.24,0,0,1-.27-.17.66.66,0,0,1-.2-.29.24.24,0,0,1,.06-.25.27.27,0,0,1,.18-.1h0a0,0,0,0,0,0,0l-.05-.06a.27.27,0,0,1,.08-.4.8.8,0,0,1,.36-.09,1.09,1.09,0,0,1,.47.09l.15.07s0,0,0,0a2.24,2.24,0,0,0,.39.69l.13.15h0l.05-.07-.06-.07a3.15,3.15,0,0,1-.35-.52,1.15,1.15,0,0,1-.12-.4,1.13,1.13,0,0,1,.11-.6.6.6,0,0,1,.16-.22.28.28,0,0,1,.42.08v0s0,0,0,0,0,0,0,0a.31.31,0,0,1,.07-.09.25.25,0,0,1,.16-.08.27.27,0,0,1,.24.1.88.88,0,0,1,.22.48,1.69,1.69,0,0,1,0,.23,1.26,1.26,0,0,1,0,.27,2.14,2.14,0,0,1-.21.43c-.09.13-.18.24-.28.36h0l0,.07.05,0a2.69,2.69,0,0,0,.34-.49,1.94,1.94,0,0,0,.13-.3l0,0a.83.83,0,0,1,.34-.13.7.7,0,0,1,.29,0,.67.67,0,0,1,.34.09.26.26,0,0,1,.14.22.27.27,0,0,1-.07.21l0,0s0,0,0,0,.07,0,.09,0a.26.26,0,0,1,.18.23.27.27,0,0,1-.06.19.75.75,0,0,1-.26.27,1.28,1.28,0,0,1-.42.17l-.12,0h0l-.27-.16a2.6,2.6,0,0,0-.44-.16l-.21,0v.08l.14,0a2.24,2.24,0,0,1,.62.25.88.88,0,0,1,.24.19.89.89,0,0,1,.16.22,1,1,0,0,1,.13.38.57.57,0,0,1,0,.26.26.26,0,0,1-.25.18.35.35,0,0,1-.14,0h0s0,0,0,0a.13.13,0,0,0,0,.06.28.28,0,0,1-.32.29.78.78,0,0,1-.4-.19,1.19,1.19,0,0,1-.3-.37h0l0-.07s0,0,0-.08a1.7,1.7,0,0,0,.06-.31c0-.12,0-.24,0-.35s0-.17,0-.25h0L161,97v.1a2.44,2.44,0,0,1,0,.27,1.84,1.84,0,0,1-.06.47,1,1,0,0,1-.16.36,1.13,1.13,0,0,1-.4.35.68.68,0,0,1-.28.07.27.27,0,0,1-.26-.24.45.45,0,0,1,0-.11,0,0,0,0,0,0,0s0,0,0,0l-.13,0a.27.27,0,0,1-.29-.22.85.85,0,0,1,.07-.5,1.26,1.26,0,0,1,.21-.32l.09-.09h0a2.25,2.25,0,0,0,.63-.11l.31-.12Zm.32,0,.14.2a.1.1,0,0,0,0,.13.09.09,0,0,0,.12,0,.1.1,0,0,0,0-.1s-.06-.07-.13-.06l-.14-.19h0a.2.2,0,0,0,.06-.18v0l.22-.07,0,0a.06.06,0,0,0,.08,0,.08.08,0,0,0,.05-.07.11.11,0,0,0-.09-.09.1.1,0,0,0-.1.08s0,0,0,0l-.06,0-.16,0h0a.18.18,0,0,0-.14-.1s0,0,0,0v-.21h0a.11.11,0,0,0,.08-.11.1.1,0,0,0-.09-.07.09.09,0,0,0-.09.07s0,.08.07.11v.24a.24.24,0,0,0-.17.12l-.22-.07s0,0,0,0a.08.08,0,0,0-.07-.08.09.09,0,0,0-.1,0,.08.08,0,0,0,0,.12.09.09,0,0,0,.12,0s0,0,0,0l.21.07s0,0,0,0v.08a.17.17,0,0,0,.06.1c0,.07-.09.13-.13.19h0a.1.1,0,0,0-.11.06.09.09,0,0,0,.07.11.09.09,0,0,0,.11-.06.1.1,0,0,0,0-.09l.14-.19s0,0,0,0l.07,0A.14.14,0,0,0,161,96.92Z"/><path class="cls-26" d="M161,96.92a.14.14,0,0,1-.12,0l-.07,0s0,0,0,0l-.14.19a.1.1,0,0,1,0,.09.09.09,0,0,1-.11.06.09.09,0,0,1-.07-.11.1.1,0,0,1,.11-.06h0c0-.06.09-.12.13-.19a.17.17,0,0,1-.06-.1v-.08s0,0,0,0l-.21-.07s0,0,0,0a.09.09,0,0,1-.12,0,.08.08,0,0,1,0-.12.09.09,0,0,1,.1,0,.08.08,0,0,1,.07.08s0,0,0,0l.22.07a.24.24,0,0,1,.17-.12v-.24c-.06,0-.08-.07-.07-.11a.09.09,0,0,1,.09-.07.1.1,0,0,1,.09.07.11.11,0,0,1-.08.11h0v.21s0,0,0,0a.18.18,0,0,1,.14.1h0l.16,0,.06,0s0,0,0,0a.1.1,0,0,1,.1-.08.11.11,0,0,1,.09.09.08.08,0,0,1-.05.07.06.06,0,0,1-.08,0l0,0-.22.07v0a.2.2,0,0,1-.06.18h0l.14.19c.07,0,.11,0,.13.06a.1.1,0,0,1,0,.1.09.09,0,0,1-.12,0,.1.1,0,0,1,0-.13Z"/></g><g id="Flower-5" data-name="Flower"><path class="cls-40" d="M164.13,35.85l-.06-.09-.06,0a3.58,3.58,0,0,1-.77.23,1.56,1.56,0,0,1-.43,0,1.48,1.48,0,0,1-.51-.13,1.52,1.52,0,0,1-.34-.22.77.77,0,0,1-.26-.38.33.33,0,0,1,.07-.34.4.4,0,0,1,.23-.12h0s.05-.05,0-.07l-.06-.07a.35.35,0,0,1,.12-.53.94.94,0,0,1,.47-.12,1.62,1.62,0,0,1,.61.12.69.69,0,0,1,.19.1l0,0a3,3,0,0,0,.51.9l.16.2h0l.07-.09-.08-.09a3.46,3.46,0,0,1-.46-.69,1.5,1.5,0,0,1-.16-.52,1.54,1.54,0,0,1,.14-.79.89.89,0,0,1,.22-.29.36.36,0,0,1,.54.1l0,0s0,0,0,0,0,0,0,0a.34.34,0,0,1,.09-.12.3.3,0,0,1,.22-.1.36.36,0,0,1,.31.13,1.14,1.14,0,0,1,.28.62,1.51,1.51,0,0,1,0,.3,1,1,0,0,1-.06.36,2.16,2.16,0,0,1-.28.57,3.1,3.1,0,0,1-.35.46h0l.07.09.06-.06a4,4,0,0,0,.45-.65,2.2,2.2,0,0,0,.17-.39l0,0a1.69,1.69,0,0,1,.83-.21,1,1,0,0,1,.45.12.37.37,0,0,1,.19.29.39.39,0,0,1-.1.27l0,0s0,.07,0,.07l.12,0a.38.38,0,0,1,.23.31.45.45,0,0,1-.07.25,1.2,1.2,0,0,1-.35.36,1.76,1.76,0,0,1-.55.22L166,36h0a2.5,2.5,0,0,0-.35-.21,3.1,3.1,0,0,0-.58-.21l-.27-.07v.11l.18.05a3.43,3.43,0,0,1,.82.33,1.48,1.48,0,0,1,.31.25,1.27,1.27,0,0,1,.21.29,1.25,1.25,0,0,1,.17.49.82.82,0,0,1,0,.35.34.34,0,0,1-.5.19h0s-.06,0-.06,0,0,0,0,.08a.37.37,0,0,1-.42.38,1.05,1.05,0,0,1-.52-.25,1.6,1.6,0,0,1-.4-.49h0a.18.18,0,0,1,0-.09.3.3,0,0,1,0-.1,2.07,2.07,0,0,0,.08-.42,3.46,3.46,0,0,0,0-.46c0-.1,0-.21,0-.32h0l-.11,0s0,.08,0,.13,0,.23,0,.35a3.29,3.29,0,0,1-.08.62,1.28,1.28,0,0,1-.21.46,1.5,1.5,0,0,1-.53.47.87.87,0,0,1-.36.09.35.35,0,0,1-.34-.31.61.61,0,0,1,0-.14s0,0,0,0,0,0-.05,0l-.17,0a.35.35,0,0,1-.38-.29,1.12,1.12,0,0,1,.09-.65,1.88,1.88,0,0,1,.27-.42l.13-.12h0a2.58,2.58,0,0,0,.82-.15c.14,0,.27-.1.41-.15Zm.42,0,.19.26a.14.14,0,0,0,0,.17.12.12,0,0,0,.15,0,.11.11,0,0,0,.05-.14c0-.07-.07-.09-.16-.07l-.19-.26h0a.24.24,0,0,0,.08-.24l0,0,.28-.09s0,0,.07,0a.11.11,0,0,0,.11,0,.12.12,0,0,0,0-.1.12.12,0,0,0-.12-.12.13.13,0,0,0-.12.12s0,0,0,0l-.08,0-.21.07v0a.28.28,0,0,0-.19-.13s0,0,0,0V35a.11.11,0,0,0,.09-.13.11.11,0,0,0-.11-.1.1.1,0,0,0-.12.09c0,.06,0,.11.09.14v.33a.27.27,0,0,0-.22.15l-.29-.09s0,0,0,0a.12.12,0,0,0-.09-.11.11.11,0,0,0-.13,0,.11.11,0,0,0,0,.16.12.12,0,0,0,.17,0s0,0,0,0l.27.09s0,0,0,0v.1a.25.25,0,0,0,.08.14l-.18.24s0,0,0,0a.11.11,0,0,0-.14.09.11.11,0,0,0,.08.14.12.12,0,0,0,.15-.08.13.13,0,0,0,0-.12l.18-.25h0l.1,0A.21.21,0,0,0,164.55,35.81Z"/><path class="cls-26" d="M164.55,35.81a.21.21,0,0,1-.15,0l-.1,0h0l-.18.25a.13.13,0,0,1,0,.12.12.12,0,0,1-.15.08.11.11,0,0,1-.08-.14A.11.11,0,0,1,164,36s0,0,0,0l.18-.24a.25.25,0,0,1-.08-.14v-.1s0,0,0,0l-.27-.09s0,0,0,0a.12.12,0,0,1-.17,0,.11.11,0,0,1,0-.16.11.11,0,0,1,.13,0,.12.12,0,0,1,.09.11s0,0,0,0l.29.09a.27.27,0,0,1,.22-.15V35c-.08,0-.11-.08-.09-.14a.1.1,0,0,1,.12-.09.11.11,0,0,1,.11.1.11.11,0,0,1-.09.13v.3s0,0,0,0a.28.28,0,0,1,.19.13v0l.21-.07.08,0s0,0,0,0a.13.13,0,0,1,.12-.12.12.12,0,0,1,.12.12.12.12,0,0,1,0,.1.11.11,0,0,1-.11,0s0,0-.07,0l-.28.09,0,0a.24.24,0,0,1-.08.24h0l.19.26c.09,0,.14,0,.16.07a.11.11,0,0,1-.05.14.12.12,0,0,1-.15,0,.14.14,0,0,1,0-.17Z"/></g><g id="Flower-6" data-name="Flower"><path class="cls-40" d="M71.39,54.62l-.07-.09-.06,0a3.42,3.42,0,0,1-.77.23,1.53,1.53,0,0,1-.43,0,1.48,1.48,0,0,1-.5-.13,1.59,1.59,0,0,1-.35-.22.86.86,0,0,1-.26-.38.35.35,0,0,1,.07-.34.34.34,0,0,1,.23-.11h0a0,0,0,0,0,0-.07l-.07-.07a.35.35,0,0,1,.12-.53.94.94,0,0,1,.47-.12,1.62,1.62,0,0,1,.61.12.93.93,0,0,1,.2.1v0a2.79,2.79,0,0,0,.52.9l.16.2h0l.07-.09L71.32,54a3.56,3.56,0,0,1-.45-.69,1.32,1.32,0,0,1-.16-.52,1.44,1.44,0,0,1,.13-.79.88.88,0,0,1,.22-.28.35.35,0,0,1,.54.1l0,0s0,0,0,0,0,0,0,0a.54.54,0,0,1,.09-.12.37.37,0,0,1,.22-.1.36.36,0,0,1,.31.13,1.07,1.07,0,0,1,.28.62,3,3,0,0,1,0,.31,1,1,0,0,1-.07.35,2.48,2.48,0,0,1-.27.57,4.06,4.06,0,0,1-.36.46h0l.07.09.06-.06a4.79,4.79,0,0,0,.46-.65,2.66,2.66,0,0,0,.16-.39l0,0a1.19,1.19,0,0,1,.44-.17,1.26,1.26,0,0,1,.38,0A1,1,0,0,1,74,53a.36.36,0,0,1,.08.56l0,0s0,.07,0,.07a.53.53,0,0,0,.12,0,.36.36,0,0,1,.23.31.38.38,0,0,1-.07.25,1.2,1.2,0,0,1-.35.36,1.76,1.76,0,0,1-.55.22l-.16,0h0a2.5,2.5,0,0,0-.35-.21,3.1,3.1,0,0,0-.58-.21l-.26-.07v.12l.17,0a3.28,3.28,0,0,1,.82.33,1.48,1.48,0,0,1,.31.25,1.19,1.19,0,0,1,.21.29,1.25,1.25,0,0,1,.17.49.82.82,0,0,1,0,.35.37.37,0,0,1-.33.24.35.35,0,0,1-.18-.05h0s-.06,0-.06,0,0,.05,0,.08a.36.36,0,0,1-.41.38,1.08,1.08,0,0,1-.53-.25,1.49,1.49,0,0,1-.4-.49h0a.18.18,0,0,1,0-.09.38.38,0,0,1,0-.1,2,2,0,0,0,.07-.42,2.33,2.33,0,0,0,0-.46c0-.1,0-.21,0-.32h0l-.11,0s0,.09,0,.13,0,.23,0,.35a2.2,2.2,0,0,1-.08.62,1.13,1.13,0,0,1-.21.46,1.46,1.46,0,0,1-.52.47,1,1,0,0,1-.37.09.35.35,0,0,1-.34-.31.61.61,0,0,1,0-.14s0,0,0,0,0,0,0,0a.43.43,0,0,1-.16,0,.36.36,0,0,1-.39-.29,1,1,0,0,1,.1-.65,1.37,1.37,0,0,1,.27-.42l.12-.12h0a2.58,2.58,0,0,0,.82-.15l.42-.15Zm.41,0,.19.27a.12.12,0,0,0,.15.18.11.11,0,0,0,0-.14c0-.07-.07-.09-.16-.07l-.19-.26h0a.28.28,0,0,0,.08-.24,0,0,0,0,1,0,0l.29-.1.06,0a.11.11,0,0,0,.11,0,.11.11,0,0,0,.06-.1.13.13,0,0,0-.12-.12.12.12,0,0,0-.12.12l0,0-.08,0-.21.07v0a.27.27,0,0,0-.19-.13s0,0,0,0v-.3a.12.12,0,0,0,.1-.13.12.12,0,0,0-.11-.1.13.13,0,0,0-.13.09.13.13,0,0,0,.09.14v.33a.25.25,0,0,0-.21.16l-.3-.1s0,0,0,0A.12.12,0,0,0,71,54a.11.11,0,0,0-.13,0,.12.12,0,0,0,0,.16.11.11,0,0,0,.16,0s0,0,0,0l.28.09s0,0,0,0a.34.34,0,0,0,0,.1.23.23,0,0,0,.07.14l-.17.24s0,0,0,0a.12.12,0,0,0-.15.09.11.11,0,0,0,.08.14.12.12,0,0,0,.15-.08.13.13,0,0,0,0-.12l.18-.25s0,0,0,0l.1,0A.21.21,0,0,0,71.8,54.58Z"/><path class="cls-26" d="M71.8,54.58a.21.21,0,0,1-.15,0l-.1,0s0,0,0,0l-.18.25a.13.13,0,0,1,0,.12.12.12,0,0,1-.15.08.11.11,0,0,1-.08-.14.12.12,0,0,1,.15-.09s0,0,0,0l.17-.24a.23.23,0,0,1-.07-.14.34.34,0,0,1,0-.1s0,0,0,0l-.28-.09s0,0,0,0a.11.11,0,0,1-.16,0,.12.12,0,0,1,0-.16A.11.11,0,0,1,71,54a.12.12,0,0,1,.09.11s0,0,0,0l.3.1a.25.25,0,0,1,.21-.16v-.33a.13.13,0,0,1-.09-.14.13.13,0,0,1,.13-.09.12.12,0,0,1,.11.1.12.12,0,0,1-.1.13v.3s0,0,0,0a.27.27,0,0,1,.19.13v0l.21-.07.08,0,0,0a.12.12,0,0,1,.12-.12.13.13,0,0,1,.12.12.11.11,0,0,1-.06.1.11.11,0,0,1-.11,0l-.06,0-.29.1a0,0,0,0,0,0,0,.28.28,0,0,1-.08.24h0l.19.26c.09,0,.14,0,.16.07a.11.11,0,0,1,0,.14.12.12,0,0,1-.15-.18Z"/></g><g id="Flower-7" data-name="Flower"><path class="cls-40" d="M206.8,85.64l-.05-.06h0a2.76,2.76,0,0,1-.51.16,1.29,1.29,0,0,1-.28,0,.89.89,0,0,1-.33-.08,1.14,1.14,0,0,1-.23-.15.53.53,0,0,1-.17-.25.21.21,0,0,1,.05-.22.22.22,0,0,1,.15-.08h0s0,0,0,0l0-.05a.23.23,0,0,1,.08-.35.64.64,0,0,1,.31-.07.92.92,0,0,1,.4.07l.13.07h0a1.87,1.87,0,0,0,.34.6l.11.13h0l.05-.06-.06-.06a2.71,2.71,0,0,1-.3-.45,1,1,0,0,1-.1-.34,1,1,0,0,1,.09-.53.62.62,0,0,1,.14-.19.24.24,0,0,1,.36.07l0,0a0,0,0,0,0,0,0s0,0,0,0a.24.24,0,0,1,.06-.08.27.27,0,0,1,.14-.07.27.27,0,0,1,.21.09.81.81,0,0,1,.19.41,1.34,1.34,0,0,1,0,.2,1,1,0,0,1,0,.24,1.81,1.81,0,0,1-.18.37,2.34,2.34,0,0,1-.24.31h0l0,.06s0,0,0,0a3,3,0,0,0,.3-.43,1.19,1.19,0,0,0,.11-.26h0a.81.81,0,0,1,.29-.12.72.72,0,0,1,.25,0,.52.52,0,0,1,.3.08.23.23,0,0,1,.12.18.2.2,0,0,1-.06.18l0,0s0,0,0,0l.07,0a.23.23,0,0,1,.15.2.25.25,0,0,1,0,.17.72.72,0,0,1-.23.23,1,1,0,0,1-.36.15H208a1.09,1.09,0,0,0-.23-.14,2,2,0,0,0-.38-.14l-.18,0v.08l.12,0a1.81,1.81,0,0,1,.54.22.74.74,0,0,1,.2.16.85.85,0,0,1,.14.19.76.76,0,0,1,.11.33.6.6,0,0,1,0,.23.23.23,0,0,1-.22.15.25.25,0,0,1-.12,0l0,0s0,0,0,0v.06a.23.23,0,0,1-.27.24.63.63,0,0,1-.34-.16,1,1,0,0,1-.27-.32h0s0,0,0-.06a.14.14,0,0,1,0-.06,1.37,1.37,0,0,0,.05-.28,1.51,1.51,0,0,0,0-.3c0-.07,0-.14,0-.21v0l-.07,0v.09a2,2,0,0,1,0,.64.87.87,0,0,1-.14.31,1,1,0,0,1-.35.31.61.61,0,0,1-.24.06.24.24,0,0,1-.22-.21.27.27,0,0,1,0-.09s0,0,0,0h0a.24.24,0,0,1-.37-.15.72.72,0,0,1,.07-.43,1,1,0,0,1,.18-.28.27.27,0,0,1,.08-.07h0a2,2,0,0,0,.54-.09l.27-.11Zm.27,0,.13.18a.07.07,0,0,0,0,.1.07.07,0,0,0,.09,0,.09.09,0,0,0,0-.09s-.05-.06-.11,0l-.12-.17h0a.17.17,0,0,0,.05-.15v0l.19-.06,0,0s.05,0,.08,0a.09.09,0,0,0,0-.07.09.09,0,0,0-.08-.08s-.07,0-.08.08,0,0,0,0h-.05l-.14.05v0a.14.14,0,0,0-.12-.09s0,0,0,0v-.18h0s.07,0,.06-.09a.08.08,0,0,0-.07-.07s-.08,0-.08.06,0,.07.05.1v.21a.19.19,0,0,0-.14.11l-.19-.07s0,0,0,0a.07.07,0,0,0-.06-.07.08.08,0,0,0-.07.13.08.08,0,0,0,.11,0h0l.18.06s0,0,0,0v.07a.24.24,0,0,0,.06.09l-.12.16h0a.09.09,0,0,0-.1.06.1.1,0,0,0,.06.1.08.08,0,0,0,.09-.06.08.08,0,0,0,0-.07l.12-.17s0,0,0,0l.07,0A.17.17,0,0,0,207.07,85.61Z"/><path class="cls-26" d="M207.07,85.61a.17.17,0,0,1-.1,0l-.07,0s0,0,0,0l-.12.17a.08.08,0,0,1,0,.07.08.08,0,0,1-.09.06.1.1,0,0,1-.06-.1.09.09,0,0,1,.1-.06h0l.12-.16a.24.24,0,0,1-.06-.09v-.07s0,0,0,0l-.18-.06h0a.08.08,0,0,1-.11,0,.08.08,0,0,1,.07-.13.07.07,0,0,1,.06.07s0,0,0,0l.19.07a.19.19,0,0,1,.14-.11v-.21c-.05,0-.06-.06-.05-.1s0-.06.08-.06a.08.08,0,0,1,.07.07s0,.07-.06.09h0v.18s0,0,0,0a.14.14,0,0,1,.12.09v0l.14-.05h.05s0,0,0,0,0-.08.08-.08a.09.09,0,0,1,.08.08.09.09,0,0,1,0,.07s-.05,0-.08,0l0,0-.19.06v0a.17.17,0,0,1-.05.15h0l.12.17c.06,0,.09,0,.11,0a.09.09,0,0,1,0,.09.07.07,0,0,1-.09,0,.07.07,0,0,1,0-.1Z"/></g><g id="Flower-8" data-name="Flower"><path class="cls-40" d="M115.75,126.49l-.08-.11-.08,0a4.32,4.32,0,0,1-1,.29,2.46,2.46,0,0,1-.54,0,1.79,1.79,0,0,1-.65-.17,1.57,1.57,0,0,1-.44-.28,1.09,1.09,0,0,1-.34-.48.42.42,0,0,1,.1-.43.44.44,0,0,1,.29-.16h0a.05.05,0,0,0,0-.09L113,125a.46.46,0,0,1,.14-.68,1.16,1.16,0,0,1,.6-.15,1.77,1.77,0,0,1,.79.15,2,2,0,0,1,.25.13s0,0,0,0a3.71,3.71,0,0,0,.66,1.16l.2.24h0l.09-.11-.11-.12a4.79,4.79,0,0,1-.58-.88,1.94,1.94,0,0,1-.2-.66,1.85,1.85,0,0,1,.17-1,1,1,0,0,1,.28-.37.46.46,0,0,1,.69.13l0,.06s0,0,0,0,0,0,0,0a.48.48,0,0,1,.12-.16.43.43,0,0,1,.28-.13.48.48,0,0,1,.4.17,1.42,1.42,0,0,1,.35.79,2.56,2.56,0,0,1,0,.39,1.21,1.21,0,0,1-.08.46,2.82,2.82,0,0,1-.35.72,5.3,5.3,0,0,1-.46.6h0l.09.11.07-.08a4.75,4.75,0,0,0,.58-.83,2.21,2.21,0,0,0,.21-.5l0,0a1.88,1.88,0,0,1,1.06-.27,1.17,1.17,0,0,1,.58.15.43.43,0,0,1,.23.37.46.46,0,0,1-.12.35l-.05,0s0,.08,0,.09l.16,0a.45.45,0,0,1,.29.39.57.57,0,0,1-.09.33,1.45,1.45,0,0,1-.44.45,2,2,0,0,1-.71.29l-.2,0h0a2.56,2.56,0,0,0-.45-.27,4.11,4.11,0,0,0-.74-.27,3.37,3.37,0,0,0-.34-.09v.15l.23,0a3.94,3.94,0,0,1,1,.43,1.72,1.72,0,0,1,.4.31,1.74,1.74,0,0,1,.27.38,1.7,1.7,0,0,1,.22.62,1.15,1.15,0,0,1,0,.45.43.43,0,0,1-.42.3.46.46,0,0,1-.23,0l0,0a.05.05,0,0,0-.08.05s0,.07,0,.1a.45.45,0,0,1-.53.48,1.25,1.25,0,0,1-.67-.31,2,2,0,0,1-.51-.63h0a.56.56,0,0,1,0-.12.53.53,0,0,1,0-.12,3.41,3.41,0,0,0,.1-.54,3.75,3.75,0,0,0,0-.58c0-.14,0-.28,0-.41v0l-.14,0s0,.11,0,.16,0,.3,0,.45a3.49,3.49,0,0,1-.1.79,1.81,1.81,0,0,1-.27.6,1.91,1.91,0,0,1-.67.59,1.09,1.09,0,0,1-.47.12.45.45,0,0,1-.43-.4.55.55,0,0,1,0-.18s0-.05,0-.06a0,0,0,0,0-.07,0,.74.74,0,0,1-.21.07.47.47,0,0,1-.49-.38,1.36,1.36,0,0,1,.12-.82,2.15,2.15,0,0,1,.34-.54,1.22,1.22,0,0,1,.17-.15h0a3.4,3.4,0,0,0,1-.18l.53-.2Zm.53,0,.24.33a.17.17,0,0,0,0,.21.15.15,0,0,0,.19,0,.16.16,0,0,0,.07-.18q0-.12-.21-.09l-.24-.33h0a.37.37,0,0,0,.11-.31v0l.37-.12s.05.05.08.06a.12.12,0,0,0,.14,0,.14.14,0,0,0,.07-.13.15.15,0,0,0-.15-.15.15.15,0,0,0-.15.15,0,0,0,0,1,0,0l-.1,0-.26.09,0,0a.33.33,0,0,0-.24-.17s0,0,0,0,0-.23,0-.35v0a.15.15,0,0,0,.12-.17.15.15,0,0,0-.14-.13.16.16,0,0,0-.16.12c0,.08,0,.14.11.18v.42a.3.3,0,0,0-.27.2l-.38-.12s0,0,0,0a.14.14,0,0,0-.11-.14.13.13,0,0,0-.16.06.14.14,0,0,0,0,.2.16.16,0,0,0,.21,0s0,0,0,0l.36.12s0,0,0,0v.13a.34.34,0,0,0,.11.17c-.08.11-.16.21-.23.32s0,0,0,0a.16.16,0,0,0-.19.11.15.15,0,0,0,.11.18.14.14,0,0,0,.18-.1.16.16,0,0,0,0-.15c.08-.11.16-.21.23-.32h0a.5.5,0,0,0,.13,0A.33.33,0,0,0,116.28,126.45Z"/><path class="cls-26" d="M116.28,126.45a.33.33,0,0,1-.19,0,.5.5,0,0,1-.13,0h0c-.07.11-.15.21-.23.32a.16.16,0,0,1,0,.15.14.14,0,0,1-.18.1.15.15,0,0,1-.11-.18.16.16,0,0,1,.19-.11s0,0,0,0,.15-.21.23-.32a.34.34,0,0,1-.11-.17v-.13s0,0,0,0l-.36-.12s0,0,0,0a.16.16,0,0,1-.21,0,.14.14,0,0,1,0-.2.13.13,0,0,1,.16-.06.14.14,0,0,1,.11.14s0,0,0,0l.38.12a.3.3,0,0,1,.27-.2v-.42c-.09,0-.13-.1-.11-.18a.16.16,0,0,1,.16-.12.15.15,0,0,1,.14.13.15.15,0,0,1-.12.17v0c0,.12,0,.24,0,.35s0,0,0,0a.33.33,0,0,1,.24.17l0,0,.26-.09.1,0a0,0,0,0,0,0,0,.15.15,0,0,1,.15-.15.15.15,0,0,1,.15.15.14.14,0,0,1-.07.13.12.12,0,0,1-.14,0s-.05,0-.08-.06l-.37.12v0a.37.37,0,0,1-.11.31h0l.24.33q.17,0,.21.09a.16.16,0,0,1-.07.18.15.15,0,0,1-.19,0,.17.17,0,0,1,0-.21Z"/></g><g id="Flower-9" data-name="Flower"><path class="cls-40" d="M143.83,64.37l-.06-.09-.07,0a4,4,0,0,1-.77.23,2,2,0,0,1-.42,0,1.28,1.28,0,0,1-.51-.13,1.33,1.33,0,0,1-.34-.22.83.83,0,0,1-.27-.37.33.33,0,0,1,.08-.34.35.35,0,0,1,.23-.12h0a0,0,0,0,0,0-.07l-.06-.07a.35.35,0,0,1,.11-.53,1,1,0,0,1,.47-.12,1.58,1.58,0,0,1,.61.12l.2.1v0a3,3,0,0,0,.52.91c0,.06.11.12.16.19h0l.06-.08-.08-.1a3.56,3.56,0,0,1-.45-.69,1.32,1.32,0,0,1-.16-.51,1.58,1.58,0,0,1,.13-.8.89.89,0,0,1,.23-.28.36.36,0,0,1,.54.1l0,0s0,0,0,0a.06.06,0,0,0,0,0,.57.57,0,0,1,.08-.13.4.4,0,0,1,.22-.1.39.39,0,0,1,.32.13,1.21,1.21,0,0,1,.28.62c0,.1,0,.21,0,.31a1.51,1.51,0,0,1-.06.36,2.93,2.93,0,0,1-.28.56,5.32,5.32,0,0,1-.36.47h0l.07.08.05-.06a3.65,3.65,0,0,0,.46-.65,2.3,2.3,0,0,0,.17-.39,0,0,0,0,1,0,0,1.25,1.25,0,0,1,.45-.18,1.58,1.58,0,0,1,.38,0,1,1,0,0,1,.45.12.35.35,0,0,1,.18.29.32.32,0,0,1-.09.27l-.05.05a0,0,0,0,0,0,.07.42.42,0,0,1,.12,0,.32.32,0,0,1,.23.3.41.41,0,0,1-.07.26,1,1,0,0,1-.34.35,1.45,1.45,0,0,1-.55.22.5.5,0,0,1-.17,0h0a1.65,1.65,0,0,0-.36-.22,3.9,3.9,0,0,0-.57-.21l-.27-.07v.12l.18,0a3.36,3.36,0,0,1,.81.33,1.54,1.54,0,0,1,.32.25,1.94,1.94,0,0,1,.21.29,1.51,1.51,0,0,1,.17.49.82.82,0,0,1,0,.35.35.35,0,0,1-.33.24.39.39,0,0,1-.18,0l0,0a.05.05,0,0,0-.07,0,.17.17,0,0,1,0,.07.36.36,0,0,1-.41.38,1.08,1.08,0,0,1-.52-.24,1.39,1.39,0,0,1-.4-.5h0l0-.09a.54.54,0,0,1,0-.1,2.7,2.7,0,0,0,.08-.41,3.57,3.57,0,0,0,0-.46c0-.11,0-.22,0-.32v0l-.11,0a.57.57,0,0,1,0,.13c0,.12,0,.23,0,.35a2.56,2.56,0,0,1-.07.62,1.35,1.35,0,0,1-.22.47,1.44,1.44,0,0,1-.52.46.8.8,0,0,1-.36.09.36.36,0,0,1-.35-.31s0-.09,0-.14a.07.07,0,0,0,0,0,.06.06,0,0,0-.06,0,.3.3,0,0,1-.16,0,.37.37,0,0,1-.39-.29,1.09,1.09,0,0,1,.1-.64,1.51,1.51,0,0,1,.27-.42.74.74,0,0,1,.13-.12h0a2.82,2.82,0,0,0,.82-.14l.42-.16Zm.42,0,.19.26a.11.11,0,0,0,0,.16.12.12,0,0,0,.15,0,.12.12,0,1,0-.11-.21l-.19-.26h0a.27.27,0,0,0,.08-.23v0l.29-.09.06,0a.09.09,0,0,0,.11,0,.1.1,0,0,0,.06-.1.12.12,0,0,0-.12-.11.11.11,0,0,0-.12.11s0,0,0,0l-.08,0-.21.07v0a.25.25,0,0,0-.18-.14,0,0,0,0,1,0,0v-.29c.08,0,.11-.08.1-.14a.13.13,0,0,0-.11-.1.12.12,0,0,0-.12.09q0,.09.09.15v.32a.25.25,0,0,0-.22.16l-.29-.1s0,0,0,0a.11.11,0,0,0-.08-.11.1.1,0,0,0-.13,0,.11.11,0,1,0,.18.14s0,0,0,0l.28.09s0,0,0,0a.41.41,0,0,0,0,.11.26.26,0,0,0,.08.13l-.18.25h0a.13.13,0,0,0-.15.09.12.12,0,0,0,.09.14.11.11,0,0,0,.14-.08.14.14,0,0,0,0-.11l.18-.25s0,0,0,0l.1,0A.29.29,0,0,0,144.25,64.34Z"/><path class="cls-26" d="M144.25,64.34a.29.29,0,0,1-.16,0l-.1,0s0,0,0,0l-.18.25a.14.14,0,0,1,0,.11.11.11,0,0,1-.14.08.12.12,0,0,1-.09-.14.13.13,0,0,1,.15-.09h0l.18-.25a.26.26,0,0,1-.08-.13.41.41,0,0,1,0-.11s0,0,0,0l-.28-.09s0,0,0,0a.11.11,0,1,1-.18-.14.1.1,0,0,1,.13,0,.11.11,0,0,1,.08.11s0,0,0,0l.29.1a.25.25,0,0,1,.22-.16v-.32q-.12-.06-.09-.15a.12.12,0,0,1,.12-.09.13.13,0,0,1,.11.1c0,.06,0,.11-.1.14v.29a0,0,0,0,0,0,0,.25.25,0,0,1,.18.14v0l.21-.07.08,0s0,0,0,0a.11.11,0,0,1,.12-.11.12.12,0,0,1,.12.11.1.1,0,0,1-.06.1.09.09,0,0,1-.11,0l-.06,0-.29.09v0a.27.27,0,0,1-.08.23h0l.19.26a.12.12,0,1,1,.11.21.12.12,0,0,1-.15,0,.11.11,0,0,1,0-.16Z"/></g><g id="Flower-10" data-name="Flower"><path class="cls-40" d="M24.41,109.2l-.06-.09-.07,0a3,3,0,0,1-.77.23,1.49,1.49,0,0,1-.42,0,1.28,1.28,0,0,1-.51-.13,1.52,1.52,0,0,1-.34-.22.83.83,0,0,1-.27-.37.33.33,0,0,1,.08-.34.35.35,0,0,1,.23-.12h0a0,0,0,0,0,0-.07l-.06-.07a.35.35,0,0,1,.11-.53,1,1,0,0,1,.47-.12,1.58,1.58,0,0,1,.61.12l.2.1s0,0,0,0a2.73,2.73,0,0,0,.51.91c0,.06.11.12.16.19h0l.06-.09-.08-.09a3.56,3.56,0,0,1-.45-.69,1.52,1.52,0,0,1-.16-.51,1.47,1.47,0,0,1,.14-.8.74.74,0,0,1,.22-.28.35.35,0,0,1,.54.1.08.08,0,0,0,0,0s0,0,.05,0,0,0,0,0a.41.41,0,0,1,.08-.13.4.4,0,0,1,.22-.1.39.39,0,0,1,.32.13,1.21,1.21,0,0,1,.28.62c0,.1,0,.21,0,.31a1.35,1.35,0,0,1-.06.35,2.32,2.32,0,0,1-.28.57,5.32,5.32,0,0,1-.36.47h0l.07.09,0-.06a3.65,3.65,0,0,0,.46-.65,2.3,2.3,0,0,0,.17-.39,0,0,0,0,1,0,0,1.25,1.25,0,0,1,.45-.18,1.58,1.58,0,0,1,.38,0,1,1,0,0,1,.45.12.35.35,0,0,1,.18.29.34.34,0,0,1-.09.27l0,0s0,.06,0,.07a.45.45,0,0,1,.11,0,.32.32,0,0,1,.23.3.37.37,0,0,1-.07.25,1,1,0,0,1-.34.36,1.63,1.63,0,0,1-.55.22l-.16,0h0a2.12,2.12,0,0,0-.36-.21,3,3,0,0,0-.57-.21l-.27-.07V109l.18,0a3.36,3.36,0,0,1,.81.33,1.54,1.54,0,0,1,.32.25,1.94,1.94,0,0,1,.21.29,1.51,1.51,0,0,1,.17.49.82.82,0,0,1,0,.35.35.35,0,0,1-.33.24.39.39,0,0,1-.18,0l0,0s-.07,0-.06,0v.08a.36.36,0,0,1-.41.38,1.08,1.08,0,0,1-.52-.24,1.39,1.39,0,0,1-.4-.5h0l0-.09a.38.38,0,0,1,0-.1,2.61,2.61,0,0,0,.08-.42,3.38,3.38,0,0,0,0-.45c0-.11,0-.22,0-.33h0l-.11,0a.57.57,0,0,1,0,.13c0,.12,0,.23,0,.35a2.56,2.56,0,0,1-.07.62,1.35,1.35,0,0,1-.22.47,1.44,1.44,0,0,1-.52.46.77.77,0,0,1-.36.09.35.35,0,0,1-.34-.31.66.66,0,0,1,0-.14.07.07,0,0,0,0,0h-.06a.3.3,0,0,1-.16,0,.35.35,0,0,1-.38-.29,1,1,0,0,1,.09-.64,1.73,1.73,0,0,1,.27-.43.69.69,0,0,1,.13-.11h0a2.82,2.82,0,0,0,.82-.14l.42-.16Zm.42,0,.19.26a.11.11,0,0,0,0,.16.12.12,0,0,0,.15,0,.12.12,0,1,0-.11-.21l-.19-.26h0a.25.25,0,0,0,.08-.23,0,0,0,0,1,0,0l.29-.1.06,0a.09.09,0,0,0,.11,0,.11.11,0,0,0,.06-.1.14.14,0,0,0-.12-.12.12.12,0,0,0-.12.12s0,0,0,0l-.08,0-.21.07v0a.25.25,0,0,0-.18-.14,0,0,0,0,1,0,0v-.29c.08,0,.11-.08.1-.14a.12.12,0,0,0-.11-.1.11.11,0,0,0-.12.09q0,.09.09.15v.32a.25.25,0,0,0-.22.16l-.29-.1s0,0,0,0a.12.12,0,0,0-.21-.07.12.12,0,0,0,0,.17.11.11,0,0,0,.16,0s0,0,0,0,.19.06.28.09a0,0,0,0,1,0,0,.45.45,0,0,0,0,.11.26.26,0,0,0,.08.13l-.18.25a0,0,0,0,1,0,0,.13.13,0,0,0-.15.09.12.12,0,0,0,.09.14.11.11,0,0,0,.14-.08.14.14,0,0,0,0-.11l.18-.25s0,0,0,0l.11,0A.27.27,0,0,0,24.83,109.17Z"/><path class="cls-26" d="M24.83,109.17a.27.27,0,0,1-.15,0l-.11,0s0,0,0,0l-.18.25a.14.14,0,0,1,0,.11.11.11,0,0,1-.14.08.12.12,0,0,1-.09-.14.13.13,0,0,1,.15-.09,0,0,0,0,0,0,0l.18-.25a.26.26,0,0,1-.08-.13.45.45,0,0,1,0-.11,0,0,0,0,0,0,0c-.09,0-.19-.05-.28-.09s0,0,0,0a.11.11,0,0,1-.16,0,.12.12,0,0,1,0-.17.12.12,0,0,1,.21.07s0,0,0,0l.29.1a.25.25,0,0,1,.22-.16v-.32q-.12-.06-.09-.15a.11.11,0,0,1,.12-.09.12.12,0,0,1,.11.1c0,.06,0,.11-.1.14v.29a0,0,0,0,0,0,0,.25.25,0,0,1,.18.14v0l.21-.07.08,0s0,0,0,0a.12.12,0,0,1,.12-.12.14.14,0,0,1,.12.12.11.11,0,0,1-.06.1.09.09,0,0,1-.11,0l-.06,0-.29.1a0,0,0,0,0,0,0,.25.25,0,0,1-.08.23h0l.19.26a.12.12,0,1,1,.11.21.12.12,0,0,1-.15,0,.11.11,0,0,1,0-.16Z"/></g><g id="Flower-11" data-name="Flower"><path class="cls-40" d="M53.9,72.71l-.09-.12-.08,0a4.1,4.1,0,0,1-1,.29,2,2,0,0,1-.55,0,1.79,1.79,0,0,1-.64-.17,1.57,1.57,0,0,1-.44-.28,1,1,0,0,1-.34-.48.42.42,0,0,1,.09-.43.49.49,0,0,1,.3-.16h0a.05.05,0,0,0,0-.09l-.08-.09a.46.46,0,0,1,.14-.68,1.27,1.27,0,0,1,.6-.15,2,2,0,0,1,.79.15,2,2,0,0,1,.25.13l0,0a3.69,3.69,0,0,0,.65,1.16l.21.25h0l.08-.11-.1-.12a4.32,4.32,0,0,1-.58-.88,1.94,1.94,0,0,1-.2-.66,1.85,1.85,0,0,1,.17-1,1.13,1.13,0,0,1,.28-.37.46.46,0,0,1,.69.13l0,.06s0,0,.06,0,0,0,.05,0a.48.48,0,0,1,.12-.16.41.41,0,0,1,.28-.13.48.48,0,0,1,.4.17,1.49,1.49,0,0,1,.35.79,2.56,2.56,0,0,1,0,.39,1.44,1.44,0,0,1-.08.46,2.82,2.82,0,0,1-.35.72,5.3,5.3,0,0,1-.46.6h0l.08.11a.6.6,0,0,0,.08-.08,4.75,4.75,0,0,0,.58-.83,2.33,2.33,0,0,0,.21-.49l0,0a1.88,1.88,0,0,1,1.06-.27,1.28,1.28,0,0,1,.58.15.44.44,0,0,1,.23.37.46.46,0,0,1-.12.35s0,0,0,0,0,.08,0,.09l.16,0a.45.45,0,0,1,.29.39.55.55,0,0,1-.09.33,1.38,1.38,0,0,1-.45.45,2,2,0,0,1-.7.29l-.2,0h0a2.56,2.56,0,0,0-.45-.27,4.11,4.11,0,0,0-.74-.27l-.34-.09v.15l.23.05a4.08,4.08,0,0,1,1,.43,1.72,1.72,0,0,1,.4.31,1.74,1.74,0,0,1,.27.38,1.52,1.52,0,0,1,.21.62,1,1,0,0,1,0,.45.44.44,0,0,1-.42.3.46.46,0,0,1-.23,0l0,0a.05.05,0,0,0-.08,0s0,.07,0,.1a.46.46,0,0,1-.53.49,1.42,1.42,0,0,1-.67-.31,2,2,0,0,1-.51-.64h0a.56.56,0,0,1,0-.12s0-.08,0-.12a3.22,3.22,0,0,0,.1-.54,5.62,5.62,0,0,0,0-.58c0-.14,0-.28,0-.41a0,0,0,0,0,0,0l-.14,0a.91.91,0,0,1,0,.17c0,.14,0,.29,0,.44a3.49,3.49,0,0,1-.1.79,1.81,1.81,0,0,1-.27.6,1.9,1.9,0,0,1-.67.59,1.09,1.09,0,0,1-.47.12.44.44,0,0,1-.43-.4.55.55,0,0,1,0-.18.11.11,0,0,0,0-.06s0,0-.07,0a.74.74,0,0,1-.21.07.47.47,0,0,1-.49-.37,1.32,1.32,0,0,1,.12-.83,1.9,1.9,0,0,1,.34-.54,1.22,1.22,0,0,1,.17-.15s0,0,0,0a3.4,3.4,0,0,0,1.05-.18l.53-.2Zm.53,0,.24.33a.17.17,0,0,0,0,.21.15.15,0,0,0,.19,0,.16.16,0,0,0,.07-.18q0-.12-.21-.09l-.24-.33h0a.36.36,0,0,0,.11-.3v0l.37-.12s.05,0,.08.06a.12.12,0,0,0,.14,0,.14.14,0,0,0,.07-.13.15.15,0,0,0-.15-.15.15.15,0,0,0-.15.15,0,0,0,0,1,0,0l-.1,0-.26.09,0,0a.33.33,0,0,0-.24-.17s0,0,0,0v-.37c.1,0,.14-.1.13-.18a.18.18,0,0,0-.14-.13.16.16,0,0,0-.16.12c0,.08,0,.14.11.19V72a.3.3,0,0,0-.27.2l-.38-.12,0,0a.14.14,0,0,0-.11-.14.13.13,0,0,0-.16.06.14.14,0,0,0,0,.2.14.14,0,0,0,.2,0s0,0,0,0l.36.12s0,0,0,0a.29.29,0,0,0,0,.13.32.32,0,0,0,.1.17l-.22.32s0,0,0,0a.16.16,0,0,0-.19.11.15.15,0,0,0,.11.18.14.14,0,0,0,.18-.1.16.16,0,0,0,0-.15c.08-.1.15-.21.23-.32s0,0,0,0l.13,0A.34.34,0,0,0,54.43,72.66Z"/><path class="cls-26" d="M54.43,72.66a.34.34,0,0,1-.2,0l-.13,0s0,0,0,0-.15.22-.23.32a.16.16,0,0,1,0,.15.14.14,0,0,1-.18.1.15.15,0,0,1-.11-.18.16.16,0,0,1,.19-.11s0,0,0,0l.22-.32a.32.32,0,0,1-.1-.17.29.29,0,0,1,0-.13s0,0,0,0l-.36-.12s0,0,0,0a.14.14,0,0,1-.2,0,.14.14,0,0,1,0-.2.13.13,0,0,1,.16-.06.14.14,0,0,1,.11.14l0,0,.38.12a.3.3,0,0,1,.27-.2v-.41c-.09,0-.13-.11-.11-.19a.16.16,0,0,1,.16-.12.18.18,0,0,1,.14.13c0,.08,0,.14-.13.18V72s0,0,0,0a.33.33,0,0,1,.24.17l0,0,.26-.09.1,0a0,0,0,0,0,0,0,.15.15,0,0,1,.15-.15.15.15,0,0,1,.15.15.14.14,0,0,1-.07.13.12.12,0,0,1-.14,0s0,0-.08-.06l-.37.12v0a.36.36,0,0,1-.11.3h0l.24.33q.16,0,.21.09a.16.16,0,0,1-.07.18.15.15,0,0,1-.19,0,.17.17,0,0,1,0-.21Z"/></g><g id="Flower-12" data-name="Flower"><path class="cls-40" d="M196.33,61.22l-.08-.12-.08,0a4.89,4.89,0,0,1-1,.29,2.46,2.46,0,0,1-.54,0,1.79,1.79,0,0,1-.65-.17,2.2,2.2,0,0,1-.44-.28,1.15,1.15,0,0,1-.34-.48.45.45,0,0,1,.1-.44.46.46,0,0,1,.29-.15h0a.05.05,0,0,0,0-.09.34.34,0,0,1-.08-.09.46.46,0,0,1,.15-.68,1.33,1.33,0,0,1,.6-.15,2.08,2.08,0,0,1,.78.15l.25.13s0,0,0,0a3.83,3.83,0,0,0,.66,1.16l.2.24h0l.09-.11a.64.64,0,0,1-.1-.13,4.3,4.3,0,0,1-.59-.87,1.94,1.94,0,0,1-.2-.66,2,2,0,0,1,.17-1,1.09,1.09,0,0,1,.28-.36.45.45,0,0,1,.69.13.09.09,0,0,1,0,.06.07.07,0,0,0,.05,0,.07.07,0,0,0,.06,0,.62.62,0,0,1,.11-.17.47.47,0,0,1,.68,0,1.44,1.44,0,0,1,.36.79,2.55,2.55,0,0,1,0,.39,1.43,1.43,0,0,1-.07.46,3.46,3.46,0,0,1-.36.72,5.22,5.22,0,0,1-.45.6h0l.09.11.07-.08a4.75,4.75,0,0,0,.58-.83,3.16,3.16,0,0,0,.22-.5s0,0,0,0a1.67,1.67,0,0,1,.57-.23,2.61,2.61,0,0,1,.48,0,1.29,1.29,0,0,1,.58.16.43.43,0,0,1,.23.36.4.4,0,0,1-.12.35l0,.06a.05.05,0,0,0,0,.09l.15,0a.45.45,0,0,1,.29.39.52.52,0,0,1-.09.32,1.27,1.27,0,0,1-.44.45,2,2,0,0,1-.71.29,1.2,1.2,0,0,1-.2,0h0a2.07,2.07,0,0,0-.45-.27,4.16,4.16,0,0,0-.74-.28l-.34-.08V61l.23.06a4.28,4.28,0,0,1,1,.42,1.76,1.76,0,0,1,.4.32,1.46,1.46,0,0,1,.27.38,1.7,1.7,0,0,1,.22.62,1.37,1.37,0,0,1,0,.45.47.47,0,0,1-.42.3.64.64,0,0,1-.24-.05l0,0a.06.06,0,0,0-.08.06s0,.07,0,.1a.45.45,0,0,1-.53.48,1.19,1.19,0,0,1-.66-.31,1.87,1.87,0,0,1-.52-.63v0a.22.22,0,0,1,0-.11.53.53,0,0,1,0-.12,3.41,3.41,0,0,0,.1-.54,3.75,3.75,0,0,0,0-.58c0-.14,0-.28,0-.42a0,0,0,0,1,0,0l-.13,0c0,.06,0,.12,0,.17s0,.3,0,.45a3.56,3.56,0,0,1-.1.79,1.71,1.71,0,0,1-.27.6,1.91,1.91,0,0,1-.67.59,1.09,1.09,0,0,1-.46.12.46.46,0,0,1-.44-.4.55.55,0,0,1,0-.18s0,0,0-.06a.06.06,0,0,0-.07,0,.38.38,0,0,1-.21.07.45.45,0,0,1-.49-.37,1.4,1.4,0,0,1,.12-.83,2,2,0,0,1,.35-.53l.16-.16h0a3.13,3.13,0,0,0,1.05-.18l.53-.2Zm.53,0,.24.33a.17.17,0,0,0,0,.21.15.15,0,0,0,.26-.15c0-.09-.09-.12-.21-.1l-.24-.33h0a.33.33,0,0,0,.1-.3l0,0,.36-.12.08.06a.12.12,0,0,0,.14,0,.13.13,0,0,0,.07-.13.15.15,0,0,0-.3,0s0,0,0,0l-.1,0-.27.09,0,0a.33.33,0,0,0-.23-.17s0,0,0,0v-.38a.16.16,0,0,0,.12-.17.15.15,0,0,0-.14-.13.15.15,0,0,0-.16.12q0,.1.12.18v.41a.36.36,0,0,0-.28.21l-.38-.13s0,0,0,0a.18.18,0,0,0-.11-.15.18.18,0,0,0-.17.06.15.15,0,0,0,.24.19s0,0,0,0l.35.11s0,0,0,0a.57.57,0,0,0,0,.13.3.3,0,0,0,.1.17c-.08.11-.16.21-.23.32h0a.15.15,0,0,0-.19.11.15.15,0,0,0,.11.18.16.16,0,0,0,.19-.11.15.15,0,0,0,0-.14c.08-.11.16-.21.23-.32s0,0,0,0l.13,0A.33.33,0,0,0,196.86,61.18Z"/><path class="cls-26" d="M196.86,61.18a.33.33,0,0,1-.19,0l-.13,0s0,0,0,0-.15.21-.23.32a.15.15,0,0,1,0,.14.16.16,0,0,1-.19.11.15.15,0,0,1-.11-.18.15.15,0,0,1,.19-.11h0c.07-.11.15-.21.23-.32a.3.3,0,0,1-.1-.17.57.57,0,0,1,0-.13s0,0,0,0l-.35-.11s0,0,0,0a.15.15,0,0,1-.24-.19.18.18,0,0,1,.17-.06.18.18,0,0,1,.11.15s0,0,0,0l.38.13a.36.36,0,0,1,.28-.21v-.41q-.15-.07-.12-.18a.15.15,0,0,1,.16-.12.15.15,0,0,1,.14.13.16.16,0,0,1-.12.17v.38s0,0,0,0a.33.33,0,0,1,.23.17l0,0,.27-.09.1,0s0,0,0,0a.15.15,0,0,1,.3,0,.13.13,0,0,1-.07.13.12.12,0,0,1-.14,0l-.08-.06-.36.12,0,0a.33.33,0,0,1-.1.3h0l.24.33c.12,0,.18,0,.21.1a.15.15,0,1,1-.26-.06Z"/></g><g id="Flower-13" data-name="Flower"><path class="cls-40" d="M25.12,63.77,25,63.65l-.08,0A4.8,4.8,0,0,1,24,64a2.55,2.55,0,0,1-.55,0,1.93,1.93,0,0,1-1.09-.45,1.17,1.17,0,0,1-.34-.48.42.42,0,0,1,.1-.43.45.45,0,0,1,.3-.16h0a0,0,0,0,0,0-.08l-.08-.09a.47.47,0,0,1,.15-.69,1.4,1.4,0,0,1,.6-.15,2.08,2.08,0,0,1,.78.15l.25.13,0,0A3.71,3.71,0,0,0,24.84,63l.2.24h0l.09-.11L25,63a4.19,4.19,0,0,1-.58-.88,1.76,1.76,0,0,1-.21-.66,1.9,1.9,0,0,1,.18-1,1,1,0,0,1,.28-.36.46.46,0,0,1,.69.13l0,.06a.07.07,0,0,0,.06,0,.07.07,0,0,0,.05,0,.62.62,0,0,1,.11-.17.47.47,0,0,1,.68,0,1.37,1.37,0,0,1,.36.79,2.56,2.56,0,0,1,0,.39,1.44,1.44,0,0,1-.08.46,2.86,2.86,0,0,1-.36.72,5.22,5.22,0,0,1-.45.6h0l.09.11.07-.08a5.42,5.42,0,0,0,.59-.83,3.75,3.75,0,0,0,.21-.5l0,0a1.67,1.67,0,0,1,.57-.23,2.63,2.63,0,0,1,.49-.05,1.25,1.25,0,0,1,.57.16.46.46,0,0,1,.12.72l-.06,0a.05.05,0,0,0,0,.09l.15,0a.45.45,0,0,1,.29.39.46.46,0,0,1-.09.32,1.27,1.27,0,0,1-.44.45,2,2,0,0,1-.7.29,1.52,1.52,0,0,1-.21,0h0a2.4,2.4,0,0,0-.46-.27,5,5,0,0,0-.73-.28L26,63.38v.14l.22.06a4.35,4.35,0,0,1,1,.42,2,2,0,0,1,.4.32,2.16,2.16,0,0,1,.48,1,1,1,0,0,1,0,.45.47.47,0,0,1-.42.3.59.59,0,0,1-.23,0l-.05,0a.05.05,0,0,0-.08,0s0,.07,0,.1a.46.46,0,0,1-.53.48,1.19,1.19,0,0,1-.67-.31,1.84,1.84,0,0,1-.51-.63h0a.31.31,0,0,1-.05-.12.53.53,0,0,1,0-.12,3.41,3.41,0,0,0,.1-.54,5.63,5.63,0,0,0,0-.58l0-.41v0l-.14,0c0,.06,0,.12,0,.17s0,.3,0,.45a3,3,0,0,1-.1.79,1.48,1.48,0,0,1-.27.6,1.91,1.91,0,0,1-.67.59,1,1,0,0,1-.46.12.46.46,0,0,1-.44-.4,1.09,1.09,0,0,1,0-.18s0,0,0-.06a.06.06,0,0,0-.07,0,.37.37,0,0,1-.2.07.45.45,0,0,1-.5-.37,1.36,1.36,0,0,1,.12-.82,1.93,1.93,0,0,1,.35-.54c.05-.06.11-.1.16-.15h0a3.14,3.14,0,0,0,1-.19l.53-.19Zm.53,0,.25.33a.15.15,0,0,0,0,.21.17.17,0,0,0,.19,0,.15.15,0,0,0,.07-.18c0-.08-.09-.11-.21-.1l-.24-.33h0a.36.36,0,0,0,.1-.31l0,0,.36-.12.08.06a.14.14,0,0,0,.15,0,.17.17,0,0,0,.07-.13.15.15,0,0,0-.15-.15.16.16,0,0,0-.16.15s0,0,0,0l-.1,0-.27.09v0a.35.35,0,0,0-.24-.17s0,0,0,0v-.38c.09,0,.14-.1.12-.17a.15.15,0,0,0-.14-.13.16.16,0,0,0-.16.12c0,.07,0,.14.12.18v.41a.36.36,0,0,0-.28.21l-.37-.12s0,0,0,0a.16.16,0,0,0-.11-.15.18.18,0,0,0-.17.06.17.17,0,0,0,0,.21.15.15,0,0,0,.21,0s0,0,0,0l.35.11s0,0,0,0a.57.57,0,0,0,0,.13.3.3,0,0,0,.1.17L25,64h0a.16.16,0,0,0-.19.11.16.16,0,0,0,.3.08.16.16,0,0,0,0-.15l.24-.32s0,0,0,0l.13,0A.31.31,0,0,0,25.65,63.73Z"/><path class="cls-26" d="M25.65,63.73a.31.31,0,0,1-.19,0l-.13,0s0,0,0,0l-.24.32a.16.16,0,0,1,0,.15.16.16,0,0,1-.3-.08A.16.16,0,0,1,25,64h0l.23-.32a.3.3,0,0,1-.1-.17.57.57,0,0,1,0-.13s0,0,0,0l-.35-.11s0,0,0,0a.15.15,0,0,1-.21,0,.17.17,0,0,1,0-.21.18.18,0,0,1,.17-.06.16.16,0,0,1,.11.15s0,0,0,0l.37.12a.36.36,0,0,1,.28-.21v-.41c-.1,0-.14-.11-.12-.18a.16.16,0,0,1,.16-.12.15.15,0,0,1,.14.13c0,.07,0,.14-.12.17v.38s0,0,0,0a.35.35,0,0,1,.24.17v0l.27-.09.1,0s0,0,0,0a.16.16,0,0,1,.16-.15.15.15,0,0,1,.15.15.17.17,0,0,1-.07.13.14.14,0,0,1-.15,0l-.08-.06-.36.12,0,0a.36.36,0,0,1-.1.31h0l.24.33c.12,0,.18,0,.21.1a.15.15,0,0,1-.07.18.17.17,0,0,1-.19,0,.15.15,0,0,1,0-.21Z"/></g><g id="Flower-14" data-name="Flower"><path class="cls-40" d="M133.69,101.35l-.09-.12-.08,0a4.64,4.64,0,0,1-1,.3,2.51,2.51,0,0,1-.55,0,1.7,1.7,0,0,1-.65-.17,1.67,1.67,0,0,1-.43-.28,1,1,0,0,1-.34-.48.43.43,0,0,1,.09-.43.49.49,0,0,1,.3-.16h0a.05.05,0,0,0,0-.09l-.08-.09a.45.45,0,0,1,.14-.68,1.27,1.27,0,0,1,.6-.15,2,2,0,0,1,.79.15,1.41,1.41,0,0,1,.24.13l0,0a3.58,3.58,0,0,0,.65,1.16l.21.25h0l.08-.11-.1-.12a4.32,4.32,0,0,1-.58-.88,1.94,1.94,0,0,1-.2-.66,1.85,1.85,0,0,1,.17-1,1.13,1.13,0,0,1,.28-.37.46.46,0,0,1,.69.13l0,.06s0,0,.06,0,0,0,0,0a.64.64,0,0,1,.11-.16.46.46,0,0,1,.29-.13.48.48,0,0,1,.39.17,1.43,1.43,0,0,1,.36.79,2.56,2.56,0,0,1,0,.39,1.44,1.44,0,0,1-.08.46,2.67,2.67,0,0,1-.35.72,5.3,5.3,0,0,1-.46.6h0l.08.11a.6.6,0,0,0,.08-.08,4.75,4.75,0,0,0,.58-.83,2.33,2.33,0,0,0,.21-.49l0,0a1.88,1.88,0,0,1,1.06-.27,1.32,1.32,0,0,1,.58.15.47.47,0,0,1,.11.72l-.05,0s0,.08,0,.09l.15,0a.44.44,0,0,1,.3.39.55.55,0,0,1-.09.33,1.38,1.38,0,0,1-.45.45,2,2,0,0,1-.7.29l-.2,0h0a2.64,2.64,0,0,0-.46-.27,4.55,4.55,0,0,0-.73-.27l-.34-.09v.15l.23.05a4.08,4.08,0,0,1,1,.43,2,2,0,0,1,.4.31,1.74,1.74,0,0,1,.27.38,1.52,1.52,0,0,1,.21.63.93.93,0,0,1,0,.44.44.44,0,0,1-.42.3.37.37,0,0,1-.23,0l0,0c-.05,0-.09,0-.08.06s0,.06,0,.1a.46.46,0,0,1-.53.48,1.42,1.42,0,0,1-.67-.31,2,2,0,0,1-.51-.64h0a.56.56,0,0,1,0-.12s0-.08,0-.12a3.29,3.29,0,0,0,.1-.53c0-.2,0-.4,0-.59s0-.27,0-.41v0l-.14,0a.91.91,0,0,1,0,.17c0,.14,0,.29,0,.44a3.49,3.49,0,0,1-.1.79,1.81,1.81,0,0,1-.27.6,1.9,1.9,0,0,1-.67.59,1.09,1.09,0,0,1-.47.12.44.44,0,0,1-.43-.4,1.08,1.08,0,0,1,0-.18s0,0,0-.06,0,0-.06,0a.86.86,0,0,1-.21.07.47.47,0,0,1-.49-.37,1.32,1.32,0,0,1,.12-.83,1.9,1.9,0,0,1,.34-.54l.17-.15s0,0,0,0a3.29,3.29,0,0,0,1-.18l.54-.2Zm.53,0,.24.34a.15.15,0,0,0,.19.23.16.16,0,0,0,.07-.18c0-.08-.1-.11-.22-.09l-.23-.33h0a.36.36,0,0,0,.11-.3s0,0,0,0l.37-.12a.21.21,0,0,0,.08.06.12.12,0,0,0,.14,0,.14.14,0,0,0,.07-.13.15.15,0,0,0-.3,0,0,0,0,0,1,0,0l-.1,0-.27.09v0a.33.33,0,0,0-.24-.17s0,0,0,0v-.37c.1,0,.14-.1.13-.18a.18.18,0,0,0-.14-.13.15.15,0,0,0-.16.12c0,.08,0,.14.11.19v.41a.37.37,0,0,0-.28.2l-.37-.12s0,0,0,0a.14.14,0,0,0-.11-.14.13.13,0,0,0-.16.06.14.14,0,0,0,0,.2.13.13,0,0,0,.2,0,.05.05,0,0,1,0,0l.36.12s0,0,0,0a.66.66,0,0,0,0,.14.42.42,0,0,0,.1.17l-.23.31s0,0,0,0a.16.16,0,0,0-.19.11.15.15,0,0,0,.11.18.14.14,0,0,0,.18-.1.16.16,0,0,0,0-.15c.08-.1.15-.21.23-.32s0,0,0,0l.13,0A.28.28,0,0,0,134.22,101.3Z"/><path class="cls-26" d="M134.22,101.3a.28.28,0,0,1-.2,0l-.13,0s0,0,0,0-.15.22-.23.32a.16.16,0,0,1,0,.15.14.14,0,0,1-.18.1.15.15,0,0,1-.11-.18.16.16,0,0,1,.19-.11s0,0,0,0l.23-.31a.42.42,0,0,1-.1-.17.66.66,0,0,1,0-.14s0,0,0,0l-.36-.12a.05.05,0,0,0,0,0,.13.13,0,0,1-.2,0,.14.14,0,0,1,0-.2.13.13,0,0,1,.16-.06.14.14,0,0,1,.11.14s0,0,0,0l.37.12a.37.37,0,0,1,.28-.2v-.41c-.09,0-.13-.11-.11-.19a.15.15,0,0,1,.16-.12.18.18,0,0,1,.14.13c0,.08,0,.14-.13.18v.37s0,0,0,0a.33.33,0,0,1,.24.17v0l.27-.09.1,0a0,0,0,0,0,0,0,.15.15,0,0,1,.3,0,.14.14,0,0,1-.07.13.12.12,0,0,1-.14,0,.21.21,0,0,1-.08-.06l-.37.12s0,0,0,0a.36.36,0,0,1-.11.3h0l.23.33c.12,0,.19,0,.22.09a.16.16,0,0,1-.07.18.15.15,0,0,1-.19-.23Z"/></g></g></g></g></g></g></svg>