<svg xmlns="http://www.w3.org/2000/svg" viewBox="0 0 265.8 145.56"><defs><style>.cls-1{fill:#9ebc51;}.cls-2,.cls-3{fill:none;stroke-miterlimit:10;}.cls-2{stroke:#fefefd;stroke-width:1.48px;}.cls-3{stroke:#fff;}.cls-4{fill:#f2f2f2;}</style></defs><title>JapanGreen</title><g id="Layer_2" data-name="Layer 2"><g id="Landing_page_Home" data-name="Landing page // Home"><rect id="BackGround" class="cls-1" width="265.8" height="145.56"/><rect class="cls-2" x="6.61" y="5.82" width="253.57" height="134.05"/><polyline class="cls-3" points="6.61 5.82 55.96 70.99 208.6 70.99 260.18 5.82"/><line class="cls-3" x1="199.68" y1="71.37" x2="260.18" y2="139.87"/><line class="cls-3" x1="64.64" y1="70.99" x2="6.61" y2="139.49"/><path class="cls-4" d="M82.54,49.38a56.7,56.7,0,0,1-9.44.72A35.13,35.13,0,0,1,67,49.69c-3.76-.84-5.37-3.2-5.37-5.93a9.9,9.9,0,0,1,3.17-6.64l1.8.93a8.49,8.49,0,0,0-2.74,5.53c0,1.8,1.21,3.44,3.88,4a25.68,25.68,0,0,0,5.07.38,51.88,51.88,0,0,0,9.56-.84ZM68.6,33.7a39.24,39.24,0,0,1,5.5-3.6v0c-2.36.28-7.76.4-11.21.37,0-.59,0-1.61,0-2.17.68,0,12.6.22,17.7-1l.25,2.29c-3.7.44-8.45,3.67-10.44,5.25Z"/><path class="cls-4" d="M85.83,50.41c2.3-6.59,6.12-17.58,7.33-20.87.59-1.67,1.39-4,1.61-4.81l3.35.87c-.15.43-.59.59-1.21.59-1.7,4.25-4.34,11.52-5.49,14.62h0c1.83-2.23,4.63-3.82,6.8-3.82,2.7,0,4,1.84,3.91,4.72l-.09,3.7c0,2.33,1.21,3.6,3.23,3.6,2.79,0,5.37-3.2,6.8-8.54a14,14,0,0,0,2,1.15c-1.7,5.93-4.78,9.66-8.91,9.66-3.29,0-5.43-2-5.43-5.16,0-.59.09-3.44.09-4.1,0-2-.8-3-2.17-3-3.57,0-7.17,5.19-8,7.21-.43,1.08-1.12,3.07-1.71,4.87Z"/><path class="cls-4" d="M123.21,26c-.1.35-.41.53-1,.5a74.25,74.25,0,0,0-1.65,14,34.19,34.19,0,0,0,.41,6.15c.59-1.52,1.92-4.78,2.36-5.87l1.3,1.37c-1.27,3.13-2.2,4.9-2.64,6.3a5.59,5.59,0,0,0-.25,1.46,3.39,3.39,0,0,0,.16,1l-2.2.41A33.88,33.88,0,0,1,118.3,40.6a91.07,91.07,0,0,1,1.64-15.12ZM143,48.73c-1.11.06-2.26.09-3.41.09a42.36,42.36,0,0,1-5.78-.34c-3.82-.56-5.59-2.67-5.59-5.15,0-2.14,1.18-3.94,2.92-6l2,.87c-1.55,1.61-2.64,3.1-2.64,4.87,0,3.6,5.28,3.6,8.51,3.6,1.3,0,2.7-.06,4-.15Zm-14.37-19a101.36,101.36,0,0,0,13.53-1.18l.19,2.17a115.11,115.11,0,0,1-13.66,1.15Z"/><path class="cls-4" d="M169.9,30a72.53,72.53,0,0,1-13.35,1.8A39.62,39.62,0,0,1,155.09,40a15.75,15.75,0,0,1,8.81-3.29c4.63,0,7.46,2.48,7.46,6.67,0,6.18-6.25,8.26-16.34,8.51a9,9,0,0,0-.62-2c8.91-.19,14.69-1.71,14.69-6.4,0-2.79-1.86-4.72-5.47-4.72-2.76,0-7.51,1.68-9.56,4.75l-2.17-1c1-1.12,2-5.56,2.48-10.65h-7.26V29.67c1.3,0,5.12,0,7.45,0,.12-1.77.18-3.76.18-5.62l3.3.31c-.07.53-.44.62-1,.68-.06,1.55-.15,3.14-.28,4.6a60.41,60.41,0,0,0,12.73-1.9Z"/><path class="cls-4" d="M178.52,50.84c-1-2.23-1.33-6.86-1.33-10.93a79.49,79.49,0,0,1,1.67-14.5l3,.59a.8.8,0,0,1-.8.56,59.52,59.52,0,0,0-1.8,13.38,36.64,36.64,0,0,0,.28,5.87c.68-1.86,1.92-4.84,2.57-6.3l1.4,1.3c-1,2.11-3.2,6.83-3.2,8.29a4.41,4.41,0,0,0,.31,1.49Zm7.89-18.29c2.61,0,5.21.07,7.82-.12-.12-2.67-.22-5-.28-7.27l3.14.1c0,.31-.31.56-.81.65,0,2,.09,4,.16,6.37A27.39,27.39,0,0,0,202.52,31l.28,2.18a29.85,29.85,0,0,1-6.27,1.11c.12,3.45.28,7.08.37,9.07a22.9,22.9,0,0,1,6.34,3.94l-1.22,2a18.58,18.58,0,0,0-5-3.54c0,2.64-.52,5.59-5.18,5.59-3.63,0-6.05-1.74-6.05-4.47,0-3.17,3.19-4.57,6.05-4.57a10.71,10.71,0,0,1,2.95.41c-.09-2-.28-5.22-.44-8.26-1,.06-2.26.09-3.16.09h-4.72Zm8.5,12.21a10.46,10.46,0,0,0-3.07-.56c-1.89,0-4.16.68-4.16,2.64,0,1.74,1.86,2.61,4.13,2.61S195,48.33,195,45.84Z"/></g></g></svg>