<svg xmlns="http://www.w3.org/2000/svg" viewBox="0 0 265.8 145.56"><defs><style>.cls-1{fill:#9ebc51;}.cls-2,.cls-3{fill:none;stroke-miterlimit:10;}.cls-2{stroke:#fefefd;stroke-width:1.48px;}.cls-3{stroke:#fff;}.cls-4{fill:#f2f2f2;}</style></defs><title>KoreaGreen</title><g id="Layer_2" data-name="Layer 2"><g id="Landing_page_Home" data-name="Landing page // Home"><rect id="BackGround" class="cls-1" width="265.8" height="145.56"/><rect class="cls-2" x="6.61" y="5.82" width="253.57" height="134.05"/><polyline class="cls-3" points="6.61 5.82 55.96 70.99 208.6 70.99 260.18 5.82"/><line class="cls-3" x1="199.68" y1="71.37" x2="260.18" y2="139.87"/><line class="cls-3" x1="64.64" y1="70.99" x2="6.61" y2="139.49"/><path class="cls-4" d="M63.22,28.57c.51-.1.92-.26.92-.64a1.15,1.15,0,0,0-.28-.63c-.29-.22-.41-.38-.41-.51s.12-.16.41-.16c1,0,2.09.54,2.09,1s-.38.66-.44,1c3.68.86,5.29,3.14,5.29,5.46,0,2.86-2.53,5.65-6.66,5.65-4.37,0-6.94-2.67-6.94-5.65C57.2,31.68,59.1,29.2,63.22,28.57Zm-4,5.58c0,2.16,1.62,4.28,4.86,4.28s4.76-2.12,4.76-4.28-1.59-4.31-4.76-4.31S59.19,32,59.19,34.15Zm6.54,10.94c0-.6-.76-.88-2.38-1.36-.35-.09-.6-.22-.6-.38s.28-.32,1-.44a23.39,23.39,0,0,1,3.36.22c.58.12.7.31.7.6s-.06.48-.09.83c0,1.39,0,3.26,0,4.37,0,.73.44,1,1.55,1.08L75.05,50c2.38-.19,1.24-.92,4.06-.92,1,0,2.38.12,2.38,1.08,0,.38-.31.69-.85.69H69.19c-2.13,0-3.3-.54-3.43-2.12ZM76.45,26.32c0-.35-.82-.92-2.73-1.75-.47-.16-.73-.35-.73-.47s.38-.32,1.14-.35c.13,0,4.48.54,4.48,1.58,0,.22-.13.48-.13.8l0,10c.44,0,1,0,1.43-.07,1.46-.28.79-.89,3.23-.89.64,0,1.81,0,1.81.86a.84.84,0,0,1-.92.79l-5.58.13c0,5.74-.23,7.17-.54,8.06-.29.6-.64,1.08-.92,1.08s-.48-.38-.51-1.43Z"/><path class="cls-4" d="M91.19,29.42c0-.6-1.3-1-2.5-1.36-.32-.09-.67-.22-.67-.41s.26-.32,1-.51c3.78.19,4.19.57,4.19,1.08,0,.16,0,.32,0,.51v7.36c0,.47.13.72,1,.72a28.6,28.6,0,0,0,9.54-3.14,2.06,2.06,0,0,1,.64-.19c.06,0,.09,0,.09.07s-.16.28-.54.6c-3.9,2.63-10.12,4.6-11.16,4.6s-1.33-1.62-1.46-2.28Zm13.26,12.15A.56.56,0,0,0,105,41a.82.82,0,0,0-.32-.6c-.22-.19-.31-.35-.31-.44s.09-.16.28-.16c.57,0,1.94.51,1.94,1,0,.25-.23.51-.29.92,3.52.57,5.14,2.79,5.14,5,0,2.67-2.28,5.36-6.25,5.36-4.16,0-6.38-2.69-6.38-5.36,0-2.31,1.72-4.63,5.37-5.07Zm-3.9,5.11c0,2.09,1.56,4.15,4.66,4.15a4.14,4.14,0,1,0,0-8.27C102.11,42.56,100.55,44.62,100.55,46.68Zm9-20.52c0-.32-1.33-1.11-2.82-1.78-.32-.09-.89-.28-.89-.47s.79-.42,1-.42c.67,0,4.92.64,4.92,1.65,0,.29-.19.57-.22,1l-.07,8.78c0,5.33-.41,6.28-1,7.17-.13.19-.26.25-.35.25-.32,0-.51-.72-.51-2V36.62c-1.46,0-2.89.16-3.93.23-.57.12-.64.38-1,.38-.57,0-2.79-1-2.79-1.27s.19-.16.54-.16l2.16.06c1.49,0,3-.09,5.07-.22V30.15c-1.9,0-3.3.13-4.06.19s-.79.42-1.2.42-2.57-.8-2.57-1.3c0-.1.12-.16.41-.16a5.73,5.73,0,0,1,.6.06c.73,0,1.33,0,1.94,0,1.55,0,2.82-.06,4.88-.16Z"/><path class="cls-4" d="M131.19,32.06c2.6-.16,1.17-.86,4.59-1,1.46,0,2.07.51,2.07.92,0,.07,0,.7-1.27.7-2,.13-7.9.29-11.74.45-1,.22-1.27.6-1.87.6-.76,0-3.36-1.18-3.36-1.65,0-.1.12-.16.44-.16a2.92,2.92,0,0,1,.48,0,40.68,40.68,0,0,0,4.85.26C126.21,32.22,130.27,32.06,131.19,32.06ZM127.7,36c.44-.09,1-.19,1-.73a.6.6,0,0,0-.25-.48c-.13-.19-.22-.31-.22-.44s.12-.19.34-.19c.77,0,1.72.6,1.72,1s-.32.53-.45.82c3.71.54,5.46,2.76,5.46,5,0,2.54-2.25,5-6.38,5s-6.37-2.67-6.37-5.11C122.56,38.72,124.21,36.53,127.7,36Zm-.1-7.07a6.33,6.33,0,0,1-3.27-2.06c0-.1.1-.16.32-.16a3.29,3.29,0,0,1,.64.09,31.85,31.85,0,0,0,6.56.45c.76,0,1.24.38,1.24.76s-.6.85-2,.89Zm-3.11,11.89c0,1.9,1.49,3.81,4.48,3.81s4.47-1.91,4.47-3.81S132,36.94,129,36.94,124.49,38.88,124.49,40.81ZM139.88,26c0-.54-1.75-1.3-3.08-1.9-.35-.13-.57-.29-.57-.42s.38-.34,1.33-.38a27.84,27.84,0,0,1,3.65.86c.67.25.82.48.82.79s-.09.54-.09,1V37.55h1.58c1.5-.23,1-.83,3-.83.6,0,1.93,0,1.93,1,0,.45-.38.83-1.08.83h-5.48l0,9.2a12.25,12.25,0,0,1-.8,4.69c-.25.38-.51.57-.73.57s-.47-.41-.47-1.46Z"/><path class="cls-4" d="M160.14,31.23c0-.35-.76-.92-1.87-1.68-.6-.32-.76-.7.47-.7.54,0,3.78,1.15,3.78,2a48.7,48.7,0,0,1-2.6,5.33,21.66,21.66,0,0,0,1.71,2.09c1.11,1.34,2.16.92,2.66,4.06,0,.1,0,.19,0,.26,0,.6-.32,1-.7,1a1.07,1.07,0,0,1-.83-.63c-.73-1.24-1.8-3.62-3.42-6.13-3.11,4.1-6.92,7.3-7.81,7.3-.06,0-.12,0-.12-.09s.22-.38.63-.73a29,29,0,0,0,8-11.84Zm8.88-2.6c0-.76-1.24-1.39-2.47-2-.38-.16-.76-.38-.76-.57s.25-.28,1-.32a18,18,0,0,1,3.3.77c.7.25.86.57.86.88s-.1.51-.1.8l-.06,17.13c-.06,4.15-.86,5.26-1.27,5.26s-.54-.76-.54-2.31V36.53l-3,.13c-.92.15-1.08.47-1.46.47s-2.38-.82-2.38-1.23c0-.1.19-.2.54-.2s1.3.07,1.56.07c1.65,0,3.2-.1,4.69-.16Zm5.11-2.28c0-.54-1.21-1.33-2.48-2-.47-.19-.73-.38-.73-.54s.32-.29,1.05-.32a31.88,31.88,0,0,1,3.52,1c.54.26.67.48.67.73s-.13.48-.13.83V48.42c-.13,2.95-.7,4.51-1.3,4.7-.29,0-.57-.32-.6-1.94Z"/><path class="cls-4" d="M209.81,48.49c-2.13-.13-4.76-.19-7.49-.19-5.3,0-10.94.22-14,.5-.7.26-.88.58-1.42.58-.83,0-4.16-1.49-4.16-1.88,0-.09.13-.15.41-.15a2.77,2.77,0,0,1,.45,0,56.08,56.08,0,0,0,8.4.35c-.09-.64-.16-2.29-.32-3.33-.12-.45-.57-.64-2.12-1.21-.32-.06-.54-.19-.54-.32s.29-.28,1-.38c3.27.22,3.71.54,3.71,1,0,.16-.06.35-.06.57s.06,3,.1,3.62c1.08,0,4.56-.07,6.72-.2.1-.73.22-2.15.29-4.12-.07-.7-.73-1-1.49-1.36-.26-.07-.45-.19-.45-.29s.26-.25.95-.35c2.8.48,3.4.76,3.4,1.14a4.05,4.05,0,0,1-.35.92c-.16,1-.48,2.7-.76,4a18.94,18.94,0,0,0,3-.22c1.08-.07.89-.6,2.44-.6.86,0,3.49.06,3.49,1.26,0,.35-.29.64-.92.64ZM195.53,27.43a.9.9,0,0,0,.89-.8.84.84,0,0,0-.22-.54c-.29-.25-.45-.44-.45-.57s.13-.19.42-.19c1.07,0,2,.64,2,1s-.47.63-.5,1.08c4.5.66,6.59,3.52,6.59,6.37,0,3.17-2.69,6.35-7.45,6.35s-7.42-3.27-7.42-6.51C189.38,30.85,191.31,28.09,195.53,27.43Zm-4.34,6.24c0,2.51,1.87,5,5.61,5s5.58-2.51,5.58-5-1.87-5-5.58-5S191.19,31.17,191.19,33.67Z"/></g></g></svg>