<svg xmlns="http://www.w3.org/2000/svg" viewBox="0 0 259.49 141.76"><defs><style>.cls-1{fill:#fcb514;}.cls-2{fill:none;stroke:#fefefd;}.cls-2,.cls-26{stroke-miterlimit:10;stroke-width:1.47px;}.cls-3{fill:#9ebc51;}.cls-23,.cls-4{fill:#fff;}.cls-5{fill:#fdfcfd;}.cls-6{fill:#3e3ecc;}.cls-7{fill:#c50d31;}.cls-8{fill:#0a0a0a;}.cls-9{fill:#6a6ae5;}.cls-10{fill:#26265e;}.cls-11{fill:#2d2d70;}.cls-12{fill:#efcc7a;}.cls-13{fill:#c41620;}.cls-14{fill:#c69432;}.cls-15{fill:#bcac91;}.cls-16{fill:#3f3f3f;}.cls-17{fill:#a51414;}.cls-18{fill:#256819;}.cls-19{fill:#cc1b1b;}.cls-20{fill:#e0e0e0;}.cls-21{fill:#895b36;}.cls-22{fill:#878787;}.cls-23{opacity:0.5;}.cls-24{fill:#3ca02d;}.cls-25,.cls-26{fill:#9e9e9e;}.cls-26{stroke:#fff;}</style></defs><title>Korea PostCard</title><g id="Layer_2" data-name="Layer 2"><g id="Landing_page_Home" data-name="Landing page // Home"><g id="Korea_PostCard" data-name="Korea PostCard"><g id="Background"><rect id="BackGround-2" data-name="BackGround" class="cls-1" width="259.49" height="141.76"/><rect class="cls-2" x="5.97" y="6.08" width="247.54" height="130.55"/></g><g id="Korea"><path class="cls-3" d="M17.39,17.19h5.45V30.35l6-13.16H34L28.29,30.54l6.34,16.6H29.18l-5-13.61-1.33,2.26V47.14H17.39Z"/><path class="cls-4" d="M33.67,45.91H26.89l-4.7-12.79-.59,1v11.8H14.92V14.72H21.6V25.65l4.95-10.93h6.57l-6,14Zm-5.91-1.23h4.12l-6.11-16L31.24,16H27.35l-7,15.4V16H16.15V44.68h4.22V33.77l2.08-3.52Z"/><path class="cls-3" d="M38.18,45.05q-2-2.49-2-7.3V26.51c0-3.18.67-5.59,2-7.21s3.56-2.44,6.68-2.44,5.3.81,6.63,2.44,2,4,2,7.21V37.75c0,3.18-.68,5.61-2,7.29s-3.56,2.51-6.62,2.51S39.52,46.72,38.18,45.05Zm9.12-2.68A7,7,0,0,0,47.93,39V25.25A7,7,0,0,0,47.32,22a2.55,2.55,0,0,0-2.46-1.11A2.6,2.6,0,0,0,42.37,22a6.82,6.82,0,0,0-.63,3.27V39a7,7,0,0,0,.63,3.33,2.57,2.57,0,0,0,2.49,1.15A2.52,2.52,0,0,0,47.3,42.37Z"/><path class="cls-4" d="M43,46.32c-3.29,0-5.7-.92-7.15-2.73h0c-1.42-1.77-2.14-4.36-2.14-7.69V24.66c0-3.31.72-5.87,2.14-7.6s3.86-2.67,7.15-2.67,5.67.9,7.12,2.67,2.14,4.29,2.14,7.6V35.9c0,3.31-.73,5.89-2.16,7.67S46.25,46.32,43,46.32Zm-6.19-3.5C38,44.32,40.1,45.08,43,45.08s4.92-.76,6.14-2.28S51,38.92,51,35.9V24.66c0-3-.62-5.31-1.86-6.82S45.88,15.62,43,15.62s-5,.75-6.19,2.22S35,21.64,35,24.66V35.9c0,3.05.63,5.37,1.86,6.92ZM43,42.29a3.15,3.15,0,0,1-3-1.47,7.49,7.49,0,0,1-.71-3.63V23.4A7.28,7.28,0,0,1,40,19.83a3.17,3.17,0,0,1,3-1.45,3.13,3.13,0,0,1,3,1.43,7.54,7.54,0,0,1,.69,3.59V37.19A7.49,7.49,0,0,1,46,40.82h0A3.12,3.12,0,0,1,43,42.29Zm0-22.67c-1,0-1.63.26-1.94.81a6.22,6.22,0,0,0-.55,3V37.19a6.51,6.51,0,0,0,.55,3c.11.2.46.82,1.94.82a2,2,0,0,0,1.91-.82,6.51,6.51,0,0,0,.55-3V23.4a6.52,6.52,0,0,0-.53-3C44.82,20.21,44.49,19.62,43,19.62Z"/><path class="cls-3" d="M57.54,17.19h7.22q4.76,0,7.08,1.79t2.34,6.16a11.14,11.14,0,0,1-.83,4.64,5.1,5.1,0,0,1-2.88,2.61l4.19,14.75H69.18l-3.6-13.72H63V47.14H57.54ZM64.73,30A4.34,4.34,0,0,0,68,29a5.11,5.11,0,0,0,1-3.51A5.44,5.44,0,0,0,68.16,22,3.86,3.86,0,0,0,65,20.92H63V30Z"/><path class="cls-4" d="M73.63,45.91H66.84L63.25,32.19h-1.5V45.91H55.06V14.72h7.85c3.29,0,5.8.65,7.46,1.93s2.57,3.54,2.57,6.64a11.73,11.73,0,0,1-.89,4.9,5.54,5.54,0,0,1-2.69,2.69ZM67.8,44.68H72L67.87,30.17l.52-.2a4.46,4.46,0,0,0,2.54-2.3,10.41,10.41,0,0,0,.78-4.38c0-2.69-.71-4.6-2.1-5.67S65.92,16,62.91,16H56.3V44.68h4.21V31H64.2ZM62.87,28.79H60.51V18.46h2.66a4.44,4.44,0,0,1,3.61,1.3,6,6,0,0,1,1,3.83,5.66,5.66,0,0,1-1.14,3.93A5,5,0,0,1,62.87,28.79Zm-1.12-1.23h1.12a3.79,3.79,0,0,0,2.86-.88,4.54,4.54,0,0,0,.83-3.09,4.94,4.94,0,0,0-.74-3.06,3.35,3.35,0,0,0-2.65-.84H61.75Z"/><path class="cls-3" d="M78.33,17.19h12.6V21H83.78v8.61h5.63v3.81H83.78v9.95H91v3.73H78.33Z"/><path class="cls-4" d="M89.77,45.91H75.86V14.72H89.7V19.8H82.54v7.39h5.64v5H82.54v8.71h7.23ZM77.09,44.68H88.54V42.17H81.31V31h5.63V28.42H81.31V18.57h7.15V16H77.09Z"/><path class="cls-3" d="M98.68,17.19h5.86l6,30h-5.07l-1.19-6.91H99.05l-1.22,6.91H92.68Zm5,19.56-2-12.57-2,12.57Z"/><path class="cls-4" d="M109.44,45.91h-6.35L101.9,39H97.72l-1.23,6.92H90.07l6.25-31.19h6.87Zm-5.31-1.23h3.81L102.18,16H97.33L91.58,44.68h3.88l1.22-6.92H103Zm-1.57-9.16H97l2.76-17.05Zm-4.08-1.23h2.63l-1.32-8.1Z"/></g><g id="Flag"><path class="cls-5" d="M148,46.28H123.09c-.57,0-.8,0-.8-.72q.06-16.3,0-32.62c0-.57.12-.71.71-.71q24.92,0,49.84,0c.66,0,.74.17.74.78q0,16.26,0,32.52c0,.63-.12.77-.76.77C164.55,46.27,156.26,46.28,148,46.28Zm-7.79-20.07c-.21.06-.25.24-.31.42a8.26,8.26,0,0,0-.2,4.57A8.5,8.5,0,0,0,147,37.71a8.36,8.36,0,0,0,8.66-5.07c.21-.08.22-.29.28-.45a8.51,8.51,0,0,0-9.49-11.27,7.82,7.82,0,0,0-5.18,3A3.8,3.8,0,0,0,140.18,26.21ZM136,16.4c-.15-.4-.57-.51-.87-.73s-.41.13-.53.31c-1.35,2-2.68,4-4,6-.34.49-.27.71.21,1.05s.73.15,1-.26c1.29-2,2.6-3.9,3.91-5.85Zm-4.8,18.87a6.5,6.5,0,0,0-.86.61c-.26.25.08.45.19.62,1.34,2,2.73,4,4,6.09.32.5.54.32.86.09s.73-.33.34-.89c-1.41-2-2.76-4.1-4.13-6.15C131.57,35.49,131.5,35.3,131.22,35.27ZM163.89,23.7c-.07-.12-.14-.22-.21-.33-1.39-2.07-2.79-4.14-4.16-6.24-.3-.45-.52-.36-.85-.08s-.77.28-.36.86c1.42,2.06,2.79,4.15,4.19,6.22.1.16.17.47.46.28A2.6,2.6,0,0,0,163.89,23.7ZM133,24.48c.25-.05.32-.25.42-.4,1.37-2,2.72-4.11,4.13-6.14.44-.64-.14-.66-.4-.94-.41-.42-.59-.15-.81.18-1.35,2-2.72,4.05-4.06,6.09-.11.17-.46.35-.16.6A8.17,8.17,0,0,0,133,24.48Zm1.85,8.36a7.89,7.89,0,0,0-.95.65c-.26.25,0,.45.17.63,1.35,2,2.74,4.05,4.06,6.1.38.6.62.21,1,0s.59-.35.26-.82c-1.41-2-2.77-4.1-4.15-6.15C135.12,33.14,135,33,134.88,32.84Zm4.71-14.12c-.19-.35-.57-.45-.85-.66s-.42.07-.54.25c-1.39,2.06-2.74,4.13-4.15,6.16-.38.54,0,.65.3.9s.61.33.92-.14c1.33-2.05,2.71-4.07,4.07-6.1ZM159.1,41.8c.23,0,.28-.22.38-.36.5-.74,1-1.51,1.5-2.22.34-.45.33-.67-.16-1s-.75-.27-1,.24c-.4.69-.9,1.33-1.32,2-.12.2-.53.38-.25.68A5.29,5.29,0,0,0,159.1,41.8Zm.77-5c.28,0,.34-.23.44-.38.52-.76,1-1.56,1.55-2.29.4-.53,0-.65-.31-.9s-.63-.35-.91.14c-.44.74-1,1.43-1.43,2.16-.11.19-.48.37-.27.6A4.85,4.85,0,0,0,159.87,36.75Zm1-21.15a5.56,5.56,0,0,0-.89.6c-.24.24.06.45.19.64.49.75,1,1.47,1.47,2.25.35.6.64.2,1,0s.59-.37.24-.83c-.56-.74-1-1.54-1.56-2.31C161.19,15.83,161.15,15.62,160.88,15.6Zm1.52,4.56c.62.92,1.25,1.8,1.8,2.71.32.52.56.39.94.11s.65-.38.28-.88a27.05,27.05,0,0,1-1.55-2.29c-.24-.4-.46-.43-.79-.15S162.64,20,162.4,20.16ZM161,42.94c.1,0,.18-.22.29-.39.48-.72.93-1.46,1.46-2.15.34-.45.32-.7-.18-1s-.69-.4-1,.17c-.4.73-.92,1.39-1.38,2.09C159.86,42.18,160.22,42.87,161,42.94Zm-25.79-5.75a1.14,1.14,0,0,0-.09-.19c-.61-.92-1.18-1.88-1.86-2.75-.36-.47-.59.17-.9.27s-.43.26-.19.6c.58.83,1.12,1.69,1.69,2.53.12.17.24.4.51.19S135,37.51,135.23,37.19ZM137.8,41c0-.06-.05-.12-.08-.17-.62-.92-1.2-1.88-1.88-2.75-.35-.45-.6.19-.9.29s-.41.28-.17.62c.58.79,1.1,1.64,1.67,2.45.09.14.15.5.44.29S137.62,41.39,137.8,41Zm21.77-19.93c-.59-.88-1.17-1.68-1.68-2.53-.31-.52-.54-.62-1.12-.26s-.3.7-.05,1.07L157.8,21c.65,1,.65,1,1.61.25Zm.28.74a4.5,4.5,0,0,0-.92.67c-.19.22.17.42.28.6.48.76,1,1.47,1.49,2.24.26.43.5.36.79.08s.84-.26.4-.86c-.58-.8-1.1-1.64-1.65-2.46C160.16,22,160.09,21.8,159.85,21.81Zm-2.79,18.73c.54.08.57-.2.68-.35.53-.76,1-1.57,1.57-2.3.37-.47.08-.62-.23-.8s-.6-.62-1,0-1,1.44-1.43,2.17C156.32,39.81,156.63,40.5,157.06,40.54Zm6.83-5.7a2.69,2.69,0,0,0-.93-.7c-.27-.17-.36.12-.47.28-.52.76-1,1.54-1.56,2.29-.32.44-.2.64.22.91s.68.42,1-.15c.44-.77,1-1.49,1.48-2.23A4.64,4.64,0,0,0,163.89,34.84ZM165.66,36c-.15-.35-.55-.42-.8-.65s-.44,0-.58.19c-.55.82-1.07,1.65-1.65,2.45-.26.37-.08.48.19.7.5.41.84.48,1.2-.18a18.91,18.91,0,0,1,1.11-1.69Z"/><path class="cls-6" d="M155.7,32.64A8.36,8.36,0,0,1,147,37.71a8.5,8.5,0,0,1-7.37-6.51,8.26,8.26,0,0,1,.2-4.57c.06-.18.1-.36.31-.42a4.18,4.18,0,0,0,1.94,4.3,4.07,4.07,0,0,0,4.57,0,6.07,6.07,0,0,0,1.49-1.5,4.27,4.27,0,0,1,7.43,1.51A9.42,9.42,0,0,1,155.7,32.64Z"/><path class="cls-7" d="M155.7,32.64a9.42,9.42,0,0,0-.09-2.12A4.27,4.27,0,0,0,148.18,29a6.07,6.07,0,0,1-1.49,1.5,4.07,4.07,0,0,1-4.57,0,4.18,4.18,0,0,1-1.94-4.3,3.8,3.8,0,0,1,1.13-2.27,7.82,7.82,0,0,1,5.18-3A8.51,8.51,0,0,1,156,32.19C155.92,32.35,155.91,32.56,155.7,32.64Z"/><path class="cls-8" d="M136,16.4l-.32.51c-1.31,1.95-2.62,3.89-3.91,5.85-.27.41-.46.64-1,.26s-.55-.56-.21-1.05c1.36-2,2.69-4,4-6,.12-.18.19-.55.53-.31S135.87,16,136,16.4Z"/><path class="cls-8" d="M131.22,35.27c.28,0,.35.22.45.37,1.37,2,2.72,4.12,4.13,6.15.39.56,0,.66-.34.89s-.54.41-.86-.09c-1.32-2.05-2.71-4.05-4-6.09-.11-.17-.45-.37-.19-.62A6.5,6.5,0,0,1,131.22,35.27Z"/><path class="cls-8" d="M163.89,23.7a2.6,2.6,0,0,1-.93.71c-.29.19-.36-.12-.46-.28-1.4-2.07-2.77-4.16-4.19-6.22-.41-.58.09-.63.36-.86s.55-.37.85.08c1.37,2.1,2.77,4.17,4.16,6.24C163.75,23.48,163.82,23.58,163.89,23.7Z"/><path class="cls-8" d="M133,24.48a8.17,8.17,0,0,1-.88-.61c-.3-.25,0-.43.16-.6,1.34-2,2.71-4.06,4.06-6.09.22-.33.4-.6.81-.18.26.28.84.3.4.94-1.41,2-2.76,4.09-4.13,6.14C133.35,24.23,133.28,24.43,133,24.48Z"/><path class="cls-8" d="M134.88,32.84c.13.16.24.3.34.45,1.38,2.05,2.74,4.11,4.15,6.15.33.47.09.62-.26.82s-.57.56-1,0c-1.32-2-2.71-4.07-4.06-6.1-.12-.18-.43-.38-.17-.63A7.89,7.89,0,0,1,134.88,32.84Z"/><path class="cls-8" d="M139.59,18.72l-.25.41c-1.36,2-2.74,4.05-4.07,6.1-.31.47-.53.44-.92.14s-.68-.36-.3-.9c1.41-2,2.76-4.1,4.15-6.16.12-.18.22-.51.54-.25S139.4,18.37,139.59,18.72Z"/><path class="cls-8" d="M159.1,41.8a5.29,5.29,0,0,1-.9-.65c-.28-.3.13-.48.25-.68.42-.68.92-1.32,1.32-2,.3-.51.54-.59,1-.24s.5.55.16,1c-.54.71-1,1.48-1.5,2.22C159.38,41.58,159.33,41.79,159.1,41.8Z"/><path class="cls-8" d="M159.87,36.75a4.85,4.85,0,0,1-.93-.67c-.21-.23.16-.41.27-.6.46-.73,1-1.42,1.43-2.16.28-.49.52-.44.91-.14s.71.37.31.9c-.56.73-1,1.53-1.55,2.29C160.21,36.52,160.15,36.72,159.87,36.75Z"/><path class="cls-8" d="M160.88,15.6c.27,0,.31.23.41.37.52.77,1,1.57,1.56,2.31.35.46.12.64-.24.83s-.61.58-1,0c-.45-.78-1-1.5-1.47-2.25-.13-.19-.43-.4-.19-.64A5.56,5.56,0,0,1,160.88,15.6Z"/><path class="cls-8" d="M162.4,20.16c.24-.18.47-.33.68-.5s.55-.25.79.15a27.05,27.05,0,0,0,1.55,2.29c.37.5.06.64-.28.88s-.62.41-.94-.11C163.65,22,163,21.08,162.4,20.16Z"/><path class="cls-8" d="M161,42.94c-.8-.07-1.16-.76-.81-1.28.46-.7,1-1.36,1.38-2.09.31-.57.57-.43,1-.17s.52.55.18,1c-.53.69-1,1.43-1.46,2.15C161.2,42.72,161.12,42.93,161,42.94Z"/><path class="cls-8" d="M135.23,37.19c-.19.32-.56.43-.84.65s-.39,0-.51-.19c-.57-.84-1.11-1.7-1.69-2.53-.24-.34-.11-.5.19-.6s.54-.74.9-.27c.68.87,1.25,1.83,1.86,2.75A1.14,1.14,0,0,1,135.23,37.19Z"/><path class="cls-8" d="M137.8,41c-.18.39-.6.51-.92.73s-.35-.15-.44-.29c-.57-.81-1.09-1.66-1.67-2.45-.24-.34-.14-.52.17-.62s.55-.74.9-.29c.68.87,1.26,1.83,1.88,2.75C137.75,40.88,137.77,40.94,137.8,41Z"/><path class="cls-8" d="M159.57,21.07l-.16.15c-1,.71-1,.71-1.61-.25l-1.08-1.62c-.25-.37-.62-.66.05-1.07s.81-.26,1.12.26C158.4,19.39,159,20.19,159.57,21.07Z"/><path class="cls-8" d="M159.85,21.81c.24,0,.31.14.39.27.55.82,1.07,1.66,1.65,2.46.44.6-.16.63-.4.86s-.53.35-.79-.08c-.47-.77-1-1.48-1.49-2.24-.11-.18-.47-.38-.28-.6A4.5,4.5,0,0,1,159.85,21.81Z"/><path class="cls-8" d="M157.06,40.54c-.43,0-.74-.73-.37-1.29.48-.73,1-1.43,1.43-2.17s.65-.17,1,0,.6.33.23.8c-.57.73-1,1.54-1.57,2.3C157.63,40.34,157.6,40.62,157.06,40.54Z"/><path class="cls-8" d="M163.89,34.84a4.64,4.64,0,0,1-.26.4c-.49.74-1,1.46-1.48,2.23-.32.57-.58.41-1,.15s-.54-.47-.22-.91c.55-.75,1-1.53,1.56-2.29.11-.16.2-.45.47-.28A2.69,2.69,0,0,1,163.89,34.84Z"/><path class="cls-8" d="M165.66,36l-.53.82A18.91,18.91,0,0,0,164,38.54c-.36.66-.7.59-1.2.18-.27-.22-.45-.33-.19-.7.58-.8,1.1-1.63,1.65-2.45.14-.21.3-.44.58-.19S165.51,35.68,165.66,36Z"/></g><g id="sKYLINE"><rect class="cls-9" x="227.88" y="124.14" width="11.57" height="7.26"/><path class="cls-10" d="M224.05,136h19.27s-3.28-6.67-9.64-6.67S224.05,136,224.05,136Z"/><rect class="cls-11" x="221.68" y="122.09" width="24.01" height="2.05"/><rect class="cls-11" x="221.68" y="116.64" width="24.01" height="2.05"/><rect class="cls-12" x="221.68" y="118.69" width="24.01" height="3.4"/><rect class="cls-9" x="230.56" y="72.92" width="6.25" height="43.72"/><rect class="cls-11" x="226.58" y="99.27" width="14.21" height="0.92" transform="translate(467.37 199.46) rotate(180)"/><rect class="cls-11" x="223.43" y="71.6" width="20.5" height="1.33" transform="translate(467.37 144.53) rotate(180)"/><rect class="cls-11" x="223.43" y="63.97" width="20.5" height="1.33" transform="translate(467.37 129.28) rotate(180)"/><rect class="cls-11" x="228.05" y="57.62" width="11.51" height="1.33" transform="translate(467.6 116.58) rotate(180)"/><rect class="cls-11" x="226.58" y="103.58" width="14.21" height="0.92" transform="translate(467.37 208.09) rotate(180)"/><rect class="cls-12" x="226.58" y="65.3" width="14.44" height="6.29"/><rect class="cls-12" x="228.05" y="58.96" width="11.51" height="5.01"/><rect class="cls-9" x="230.49" y="54.83" width="6.64" height="2.8"/><path class="cls-11" d="M233.67,10.73l-2.06,44a.13.13,0,0,0,.12.14h4.14a.13.13,0,0,0,.12-.14l-2.06-44A.13.13,0,0,0,233.67,10.73Z"/><rect class="cls-11" x="231.61" y="53.49" width="4.36" height="1.33" transform="translate(467.58 108.32) rotate(180)"/><polygon class="cls-13" points="231.96 47.12 235.63 47.12 235.97 53.49 231.61 53.49 231.96 47.12"/><polygon class="cls-13" points="232.44 37.01 235.16 37.01 235.37 41.37 232.23 41.37 232.44 37.01"/><polygon class="cls-13" points="232.85 28.24 234.75 28.24 234.92 31.81 232.68 31.81 232.85 28.24"/></g><polygon class="cls-12" points="190.29 135.99 190.29 47.14 213.08 75.08 213.08 135.99 190.29 135.99"/><polygon class="cls-14" points="194.05 51.75 190.29 47.14 190.29 135.99 194.05 135.99 194.05 51.75"/><rect class="cls-14" x="194.76" y="58.29" width="1.39" height="7.02"/><rect class="cls-14" x="194.76" y="66.3" width="1.39" height="7.02"/><rect class="cls-14" x="194.76" y="74.31" width="1.39" height="7.02"/><rect class="cls-14" x="194.76" y="82.33" width="1.39" height="7.02"/><rect class="cls-14" x="194.76" y="90.34" width="1.39" height="7.02"/><rect class="cls-14" x="194.76" y="98.35" width="1.39" height="7.02"/><rect class="cls-14" x="194.76" y="106.36" width="1.39" height="7.02"/><rect class="cls-14" x="194.76" y="114.38" width="1.39" height="7.02"/><rect class="cls-14" x="194.76" y="122.39" width="1.39" height="7.02"/><rect class="cls-14" x="197.44" y="61.8" width="1.39" height="7.02"/><rect class="cls-14" x="197.44" y="69.81" width="1.39" height="7.02"/><rect class="cls-14" x="197.44" y="77.82" width="1.39" height="7.02"/><rect class="cls-14" x="197.44" y="85.83" width="1.39" height="7.02"/><rect class="cls-14" x="197.44" y="93.85" width="1.39" height="7.02"/><rect class="cls-14" x="197.44" y="101.86" width="1.39" height="7.02"/><rect class="cls-14" x="197.44" y="110.3" width="1.39" height="7.02"/><rect class="cls-14" x="197.44" y="118.31" width="1.39" height="7.02"/><rect class="cls-14" x="200.29" y="65.3" width="1.39" height="7.02"/><rect class="cls-14" x="200.29" y="73.32" width="1.39" height="7.02"/><rect class="cls-14" x="200.29" y="81.33" width="1.39" height="7.02"/><rect class="cls-14" x="200.29" y="89.34" width="1.39" height="7.02"/><rect class="cls-14" x="200.29" y="97.35" width="1.39" height="7.02"/><rect class="cls-14" x="200.29" y="105.37" width="1.39" height="7.02"/><rect class="cls-14" x="202.82" y="68.45" width="1.39" height="7.02"/><rect class="cls-14" x="202.82" y="76.46" width="1.39" height="7.02"/><rect class="cls-14" x="202.82" y="84.48" width="1.39" height="7.02"/><rect class="cls-14" x="202.82" y="92.49" width="1.39" height="7.02"/><rect class="cls-14" x="202.82" y="100.5" width="1.39" height="7.02"/><rect class="cls-14" x="202.82" y="108.51" width="1.39" height="7.02"/><rect class="cls-14" x="205.47" y="71.96" width="1.39" height="7.02"/><rect class="cls-14" x="205.47" y="79.97" width="1.39" height="7.02"/><rect class="cls-14" x="205.47" y="87.98" width="1.39" height="7.02"/><rect class="cls-14" x="205.47" y="96" width="1.39" height="7.02"/><rect class="cls-14" x="205.47" y="104.01" width="1.39" height="7.02"/><rect class="cls-14" x="205.47" y="112.02" width="1.39" height="7.02"/><rect class="cls-14" x="207.84" y="75.47" width="1.39" height="7.02"/><rect class="cls-14" x="207.84" y="83.48" width="1.39" height="7.02"/><rect class="cls-14" x="207.84" y="91.49" width="1.39" height="7.02"/><rect class="cls-14" x="207.84" y="99.5" width="1.39" height="7.02"/><rect class="cls-14" x="207.84" y="107.52" width="1.39" height="7.02"/><rect class="cls-14" x="207.84" y="115.53" width="1.39" height="7.02"/><polygon class="cls-15" points="210.24 71.6 210.24 135.99 213.08 135.99 213.08 75.08 210.24 71.6"/><rect class="cls-15" x="198.13" y="131.4" width="8.73" height="4.59"/><rect class="cls-12" x="137.8" y="61.42" width="43.98" height="74.53"/><path class="cls-10" d="M174,127.56l-3.91-1.87v-5.51h.1s5.45.2,5.45-2.88h-2.27l-3.91-1.87v-5.51h.12s5.43.2,5.43-2.88h-2.27l-3.91-1.87V99.78H169s5.71.35,5.71-2.73h-2.26l-3.92-1.88v-5.5h.17s5.38.2,5.38-2.88h-2l-4.15-3.09-2.29-3.93h-3.27V69.53H159.8V79.76h-3.28l-2.28,3.93-4.16,3.09h-2c0,3.08,5.46,2.88,5.46,2.88h.09v5.5L149.69,97h-2.26c0,3.08,5.67,2.88,5.67,2.88h.19v5.25L149.38,107h-2.27c0,3.08,5.42,2.88,5.42,2.88h.13v5.51l-3.91,1.87h-2.27c0,3.08,5.42,2.88,5.42,2.88H152v5.51l-3.92,1.87h-2.26c0,3.09,6.18,2.88,6.18,2.88v5.34h18.08v-5.34s6.18.21,6.18-2.88Z"/><rect class="cls-14" x="146.99" y="67.2" width="3.14" height="3.13"/><rect class="cls-14" x="151.28" y="67.2" width="3.14" height="3.13"/><rect class="cls-14" x="168.37" y="63.16" width="3.13" height="3.14" transform="translate(105.21 234.68) rotate(-90)"/><rect class="cls-14" x="146.99" y="71.34" width="3.14" height="3.13"/><rect class="cls-14" x="151.28" y="71.34" width="3.14" height="3.13"/><rect class="cls-14" x="172.52" y="63.16" width="3.13" height="3.14" transform="translate(109.36 238.83) rotate(-90)"/><rect class="cls-14" x="146.99" y="75.69" width="3.14" height="3.13"/><rect class="cls-14" x="151.28" y="75.69" width="3.14" height="3.13"/><rect class="cls-14" x="172.58" y="67.2" width="3.14" height="3.13"/><rect class="cls-14" x="176.86" y="67.2" width="3.14" height="3.13"/><rect class="cls-14" x="172.58" y="71.34" width="3.14" height="3.13"/><rect class="cls-14" x="176.86" y="71.34" width="3.14" height="3.13"/><rect class="cls-14" x="172.58" y="75.69" width="3.14" height="3.13"/><rect class="cls-14" x="176.86" y="75.69" width="3.14" height="3.13"/><rect class="cls-14" x="176.89" y="63.16" width="3.13" height="3.14" transform="translate(113.72 243.19) rotate(-90)"/><rect class="cls-14" x="137.8" y="61.42" width="4.03" height="74.53"/><rect class="cls-14" x="142.71" y="63.07" width="3.14" height="3.13"/><rect class="cls-14" x="146.99" y="63.07" width="3.14" height="3.13"/><rect class="cls-14" x="151.36" y="63.07" width="3.14" height="3.13"/><rect class="cls-14" x="155.64" y="63.07" width="3.14" height="3.13"/><rect class="cls-14" x="159.8" y="63.17" width="3.14" height="3.13"/><rect class="cls-14" x="164.08" y="63.17" width="3.14" height="3.13"/><rect class="cls-14" x="142.76" y="67.11" width="3.13" height="3.14" transform="translate(213 -75.65) rotate(90)"/><rect class="cls-14" x="142.76" y="71.38" width="3.13" height="3.14" transform="translate(217.28 -71.38) rotate(90)"/><rect class="cls-14" x="142.76" y="75.73" width="3.13" height="3.14" transform="translate(221.63 -67.02) rotate(90)"/><rect class="cls-14" x="142.76" y="80.01" width="3.13" height="3.14" transform="translate(225.91 -62.75) rotate(90)"/><rect class="cls-14" x="142.66" y="84.15" width="3.13" height="3.14" transform="translate(229.95 -58.51) rotate(90)"/><rect class="cls-14" x="142.66" y="88.43" width="3.13" height="3.14" transform="translate(234.23 -54.23) rotate(90)"/><rect class="cls-14" x="142.71" y="101.09" width="3.14" height="3.13"/><rect class="cls-14" x="142.76" y="110.87" width="3.13" height="3.14" transform="translate(256.77 -31.89) rotate(90)"/><rect class="cls-14" x="142.76" y="121.55" width="3.13" height="3.14" transform="translate(267.45 -21.21) rotate(90)"/><rect class="cls-14" x="142.66" y="132.2" width="3.13" height="3.14" transform="translate(278 -10.46) rotate(90)"/><rect class="cls-14" x="177.13" y="110.89" width="3.13" height="3.14" transform="translate(291.15 -66.24) rotate(90)"/><rect class="cls-14" x="177.13" y="115.16" width="3.13" height="3.14" transform="translate(295.43 -61.97) rotate(90)"/><rect class="cls-14" x="177.13" y="119.51" width="3.13" height="3.14" transform="translate(299.78 -57.61) rotate(90)"/><rect class="cls-14" x="177.13" y="123.79" width="3.13" height="3.14" transform="translate(304.06 -53.34) rotate(90)"/><rect class="cls-14" x="177.03" y="127.93" width="3.13" height="3.14" transform="translate(308.1 -49.1) rotate(90)"/><rect class="cls-14" x="177.03" y="132.21" width="3.13" height="3.14" transform="translate(312.38 -44.82) rotate(90)"/><rect class="cls-14" x="177.18" y="84.76" width="3.13" height="3.14" transform="translate(265.07 -92.42) rotate(90)"/><rect class="cls-14" x="177.18" y="89.03" width="3.13" height="3.14" transform="translate(269.35 -88.14) rotate(90)"/><rect class="cls-14" x="177.18" y="93.38" width="3.13" height="3.14" transform="translate(273.7 -83.79) rotate(90)"/><rect class="cls-14" x="177.18" y="97.66" width="3.13" height="3.14" transform="translate(277.98 -79.52) rotate(90)"/><rect class="cls-14" x="177.08" y="101.8" width="3.13" height="3.14" transform="translate(282.02 -75.27) rotate(90)"/><rect class="cls-14" x="177.08" y="106.08" width="3.13" height="3.14" transform="translate(286.3 -71) rotate(90)"/><rect class="cls-14" x="168.37" y="67.5" width="3.14" height="3.13"/><rect class="cls-14" x="168.37" y="71.64" width="3.14" height="3.13"/><rect class="cls-14" x="168.37" y="76" width="3.14" height="3.13"/><path class="cls-16" d="M21.92,75.81c5.41,5.86,20.93,11.59,29.27,13.9L76.7,87.35l25.85,2.09c8.33-2.31,23.51-7.77,28.92-13.63C123.13,78.57,30.26,78.57,21.92,75.81Z"/><rect class="cls-17" x="45.62" y="85.09" width="62.32" height="9.25"/><rect class="cls-18" x="45.62" y="83.5" width="62.32" height="1.59"/><rect class="cls-19" x="44.06" y="83.5" width="1.56" height="11.25"/><rect class="cls-19" x="53.2" y="83.5" width="1.56" height="11.25"/><rect class="cls-19" x="62.34" y="83.5" width="1.56" height="11.25"/><rect class="cls-19" x="71.48" y="83.5" width="1.56" height="11.25"/><rect class="cls-19" x="80.61" y="83.5" width="1.56" height="11.25"/><rect class="cls-19" x="89.75" y="83.5" width="1.56" height="11.25"/><rect class="cls-19" x="98.89" y="83.5" width="1.56" height="11.25"/><rect class="cls-19" x="107.94" y="83.5" width="1.56" height="11.25"/><path class="cls-16" d="M21.92,98.35c5.41,5.87,11,9.24,19.3,11.55h71c8.33-2.31,13.89-5.68,19.3-11.55C123.13,101.12,30.26,101.12,21.92,98.35Z"/><rect class="cls-17" x="42.82" y="107.69" width="67.72" height="21.77"/><rect class="cls-19" x="41.22" y="107.69" width="1.6" height="21.77"/><rect class="cls-19" x="110.54" y="107.69" width="1.6" height="21.77"/><rect class="cls-19" x="55.09" y="107.69" width="1.6" height="21.77"/><rect class="cls-19" x="68.95" y="107.69" width="1.6" height="21.81"/><rect class="cls-19" x="82.81" y="107.69" width="1.6" height="21.81"/><rect class="cls-20" x="43.93" y="110.9" width="2.86" height="1.82" rx="0.47" ry="0.47"/><rect class="cls-20" x="47.47" y="110.9" width="2.86" height="1.82" rx="0.47" ry="0.47"/><rect class="cls-20" x="51" y="110.9" width="2.86" height="1.82" rx="0.47" ry="0.47"/><rect class="cls-20" x="43.93" y="114.68" width="2.86" height="12.33" rx="0.47" ry="0.47"/><rect class="cls-20" x="47.47" y="114.68" width="2.86" height="12.33" rx="0.47" ry="0.47"/><rect class="cls-20" x="51" y="114.68" width="2.86" height="12.33" rx="0.47" ry="0.47"/><rect class="cls-20" x="57.83" y="110.9" width="2.86" height="1.82" rx="0.47" ry="0.47"/><rect class="cls-20" x="61.37" y="110.9" width="2.86" height="1.82" rx="0.47" ry="0.47"/><rect class="cls-20" x="64.9" y="110.9" width="2.86" height="1.82" rx="0.47" ry="0.47"/><rect class="cls-20" x="57.83" y="114.68" width="2.86" height="12.33" rx="0.47" ry="0.47"/><rect class="cls-20" x="61.37" y="114.68" width="2.86" height="12.33" rx="0.47" ry="0.47"/><rect class="cls-20" x="64.9" y="114.68" width="2.86" height="12.33" rx="0.47" ry="0.47"/><rect class="cls-20" x="71.73" y="110.9" width="2.86" height="1.82" rx="0.47" ry="0.47"/><rect class="cls-20" x="75.27" y="110.9" width="2.86" height="1.82" rx="0.47" ry="0.47"/><rect class="cls-20" x="78.8" y="110.9" width="2.86" height="1.82" rx="0.47" ry="0.47"/><rect class="cls-20" x="71.73" y="114.68" width="2.86" height="12.33" rx="0.47" ry="0.47"/><rect class="cls-20" x="75.27" y="114.68" width="2.86" height="12.33" rx="0.47" ry="0.47"/><rect class="cls-20" x="78.8" y="114.68" width="2.86" height="12.33" rx="0.47" ry="0.47"/><rect class="cls-20" x="85.63" y="110.9" width="2.86" height="1.82" rx="0.47" ry="0.47"/><rect class="cls-20" x="89.17" y="110.9" width="2.86" height="1.82" rx="0.47" ry="0.47"/><rect class="cls-20" x="92.7" y="110.9" width="2.86" height="1.82" rx="0.47" ry="0.47"/><rect class="cls-20" x="85.63" y="114.68" width="2.86" height="12.33" rx="0.47" ry="0.47"/><rect class="cls-20" x="89.17" y="114.68" width="2.86" height="12.33" rx="0.47" ry="0.47"/><rect class="cls-20" x="92.7" y="114.68" width="2.86" height="12.33" rx="0.47" ry="0.47"/><rect class="cls-20" x="99.53" y="110.9" width="2.86" height="1.82" rx="0.47" ry="0.47"/><rect class="cls-20" x="103.07" y="110.9" width="2.86" height="1.82" rx="0.47" ry="0.47"/><rect class="cls-20" x="106.6" y="110.9" width="2.86" height="1.82" rx="0.47" ry="0.47"/><rect class="cls-20" x="99.53" y="114.68" width="2.86" height="12.33" rx="0.47" ry="0.47"/><rect class="cls-20" x="103.07" y="114.68" width="2.86" height="12.33" rx="0.47" ry="0.47"/><rect class="cls-20" x="106.6" y="114.68" width="2.86" height="12.33" rx="0.47" ry="0.47"/><rect class="cls-19" x="96.68" y="107.69" width="1.6" height="21.77"/><rect class="cls-21" x="25.61" y="134.07" width="98.09" height="1.94" rx="0.67" ry="0.67"/><rect class="cls-22" x="31.52" y="129.5" width="86.27" height="4.57"/><rect class="cls-4" x="29.96" y="125.41" width="1.57" height="8.66"/><circle class="cls-4" cx="30.74" cy="124.71" r="0.7"/><rect class="cls-4" x="117.8" y="125.41" width="1.57" height="8.66"/><circle class="cls-4" cx="118.58" cy="124.71" r="0.7"/><polygon class="cls-4" points="62.96 134.07 67.21 129.5 82.19 129.5 86.36 134.07 62.96 134.07"/><polygon class="cls-20" points="63.89 133.08 85.45 133.08 86.36 134.07 62.96 134.07 63.89 133.08"/><polygon class="cls-22" points="65.01 131.87 84.36 131.87 85.45 133.08 63.89 133.08 65.01 131.87"/><polygon class="cls-20" points="66.06 130.73 83.31 130.73 84.36 131.87 65.01 131.87 66.06 130.73"/><polygon class="cls-22" points="67.21 129.5 82.19 129.5 83.31 130.73 66.06 130.73 67.21 129.5"/><polygon class="cls-20" points="82.19 129.5 83.71 129.5 87.68 134.07 86.36 134.07 82.19 129.5"/><polygon class="cls-20" points="67.21 129.5 65.67 129.5 61.69 134.07 63.01 134.07 67.21 129.5"/><rect class="cls-4" x="65.79" y="125.41" width="1.14" height="4.09"/><circle class="cls-4" cx="66.36" cy="124.84" r="0.57"/><rect class="cls-4" x="82.39" y="125.41" width="1.14" height="4.09"/><circle class="cls-4" cx="82.96" cy="124.84" r="0.57"/><rect class="cls-4" x="86.1" y="129.7" width="1.14" height="4.35"/><circle class="cls-4" cx="86.67" cy="129.13" r="0.57"/><rect class="cls-4" x="121.55" y="129.7" width="1.14" height="4.35"/><circle class="cls-4" cx="122.12" cy="129.13" r="0.57"/><rect class="cls-4" x="62.21" y="129.7" width="1.14" height="4.35"/><circle class="cls-4" cx="62.78" cy="129.13" r="0.57"/><rect class="cls-4" x="26.71" y="129.7" width="1.14" height="4.35"/><circle class="cls-4" cx="27.28" cy="129.13" r="0.57"/><rect class="cls-4" x="31.52" y="125.41" width="34.26" height="0.67"/><rect class="cls-4" x="27.85" y="129.7" width="34.36" height="0.67"/><rect class="cls-4" x="27.85" y="133.4" width="34.36" height="0.67"/><rect class="cls-4" x="87.19" y="129.7" width="34.36" height="0.67"/><rect class="cls-4" x="87.19" y="133.43" width="34.36" height="0.67"/><rect class="cls-4" x="83.53" y="125.41" width="34.26" height="0.67"/><rect class="cls-4" x="83.53" y="128.79" width="34.26" height="0.67"/><rect class="cls-4" x="31.52" y="128.79" width="34.26" height="0.67"/><path class="cls-23" d="M27.85,130.38v3H62.21v-3Zm2.61,2.25h-.85l-.42-.73.42-.74h.85l.43.74Zm3,0h-.85l-.43-.73.43-.74h.85l.42.74Zm3,0h-.85l-.42-.73.42-.74h.85l.42.74Zm3,0h-.85l-.42-.73.42-.74h.85l.43.74Zm3,0h-.85l-.43-.73.43-.74h.85l.42.74Zm3,0h-.85l-.42-.73.42-.74h.85l.42.74Zm3,0h-.84l-.43-.73.43-.74h.84l.43.74Zm3,0h-.85l-.43-.73.43-.74h.85l.42.74Zm3,0H53.8l-.42-.73.42-.74h.85l.42.74Zm3,0h-.84l-.43-.73.43-.74h.84l.43.74Zm3,0h-.85l-.43-.73.43-.74h.85l.42.74Z"/><path class="cls-23" d="M87.19,130.38v3h34.36v-3Zm2.61,2.25H89l-.42-.73.42-.74h.85l.43.74Zm3,0H92l-.43-.73.43-.74h.85l.42.74Zm3,0H95l-.42-.73.42-.74h.85l.42.74Zm3,0H98l-.43-.73.43-.74h.84l.43.74Zm3,0h-.85l-.43-.73.43-.74h.85l.42.74Zm3,0h-.85l-.42-.73.42-.74h.85l.42.74Zm3,0h-.84l-.43-.73.43-.74h.84l.43.74Zm3,0h-.85l-.43-.73.43-.74H111l.42.74Zm3,0h-.85l-.42-.73.42-.74H114l.43.74Zm3,0h-.84l-.43-.73.43-.74H117l.43.74Zm3,0h-.85l-.42-.73.42-.74H120l.42.74Z"/><path class="cls-23" d="M31.52,126.1v2.71H65.79V126.1Zm.95,2.16.93-1.6.92,1.6Zm4.38,0-.93-1.6h1.85Zm2.52,0,.93-1.6.92,1.6Zm4.38,0-.93-1.6h1.85Zm2.52,0,.93-1.6.92,1.6Zm4.38,0-.93-1.6h1.85Zm2.52,0,.93-1.6.92,1.6Zm4.38,0-.93-1.6h1.85Zm2.52,0,.93-1.6.92,1.6Zm4.38,0-.93-1.6h1.85Z"/><path class="cls-23" d="M83.49,126.1v2.71h34.27V126.1Zm1,2.16.92-1.6.93,1.6Zm4.37,0-.92-1.6h1.85Zm2.53,0,.92-1.6.93,1.6Zm4.37,0-.92-1.6h1.85Zm2.53,0,.92-1.6.93,1.6Zm4.37,0-.92-1.6h1.85Zm2.53,0,.92-1.6.93,1.6Zm4.38,0-.93-1.6h1.85Zm2.52,0,.93-1.6.92,1.6Zm4.38,0-.93-1.6h1.85Z"/><rect class="cls-24" x="42.82" y="107.69" width="67.71" height="2.21"/><rect class="cls-18" x="42.82" y="107.69" width="67.71" height="0.72"/><path class="cls-25" d="M129.29,97s-14.32.39-20.66-3.36c-7.78,1-25.58-.94-32-.94s-24.24,2-32,.94C38.25,97.43,23.93,97,23.93,97l-2.09,1.38c2,1.83,54.75,2.11,54.75,2.11s52.87-.35,54.88-2.18Z"/><rect class="cls-16" x="46.43" y="86.71" width="2.74" height="2.74"/><rect class="cls-16" x="49.81" y="86.71" width="2.74" height="2.74"/><rect class="cls-16" x="55.4" y="86.71" width="2.74" height="2.74"/><rect class="cls-16" x="58.79" y="86.71" width="2.74" height="2.74"/><rect class="cls-16" x="64.62" y="86.71" width="2.74" height="2.74"/><rect class="cls-16" x="68.01" y="86.71" width="2.74" height="2.74"/><rect class="cls-16" x="73.76" y="86.71" width="2.74" height="2.74"/><rect class="cls-16" x="77.15" y="86.71" width="2.74" height="2.74"/><rect class="cls-16" x="46.43" y="86.71" width="2.74" height="2.74"/><rect class="cls-16" x="49.81" y="86.71" width="2.74" height="2.74"/><rect class="cls-16" x="82.9" y="86.71" width="2.74" height="2.74"/><rect class="cls-16" x="86.28" y="86.71" width="2.74" height="2.74"/><rect class="cls-16" x="92.04" y="86.71" width="2.74" height="2.74"/><rect class="cls-16" x="95.42" y="86.71" width="2.74" height="2.74"/><rect class="cls-16" x="101.18" y="86.71" width="2.74" height="2.74"/><rect class="cls-16" x="104.56" y="86.71" width="2.74" height="2.74"/><rect class="cls-17" x="72.25" y="77" width="9.14" height="7.29"/><rect class="cls-20" x="73.5" y="76.94" width="6.38" height="6.37"/><path class="cls-26" d="M55.85,66.39s-2,3.8-3.59,6.67c-2.46,1.65-26.48,1-26.48,1l-3.86,2c3.63,2.43,54.86,2.08,54.86,2.08s51.22.35,54.85-2.08l-3.86-2s-24,.67-26.48-1c-1.63-2.87-3.59-6.67-3.59-6.67Z"/></g></g></g></svg>