<svg xmlns="http://www.w3.org/2000/svg" viewBox="0 0 265.8 145.56"><defs><style>.cls-1{fill:#9ebc51;}.cls-2,.cls-3{fill:none;stroke-miterlimit:10;}.cls-2{stroke:#fefefd;stroke-width:1.48px;}.cls-3{stroke:#fff;}.cls-4{fill:#f2f2f2;}</style></defs><title>Asset 9</title><g id="Layer_2" data-name="Layer 2"><g id="Landing_page_Home" data-name="Landing page // Home"><g id="Post_Card_Green" data-name="Post Card Green"><rect id="BackGround" class="cls-1" width="265.8" height="145.56"/><rect class="cls-2" x="6.61" y="5.82" width="253.57" height="134.05"/><polyline class="cls-3" points="6.61 5.82 55.96 70.99 208.6 70.99 260.18 5.82"/><line class="cls-3" x1="199.68" y1="71.37" x2="260.18" y2="139.87"/><line class="cls-3" x1="64.64" y1="70.99" x2="6.61" y2="139.49"/></g><path class="cls-4" d="M58.48,20.43H62V33.54h.13c.72-1,1.45-2,2.13-2.91l8.31-10.2h4.36L67.08,32,77.69,47.62H73.53l-9-13.36-2.59,3V47.62H58.48Z"/><path class="cls-4" d="M91.68,47.62l-.28-2.46h-.12a7.28,7.28,0,0,1-6,2.9,5.56,5.56,0,0,1-6-5.61c0-4.72,4.19-7.3,11.74-7.26v-.4c0-1.62-.45-4.52-4.44-4.52a9.74,9.74,0,0,0-5.09,1.45l-.8-2.34a12.08,12.08,0,0,1,6.41-1.73c6,0,7.42,4.07,7.42,8v7.31a27.76,27.76,0,0,0,.33,4.68Zm-.52-10c-3.88-.08-8.27.61-8.27,4.4a3.14,3.14,0,0,0,3.34,3.39A4.85,4.85,0,0,0,91,42.17,3.47,3.47,0,0,0,91.16,41Z"/><path class="cls-4" d="M100.31,33.38c0-2,0-3.68-.16-5.29h3.1l.17,3.15h.12a6.72,6.72,0,0,1,6.13-3.59,5.78,5.78,0,0,1,5.53,3.91h.08A8,8,0,0,1,117.45,29a6.69,6.69,0,0,1,4.32-1.37c2.58,0,6.42,1.69,6.42,8.47v11.5h-3.47V36.56c0-3.75-1.37-6-4.24-6a4.6,4.6,0,0,0-4.2,3.23,5.86,5.86,0,0,0-.28,1.77V47.62h-3.47V35.92c0-3.11-1.37-5.37-4.07-5.37a4.86,4.86,0,0,0-4.4,3.55,5,5,0,0,0-.28,1.74V47.62h-3.47Z"/><path class="cls-4" d="M150.29,42.29c0,2,0,3.79.16,5.33H147.3l-.2-3.19H147a7.36,7.36,0,0,1-6.46,3.63c-3.06,0-6.73-1.69-6.73-8.55V28.09h3.55V38.9c0,3.71,1.13,6.21,4.35,6.21a5.13,5.13,0,0,0,4.68-3.22,5,5,0,0,0,.33-1.82v-12h3.55Z"/><path class="cls-4" d="M155.69,44a9.35,9.35,0,0,0,4.68,1.41c2.58,0,3.79-1.29,3.79-2.91s-1-2.62-3.63-3.59c-3.51-1.25-5.17-3.19-5.17-5.52,0-3.15,2.55-5.73,6.74-5.73a9.69,9.69,0,0,1,4.8,1.21L166,31.44a7.5,7.5,0,0,0-4-1.13c-2.1,0-3.27,1.21-3.27,2.66,0,1.62,1.17,2.34,3.71,3.31,3.39,1.29,5.13,3,5.13,5.89,0,3.43-2.66,5.85-7.3,5.85a11.21,11.21,0,0,1-5.49-1.33Z"/><path class="cls-4" d="M176.42,22.48v5.61h5.08v2.7h-5.08V41.32c0,2.42.69,3.79,2.66,3.79a8,8,0,0,0,2.06-.24l.16,2.67a8.72,8.72,0,0,1-3.15.48,5,5,0,0,1-3.83-1.49c-1-1.05-1.37-2.79-1.37-5.09V30.79h-3v-2.7h3V23.41Z"/><path class="cls-4" d="M196.3,47.62,196,45.16h-.12a7.28,7.28,0,0,1-6,2.9,5.56,5.56,0,0,1-6-5.61c0-4.72,4.2-7.3,11.74-7.26v-.4c0-1.62-.44-4.52-4.44-4.52a9.7,9.7,0,0,0-5.08,1.45l-.81-2.34a12.15,12.15,0,0,1,6.42-1.73c6,0,7.42,4.07,7.42,8v7.31a27.83,27.83,0,0,0,.32,4.68Zm-.52-10c-3.87-.08-8.27.61-8.27,4.4a3.14,3.14,0,0,0,3.35,3.39,4.87,4.87,0,0,0,4.72-3.27,3.74,3.74,0,0,0,.2-1.13Z"/><path class="cls-4" d="M207.68,39.91l-.08-1c-.25-2.18.48-4.56,2.5-7,1.81-2.14,2.82-3.71,2.82-5.52,0-2.06-1.29-3.43-3.83-3.47A7.11,7.11,0,0,0,205,24.14l-1-2.55A10.64,10.64,0,0,1,209.82,20c4.63,0,6.73,2.87,6.73,5.93,0,2.75-1.53,4.72-3.47,7-1.77,2.1-2.42,3.87-2.3,5.93l0,1Zm-.89,5.65A2.39,2.39,0,0,1,209.21,43a2.52,2.52,0,1,1-2.42,2.54Z"/></g></g></svg>