<svg xmlns="http://www.w3.org/2000/svg" viewBox="0 0 265.8 145.56"><defs><style>.cls-1{fill:#fcb514;}.cls-17,.cls-2,.cls-21,.cls-3,.cls-4{fill:none;}.cls-10,.cls-11,.cls-12,.cls-13,.cls-14,.cls-2,.cls-3,.cls-4,.cls-5,.cls-6,.cls-7,.cls-8{stroke:#000;}.cls-10,.cls-11,.cls-12,.cls-13,.cls-14,.cls-2,.cls-21,.cls-3,.cls-4,.cls-5,.cls-6,.cls-7,.cls-8{stroke-miterlimit:10;}.cls-2{stroke-width:1.98px;}.cls-3{stroke-width:1.76px;}.cls-4{stroke-width:2.37px;}.cls-5{stroke-width:0.63px;}.cls-6{stroke-width:0.75px;}.cls-7{stroke-width:1.08px;}.cls-8{stroke-width:1.01px;}.cls-9{fill:#fff;}.cls-10{stroke-width:0.92px;}.cls-11{stroke-width:1.09px;}.cls-12{stroke-width:0.69px;}.cls-13{stroke-width:0.83px;}.cls-14{stroke-width:1.35px;}.cls-15{fill:#7abbb5;}.cls-16{fill:#9c808b;}.cls-18{fill:#96ebe2;}.cls-19{fill:#61aba0;}.cls-20{fill:#85d2ca;}.cls-21{stroke:#fefefd;stroke-width:1.48px;}.cls-22{fill:#9ebc51;}.cls-23{fill:#fefefd;}.cls-24{fill:#fefefe;}.cls-25{fill:#c91f1f;}.cls-26{fill:#1f1ca3;}</style></defs><title>Taiwan PostCard</title><g id="Layer_2" data-name="Layer 2"><g id="Landing_page_Home" data-name="Landing page // Home"><g id="Taiwan_PostCard" data-name="Taiwan PostCard"><g id="Background"><rect id="BackGround-2" data-name="BackGround" class="cls-1" width="265.8" height="145.56"/><g id="Liberty"><rect x="13.93" y="137.06" width="7.01" height="7.01"/><rect x="13.93" y="144.44" width="7.01" height="0.73"/><rect x="36.8" y="137.06" width="7.01" height="7.01"/><rect x="36.8" y="144.44" width="7.01" height="0.73"/><rect x="64.03" y="137.06" width="7.01" height="7.01"/><rect x="64.03" y="144.44" width="7.01" height="0.73"/><rect x="96.36" y="137.06" width="7.01" height="7.01"/><rect x="96.36" y="144.44" width="7.01" height="0.73"/><rect x="123.21" y="137.06" width="7.01" height="7.01"/><rect x="123.21" y="144.44" width="7.01" height="0.73"/><rect x="145.71" y="137.06" width="7.01" height="7.01"/><rect x="145.71" y="144.44" width="7.01" height="0.73"/><rect x="16.3" y="119.9" width="2.76" height="16.43" rx="0.33" ry="0.33"/><rect x="38.93" y="119.9" width="2.76" height="16.43" rx="0.33" ry="0.33"/><rect x="65.78" y="117.41" width="2.76" height="18.92" rx="0.33" ry="0.33"/><rect x="97.96" y="117.41" width="2.76" height="18.92" rx="0.33" ry="0.33"/><rect x="125.33" y="119.99" width="2.76" height="16.34" rx="0.33" ry="0.33"/><rect x="147.84" y="119.99" width="2.76" height="16.34" rx="0.33" ry="0.33"/><path class="cls-2" d="M20.23,136.33c0-2-.74-12.09,8.4-12.09s9.14,8.71,9.14,12.09"/><path class="cls-2" d="M129.2,136.33c0-2-.74-12.09,8.4-12.09s9.14,8.71,9.14,12.09"/><path class="cls-3" d="M45.91,137.43c0-1.61-.72-9.73,8.21-9.73s8.93,7,8.93,9.73"/><path class="cls-3" d="M104.72,137.43c0-1.61-.72-9.73,8.21-9.73s8.93,7,8.93,9.73"/><path class="cls-4" d="M71.57,136c0-2-1.07-12.09,12-12.09S96.67,132.61,96.67,136"/><polygon class="cls-5" points="19.74 123.34 23.96 123.34 19.74 127.67 19.74 123.34"/><polygon class="cls-6" points="65.14 125.57 60.09 125.57 65.14 130.75 65.14 125.57"/><polygon class="cls-6" points="42.68 125.11 47.72 125.11 42.68 130.28 42.68 125.11"/><polygon class="cls-7" points="69.22 120.97 76.46 120.97 69.22 128.4 69.22 120.97"/><polygon class="cls-5" points="38.09 123.36 33.88 123.36 38.09 127.69 38.09 123.36"/><polygon class="cls-8" points="96.94 120.76 90.18 120.76 96.94 127.71 96.94 120.76"/><polygon class="cls-5" points="147.38 122.14 143.16 122.14 147.38 126.47 147.38 122.14"/><polygon class="cls-6" points="101.98 125.11 107.02 125.11 101.98 130.28 101.98 125.11"/><polygon class="cls-6" points="124.43 125.43 119.39 125.43 124.43 130.6 124.43 125.43"/><polygon class="cls-5" points="129.02 122.17 133.24 122.17 129.02 126.5 129.02 122.17"/><polygon class="cls-6" points="19.91 122.44 19.91 119.99 21.32 119.99 21.32 111.75 36.62 111.75 36.62 119.99 38.08 119.99 38.08 122.44 19.91 122.44"/><rect class="cls-9" x="23.17" y="113.55" width="11.64" height="6.13"/><rect x="23.93" y="114.22" width="10.13" height="4.95"/><polygon class="cls-6" points="128.88 120.64 128.88 118.19 130.28 118.19 130.28 109.95 145.59 109.95 145.59 118.19 147.05 118.19 147.05 120.64 128.88 120.64"/><rect class="cls-9" x="132.14" y="111.75" width="11.64" height="6.13"/><rect x="132.9" y="112.42" width="10.13" height="4.95"/><path d="M20.22,114.9l-9.15.39s1.72,2.08,9.15,2.08Z"/><path d="M146.74,114.05l9.15.4s-1.73,2.08-9.15,2.08Z"/><polygon class="cls-10" points="102.34 123.64 102.34 120.64 104.07 120.64 104.07 110.55 122.81 110.55 122.81 120.64 124.6 120.64 124.6 123.64 102.34 123.64"/><rect class="cls-9" x="106.34" y="112.75" width="14.26" height="7.51"/><rect x="107.27" y="113.58" width="12.4" height="6.06"/><polygon class="cls-11" points="70.14 119.46 70.14 115.92 72.17 115.92 72.17 104.04 94.25 104.04 94.25 115.92 96.36 115.92 96.36 119.46 70.14 119.46"/><rect class="cls-9" x="74.85" y="106.63" width="16.8" height="8.85"/><rect x="75.95" y="107.61" width="14.61" height="7.14"/><polygon class="cls-10" points="42.61 123.64 42.61 120.64 44.33 120.64 44.33 110.55 63.07 110.55 63.07 120.64 64.86 120.64 64.86 123.64 42.61 123.64"/><rect class="cls-9" x="46.6" y="112.75" width="14.26" height="7.51"/><rect x="47.53" y="113.58" width="12.4" height="6.06"/><rect class="cls-12" x="123.57" y="114.81" width="5.76" height="2.28" rx="0.63" ry="0.63"/><rect class="cls-12" x="95.93" y="111.28" width="5.76" height="2.28" rx="0.63" ry="0.63"/><rect class="cls-12" x="64.12" y="111.28" width="5.76" height="2.28" rx="0.63" ry="0.63"/><rect class="cls-12" x="37.43" y="115.37" width="5.76" height="2.28" rx="0.63" ry="0.63"/><path class="cls-12" d="M126.26,106.09s4.11,1.58,6.36-.62c2.36.73,8.66.9,10.85,0,.9.79,2.25,1.84,5.91.59l.29.58c-.74.43-6.07,1-11.93,1C133.73,107.7,129.47,107.79,126.26,106.09Z"/><path class="cls-12" d="M17.29,106.09s4.11,1.58,6.36-.62c2.36.73,8.66.9,10.85,0,.9.79,2.25,1.84,5.91.59l.29.58c-.74.43-6.07,1-11.93,1C24.76,107.7,20.5,107.79,17.29,106.09Z"/><path class="cls-13" d="M98.81,103.45s5,1.9,7.66-.74c2.84.88,10.43,1.08,13.07,0,1.09.94,2.71,2.21,7.12.7l.34.7c-.89.51-7.31,1.21-14.37,1.25C107.8,105.39,102.68,105.5,98.81,103.45Z"/><path class="cls-13" d="M39.5,103.45s4.94,1.9,7.65-.74c2.85.88,10.44,1.08,13.08,0,1.08.94,2.71,2.21,7.11.7l.35.7c-.89.51-7.31,1.21-14.37,1.25C48.49,105.39,43.36,105.5,39.5,103.45Z"/><path class="cls-14" d="M58.89,96.73s8,3.08,12.44-1.21c4.63,1.43,17,1.76,21.25,0,1.77,1.54,4.41,3.6,11.57,1.14l.56,1.14c-1.45.84-11.88,2-23.36,2C73.51,99.88,65.17,100.06,58.89,96.73Z"/></g><g id="Taipei_101" data-name="Taipei 101"><polygon class="cls-15" points="205.08 121.91 197.36 145.26 223.21 145.28 215.28 121.92 205.08 121.91"/><rect class="cls-9" x="207.44" y="121.78" width="5.18" height="23"/><rect class="cls-16" x="204.28" y="129.75" width="11.5" height="2.74"/><rect class="cls-16" x="204.28" y="136.51" width="11.5" height="2.74"/><line class="cls-17" x1="202.42" y1="129.96" x2="218.07" y2="129.97"/><line class="cls-17" x1="218.87" y1="132.5" x2="201.53" y2="132.49"/><line class="cls-17" x1="200.81" y1="134.84" x2="219.57" y2="134.85"/><line class="cls-17" x1="220.36" y1="136.9" x2="200.08" y2="136.88"/><line class="cls-17" x1="199.35" y1="139.24" x2="221.16" y2="139.25"/><line class="cls-17" x1="221.93" y1="141.51" x2="198.55" y2="141.49"/><g id="_101" data-name="101"><polyline class="cls-18" points="210.16 110 217.13 110 216.25 118.86 204.07 118.85 203.2 110 210.16 110"/><polygon class="cls-19" points="208.42 111.16 208.42 118.38 212.14 118.38 212.14 111.16 210.81 111.16 210.81 112.46 209.75 112.46 209.75 111.16 208.42 111.16"/><polygon class="cls-20" points="217.01 111.24 203.32 111.23 203.2 110 217.13 110 217.01 111.24"/><polygon class="cls-9" points="214.47 110 217.01 111.24 217.13 110 214.47 110"/><polygon class="cls-9" points="205.86 110 203.32 111.23 203.2 110 205.86 110"/><line class="cls-17" x1="203.41" y1="112.12" x2="216.91" y2="112.13"/><polygon class="cls-9" points="212.15 109.93 208.42 109.93 208.42 111.16 209.75 111.16 209.75 112.54 210.81 112.54 210.81 111.16 212.14 111.16 212.15 109.93"/><line class="cls-17" x1="216.85" y1="112.83" x2="203.47" y2="112.82"/><line class="cls-17" x1="216.77" y1="113.65" x2="203.55" y2="113.64"/><line class="cls-17" x1="203.64" y1="114.42" x2="216.69" y2="114.43"/><line class="cls-17" x1="216.6" y1="115.37" x2="203.74" y2="115.36"/><line class="cls-17" x1="203.82" y1="116.27" x2="216.53" y2="116.28"/><line class="cls-17" x1="203.92" y1="117.32" x2="216.41" y2="117.33"/><polyline class="cls-18" points="210.17 101.11 217.13 101.12 216.26 109.97 204.07 109.96 203.21 101.11 210.17 101.11"/><polygon class="cls-19" points="208.43 102.27 208.42 109.75 212.15 109.75 212.15 102.28 210.82 102.28 210.82 103.62 209.76 103.61 209.76 102.28 208.43 102.27"/><polygon class="cls-20" points="217.01 102.35 203.33 102.34 203.21 101.11 217.13 101.12 217.01 102.35"/><polygon class="cls-9" points="214.47 101.12 217.01 102.35 217.13 101.12 214.47 101.12"/><polygon class="cls-9" points="205.87 101.11 203.33 102.34 203.21 101.11 205.87 101.11"/><line class="cls-17" x1="203.42" y1="103.23" x2="216.92" y2="103.24"/><polygon class="cls-9" points="212.15 101.04 208.43 101.04 208.43 102.27 209.76 102.28 209.76 103.65 210.82 103.65 210.82 102.28 212.15 102.28 212.15 101.04"/><line class="cls-17" x1="216.85" y1="103.95" x2="203.48" y2="103.94"/><line class="cls-17" x1="216.77" y1="104.76" x2="203.55" y2="104.75"/><line class="cls-17" x1="203.64" y1="105.53" x2="216.69" y2="105.54"/><line class="cls-17" x1="216.6" y1="106.48" x2="203.75" y2="106.47"/><line class="cls-17" x1="203.82" y1="107.39" x2="216.54" y2="107.4"/><line class="cls-17" x1="203.92" y1="108.43" x2="216.42" y2="108.44"/><polyline class="cls-18" points="210.18 92.21 217.14 92.21 216.26 101.06 204.08 101.06 203.22 92.2 210.18 92.21"/><polygon class="cls-19" points="208.44 93.37 208.43 101.04 212.15 101.04 212.16 93.37 210.82 93.37 210.82 94.75 209.77 94.75 209.77 93.37 208.44 93.37"/><polygon class="cls-20" points="217.02 93.45 203.34 93.44 203.22 92.2 217.14 92.21 217.02 93.45"/><polygon class="cls-9" points="214.48 92.21 217.02 93.45 217.14 92.21 214.48 92.21"/><polygon class="cls-9" points="205.88 92.2 203.33 93.44 203.22 92.2 205.88 92.2"/><line class="cls-17" x1="203.42" y1="94.33" x2="216.92" y2="94.34"/><polygon class="cls-9" points="212.16 92.14 208.44 92.14 208.44 93.37 209.77 93.37 209.77 94.75 210.82 94.75 210.82 93.37 212.16 93.37 212.16 92.14"/><line class="cls-17" x1="216.86" y1="95.04" x2="203.48" y2="95.03"/><line class="cls-17" x1="216.78" y1="95.86" x2="203.56" y2="95.85"/><line class="cls-17" x1="203.65" y1="96.63" x2="216.7" y2="96.64"/><line class="cls-17" x1="216.61" y1="97.58" x2="203.76" y2="97.57"/><line class="cls-17" x1="203.83" y1="98.48" x2="216.54" y2="98.49"/><line class="cls-17" x1="203.93" y1="99.53" x2="216.42" y2="99.54"/><polyline class="cls-18" points="210.19 83.32 217.15 83.33 216.27 92.18 204.09 92.17 203.22 83.32 210.19 83.32"/><polygon class="cls-19" points="208.44 84.48 208.44 91.96 212.16 91.96 212.16 84.49 210.83 84.48 210.83 85.83 209.77 85.82 209.77 84.48 208.44 84.48"/><polygon class="cls-20" points="217.03 84.56 203.34 84.55 203.22 83.32 217.15 83.33 217.03 84.56"/><polygon class="cls-9" points="214.49 83.33 217.03 84.56 217.15 83.33 214.49 83.33"/><polygon class="cls-9" points="205.88 83.32 203.34 84.55 203.22 83.32 205.88 83.32"/><line class="cls-17" x1="203.43" y1="85.44" x2="216.93" y2="85.45"/><polygon class="cls-9" points="212.16 83.25 208.44 83.25 208.44 84.48 209.77 84.48 209.77 85.86 210.83 85.86 210.83 84.48 212.16 84.49 212.16 83.25"/><line class="cls-17" x1="216.87" y1="86.16" x2="203.49" y2="86.15"/><line class="cls-17" x1="216.79" y1="86.97" x2="203.57" y2="86.96"/><line class="cls-17" x1="203.66" y1="87.74" x2="216.71" y2="87.75"/><line class="cls-17" x1="216.62" y1="88.69" x2="203.76" y2="88.68"/><line class="cls-17" x1="203.84" y1="89.59" x2="216.55" y2="89.6"/><line class="cls-17" x1="203.94" y1="90.64" x2="216.43" y2="90.65"/><polyline class="cls-18" points="210.19 74.4 217.15 74.41 216.28 83.25 204.09 83.25 203.23 74.39 210.19 74.4"/><polygon class="cls-19" points="208.45 75.56 208.44 83.25 212.16 83.25 212.17 75.56 210.84 75.56 210.84 76.94 209.78 76.94 209.78 75.56 208.45 75.56"/><polygon class="cls-20" points="217.03 75.64 203.35 75.63 203.23 74.39 217.15 74.41 217.03 75.64"/><polygon class="cls-9" points="214.49 74.4 217.03 75.64 217.15 74.41 214.49 74.4"/><polygon class="cls-9" points="205.89 74.4 203.35 75.63 203.23 74.39 205.89 74.4"/><line class="cls-17" x1="203.44" y1="76.52" x2="216.94" y2="76.53"/><polygon class="cls-9" points="212.17 74.33 208.45 74.33 208.45 75.56 209.78 75.56 209.78 76.94 210.84 76.94 210.84 75.56 212.17 75.56 212.17 74.33"/><line class="cls-17" x1="216.87" y1="77.23" x2="203.49" y2="77.22"/><line class="cls-17" x1="216.79" y1="78.05" x2="203.57" y2="78.04"/><line class="cls-17" x1="203.66" y1="78.82" x2="216.71" y2="78.83"/><line class="cls-17" x1="216.62" y1="79.77" x2="203.77" y2="79.76"/><line class="cls-17" x1="203.84" y1="80.67" x2="216.56" y2="80.68"/><line class="cls-17" x1="203.94" y1="81.72" x2="216.44" y2="81.73"/><polyline class="cls-18" points="210.2 65.51 217.16 65.52 216.28 74.37 204.1 74.36 203.24 65.51 210.2 65.51"/><polygon class="cls-19" points="208.45 66.67 208.45 74.15 212.17 74.15 212.18 66.68 210.84 66.68 210.84 68.02 209.79 68.02 209.79 66.67 208.45 66.67"/><polygon class="cls-20" points="217.04 66.75 203.36 66.74 203.24 65.51 217.16 65.52 217.04 66.75"/><polygon class="cls-9" points="214.5 65.52 217.04 66.75 217.16 65.52 214.5 65.52"/><polygon class="cls-9" points="205.9 65.51 203.35 66.74 203.24 65.51 205.9 65.51"/><line class="cls-17" x1="203.44" y1="67.63" x2="216.94" y2="67.64"/><polygon class="cls-9" points="212.18 65.44 208.46 65.44 208.45 66.67 209.79 66.67 209.79 68.05 210.84 68.05 210.84 66.68 212.18 66.68 212.18 65.44"/><line class="cls-17" x1="216.88" y1="68.35" x2="203.5" y2="68.34"/><line class="cls-17" x1="216.8" y1="69.16" x2="203.58" y2="69.15"/><line class="cls-17" x1="203.67" y1="69.93" x2="216.72" y2="69.94"/><line class="cls-17" x1="216.63" y1="70.88" x2="203.78" y2="70.87"/><line class="cls-17" x1="203.85" y1="71.79" x2="216.56" y2="71.79"/><line class="cls-17" x1="203.95" y1="72.83" x2="216.44" y2="72.84"/><polyline class="cls-18" points="210.21 56.61 217.17 56.61 216.29 65.46 204.11 65.45 203.24 56.6 210.21 56.61"/><polygon class="cls-19" points="208.46 57.77 208.46 65.44 212.18 65.44 212.18 57.77 210.85 57.77 210.85 59.15 209.79 59.15 209.79 57.77 208.46 57.77"/><polygon class="cls-20" points="217.05 57.85 203.36 57.84 203.24 56.6 217.17 56.61 217.05 57.85"/><polygon class="cls-9" points="214.51 56.61 217.05 57.85 217.17 56.61 214.51 56.61"/><polygon class="cls-9" points="205.9 56.6 203.36 57.84 203.24 56.6 205.9 56.6"/><line class="cls-17" x1="203.45" y1="58.73" x2="216.95" y2="58.74"/><polygon class="cls-9" points="212.19 56.54 208.46 56.53 208.46 57.77 209.79 57.77 209.79 59.15 210.85 59.15 210.85 57.77 212.18 57.77 212.19 56.54"/><line class="cls-17" x1="216.89" y1="59.44" x2="203.51" y2="59.43"/><line class="cls-17" x1="216.81" y1="60.26" x2="203.59" y2="60.25"/><line class="cls-17" x1="203.68" y1="61.03" x2="216.73" y2="61.04"/><line class="cls-17" x1="216.63" y1="61.98" x2="203.78" y2="61.97"/><line class="cls-17" x1="203.86" y1="62.88" x2="216.57" y2="62.89"/><line class="cls-17" x1="203.96" y1="63.93" x2="216.45" y2="63.94"/><polyline class="cls-18" points="210.21 47.72 217.17 47.73 216.3 56.58 204.11 56.57 203.25 47.72 210.21 47.72"/><polygon class="cls-19" points="208.47 48.88 208.46 56.36 212.19 56.36 212.19 48.88 210.86 48.88 210.86 50.22 209.8 50.22 209.8 48.88 208.47 48.88"/><polygon class="cls-20" points="217.06 48.96 203.37 48.95 203.25 47.72 217.17 47.73 217.06 48.96"/><polygon class="cls-9" points="214.51 47.73 217.06 48.96 217.17 47.73 214.51 47.73"/><polygon class="cls-9" points="205.91 47.72 203.37 48.95 203.25 47.72 205.91 47.72"/><line class="cls-17" x1="203.46" y1="49.84" x2="216.96" y2="49.85"/><polygon class="cls-9" points="212.19 47.65 208.47 47.65 208.47 48.88 209.8 48.88 209.8 50.26 210.86 50.26 210.86 48.88 212.19 48.88 212.19 47.65"/><line class="cls-17" x1="216.89" y1="50.56" x2="203.51" y2="50.55"/><line class="cls-17" x1="216.81" y1="51.37" x2="203.59" y2="51.36"/><line class="cls-17" x1="203.68" y1="52.14" x2="216.73" y2="52.15"/><line class="cls-17" x1="216.64" y1="53.09" x2="203.79" y2="53.08"/><line class="cls-17" x1="203.86" y1="53.99" x2="216.58" y2="54"/><line class="cls-17" x1="203.96" y1="55.04" x2="216.46" y2="55.05"/><rect class="cls-16" x="202.08" y="119.38" width="15.93" height="2.53"/><circle class="cls-15" cx="210.04" cy="120.65" r="2.59"/><rect class="cls-15" x="218.64" y="118.54" width="0.83" height="4.24"/><rect class="cls-15" x="200.99" y="118.52" width="0.83" height="4.24"/></g><line class="cls-17" x1="204.36" y1="124.1" x2="215.94" y2="124.11"/><line class="cls-17" x1="203.74" y1="125.98" x2="216.68" y2="125.99"/><line class="cls-17" x1="217.22" y1="127.63" x2="203.07" y2="127.62"/><polygon class="cls-19" points="212.99 42.48 214.9 44.77 214.9 47.53 205.67 47.53 205.67 44.77 207.58 42.48 212.99 42.48"/><polygon class="cls-19" points="205.81 44.73 214.76 44.73 212.91 42.51 207.66 42.51 205.81 44.73"/><polygon class="cls-19" points="207.56 32.9 207.22 36.32 208.76 42.48 211.87 42.48 213.35 36.32 213.01 32.9 207.56 32.9"/><polygon class="cls-9" points="208.77 32.9 209.51 15.63 211.2 15.63 211.79 32.9 208.77 32.9"/><line class="cls-17" x1="207.47" y1="33.78" x2="213.12" y2="33.78"/><line class="cls-17" x1="207.35" y1="35" x2="213.12" y2="35"/><line class="cls-17" x1="207.22" y1="36.32" x2="213.35" y2="36.32"/><line class="cls-17" x1="207.47" y1="37.33" x2="213.12" y2="37.33"/><line class="cls-17" x1="212.94" y1="38.01" x2="207.66" y2="38.01"/><line class="cls-17" x1="207.78" y1="38.56" x2="212.8" y2="38.56"/><line class="cls-17" x1="212.69" y1="39.12" x2="207.94" y2="39.12"/><line class="cls-17" x1="208.07" y1="39.73" x2="212.55" y2="39.73"/><line class="cls-17" x1="212.34" y1="40.51" x2="208.31" y2="40.51"/><line class="cls-17" x1="208.48" y1="41.35" x2="212.13" y2="41.35"/><line class="cls-17" x1="211.99" y1="41.98" x2="208.66" y2="41.98"/></g><rect class="cls-21" x="6.61" y="5.82" width="253.57" height="134.05"/></g><g id="Taiwan"><path class="cls-22" d="M23,18.3H17.7V15H32.62V18.3H27.44V46.57H23Z"/><path class="cls-22" d="M39.49,15h4.24l6.74,31.54H46.31l-1.45-7.94H38.44l-1.52,7.94H32.79Zm4.79,20.44L41.63,21.26,39,35.47Z"/><path class="cls-22" d="M53.54,15h4.32V46.57H53.54Z"/><path class="cls-22" d="M61.43,15H65.1l3.38,22.66,4.25-22.55h3.12l4.28,22.67L83.44,15H87L82,46.57H78.77L74.37,23.2,69.93,46.57H66.58Z"/><path class="cls-22" d="M94.15,15H98.4l6.73,31.54H101l-1.45-7.94H93.1l-1.52,7.94H87.45Zm4.79,20.44L96.29,21.26,93.68,35.47Z"/><path class="cls-22" d="M107.81,15h3l9,20.95V15h3.67V46.57h-2.81L111.55,25V46.57h-3.74Z"/><path class="cls-9" d="M26.11,44.91H20.56V17.34h-5.2V12.89h15.8v4.45H26.11Zm-4.29-1.26h3V16.08h5V14.15H16.62v1.93h5.2Z"/><path class="cls-9" d="M49.77,44.91H44.39L43,37.17H37.78L36.3,44.91H31l6.8-32h5.16Zm-4.32-1.26H48.2l-6.29-29.5H38.79l-6.26,29.5h2.72l1.48-7.75h7.32Zm-1.74-9.56H37.06l3.3-18Zm-5.13-1.27h3.61l-1.82-9.74Z"/><path class="cls-9" d="M57.17,44.91H51.69v-32h5.48ZM53,43.65h2.95V14.15H53Z"/><path class="cls-9" d="M81,44.91H76.86l-3.77-20-3.8,20H65l-5.21-32H64.6l2.83,18.93L71,13h4.08l3.58,18.9,2.76-19h4.78Zm-3.13-1.26h2l4.74-29.5H82.49L78.8,39.57,74,14.27H72L67.29,39.42,63.51,14.15H61.23L66,43.65h2.2L73.1,18.09Z"/><path class="cls-9" d="M104.41,44.91H99l-1.4-7.74H92.42l-1.49,7.74H85.61l6.8-32h5.16Zm-4.32-1.26h2.75l-6.3-29.5H93.43l-6.26,29.5h2.72l1.48-7.75h7.32Zm-1.74-9.56H91.7l3.3-18Zm-5.13-1.27h3.61L95,23.08Z"/><path class="cls-9" d="M122.6,44.91h-3.79L111,26.41v18.5h-4.91v-32h4l7.68,18v-18h4.84Zm-2.95-1.26h1.68V14.15H119V37l-9.79-22.89h-1.87v29.5h2.38V20.15Z"/></g><g id="Cloud2"><path class="cls-23" d="M226.9,53.35l.2-.52a2.81,2.81,0,0,1,1.24-.76h.54c.17.08.4.1.48.23.6,1,1.52.69,2.38.65a1.65,1.65,0,0,1,1,1.53.7.7,0,0,0,.41.62c.32.21.31.55.32.88l-.52.57-7.51,0c-.88-.6-.93-1.1-.09-1.61.35-.21.26-.47.32-.73a1,1,0,0,1,.82-.39C226.93,53.9,226.91,53.62,226.9,53.35Z"/><path class="cls-24" d="M186.53,27.12h.5a2.3,2.3,0,0,1,.68.27c.61.53,1.16.78,1.83.06a1.07,1.07,0,0,1,1.06-.15c.59.17.57-.3.63-.66a4.29,4.29,0,0,1,2.28-2.27,4.24,4.24,0,0,1,3.7.79,6.86,6.86,0,0,1,1.29,3c1.74.64,2.87,1.68,2.49,3.74a3.47,3.47,0,0,1-2.3,2l-17.16,0a4.93,4.93,0,0,1-1.71-.2c-.76-1.46-.35-2.15,1.3-2.18.78,0,1.56,0,2.5,0-.34-.62-.54-1.2.17-1.58.3-.05.8.44.8-.4A2.32,2.32,0,0,1,186.53,27.12Z"/><path class="cls-24" d="M223.09,12.17h.5a2.07,2.07,0,0,1,.68.28c.61.52,1.16.78,1.83.05a1.07,1.07,0,0,1,1.06-.15c.59.17.57-.3.63-.66a4.24,4.24,0,0,1,2.28-2.26,4.21,4.21,0,0,1,3.7.78,6.86,6.86,0,0,1,1.29,3c1.74.64,2.87,1.69,2.49,3.74a3.45,3.45,0,0,1-2.3,2l-17.16,0a4.93,4.93,0,0,1-1.71-.2c-.76-1.46-.35-2.15,1.3-2.18.78,0,1.56,0,2.5,0-.34-.62-.54-1.19.17-1.58.3,0,.8.44.8-.4A2.32,2.32,0,0,1,223.09,12.17Z"/><path class="cls-24" d="M256,44.33h.54a2.26,2.26,0,0,1,1.8,1.81c0,.24,0,.48,0,.72a2.94,2.94,0,0,1-1.86,1.57h-10.3c-1-.62-1.16-1.2-.51-1.79a.83.83,0,0,1,1.06-.14c.21.12.33.09.26-.19.08-1.22.32-1.36,1.62-1.48.59-.05.27-.67.35-1,.72-.84,1.5-1.53,2.73-1.1a3.65,3.65,0,0,1,1.14,1.07c1.31-1,1.6-1,2.66.49C255.67,44.43,255.86,44.36,256,44.33Z"/></g><g id="Cloud1"><path class="cls-24" d="M187.55,51.15a1.31,1.31,0,0,0,.77.15,5.33,5.33,0,0,1,1.05,1.44,1.22,1.22,0,0,0,.51,1.3.86.86,0,0,1,.28,1.12,1.19,1.19,0,0,1-1.12.75c-.92,0-1.84,0-2.77,0-1.87,0-3.75,0-5.63,0a1.54,1.54,0,0,1-1.45-.69,1.16,1.16,0,0,1,.76-1.5c.34-.13.33-.37.3-.64s.29-.66.54-.64c.88,0,1-.59,1.27-1.16.62-1.24,2.5-1.62,3.31-.59a1.36,1.36,0,0,0,1.92.44Z"/><path class="cls-24" d="M229.67,35.84a1.31,1.31,0,0,0,.77.15,5.09,5.09,0,0,1,1,1.44,1.26,1.26,0,0,0,.51,1.3.86.86,0,0,1,.29,1.12,1.19,1.19,0,0,1-1.12.75c-.92,0-1.85,0-2.77,0h-5.63a1.53,1.53,0,0,1-1.45-.69,1.15,1.15,0,0,1,.76-1.5c.34-.13.33-.37.3-.64s.28-.66.54-.64c.87,0,1-.59,1.26-1.16.63-1.24,2.51-1.62,3.32-.59a1.36,1.36,0,0,0,1.92.44Z"/><path class="cls-24" d="M253.21,31.8h.54a2.25,2.25,0,0,1,1.81,1.8c0,.24,0,.48,0,.72a3,3,0,0,1-1.87,1.58H243.42c-1-.61-1.16-1.19-.52-1.79A.84.84,0,0,1,244,34c.22.12.34.1.27-.19.08-1.21.31-1.36,1.62-1.47.58-.06.26-.68.34-1,.72-.85,1.5-1.53,2.73-1.1a3.54,3.54,0,0,1,1.15,1.06c1.31-1,1.6-.95,2.66.5C252.85,31.9,253,31.83,253.21,31.8Z"/></g><g id="Flag"><rect class="cls-25" x="135.72" y="19.6" width="31.43" height="22.41"/><rect class="cls-26" x="135.72" y="19.6" width="13.52" height="11.1"/><circle class="cls-24" cx="142.48" cy="25.27" r="2.1"/><path class="cls-24" d="M142.05,22.89a.84.84,0,0,1,.76,0l-.38-1.39Z"/><path class="cls-24" d="M140.92,23.43a.83.83,0,0,1,.66-.38l-1-1Z"/><path class="cls-24" d="M140.21,24.46a.8.8,0,0,1,.38-.66l-1.39-.37Z"/><path class="cls-24" d="M140.11,25.7a.84.84,0,0,1,0-.76l-1.39.38Z"/><path class="cls-24" d="M140.65,26.83a.83.83,0,0,1-.38-.66l-1,1Z"/><path class="cls-24" d="M141.68,27.54a.8.8,0,0,1-.66-.38l-.37,1.39Z"/><path class="cls-24" d="M142.92,27.64a.84.84,0,0,1-.76,0l.38,1.39Z"/><path class="cls-24" d="M144.05,27.1a.83.83,0,0,1-.66.38l1,1Z"/><path class="cls-24" d="M144.76,26.07a.8.8,0,0,1-.38.66l1.39.37Z"/><path class="cls-24" d="M144.86,24.83a.84.84,0,0,1,0,.76l1.39-.38Z"/><path class="cls-24" d="M144.32,23.7a.83.83,0,0,1,.38.66l1-1Z"/><path class="cls-24" d="M143.29,23a.8.8,0,0,1,.66.38l.37-1.39Z"/></g></g></g></g></svg>