<svg xmlns="http://www.w3.org/2000/svg" viewBox="0 0 265.8 145.56"><defs><style>.cls-1{fill:#9ebc51;}.cls-2,.cls-3{fill:none;stroke-miterlimit:10;}.cls-2{stroke:#fefefd;stroke-width:1.48px;}.cls-3{stroke:#fff;}.cls-4{fill:#fff;}</style></defs><title>TaiwanGreen_1</title><g id="Layer_2" data-name="Layer 2"><g id="Landing_page_Home" data-name="Landing page // Home"><rect id="BackGround" class="cls-1" width="265.8" height="145.56"/><rect class="cls-2" x="6.61" y="5.82" width="253.57" height="134.05"/><polyline class="cls-3" points="6.61 5.82 55.96 70.99 208.6 70.99 260.18 5.82"/><line class="cls-3" x1="199.68" y1="71.37" x2="260.18" y2="139.87"/><line class="cls-3" x1="64.64" y1="70.99" x2="6.61" y2="139.49"/><path class="cls-4" d="M113,35.41a31.6,31.6,0,0,1-2.65,4,12.3,12.3,0,0,0-1.1-1.38c2.4-2.86,4.69-7.7,6.14-12.42l2.12.64c-.1.25-.33.3-.61.28a58.5,58.5,0,0,1-2.42,6l.74.21c-.06.15-.18.28-.51.3V49.28H113Zm17.46.61c.21-.94.46-2.37.69-3.75h-5.07V47.16c0,1.84-.67,2.17-4.23,2.17a7.34,7.34,0,0,0-.64-1.76c.64,0,1.25,0,1.73,0h1c.33,0,.43-.11.43-.44V32.27h-4.1a22,22,0,0,1-2.63,4.82,7.11,7.11,0,0,0-1.3-1.05c1.84-2.37,3.34-6.37,4.21-10.37l2.12.56c0,.18-.23.28-.56.25a39.38,39.38,0,0,1-1.23,4.18h11.27l.89,0a44.09,44.09,0,0,1-1.14,5.61Zm-8.16.84c-.07.18-.25.28-.56.28a25,25,0,0,1-3.82,8.52,7.8,7.8,0,0,0-1.35-.87,23.45,23.45,0,0,0,3.67-8.49Zm9.26,8.59A35.11,35.11,0,0,0,128,36.66l1.5-.54a33.47,33.47,0,0,1,3.62,8.72Z"/><path class="cls-4" d="M143.71,30.92l1,.26-.15.35a33.25,33.25,0,0,1-2.45,11,17.76,17.76,0,0,1,3,2.78L144,46.68A17.26,17.26,0,0,0,141.32,44a13.83,13.83,0,0,1-5,5.33A7.28,7.28,0,0,0,135.2,48,12,12,0,0,0,140,43a33,33,0,0,0-2.91-2l-.3,1.12-1.46-.77c.64-2.24,1.43-5.48,2.17-8.77h-2.55V31h2.91c.41-1.92.76-3.75,1.07-5.38l2.09.25c0,.18-.18.28-.51.31-.28,1.45-.64,3.11-1,4.82h3.93Zm-4.59,1.68c-.53,2.37-1.12,4.77-1.65,6.86,1.07.59,2.16,1.3,3.23,2a30.3,30.3,0,0,0,2.12-8.88ZM158.58,37v1.66h-6.15v8.44c0,2-.76,2.27-5.28,2.21a8.9,8.9,0,0,0-.63-1.7c1.22,0,2.34,0,3.06,0s1.12,0,1.12-.54V38.65h-6.25V37h6.25V32.65l.84.05a24.84,24.84,0,0,0,3.77-4.15H145.5V26.94h11.11l.34-.1,1.35.84a.77.77,0,0,1-.41.26,33.12,33.12,0,0,1-5.46,5.89V37Z"/><path class="cls-4" d="M175.09,36.91c.16,3-1.4,4.11-3.16,4.11a9.81,9.81,0,0,1-4.1-1.25,9.4,9.4,0,0,0-3.6-1.28c-1.07,0-1.71.82-1.73,2.45H161c-.1-2.65,1.36-4.1,3.29-4.1,1.13,0,2.09.38,4,1.27a9.57,9.57,0,0,0,3.7,1.22c1.1,0,1.61-.91,1.61-2.42Z"/></g></g></svg>