<svg xmlns="http://www.w3.org/2000/svg" viewBox="0 0 266.35 145.72"><defs><style>.cls-1{fill:#fcb514;}.cls-10,.cls-19,.cls-2,.cls-34{fill:none;}.cls-2{stroke:#fefefd;}.cls-10,.cls-18,.cls-19,.cls-2,.cls-20,.cls-21,.cls-22,.cls-23,.cls-24,.cls-34,.cls-9{stroke-miterlimit:10;}.cls-3{fill:#9ebc51;}.cls-4{fill:#fff;}.cls-5{fill:#c91f1f;}.cls-6{fill:#162093;}.cls-7{fill:#f09117;}.cls-18,.cls-20,.cls-21,.cls-22,.cls-23,.cls-24,.cls-8{fill:#6e523b;}.cls-9{fill:#fec260;stroke:#c7863b;}.cls-10,.cls-19,.cls-9{stroke-width:0.3px;}.cls-10{stroke:#c7863d;}.cls-11{fill:#a66d45;}.cls-12{fill:#f4b867;}.cls-13{fill:#fbaa64;}.cls-14{fill:#e08549;}.cls-15{fill:#fdab5f;}.cls-16{fill:#fcbe69;}.cls-17{fill:#ffe773;}.cls-18,.cls-20,.cls-21,.cls-22,.cls-23,.cls-24{stroke:#ffe773;}.cls-18{stroke-width:0.08px;}.cls-19{stroke:#754616;}.cls-20{stroke-width:0.1px;}.cls-21{stroke-width:0.13px;}.cls-22{stroke-width:0.13px;}.cls-23{stroke-width:0.13px;}.cls-24{stroke-width:0.3px;}.cls-25{fill:#595758;}.cls-26{fill:#504e4f;}.cls-27{fill:#514f4f;}.cls-28{fill:#5a5859;}.cls-29{fill:#eee;}.cls-30{fill:#f1f2f2;}.cls-31{fill:#725316;}.cls-32{fill:#209133;}.cls-33{fill:#48c6d3;}.cls-34{stroke:#225254;stroke-width:0.25px;}.cls-35{fill:#38a0a5;}.cls-36{fill:#215254;}.cls-37{fill:#2f7f7f;}.cls-38{opacity:0.2;}.cls-39{fill:#939393;}.cls-40{fill:#046060;}.cls-41{fill:#0d345b;}.cls-42{fill:#f96500;}.cls-43{fill:#b5b5b5;}</style></defs><title>Thailand PostCard</title><g id="Layer_2" data-name="Layer 2"><g id="Landing_page_Home" data-name="Landing page // Home"><g id="Thailand_PostCard" data-name="Thailand PostCard"><g id="Background"><rect id="BackGround-2" data-name="BackGround" class="cls-1" width="266.35" height="145.72"/><rect class="cls-2" x="6.13" y="6.89" width="254.09" height="134.2"/><path class="cls-3" d="M19.73,20.66H14.52V17.47H29.1v3.19H24v27.6H19.73Z"/><path class="cls-4" d="M23.4,46.36H17.83V18.76H12.62V14.3H28.46v4.46H23.4Zm-4.3-1.27h3V17.49h5.06V15.57H13.89v1.92H19.1Z"/><path class="cls-3" d="M32.06,17.47h4.3v13.3h7.92V17.47h4.3V48.26h-4.3V33.85H36.36V48.26h-4.3Z"/><path class="cls-4" d="M47.94,46.36H42.37V32H35.73V46.36H30.16V14.3h5.57V27.6h6.64V14.3h5.57Zm-4.3-1.27h3V15.57h-3v13.3H34.46V15.57h-3V45.09h3V30.68h9.18Z"/><path class="cls-3" d="M58.28,17.47h4.15L69,48.26H64.94L63.53,40.5H57.25l-1.48,7.76h-4Zm4.68,20L60.37,23.55,57.82,37.43Z"/><path class="cls-4" d="M68.53,46.36H63.14L61.73,38.6H56.51L55,46.36H49.68L56.5,14.3h5.17ZM64.2,45.09H67L60.65,15.57H57.53L51.25,45.09H54l1.48-7.75h7.33Zm-1.75-9.57H55.79l3.31-18Zm-5.13-1.26h3.61L59.11,24.5Z"/><path class="cls-3" d="M72.36,17.47h4.22V48.26H72.36Z"/><path class="cls-4" d="M76,46.36H70.46V14.3H76Zm-4.23-1.27h3V15.57h-3Z"/><path class="cls-3" d="M81.57,17.47h4.3V45.18h7.87v3.08H81.57Z"/><path class="cls-4" d="M93.11,46.36H79.66V14.3h5.57V42h7.88ZM80.93,45.09H91.84V43.28H84V15.57h-3Z"/><path class="cls-3" d="M101.54,17.47h4.15l6.58,30.79H108.2l-1.41-7.76h-6.28L99,48.26H95Zm4.68,20-2.59-13.88-2.55,13.88Z"/><path class="cls-4" d="M111.79,46.36H106.4L105,38.6H99.77l-1.48,7.76H93L99.76,14.3h5.17Zm-4.33-1.27h2.76l-6.31-29.52h-3.12L94.51,45.09h2.73l1.48-7.75h7.33Zm-1.74-9.57H99.05l3.31-18Zm-5.14-1.26h3.61l-1.82-9.76Z"/><path class="cls-3" d="M115.39,17.47h2.93l8.75,20.45V17.47h3.58V48.26h-2.74l-8.87-21v21h-3.65Z"/><path class="cls-4" d="M130,46.36h-3.79l-7.81-18.52V46.36h-4.92V14.3h4l7.7,18v-18H130Zm-2.95-1.27h1.69V15.57h-2.31V38.48l-9.81-22.91h-1.87V45.09h2.38V21.57Z"/><path class="cls-3" d="M135.48,17.47h6.7q5,0,7.06,2.28t2.07,7.11V38.19q0,5.09-2,7.58t-6.75,2.49h-7Zm6.74,27.71a4.94,4.94,0,0,0,3.25-.87,3.93,3.93,0,0,0,1.26-2.38,31.3,31.3,0,0,0,.24-4.54v-10a19.2,19.2,0,0,0-.32-4,3.19,3.19,0,0,0-1.35-2.05,6,6,0,0,0-3.2-.67h-2.32V45.18Z"/><path class="cls-4" d="M141.25,46.36h-7.67V14.3h7.33c3.49,0,6,.84,7.53,2.49s2.24,4.17,2.24,7.53V35.65c0,3.53-.74,6.22-2.18,8S144.58,46.36,141.25,46.36Zm-6.4-1.27h6.4c2.93,0,5-.76,6.26-2.26s1.9-3.95,1.9-7.18V24.32c0-3-.64-5.29-1.91-6.68s-3.47-2.07-6.59-2.07h-6.06Zm6.1-1.81h-3.07V17.49h3a6.46,6.46,0,0,1,3.54.77A3.8,3.8,0,0,1,146,20.7a19.9,19.9,0,0,1,.34,4.15v10a31.1,31.1,0,0,1-.26,4.65,4.52,4.52,0,0,1-1.46,2.75A5.47,5.47,0,0,1,141,43.28ZM139.15,42H141a4.34,4.34,0,0,0,2.83-.72,3.15,3.15,0,0,0,1.05-2,29.83,29.83,0,0,0,.24-4.44v-10a17.92,17.92,0,0,0-.31-3.86,2.57,2.57,0,0,0-1.08-1.67,5.48,5.48,0,0,0-2.85-.56h-1.68Z"/></g><g id="Flag"><rect class="cls-5" x="160.48" y="13.71" width="61.02" height="31.34"/><rect class="cls-6" x="160.48" y="23.4" width="61.02" height="11.96"/><rect class="cls-4" x="160.48" y="18.76" width="61.02" height="4.64"/><rect class="cls-4" x="160.48" y="35.36" width="61.02" height="4.64"/></g><path class="cls-7" d="M49.55,71.17c-.41,2.9-4,5.39-5.56,8.53-.57.45-1.59,10.67-.92,12.22.93,2.16,2.89,1.93,3.24,0,0-.09,0,.42.13.07-.06,3.57-.11,3.63-3.54,3.69-.65,0-1.3,0-1.94,0-5.24.33-8.27,3.28-8.33,8.52-.06,6.38-.33,12.77.28,19.15-1.24,1.21-2.8.59-4.22.69-1.59.1-3.31,0-4.34,1.39-1.29,1.75-3.06,2.55-5,3.38-2.79,1.23-3.6,3-3,6,.57.67,1.23,1.25,1,2.32a2,2,0,0,0,.91,2.31,5.62,5.62,0,0,0,2.92.69c14.69,0,29.37.21,44.06-.1,2.81-.47,4.53-3.13,7.33-3.64.61-.11,1.31-.47,1.37-1.19s-.72-1-1.26-1.25a14,14,0,0,1-6-5.48c.15-1.06.94-.65,1.48-.57a14.47,14.47,0,0,1,6.53,2.73c.69.51,1.4,1.67,2.49.49a41.66,41.66,0,0,0-.32-6.41c-1.21-.88-2.62-.62-4-.62-1.82,0-2.48-.8-2-2.54q.14-9.27,0-18.54a6.48,6.48,0,0,0-.28-1.85,7.9,7.9,0,0,0-1.94-3c-1.38-1.46-3.25-1.86-5.08-2.33a26.06,26.06,0,0,0-3.05-.22c-1.21-.1-2.84.53-3.36-1.14s-.24-3.09.9-5c.16,1.49-.42,1.62-.19,2.43.18.65.57,1.3,1.38,1.21a1.86,1.86,0,0,0,1.42-1.41c.15-3.57.63-6.2,0-9.77-.07-.55.05-1.43-.24-1.59-2.25-1.3-1.58-4.71-4.38-5.81a5.78,5.78,0,0,1-2-3.22A41.53,41.53,0,0,1,52.6,64.7L51.74,59l-.49,5.74C50.93,65.77,49.56,69.55,49.55,71.17Z"/><rect class="cls-8" x="60.2" y="121.02" width="60.19" height="19.19"/><polygon class="cls-9" points="86.16 135.96 83.99 135.96 81.82 135.96 79.65 133.11 79.65 140.2 83.99 140.2 88.33 140.2 88.33 133.11 86.16 135.96"/><line class="cls-10" x1="83.99" y1="135.96" x2="83.99" y2="140.2"/><rect class="cls-9" x="82.93" y="121.02" width="2.13" height="14.95"/><polygon class="cls-9" points="61.31 135.96 59.14 135.96 56.97 135.96 54.8 133.11 54.8 140.2 59.14 140.2 63.48 140.2 63.48 133.11 61.31 135.96"/><line class="cls-10" x1="59.14" y1="135.96" x2="59.14" y2="140.2"/><rect class="cls-9" x="58.07" y="121.02" width="2.13" height="14.95"/><polygon class="cls-9" points="73.36 135.96 71.19 135.96 69.02 135.96 66.85 133.11 66.85 140.2 71.19 140.2 75.53 140.2 75.53 133.11 73.36 135.96"/><line class="cls-10" x1="71.19" y1="135.96" x2="71.19" y2="140.2"/><rect class="cls-9" x="70.12" y="121.02" width="2.13" height="14.95"/><polygon class="cls-9" points="98.5 135.96 96.33 135.96 94.16 135.96 91.98 133.11 91.98 140.2 96.33 140.2 100.67 140.2 100.67 133.11 98.5 135.96"/><line class="cls-10" x1="96.33" y1="135.96" x2="96.33" y2="140.2"/><rect class="cls-9" x="95.26" y="121.02" width="2.13" height="14.95"/><polygon class="cls-9" points="112.06 135.96 109.88 135.96 107.71 135.96 105.54 133.11 105.54 140.2 109.88 140.2 114.23 140.2 114.23 133.11 112.06 135.96"/><line class="cls-10" x1="109.88" y1="135.96" x2="109.88" y2="140.2"/><rect class="cls-9" x="108.82" y="121.02" width="2.13" height="14.95"/><polygon class="cls-9" points="123.64 135.96 121.46 135.96 119.29 135.96 117.12 133.11 117.12 140.2 121.46 140.2 125.81 140.2 125.81 133.11 123.64 135.96"/><line class="cls-10" x1="121.46" y1="135.96" x2="121.46" y2="140.2"/><rect class="cls-9" x="120.4" y="121.02" width="2.13" height="14.95"/><path class="cls-11" d="M115.73,121c.77,1.19,1.32,2.13,2.14,2.13s.6,2.88,1,3.26,1.37,1.38,1.37,1.38V121Z"/><path class="cls-12" d="M120.22,125.8a1.77,1.77,0,0,1-1.12-1.4c0-.48,0-1.75-.95-2a2.28,2.28,0,0,1-1.31-1.34h-1.11l.37.56.16.25.19.27.13.18.11.14.09.11.23.24.12.1.19.13.13.06.26.08.23,0,.17.1.08.09,0,.1.06.12,0,.08,0,.11.1.44.06.41,0,.34.08.68,0,.35.07.27.09.16.08.07,1.29,1.31Z"/><path class="cls-11" d="M115.63,121c-.77,1.19-1.32,2.13-2.14,2.13s-.6,2.88-1,3.26-1.37,1.38-1.37,1.38V121Z"/><path class="cls-12" d="M111.14,125.8a1.77,1.77,0,0,0,1.12-1.4c0-.48,0-1.75.95-2a2.28,2.28,0,0,0,1.31-1.34h1.11l-.37.56-.16.25-.19.27-.13.18-.11.14-.09.11-.23.24-.12.1L114,123l-.13.06-.26.08-.23,0-.17.1-.08.09,0,.1-.06.12,0,.08,0,.11-.1.44-.06.41,0,.34-.08.68,0,.35-.07.27-.09.16-.08.07-1.29,1.31Z"/><path class="cls-11" d="M103.15,121c.93,1.19,1.59,2.13,2.59,2.13s.73,2.88,1.2,3.26,1.66,1.38,1.66,1.38V121Z"/><path class="cls-12" d="M108.6,125.8a1.9,1.9,0,0,1-1.36-1.4c0-.48,0-1.75-1.15-2a2.5,2.5,0,0,1-1.6-1.34h-1.34l.44.56.19.25.24.27.16.18.13.14.11.11.28.24.14.1.24.13.15.06.33.08.27,0,.21.1.1.09.06.1.07.12,0,.08,0,.11.12.44.08.41,0,.34.1.68.06.35.09.27.11.16.09.07,1.57,1.31Z"/><path class="cls-11" d="M103,121c-.93,1.19-1.6,2.13-2.6,2.13s-.73,2.88-1.19,3.26-1.67,1.38-1.67,1.38V121Z"/><path class="cls-12" d="M97.56,125.8a1.89,1.89,0,0,0,1.37-1.4c0-.48,0-1.75,1.14-2a2.5,2.5,0,0,0,1.6-1.34H103l-.45.56-.19.25-.23.27-.16.18-.13.14-.12.11-.28.24-.14.1-.23.13-.16.06-.32.08-.27,0-.21.1-.1.09-.07.1-.06.12,0,.08,0,.11-.12.44-.07.41,0,.34-.09.68-.07.35-.09.27-.1.16-.1.07-1.57,1.31Z"/><path class="cls-11" d="M90.2,121c.83,1.19,1.41,2.13,2.29,2.13s.65,2.88,1.06,3.26S95,127.79,95,127.79V121Z"/><path class="cls-12" d="M95,125.8a1.8,1.8,0,0,1-1.2-1.4c0-.48,0-1.75-1-2A2.35,2.35,0,0,1,91.39,121H90.2l.4.56.17.25.2.27.14.18.12.14.1.11.25.24.12.1.21.13.13.06.29.08.24,0,.19.1.08.09.06.1.06.12,0,.08,0,.11.1.44.07.41,0,.34.08.68.06.35.08.27.09.16.08.07L95,127.79Z"/><path class="cls-11" d="M90.09,121c-.82,1.19-1.41,2.13-2.29,2.13s-.64,2.88-1.06,3.26-1.46,1.38-1.46,1.38V121Z"/><path class="cls-12" d="M85.28,125.8a1.82,1.82,0,0,0,1.2-1.4c0-.48,0-1.75,1-2A2.32,2.32,0,0,0,88.9,121h1.19l-.39.56-.17.25-.21.27-.14.18-.11.14-.1.11-.25.24-.13.1-.2.13-.14.06-.29.08-.23,0-.19.1-.09.09,0,.1-.06.12,0,.08,0,.11-.11.44-.06.41,0,.34-.09.68,0,.35-.08.27-.1.16-.08.07-1.38,1.31Z"/><path class="cls-11" d="M77.64,121c.87,1.19,1.49,2.13,2.42,2.13s.68,2.88,1.12,3.26,1.55,1.38,1.55,1.38V121Z"/><path class="cls-12" d="M82.73,125.8a1.84,1.84,0,0,1-1.27-1.4c0-.48,0-1.75-1.08-2A2.41,2.41,0,0,1,78.89,121H77.64l.41.56.18.25.22.27.15.18.12.14.11.11.26.24.13.1.22.13.14.06.31.08.25,0,.2.1.09.09.06.1.06.12,0,.08,0,.11.11.44.07.41,0,.34.08.68L81,126l.09.27.1.16.08.07,1.47,1.31Z"/><path class="cls-11" d="M77.52,121c-.86,1.19-1.48,2.13-2.4,2.13S74.44,126,74,126.41s-1.54,1.38-1.54,1.38V121Z"/><path class="cls-12" d="M72.47,125.8a1.84,1.84,0,0,0,1.26-1.4c0-.48,0-1.75,1.06-2A2.37,2.37,0,0,0,76.27,121h1.25l-.41.56-.18.25-.22.27-.15.18-.12.14-.1.11-.26.24-.13.1-.22.13-.14.06-.3.08-.25,0-.2.1-.09.09-.06.1-.06.12,0,.08,0,.11-.11.44-.07.41,0,.34-.09.68-.06.35-.08.27-.1.16-.09.07-1.45,1.31Z"/><path class="cls-11" d="M65.21,121c.8,1.19,1.38,2.13,2.24,2.13s.63,2.88,1,3.26,1.43,1.38,1.43,1.38V121Z"/><path class="cls-12" d="M69.92,125.8a1.81,1.81,0,0,1-1.18-1.4c0-.48,0-1.75-1-2A2.33,2.33,0,0,1,66.37,121H65.21l.38.56.17.25.2.27.14.18.11.14.1.11.24.24.12.1.2.13.14.06.28.08.23,0,.19.1.08.09.06.1.05.12,0,.08,0,.11.1.44.07.41,0,.34.08.68.06.35.07.27.1.16.08.07,1.35,1.31Z"/><path class="cls-11" d="M65.1,121c-.81,1.19-1.39,2.13-2.25,2.13s-.63,2.88-1,3.26-1.44,1.38-1.44,1.38V121Z"/><rect class="cls-13" x="81.52" y="70.15" width="17.35" height="9.47"/><rect class="cls-14" x="97.63" y="70.15" width="1.19" height="9.5"/><rect class="cls-14" x="81.53" y="70.15" width="1.19" height="9.5"/><polyline class="cls-15" points="102.33 82.86 102.33 79.51 77.73 79.51 77.73 82.86"/><polyline class="cls-16" points="78.68 82.86 78.68 79.51 77.73 79.51 77.73 82.86"/><polyline class="cls-16" points="102.33 82.86 102.33 79.51 101.38 79.51 101.38 82.86"/><path class="cls-17" d="M77.71,78.55v1.32c0,.8.82.8.82,0,0,.8.82.8.82,0,0,.8.82.8.82,0,0,.8.82.8.82,0,0,.8.82.8.82,0,0,.8.82.8.82,0,0,.8.82.8.82,0,0,.8.82.8.82,0,0,.8.83.8.83,0,0,.8.82.8.82,0,0,.8.82.8.82,0,0,.8.82.8.82,0,0,.8.82.8.82,0,0,.8.82.8.82,0,0,.8.82.8.82,0,0,.8.82.8.82,0,0,.8.82.8.82,0,0,.8.82.8.82,0,0,.8.82.8.82,0,0,.8.82.8.82,0,0,.8.82.8.82,0,0,.8.83.8.83,0,0,.8.82.8.82,0,0,.8.82.8.82,0,0,.8.82.8.82,0,0,.8.82.8.82,0,0,.8.82.8.82,0,0,.8.82.8.82,0,0,.8.82.8.82,0,0,.8.82.8.82,0V78.55Z"/><path class="cls-8" d="M78,79.37h.31C78.3,79.74,78,79.74,78,79.37Z"/><path class="cls-8" d="M78.86,79.37h.31C79.17,79.74,78.86,79.74,78.86,79.37Z"/><path class="cls-8" d="M79.69,79.37H80C80,79.74,79.69,79.74,79.69,79.37Z"/><path class="cls-8" d="M80.48,79.37h.31C80.79,79.74,80.48,79.74,80.48,79.37Z"/><path class="cls-8" d="M81.33,79.37h.31C81.64,79.74,81.33,79.74,81.33,79.37Z"/><path class="cls-8" d="M82.2,79.37h.31C82.51,79.74,82.2,79.74,82.2,79.37Z"/><path class="cls-8" d="M83,79.37h.31C83.34,79.74,83,79.74,83,79.37Z"/><path class="cls-8" d="M83.82,79.37h.31C84.13,79.74,83.82,79.74,83.82,79.37Z"/><path class="cls-8" d="M84.62,79.37h.31C84.93,79.74,84.62,79.74,84.62,79.37Z"/><path class="cls-8" d="M85.48,79.37h.31C85.79,79.74,85.48,79.74,85.48,79.37Z"/><path class="cls-8" d="M86.32,79.37h.31C86.63,79.74,86.32,79.74,86.32,79.37Z"/><path class="cls-8" d="M87.11,79.37h.31C87.42,79.74,87.11,79.74,87.11,79.37Z"/><path class="cls-8" d="M87.88,79.37h.31C88.19,79.74,87.88,79.74,87.88,79.37Z"/><path class="cls-8" d="M88.75,79.37h.31C89.06,79.74,88.75,79.74,88.75,79.37Z"/><path class="cls-8" d="M89.58,79.37h.31C89.89,79.74,89.58,79.74,89.58,79.37Z"/><path class="cls-8" d="M90.37,79.37h.31C90.68,79.74,90.37,79.74,90.37,79.37Z"/><path class="cls-8" d="M91.2,79.37h.31C91.51,79.74,91.2,79.74,91.2,79.37Z"/><path class="cls-8" d="M92.07,79.37h.3C92.37,79.74,92.07,79.74,92.07,79.37Z"/><path class="cls-8" d="M92.9,79.37h.31C93.21,79.74,92.9,79.74,92.9,79.37Z"/><path class="cls-8" d="M93.69,79.37H94C94,79.74,93.69,79.74,93.69,79.37Z"/><path class="cls-8" d="M94.48,79.37h.31C94.79,79.74,94.48,79.74,94.48,79.37Z"/><path class="cls-8" d="M95.34,79.37h.31C95.65,79.74,95.34,79.74,95.34,79.37Z"/><path class="cls-8" d="M96.18,79.37h.31C96.49,79.74,96.18,79.74,96.18,79.37Z"/><path class="cls-8" d="M97,79.37h.31C97.28,79.74,97,79.74,97,79.37Z"/><path class="cls-8" d="M97.8,79.37h.31C98.11,79.74,97.8,79.74,97.8,79.37Z"/><path class="cls-8" d="M98.67,79.37H99C99,79.74,98.67,79.74,98.67,79.37Z"/><path class="cls-8" d="M99.5,79.37h.31C99.81,79.74,99.5,79.74,99.5,79.37Z"/><path class="cls-8" d="M100.29,79.37h.31C100.6,79.74,100.29,79.74,100.29,79.37Z"/><path class="cls-8" d="M101,79.37h.31C101.33,79.74,101,79.74,101,79.37Z"/><path class="cls-8" d="M101.85,79.37h.31C102.16,79.74,101.85,79.74,101.85,79.37Z"/><path class="cls-18" d="M101.61,78.55c0-1.79.68-1.78.68,0"/><path class="cls-18" d="M100.89,78.55c0-1.79.68-1.78.68,0"/><path class="cls-18" d="M100.22,78.55c0-1.79.67-1.78.67,0"/><path class="cls-18" d="M99.5,78.55c0-1.79.68-1.78.68,0"/><path class="cls-18" d="M98.82,78.55c0-1.79.68-1.78.68,0"/><path class="cls-18" d="M98.1,78.55c0-1.79.68-1.78.68,0"/><path class="cls-18" d="M97.42,78.55c0-1.79.68-1.78.68,0"/><path class="cls-18" d="M96.71,78.55c0-1.79.67-1.78.67,0"/><path class="cls-18" d="M96,78.55c0-1.79.68-1.78.68,0"/><path class="cls-18" d="M95.31,78.55c0-1.79.68-1.78.68,0"/><path class="cls-18" d="M94.63,78.55c0-1.79.68-1.78.68,0"/><path class="cls-18" d="M93.91,78.55c0-1.79.68-1.78.68,0"/><path class="cls-18" d="M93.24,78.55c0-1.79.67-1.78.67,0"/><path class="cls-18" d="M92.52,78.55c0-1.79.68-1.78.68,0"/><path class="cls-18" d="M91.84,78.55c0-1.79.68-1.78.68,0"/><path class="cls-18" d="M91.12,78.55c0-1.79.68-1.78.68,0"/><path class="cls-18" d="M90.39,78.57c0-1.78.68-1.77.68,0"/><path class="cls-18" d="M89.67,78.57c0-1.78.68-1.77.68,0"/><path class="cls-18" d="M89,78.57c0-1.78.68-1.77.68,0"/><path class="cls-18" d="M88.28,78.57c0-1.78.68-1.77.68,0"/><path class="cls-18" d="M87.6,78.57c0-1.78.68-1.77.68,0"/><path class="cls-18" d="M86.88,78.57c0-1.78.68-1.77.68,0"/><path class="cls-18" d="M86.2,78.57c0-1.78.68-1.77.68,0"/><path class="cls-18" d="M85.48,78.57c0-1.78.68-1.77.68,0"/><path class="cls-18" d="M84.81,78.57c0-1.78.67-1.77.67,0"/><path class="cls-18" d="M84.09,78.57c0-1.78.68-1.77.68,0"/><path class="cls-18" d="M83.41,78.57c0-1.78.68-1.77.68,0"/><path class="cls-18" d="M82.69,78.57c0-1.78.68-1.77.68,0"/><path class="cls-18" d="M82,78.57c0-1.78.68-1.77.68,0"/><path class="cls-18" d="M81.3,78.57c0-1.78.68-1.77.68,0"/><path class="cls-18" d="M80.62,78.57c0-1.78.68-1.77.68,0"/><path class="cls-18" d="M79.9,78.57c0-1.78.68-1.77.68,0"/><path class="cls-18" d="M79.19,78.57c0-1.78.68-1.77.68,0"/><path class="cls-18" d="M78.47,78.57c0-1.78.68-1.77.68,0"/><path class="cls-18" d="M77.76,78.57c0-1.78.67-1.77.67,0"/><path class="cls-12" d="M60.38,125.8a1.81,1.81,0,0,0,1.18-1.4c0-.48,0-1.75,1-2A2.33,2.33,0,0,0,63.93,121H65.1l-.39.56-.17.25-.2.27-.14.18-.11.14-.1.11-.24.24-.12.1-.2.13-.14.06-.28.08-.23,0-.19.1-.08.09-.06.1-.05.12,0,.08,0,.11-.1.44-.07.41,0,.34-.08.68,0,.35-.08.27-.09.16-.08.07-1.36,1.31Z"/><line class="cls-19" x1="59.14" y1="121.02" x2="59.14" y2="135.96"/><line class="cls-19" x1="71.19" y1="121.02" x2="71.19" y2="135.96"/><line class="cls-19" x1="83.99" y1="121.02" x2="83.99" y2="135.96"/><line class="cls-19" x1="96.33" y1="121.02" x2="96.33" y2="135.96"/><line class="cls-19" x1="109.88" y1="121.02" x2="109.88" y2="135.96"/><line class="cls-19" x1="121.46" y1="121.02" x2="121.46" y2="135.96"/><path class="cls-17" d="M57.89,119.21V121c0,1.08,2.16,1.08,2.16,0,0,1.08,2.16,1.08,2.16,0,0,1.08,2.16,1.08,2.16,0,0,1.08,2.16,1.08,2.16,0,0,1.08,2.16,1.08,2.16,0,0,1.08,2.16,1.08,2.16,0,0,1.08,2.16,1.08,2.16,0,0,1.08,2.17,1.08,2.17,0,0,1.08,2.16,1.08,2.16,0,0,1.08,2.16,1.08,2.16,0,0,1.08,2.16,1.08,2.16,0,0,1.08,2.16,1.08,2.16,0,0,1.08,2.16,1.08,2.16,0,0,1.08,2.16,1.08,2.16,0,0,1.08,2.16,1.08,2.16,0,0,1.08,2.17,1.08,2.17,0,0,1.08,2.16,1.08,2.16,0,0,1.08,2.16,1.08,2.16,0,0,1.08,2.16,1.08,2.16,0,0,1.08,2.16,1.08,2.16,0,0,1.08,2.16,1.08,2.16,0,0,1.08,2.16,1.08,2.16,0,0,1.08,2.17,1.08,2.17,0,0,1.08,2.16,1.08,2.16,0,0,1.08,2.16,1.08,2.16,0,0,1.08,2.16,1.08,2.16,0,0,1.08,2.16,1.08,2.16,0,0,1.08,2.16,1.08,2.16,0,0,1.08,2.16,1.08,2.16,0,0,1.08,2.16,1.08,2.16,0v-1.79Z"/><path class="cls-8" d="M58.46,120.34h.81A.41.41,0,0,1,58.46,120.34Z"/><path class="cls-8" d="M60.74,120.34h.81A.41.41,0,0,1,60.74,120.34Z"/><path class="cls-8" d="M62.93,120.34h.81A.41.41,0,0,1,62.93,120.34Z"/><path class="cls-8" d="M65,120.34h.81A.41.41,0,0,1,65,120.34Z"/><path class="cls-8" d="M67.25,120.34h.81A.41.41,0,0,1,67.25,120.34Z"/><path class="cls-8" d="M69.53,120.34h.81A.41.41,0,0,1,69.53,120.34Z"/><path class="cls-8" d="M71.72,120.34h.81A.41.41,0,0,1,71.72,120.34Z"/><path class="cls-8" d="M73.8,120.34h.81A.41.41,0,0,1,73.8,120.34Z"/><path class="cls-8" d="M75.9,120.34h.81A.41.41,0,0,1,75.9,120.34Z"/><path class="cls-8" d="M78.18,120.34H79A.41.41,0,0,1,78.18,120.34Z"/><path class="cls-8" d="M80.37,120.34h.81A.41.41,0,0,1,80.37,120.34Z"/><path class="cls-8" d="M82.45,120.34h.81A.41.41,0,0,1,82.45,120.34Z"/><path class="cls-8" d="M84.49,120.34h.81A.41.41,0,0,1,84.49,120.34Z"/><path class="cls-8" d="M86.77,120.34h.81A.41.41,0,0,1,86.77,120.34Z"/><path class="cls-8" d="M89,120.34h.81A.41.41,0,0,1,89,120.34Z"/><path class="cls-8" d="M91,120.34h.81A.41.41,0,0,1,91,120.34Z"/><path class="cls-8" d="M93.22,120.34H94A.41.41,0,0,1,93.22,120.34Z"/><path class="cls-8" d="M95.5,120.34h.81A.41.41,0,0,1,95.5,120.34Z"/><path class="cls-8" d="M97.69,120.34h.81A.41.41,0,0,1,97.69,120.34Z"/><path class="cls-8" d="M99.77,120.34h.81A.41.41,0,0,1,99.77,120.34Z"/><polyline class="cls-15" points="106.53 88.63 106.53 84.11 73.35 84.11 73.35 88.63"/><polyline class="cls-16" points="74.64 88.63 74.64 84.11 73.35 84.11 73.35 88.63"/><polyline class="cls-16" points="106.53 88.63 106.53 84.11 105.24 84.11 105.24 88.63"/><path class="cls-17" d="M73.33,82.81V84.6c0,1.08,1.11,1.08,1.11,0,0,1.08,1.1,1.08,1.1,0,0,1.08,1.11,1.08,1.11,0,0,1.08,1.11,1.08,1.11,0,0,1.08,1.1,1.08,1.1,0,0,1.08,1.11,1.08,1.11,0,0,1.08,1.11,1.08,1.11,0,0,1.08,1.1,1.08,1.1,0,0,1.08,1.11,1.08,1.11,0,0,1.08,1.11,1.08,1.11,0,0,1.08,1.1,1.08,1.1,0,0,1.08,1.11,1.08,1.11,0,0,1.08,1.1,1.08,1.1,0,0,1.08,1.11,1.08,1.11,0,0,1.08,1.11,1.08,1.11,0,0,1.08,1.1,1.08,1.1,0,0,1.08,1.11,1.08,1.11,0,0,1.08,1.11,1.08,1.11,0,0,1.08,1.1,1.08,1.1,0,0,1.08,1.11,1.08,1.11,0,0,1.08,1.11,1.08,1.11,0,0,1.08,1.1,1.08,1.1,0,0,1.08,1.11,1.08,1.11,0,0,1.08,1.11,1.08,1.11,0,0,1.08,1.1,1.08,1.1,0,0,1.08,1.11,1.08,1.11,0,0,1.08,1.11,1.08,1.11,0,0,1.08,1.1,1.08,1.1,0,0,1.08,1.11,1.08,1.11,0,0,1.08,1.11,1.08,1.11,0V82.81Z"/><path class="cls-8" d="M73.71,83.92h.42C74.13,84.43,73.71,84.43,73.71,83.92Z"/><path class="cls-8" d="M74.88,83.92h.42C75.3,84.43,74.88,84.43,74.88,83.92Z"/><path class="cls-8" d="M76,83.92h.42C76.42,84.43,76,84.43,76,83.92Z"/><path class="cls-8" d="M77.07,83.92h.41C77.48,84.43,77.07,84.43,77.07,83.92Z"/><path class="cls-8" d="M78.22,83.92h.41C78.63,84.43,78.22,84.43,78.22,83.92Z"/><path class="cls-8" d="M79.38,83.92h.42C79.8,84.43,79.38,84.43,79.38,83.92Z"/><path class="cls-8" d="M80.51,83.92h.41C80.92,84.43,80.51,84.43,80.51,83.92Z"/><path class="cls-8" d="M81.57,83.92H82C82,84.43,81.57,84.43,81.57,83.92Z"/><path class="cls-8" d="M82.65,83.92h.41C83.06,84.43,82.65,84.43,82.65,83.92Z"/><path class="cls-8" d="M83.81,83.92h.42C84.23,84.43,83.81,84.43,83.81,83.92Z"/><path class="cls-8" d="M84.94,83.92h.41C85.35,84.43,84.94,84.43,84.94,83.92Z"/><path class="cls-8" d="M86,83.92h.42C86.42,84.43,86,84.43,86,83.92Z"/><path class="cls-8" d="M87.05,83.92h.41C87.46,84.43,87.05,84.43,87.05,83.92Z"/><path class="cls-8" d="M88.22,83.92h.41C88.63,84.43,88.22,84.43,88.22,83.92Z"/><path class="cls-8" d="M89.34,83.92h.41C89.75,84.43,89.34,84.43,89.34,83.92Z"/><path class="cls-8" d="M90.4,83.92h.42C90.82,84.43,90.4,84.43,90.4,83.92Z"/><path class="cls-8" d="M91.52,83.92h.41C91.93,84.43,91.52,84.43,91.52,83.92Z"/><path class="cls-8" d="M92.69,83.92h.41C93.1,84.43,92.69,84.43,92.69,83.92Z"/><path class="cls-8" d="M93.81,83.92h.41C94.22,84.43,93.81,84.43,93.81,83.92Z"/><path class="cls-8" d="M94.87,83.92h.42C95.29,84.43,94.87,84.43,94.87,83.92Z"/><path class="cls-8" d="M95.94,83.92h.41C96.35,84.43,95.94,84.43,95.94,83.92Z"/><path class="cls-8" d="M97.11,83.92h.41C97.52,84.43,97.11,84.43,97.11,83.92Z"/><path class="cls-8" d="M98.23,83.92h.41C98.64,84.43,98.23,84.43,98.23,83.92Z"/><path class="cls-8" d="M99.29,83.92h.42C99.71,84.43,99.29,84.43,99.29,83.92Z"/><path class="cls-8" d="M100.42,83.92h.42C100.84,84.43,100.42,84.43,100.42,83.92Z"/><path class="cls-8" d="M101.59,83.92H102C102,84.43,101.59,84.43,101.59,83.92Z"/><path class="cls-8" d="M102.71,83.92h.42C103.13,84.43,102.71,84.43,102.71,83.92Z"/><path class="cls-8" d="M103.78,83.92h.41C104.19,84.43,103.78,84.43,103.78,83.92Z"/><path class="cls-8" d="M104.76,83.92h.42C105.18,84.43,104.76,84.43,104.76,83.92Z"/><path class="cls-8" d="M105.88,83.92h.41C106.29,84.43,105.88,84.43,105.88,83.92Z"/><path class="cls-20" d="M105.55,82.81c0-2.4.92-2.39.92,0"/><path class="cls-20" d="M104.59,82.81c0-2.4.91-2.39.91,0"/><path class="cls-20" d="M103.67,82.81c0-2.4.92-2.39.92,0"/><path class="cls-20" d="M102.71,82.81c0-2.4.91-2.39.91,0"/><path class="cls-20" d="M101.79,82.81c0-2.4.92-2.39.92,0"/><path class="cls-20" d="M100.82,82.81c0-2.4.92-2.39.92,0"/><path class="cls-20" d="M99.91,82.81c0-2.4.91-2.39.91,0"/><path class="cls-20" d="M98.94,82.81c0-2.4.92-2.39.92,0"/><path class="cls-20" d="M98,82.81c0-2.4.91-2.39.91,0"/><path class="cls-20" d="M97.06,82.81c0-2.4.91-2.39.91,0"/><path class="cls-20" d="M96.14,82.81c0-2.4.92-2.39.92,0"/><path class="cls-20" d="M95.18,82.81c0-2.4.91-2.39.91,0"/><path class="cls-20" d="M94.26,82.81c0-2.4.92-2.39.92,0"/><path class="cls-20" d="M93.29,82.81c0-2.4.92-2.39.92,0"/><path class="cls-20" d="M92.38,82.81c0-2.4.91-2.39.91,0"/><path class="cls-20" d="M91.41,82.81c0-2.4.92-2.39.92,0"/><path class="cls-20" d="M90.43,82.85c0-2.4.91-2.39.91,0"/><path class="cls-20" d="M89.46,82.85c0-2.4.91-2.39.91,0"/><path class="cls-20" d="M88.55,82.85c0-2.4.91-2.39.91,0"/><path class="cls-20" d="M87.58,82.85c0-2.4.91-2.39.91,0"/><path class="cls-20" d="M86.66,82.85c0-2.4.92-2.39.92,0"/><path class="cls-20" d="M85.7,82.85c0-2.4.91-2.39.91,0"/><path class="cls-20" d="M84.78,82.85c0-2.4.92-2.39.92,0"/><path class="cls-20" d="M83.81,82.85c0-2.4.92-2.39.92,0"/><path class="cls-20" d="M82.9,82.85c0-2.4.91-2.39.91,0"/><path class="cls-20" d="M81.93,82.85c0-2.4.92-2.39.92,0"/><path class="cls-20" d="M81,82.85c0-2.4.91-2.39.91,0"/><path class="cls-20" d="M80.05,82.85c0-2.4.91-2.39.91,0"/><path class="cls-20" d="M79.13,82.85c0-2.4.92-2.39.92,0"/><path class="cls-20" d="M78.17,82.85c0-2.4.91-2.39.91,0"/><path class="cls-20" d="M77.25,82.85c0-2.4.92-2.39.92,0"/><path class="cls-20" d="M76.28,82.85c0-2.4.92-2.39.92,0"/><path class="cls-20" d="M75.32,82.85c0-2.4.92-2.39.92,0"/><path class="cls-20" d="M74.36,82.85c0-2.4.91-2.39.91,0"/><path class="cls-20" d="M73.39,82.85c0-2.4.92-2.39.92,0"/><polygon class="cls-14" points="117.08 105.62 90.21 105.62 90.2 105.62 63.34 105.62 58.18 118.32 122.53 118.32 117.08 105.62"/><rect class="cls-15" x="63.34" y="101.11" width="53.78" height="4.51"/><rect class="cls-16" x="63.34" y="101.11" width="2.08" height="4.51"/><rect class="cls-16" x="115.04" y="101.11" width="2.08" height="4.51"/><polyline class="cls-15" points="112.7 94.77 112.7 90 67.21 90 67.21 94.77"/><polyline class="cls-16" points="68.97 94.77 68.97 90 67.21 90 67.21 94.77"/><polyline class="cls-16" points="112.7 94.77 112.7 90 110.94 90 110.94 94.77"/><path class="cls-17" d="M67.18,88.63v1.88a.76.76,0,1,0,1.51,0,.77.77,0,1,0,1.52,0,.77.77,0,1,0,1.52,0,.77.77,0,1,0,1.52,0,.76.76,0,1,0,1.51,0,.77.77,0,1,0,1.52,0,.77.77,0,1,0,1.52,0,.77.77,0,1,0,1.52,0,.76.76,0,1,0,1.51,0,.77.77,0,1,0,1.52,0,.77.77,0,1,0,1.52,0,.77.77,0,1,0,1.52,0,.76.76,0,1,0,1.51,0,.77.77,0,1,0,1.52,0,.77.77,0,1,0,1.52,0,.77.77,0,1,0,1.52,0,.76.76,0,1,0,1.51,0,.77.77,0,1,0,1.52,0,.77.77,0,1,0,1.52,0,.77.77,0,1,0,1.52,0,.76.76,0,1,0,1.51,0,.77.77,0,1,0,1.52,0,.77.77,0,1,0,1.52,0,.77.77,0,1,0,1.52,0,.76.76,0,1,0,1.51,0,.77.77,0,1,0,1.52,0,.77.77,0,1,0,1.52,0,.77.77,0,1,0,1.52,0,.76.76,0,1,0,1.51,0,.77.77,0,1,0,1.52,0V88.63Z"/><path class="cls-8" d="M67.7,89.8h.57C68.27,90.33,67.7,90.33,67.7,89.8Z"/><path class="cls-8" d="M69.3,89.8h.57C69.87,90.33,69.3,90.33,69.3,89.8Z"/><path class="cls-8" d="M70.84,89.8h.57C71.41,90.33,70.84,90.33,70.84,89.8Z"/><path class="cls-8" d="M72.3,89.8h.57C72.87,90.33,72.3,90.33,72.3,89.8Z"/><path class="cls-8" d="M73.88,89.8h.57C74.45,90.33,73.88,90.33,73.88,89.8Z"/><path class="cls-8" d="M75.48,89.8h.57C76.05,90.33,75.48,90.33,75.48,89.8Z"/><path class="cls-8" d="M77,89.8h.57C77.59,90.33,77,90.33,77,89.8Z"/><path class="cls-8" d="M78.48,89.8h.57C79.05,90.33,78.48,90.33,78.48,89.8Z"/><path class="cls-8" d="M80,89.8h.57C80.52,90.33,80,90.33,80,89.8Z"/><path class="cls-8" d="M81.55,89.8h.57C82.12,90.33,81.55,90.33,81.55,89.8Z"/><path class="cls-8" d="M83.09,89.8h.57C83.66,90.33,83.09,90.33,83.09,89.8Z"/><path class="cls-8" d="M84.55,89.8h.57C85.12,90.33,84.55,90.33,84.55,89.8Z"/><path class="cls-8" d="M86,89.8h.57C86.56,90.33,86,90.33,86,89.8Z"/><path class="cls-8" d="M87.59,89.8h.57C88.16,90.33,87.59,90.33,87.59,89.8Z"/><path class="cls-8" d="M89.13,89.8h.57C89.7,90.33,89.13,90.33,89.13,89.8Z"/><path class="cls-8" d="M90.59,89.8h.57C91.16,90.33,90.59,90.33,90.59,89.8Z"/><path class="cls-8" d="M92.12,89.8h.57C92.69,90.33,92.12,90.33,92.12,89.8Z"/><path class="cls-8" d="M93.72,89.8h.57C94.29,90.33,93.72,90.33,93.72,89.8Z"/><path class="cls-8" d="M95.26,89.8h.57C95.83,90.33,95.26,90.33,95.26,89.8Z"/><path class="cls-8" d="M96.72,89.8h.57C97.29,90.33,96.72,90.33,96.72,89.8Z"/><path class="cls-8" d="M98.18,89.8h.57C98.75,90.33,98.18,90.33,98.18,89.8Z"/><path class="cls-8" d="M99.78,89.8h.57C100.35,90.33,99.78,90.33,99.78,89.8Z"/><path class="cls-8" d="M101.32,89.8h.57C101.89,90.33,101.32,90.33,101.32,89.8Z"/><path class="cls-8" d="M102.78,89.8h.57C103.35,90.33,102.78,90.33,102.78,89.8Z"/><path class="cls-8" d="M104.33,89.8h.57C104.9,90.33,104.33,90.33,104.33,89.8Z"/><path class="cls-8" d="M105.93,89.8h.57C106.5,90.33,105.93,90.33,105.93,89.8Z"/><path class="cls-8" d="M107.47,89.8H108C108,90.33,107.47,90.33,107.47,89.8Z"/><path class="cls-8" d="M108.93,89.8h.57C109.5,90.33,108.93,90.33,108.93,89.8Z"/><path class="cls-8" d="M110.28,89.8h.57C110.85,90.33,110.28,90.33,110.28,89.8Z"/><path class="cls-8" d="M111.81,89.8h.57C112.38,90.33,111.81,90.33,111.81,89.8Z"/><path class="cls-21" d="M111.37,88.63c0-2.54,1.26-2.53,1.26,0"/><path class="cls-21" d="M110,88.63c0-2.54,1.26-2.53,1.26,0"/><path class="cls-21" d="M108.79,88.63c0-2.54,1.25-2.53,1.25,0"/><path class="cls-21" d="M107.46,88.63c0-2.54,1.26-2.53,1.26,0"/><path class="cls-21" d="M106.21,88.63c0-2.54,1.25-2.53,1.25,0"/><path class="cls-21" d="M104.88,88.63c0-2.54,1.26-2.53,1.26,0"/><path class="cls-21" d="M103.63,88.63c0-2.54,1.25-2.53,1.25,0"/><path class="cls-21" d="M102.3,88.63c0-2.54,1.25-2.53,1.25,0"/><path class="cls-21" d="M101.05,88.63c0-2.54,1.25-2.53,1.25,0"/><path class="cls-21" d="M99.72,88.63c0-2.54,1.25-2.53,1.25,0"/><path class="cls-21" d="M98.46,88.63c0-2.54,1.26-2.53,1.26,0"/><path class="cls-21" d="M97.14,88.63c0-2.54,1.25-2.53,1.25,0"/><path class="cls-21" d="M95.88,88.63c0-2.54,1.26-2.53,1.26,0"/><path class="cls-21" d="M94.56,88.63c0-2.54,1.25-2.53,1.25,0"/><path class="cls-21" d="M93.3,88.63c0-2.54,1.26-2.53,1.26,0"/><path class="cls-21" d="M92,88.63c0-2.54,1.25-2.53,1.25,0"/><path class="cls-21" d="M90.62,88.67c0-2.54,1.26-2.53,1.26,0"/><path class="cls-21" d="M89.3,88.67c0-2.54,1.25-2.53,1.25,0"/><path class="cls-21" d="M88,88.67c0-2.54,1.26-2.53,1.26,0"/><path class="cls-21" d="M86.72,88.67c0-2.54,1.25-2.53,1.25,0"/><path class="cls-21" d="M85.46,88.67c0-2.54,1.26-2.53,1.26,0"/><path class="cls-21" d="M84.13,88.67c0-2.54,1.26-2.53,1.26,0"/><path class="cls-21" d="M82.88,88.67c0-2.54,1.25-2.53,1.25,0"/><path class="cls-21" d="M81.55,88.67c0-2.54,1.26-2.53,1.26,0"/><path class="cls-21" d="M80.3,88.67c0-2.54,1.25-2.53,1.25,0"/><path class="cls-21" d="M79,88.67c0-2.54,1.26-2.53,1.26,0"/><path class="cls-21" d="M77.72,88.67c0-2.54,1.25-2.53,1.25,0"/><path class="cls-21" d="M76.39,88.67c0-2.54,1.26-2.53,1.26,0"/><path class="cls-21" d="M75.14,88.67c0-2.54,1.25-2.53,1.25,0"/><path class="cls-21" d="M73.81,88.67c0-2.54,1.25-2.53,1.25,0"/><path class="cls-21" d="M72.56,88.67c0-2.54,1.25-2.53,1.25,0"/><path class="cls-21" d="M71.23,88.67c0-2.54,1.25-2.53,1.25,0"/><path class="cls-21" d="M69.91,88.67c0-2.54,1.25-2.53,1.25,0"/><path class="cls-21" d="M68.58,88.67c0-2.54,1.26-2.53,1.26,0"/><path class="cls-21" d="M67.26,88.67c0-2.54,1.26-2.53,1.26,0"/><polyline class="cls-15" points="114.93 99.84 114.93 95.33 65.27 95.33 65.27 99.84"/><polyline class="cls-16" points="67.19 99.84 67.19 95.33 65.27 95.33 65.27 99.84"/><polyline class="cls-16" points="114.93 99.84 114.93 95.33 113.01 95.33 113.01 99.84"/><path class="cls-17" d="M65.24,94v1.79a.83.83,0,0,0,1.65,0,.83.83,0,0,0,1.66,0,.83.83,0,0,0,1.66,0,.83.83,0,0,0,1.65,0,.83.83,0,0,0,1.66,0,.83.83,0,0,0,1.66,0,.83.83,0,0,0,1.65,0,.83.83,0,0,0,1.66,0,.83.83,0,0,0,1.66,0,.83.83,0,0,0,1.65,0,.83.83,0,0,0,1.66,0,.83.83,0,0,0,1.66,0,.83.83,0,0,0,1.65,0,.83.83,0,0,0,1.66,0,.83.83,0,0,0,1.66,0,.83.83,0,0,0,1.65,0,.83.83,0,0,0,1.66,0,.83.83,0,0,0,1.65,0,.83.83,0,0,0,1.66,0,.83.83,0,0,0,1.66,0,.83.83,0,0,0,1.65,0,.83.83,0,0,0,1.66,0,.83.83,0,0,0,1.66,0,.83.83,0,0,0,1.65,0,.83.83,0,0,0,1.66,0,.83.83,0,0,0,1.66,0,.83.83,0,0,0,1.65,0,.83.83,0,0,0,1.66,0,.83.83,0,0,0,1.66,0,.83.83,0,0,0,1.65,0V94Z"/><path class="cls-8" d="M65.81,95.14h.62C66.43,95.65,65.81,95.65,65.81,95.14Z"/><path class="cls-8" d="M67.56,95.14h.62C68.18,95.65,67.56,95.65,67.56,95.14Z"/><path class="cls-8" d="M69.24,95.14h.62C69.86,95.65,69.24,95.65,69.24,95.14Z"/><path class="cls-8" d="M70.84,95.14h.62C71.46,95.65,70.84,95.65,70.84,95.14Z"/><path class="cls-8" d="M72.55,95.14h.62C73.17,95.65,72.55,95.65,72.55,95.14Z"/><path class="cls-8" d="M74.3,95.14h.62C74.92,95.65,74.3,95.65,74.3,95.14Z"/><path class="cls-8" d="M76,95.14h.62C76.6,95.65,76,95.65,76,95.14Z"/><path class="cls-8" d="M77.58,95.14h.62C78.2,95.65,77.58,95.65,77.58,95.14Z"/><path class="cls-8" d="M79.18,95.14h.63C79.81,95.65,79.18,95.65,79.18,95.14Z"/><path class="cls-8" d="M80.93,95.14h.62C81.55,95.65,80.93,95.65,80.93,95.14Z"/><path class="cls-8" d="M82.61,95.14h.62C83.23,95.65,82.61,95.65,82.61,95.14Z"/><path class="cls-8" d="M84.21,95.14h.62C84.83,95.65,84.21,95.65,84.21,95.14Z"/><path class="cls-8" d="M85.77,95.14h.63C86.4,95.65,85.77,95.65,85.77,95.14Z"/><path class="cls-8" d="M87.52,95.14h.62C88.14,95.65,87.52,95.65,87.52,95.14Z"/><path class="cls-8" d="M89.2,95.14h.62C89.82,95.65,89.2,95.65,89.2,95.14Z"/><path class="cls-8" d="M90.8,95.14h.62C91.42,95.65,90.8,95.65,90.8,95.14Z"/><path class="cls-8" d="M92.47,95.14h.62C93.09,95.65,92.47,95.65,92.47,95.14Z"/><path class="cls-8" d="M94.21,95.14h.63C94.84,95.65,94.21,95.65,94.21,95.14Z"/><path class="cls-8" d="M95.89,95.14h.63C96.52,95.65,95.89,95.65,95.89,95.14Z"/><path class="cls-8" d="M97.49,95.14h.62C98.11,95.65,97.49,95.65,97.49,95.14Z"/><path class="cls-8" d="M99.08,95.14h.62C99.7,95.65,99.08,95.65,99.08,95.14Z"/><path class="cls-8" d="M100.83,95.14h.62C101.45,95.65,100.83,95.65,100.83,95.14Z"/><path class="cls-8" d="M102.51,95.14h.62C103.13,95.65,102.51,95.65,102.51,95.14Z"/><path class="cls-8" d="M104.11,95.14h.62C104.73,95.65,104.11,95.65,104.11,95.14Z"/><path class="cls-8" d="M105.8,95.14h.62C106.42,95.65,105.8,95.65,105.8,95.14Z"/><path class="cls-8" d="M107.54,95.14h.63C108.17,95.65,107.54,95.65,107.54,95.14Z"/><path class="cls-8" d="M109.23,95.14h.62C109.85,95.65,109.23,95.65,109.23,95.14Z"/><path class="cls-8" d="M110.82,95.14h.62C111.44,95.65,110.82,95.65,110.82,95.14Z"/><path class="cls-8" d="M112.29,95.14h.62C112.91,95.65,112.29,95.65,112.29,95.14Z"/><path class="cls-8" d="M114,95.14h.62C114.58,95.65,114,95.65,114,95.14Z"/><path class="cls-22" d="M113.48,94c0-2.4,1.37-2.39,1.37,0"/><path class="cls-22" d="M112,94c0-2.4,1.37-2.39,1.37,0"/><path class="cls-22" d="M110.66,94c0-2.4,1.37-2.39,1.37,0"/><path class="cls-22" d="M109.21,94c0-2.4,1.37-2.39,1.37,0"/><path class="cls-22" d="M107.84,94c0-2.4,1.37-2.39,1.37,0"/><path class="cls-22" d="M106.4,94c0-2.4,1.37-2.39,1.37,0"/><path class="cls-22" d="M105,94c0-2.4,1.37-2.39,1.37,0"/><path class="cls-22" d="M103.58,94c0-2.4,1.37-2.39,1.37,0"/><path class="cls-22" d="M102.21,94c0-2.4,1.37-2.39,1.37,0"/><path class="cls-22" d="M100.76,94c0-2.4,1.37-2.39,1.37,0"/><path class="cls-22" d="M99.39,94c0-2.4,1.37-2.39,1.37,0"/><path class="cls-22" d="M97.94,94c0-2.4,1.37-2.39,1.37,0"/><path class="cls-22" d="M96.57,94c0-2.4,1.37-2.39,1.37,0"/><path class="cls-22" d="M95.13,94c0-2.4,1.37-2.39,1.37,0"/><path class="cls-22" d="M93.76,94c0-2.4,1.37-2.39,1.37,0"/><path class="cls-22" d="M92.31,94c0-2.4,1.37-2.39,1.37,0"/><path class="cls-22" d="M90.83,94.07c0-2.4,1.37-2.39,1.37,0"/><path class="cls-22" d="M89.38,94.07c0-2.4,1.37-2.39,1.37,0"/><path class="cls-22" d="M88,94.07c0-2.4,1.36-2.39,1.36,0"/><path class="cls-22" d="M86.57,94.07c0-2.4,1.37-2.39,1.37,0"/><path class="cls-22" d="M85.2,94.07c0-2.4,1.37-2.39,1.37,0"/><path class="cls-22" d="M83.75,94.07c0-2.4,1.37-2.39,1.37,0"/><path class="cls-22" d="M82.38,94.07c0-2.4,1.37-2.39,1.37,0"/><path class="cls-22" d="M80.93,94.07c0-2.4,1.37-2.39,1.37,0"/><path class="cls-22" d="M79.56,94.07c0-2.4,1.37-2.39,1.37,0"/><path class="cls-22" d="M78.11,94.07c0-2.4,1.37-2.39,1.37,0"/><path class="cls-22" d="M76.74,94.07c0-2.4,1.37-2.39,1.37,0"/><path class="cls-22" d="M75.3,94.07c0-2.4,1.37-2.39,1.37,0"/><path class="cls-22" d="M73.93,94.07c0-2.4,1.37-2.39,1.37,0"/><path class="cls-22" d="M72.48,94.07c0-2.4,1.37-2.39,1.37,0"/><path class="cls-22" d="M71.11,94.07c0-2.4,1.37-2.39,1.37,0"/><path class="cls-22" d="M69.66,94.07c0-2.4,1.37-2.39,1.37,0"/><path class="cls-22" d="M68.22,94.07c0-2.4,1.37-2.39,1.37,0"/><path class="cls-22" d="M66.77,94.07c0-2.4,1.37-2.39,1.37,0"/><path class="cls-22" d="M65.33,94.07c0-2.4,1.37-2.39,1.37,0"/><path class="cls-17" d="M63.3,99.81v1.78a.9.9,0,0,0,1.79,0,.9.9,0,0,0,1.8,0,.9.9,0,0,0,1.79,0,.9.9,0,0,0,1.8,0,.9.9,0,0,0,1.79,0,.9.9,0,0,0,1.79,0,.9.9,0,0,0,1.8,0,.9.9,0,0,0,1.79,0,.9.9,0,0,0,1.8,0,.9.9,0,0,0,1.79,0,.9.9,0,0,0,1.8,0,.9.9,0,0,0,1.79,0,.9.9,0,0,0,1.79,0,.9.9,0,0,0,1.8,0,.9.9,0,0,0,1.79,0,.9.9,0,0,0,1.8,0,.9.9,0,0,0,1.79,0,.9.9,0,0,0,1.79,0,.9.9,0,0,0,1.8,0,.9.9,0,0,0,1.79,0,.9.9,0,0,0,1.8,0,.9.9,0,0,0,1.79,0,.9.9,0,0,0,1.79,0,.9.9,0,0,0,1.8,0,.9.9,0,0,0,1.79,0,.9.9,0,0,0,1.8,0,.9.9,0,0,0,1.79,0,.9.9,0,0,0,1.79,0,.9.9,0,0,0,1.8,0,.9.9,0,0,0,1.79,0V99.81Z"/><path class="cls-8" d="M63.92,100.92h.67A.34.34,0,1,1,63.92,100.92Z"/><path class="cls-8" d="M65.81,100.92h.68A.34.34,0,1,1,65.81,100.92Z"/><path class="cls-8" d="M67.63,100.92h.68A.34.34,0,1,1,67.63,100.92Z"/><path class="cls-8" d="M69.36,100.92H70A.34.34,0,1,1,69.36,100.92Z"/><path class="cls-8" d="M71.22,100.92h.68A.34.34,0,1,1,71.22,100.92Z"/><path class="cls-8" d="M73.12,100.92h.67A.34.34,0,1,1,73.12,100.92Z"/><path class="cls-8" d="M74.94,100.92h.67A.34.34,0,1,1,74.94,100.92Z"/><path class="cls-8" d="M76.66,100.92h.68A.34.34,0,1,1,76.66,100.92Z"/><path class="cls-8" d="M78.4,100.92h.68A.34.34,0,1,1,78.4,100.92Z"/><path class="cls-8" d="M80.3,100.92H81A.34.34,0,1,1,80.3,100.92Z"/><path class="cls-8" d="M82.12,100.92h.67A.34.34,0,1,1,82.12,100.92Z"/><path class="cls-8" d="M83.85,100.92h.67A.34.34,0,1,1,83.85,100.92Z"/><path class="cls-8" d="M85.54,100.92h.67A.34.34,0,1,1,85.54,100.92Z"/><path class="cls-8" d="M87.43,100.92h.68A.34.34,0,1,1,87.43,100.92Z"/><path class="cls-8" d="M89.25,100.92h.68A.34.34,0,1,1,89.25,100.92Z"/><path class="cls-8" d="M91,100.92h.68A.34.34,0,1,1,91,100.92Z"/><path class="cls-8" d="M92.79,100.92h.67A.34.34,0,1,1,92.79,100.92Z"/><path class="cls-8" d="M94.68,100.92h.68A.34.34,0,1,1,94.68,100.92Z"/><path class="cls-8" d="M96.5,100.92h.68A.34.34,0,1,1,96.5,100.92Z"/><path class="cls-8" d="M98.23,100.92h.67A.34.34,0,1,1,98.23,100.92Z"/><path class="cls-8" d="M100,100.92h.67A.34.34,0,1,1,100,100.92Z"/><path class="cls-8" d="M101.85,100.92h.67A.34.34,0,1,1,101.85,100.92Z"/><path class="cls-8" d="M103.67,100.92h.67A.34.34,0,1,1,103.67,100.92Z"/><path class="cls-8" d="M105.4,100.92h.67A.34.34,0,1,1,105.4,100.92Z"/><path class="cls-8" d="M107.23,100.92h.67A.34.34,0,1,1,107.23,100.92Z"/><path class="cls-8" d="M109.12,100.92h.67A.34.34,0,1,1,109.12,100.92Z"/><path class="cls-8" d="M110.94,100.92h.67A.34.34,0,1,1,110.94,100.92Z"/><path class="cls-8" d="M112.67,100.92h.67A.34.34,0,1,1,112.67,100.92Z"/><path class="cls-8" d="M114.26,100.92h.67A.34.34,0,1,1,114.26,100.92Z"/><path class="cls-8" d="M116.07,100.92h.67A.34.34,0,1,1,116.07,100.92Z"/><path class="cls-23" d="M115.55,99.81c0-2.41,1.48-2.39,1.48,0"/><path class="cls-23" d="M114,99.81c0-2.41,1.48-2.39,1.48,0"/><path class="cls-23" d="M112.5,99.81c0-2.41,1.48-2.39,1.48,0"/><path class="cls-23" d="M110.93,99.81c0-2.41,1.48-2.39,1.48,0"/><path class="cls-23" d="M109.44,99.81c0-2.41,1.49-2.39,1.49,0"/><path class="cls-23" d="M107.88,99.81c0-2.41,1.48-2.39,1.48,0"/><path class="cls-23" d="M106.39,99.81c0-2.41,1.49-2.39,1.49,0"/><path class="cls-23" d="M104.82,99.81c0-2.41,1.49-2.39,1.49,0"/><path class="cls-23" d="M103.34,99.81c0-2.41,1.48-2.39,1.48,0"/><path class="cls-23" d="M101.77,99.81c0-2.41,1.49-2.39,1.49,0"/><path class="cls-23" d="M100.29,99.81c0-2.41,1.48-2.39,1.48,0"/><path class="cls-23" d="M98.72,99.81c0-2.41,1.48-2.39,1.48,0"/><path class="cls-23" d="M97.24,99.81c0-2.41,1.48-2.39,1.48,0"/><path class="cls-23" d="M95.67,99.81c0-2.41,1.48-2.39,1.48,0"/><path class="cls-23" d="M94.19,99.81c0-2.41,1.48-2.39,1.48,0"/><path class="cls-23" d="M92.62,99.81c0-2.41,1.48-2.39,1.48,0"/><path class="cls-23" d="M91,99.85c0-2.41,1.48-2.4,1.48,0"/><path class="cls-23" d="M89.45,99.85c0-2.41,1.49-2.4,1.49,0"/><path class="cls-23" d="M88,99.85c0-2.41,1.48-2.4,1.48,0"/><path class="cls-23" d="M86.4,99.85c0-2.41,1.48-2.4,1.48,0"/><path class="cls-23" d="M84.92,99.85c0-2.41,1.48-2.4,1.48,0"/><path class="cls-23" d="M83.35,99.85c0-2.41,1.48-2.4,1.48,0"/><path class="cls-23" d="M81.87,99.85c0-2.41,1.48-2.4,1.48,0"/><path class="cls-23" d="M80.3,99.85c0-2.41,1.48-2.4,1.48,0"/><path class="cls-23" d="M78.81,99.85c0-2.41,1.49-2.4,1.49,0"/><path class="cls-23" d="M77.25,99.85c0-2.41,1.48-2.4,1.48,0"/><path class="cls-23" d="M75.76,99.85c0-2.41,1.49-2.4,1.49,0"/><path class="cls-23" d="M74.19,99.85c0-2.41,1.49-2.4,1.49,0"/><path class="cls-23" d="M72.71,99.85c0-2.41,1.48-2.4,1.48,0"/><path class="cls-23" d="M71.14,99.85c0-2.41,1.49-2.4,1.49,0"/><path class="cls-23" d="M69.66,99.85c0-2.41,1.48-2.4,1.48,0"/><path class="cls-23" d="M68.09,99.85c0-2.41,1.48-2.4,1.48,0"/><path class="cls-23" d="M66.53,99.85c0-2.41,1.48-2.4,1.48,0"/><path class="cls-23" d="M65,99.85c0-2.41,1.49-2.4,1.49,0"/><path class="cls-23" d="M63.4,99.85c0-2.41,1.49-2.4,1.49,0"/><path class="cls-8" d="M101.85,120.34h.81A.41.41,0,0,1,101.85,120.34Z"/><path class="cls-8" d="M104.12,120.34h.82A.41.41,0,0,1,104.12,120.34Z"/><path class="cls-8" d="M106.32,120.34h.81A.41.41,0,0,1,106.32,120.34Z"/><path class="cls-8" d="M108.4,120.34h.81A.41.41,0,0,1,108.4,120.34Z"/><path class="cls-8" d="M110.6,120.34h.81A.41.41,0,0,1,110.6,120.34Z"/><path class="cls-8" d="M112.88,120.34h.81A.41.41,0,0,1,112.88,120.34Z"/><path class="cls-8" d="M115.07,120.34h.81A.41.41,0,0,1,115.07,120.34Z"/><path class="cls-8" d="M117.15,120.34H118A.41.41,0,0,1,117.15,120.34Z"/><path class="cls-8" d="M119.07,120.34h.81A.41.41,0,0,1,119.07,120.34Z"/><path class="cls-8" d="M121.25,120.34h.81A.41.41,0,0,1,121.25,120.34Z"/><rect class="cls-8" x="57.89" y="118.44" width="64.84" height="0.66"/><path class="cls-24" d="M58.07,118.44c0-5.46,3.37-5.43,3.37,0"/><path class="cls-24" d="M61.66,118.44c0-5.46,3.37-5.43,3.37,0"/><path class="cls-24" d="M65.24,118.44c0-5.46,3.36-5.43,3.36,0"/><path class="cls-24" d="M68.83,118.44c0-5.46,3.36-5.43,3.36,0"/><path class="cls-24" d="M72.42,118.44c0-5.46,3.37-5.43,3.37,0"/><path class="cls-24" d="M76,118.44c0-5.46,3.37-5.43,3.37,0"/><path class="cls-24" d="M79.59,118.44c0-5.46,3.36-5.43,3.36,0"/><path class="cls-24" d="M83.18,118.44c0-5.46,3.36-5.43,3.36,0"/><path class="cls-24" d="M86.87,118.44c0-5.46,3.37-5.43,3.37,0"/><path class="cls-24" d="M90.47,118.44c0-5.46,3.36-5.43,3.36,0"/><path class="cls-24" d="M94,118.44c0-5.46,3.36-5.43,3.36,0"/><path class="cls-24" d="M97.63,118.44c0-5.46,3.37-5.43,3.37,0"/><path class="cls-24" d="M101.22,118.44c0-5.46,3.37-5.43,3.37,0"/><path class="cls-24" d="M104.82,118.44c0-5.46,3.36-5.43,3.36,0"/><path class="cls-24" d="M108.39,118.44c0-5.46,3.36-5.43,3.36,0"/><path class="cls-24" d="M112,118.44c0-5.46,3.37-5.43,3.37,0"/><path class="cls-24" d="M115.57,118.44c0-5.46,3.37-5.43,3.37,0"/><path class="cls-24" d="M119.16,118.44c0-5.46,3.37-5.43,3.37,0"/><rect class="cls-17" x="75.98" y="68.9" width="28.89" height="1.25"/><polygon class="cls-13" points="97.63 68.9 102.29 64.22 77.71 64.22 82.65 68.9 97.63 68.9"/><rect class="cls-13" x="88.67" y="51.55" width="3.79" height="15.21" rx="1.06" ry="1.06"/><path class="cls-25" d="M23.13,130.28H23c-.25.05-.52.21-.74-.09s-.41-.72-.91-.4a1,1,0,0,1-1.06.34,9.2,9.2,0,0,0-3.31.09,13.11,13.11,0,0,0-2.84.87,3.74,3.74,0,0,0-1.72,5.35.86.86,0,0,1,.15.86,5.71,5.71,0,0,0-.08,1.24,1.09,1.09,0,0,1,0,.25c-.41,1.5-.2,1.73,1.34,1.49a4.77,4.77,0,0,1,.48-.05c-.06-.45-.66-.78-.33-1.23s.64-.13,1-.13.21-.1.07-.23-.21,0-.07-.08a1,1,0,0,0,.32-.49c.33-.92.38-.93,1.08-.19a1,1,0,0,1,1.13-1,5.65,5.65,0,0,0,1.55-.44.31.31,0,0,0,.22.09c1-.1,1-.1,1.1,1a3.2,3.2,0,0,1,0,1.41c-.08.27-.23.51-.29.79s.13.37.24.54.55.11.83.12c.53,0,1,0,.47-.7a.65.65,0,0,1,0-.66,9.47,9.47,0,0,0,.6-3.16,2.93,2.93,0,0,1,.1-.67c.06-.2.17-.39.4-.4s.28.23.34.41a5,5,0,0,1,.14,2.2c0,.3,0,.57.24.63s.33-.32.38-.53A11.09,11.09,0,0,0,24,136.1c0-.27,0-.53.41-.49.18-.15.28-.06.39.1s.26.5.61.46a7.13,7.13,0,0,1,.18-1.95c.06-.49.27-1,0-1.47a.77.77,0,0,0-.52-.41c-.23-.19-.15-.45-.18-.68a.65.65,0,0,0-.1-.41c-.16-.2-.31-.41-.59-.43l-.51-.23a.23.23,0,0,0-.16-.06.2.2,0,0,1-.13-.11A.32.32,0,0,0,23.13,130.28Z"/><path class="cls-26" d="M20.37,137.49c.1-.47.16-1.06-.15-1.33s-.8.34-1.27.32a5.15,5.15,0,0,1-.36,3.07c-.24.4-.05.65.41.68l1.19.05c-.05-.18-.11-.36-.16-.54,0-.58.38-1.07.34-1.65C20.34,137.89,20.47,137.69,20.37,137.49Z"/><path class="cls-27" d="M16.27,137.88c0-.44-.07-.71-.63-.77s-.63,0-.6.47-.14,1-.9,1c.24.27.52.08.73.18a.1.1,0,0,1,0,.07s0,.05,0,.08a1,1,0,0,1,0,.17c-.23,1.06.38,1.59,1.47,1.27.21-.06.33-.24.18-.36C15.74,139.32,16.4,138.56,16.27,137.88Z"/><path class="cls-28" d="M24.5,136a4.27,4.27,0,0,0,.41,1.64,7.57,7.57,0,0,1,.48,2.36c.71-1-.05-2,.17-3a.24.24,0,0,0,0-.22C25.24,136.43,25.08,135.9,24.5,136Z"/><path class="cls-29" d="M24.5,136l1,.86a.22.22,0,0,0,.2-.19l-.36-.45a2.28,2.28,0,0,1-.57-.83c-.07-.14-.15-.35-.36-.25s-.09.34-.07.52S24.48,135.83,24.5,136Z"/><path class="cls-30" d="M25.73,136.62l-.2.19,0,.14a2.39,2.39,0,0,0,1.68.18c0-.15,0-.25-.18-.17A2.38,2.38,0,0,1,25.73,136.62Z"/><path class="cls-31" d="M12.76,140.36c6.19-4.22,2.61-13,2.61-13,3.26,2.12,4.24,13,4.24,13Z"/><path class="cls-32" d="M14.8,127.51c-2.85-1.58-2.48-5.16-2.48-5.16a6.35,6.35,0,0,1,2.48,2.58c.77-2.18.33-4.13,1.3-4.33.9,1.58,1.88,3.74,1.1,4.23,1.84-1.06,2.57-2.16,5-1.06s1.92,1.1,1.92,1.1c-2.94.2-7.25.69-7.62,1.38,3.42-.36,6.72-.61,7.82.86,0,0-8.69-.27-8.1,0,1.46.77,4.27,1.18,3.74,3a4.93,4.93,0,0,1-4.36-1.87c-.57,1.46-3.25,1.5-2.28,3.54-1.91-.82,1.31-3.71,1.31-3.71-2.77,1.75-3.38,1-4.4,3,0-1.3.16-2.76,1.59-3.09S14.8,127.51,14.8,127.51Z"/><path class="cls-31" d="M62.88,140.36c6.63-4.52,2.79-13.93,2.79-13.93,3.49,2.27,4.53,13.93,4.53,13.93Z"/><path class="cls-32" d="M65.06,126.61c-3.05-1.7-2.66-5.53-2.66-5.53a6.75,6.75,0,0,1,2.66,2.76c.83-2.33.35-4.42,1.39-4.63,1,1.69,2,4,1.18,4.52,2-1.13,2.75-2.3,5.36-1.13S75,123.78,75,123.78c-3.14.22-7.76.74-8.15,1.48,3.66-.39,7.19-.65,8.37.91,0,0-9.3-.28-8.67,0,1.56.82,4.57,1.26,4,3.22-2,.13-4.06-.87-4.67-2-.61,1.56-3.49,1.61-2.44,3.78-2.05-.87,1.4-4,1.4-4-3,1.87-3.62,1.09-4.71,3.22,0-1.39.17-3,1.7-3.31S65.06,126.61,65.06,126.61Z"/><path class="cls-31" d="M37.41,140.36c9.31-6.35,3.92-19.57,3.92-19.57,4.9,3.19,6.37,19.57,6.37,19.57Z"/><path class="cls-32" d="M40.48,121c-4.29-2.39-3.74-7.77-3.74-7.77,2.14.85,3.74,3.88,3.74,3.88,1.16-3.27.49-6.21,2-6.51,1.34,2.38,2.81,5.62,1.65,6.36,2.76-1.59,3.86-3.24,7.53-1.59s2.88,1.65,2.88,1.65c-4.41.31-10.9,1-11.45,2.08,5.14-.55,10.11-.92,11.76,1.29,0,0-13.07-.41-12.19.06,2.21,1.16,6.43,1.77,5.64,4.53-2.88.18-5.7-1.23-6.56-2.82-.86,2.2-4.9,2.26-3.43,5.32-2.88-1.22,2-5.56,2-5.56-4.16,2.63-5.08,1.53-6.61,4.52-.06-2,.24-4.16,2.39-4.65S40.48,121,40.48,121Z"/><path class="cls-31" d="M82.7,140.36c6.5-4.44,2.74-13.67,2.74-13.67,3.42,2.22,4.45,13.67,4.45,13.67Z"/><path class="cls-32" d="M84.84,126.86c-3-1.67-2.61-5.43-2.61-5.43a6.58,6.58,0,0,1,2.61,2.71c.81-2.29.34-4.34,1.37-4.55.94,1.66,2,3.93,1.15,4.44,1.93-1.11,2.7-2.26,5.27-1.11s2,1.16,2,1.16c-3.08.21-7.62.72-8,1.45,3.59-.38,7.06-.64,8.21.9,0,0-9.13-.28-8.51,0,1.54.81,4.49,1.24,3.93,3.17-2,.12-4-.86-4.58-2-.6,1.54-3.42,1.58-2.39,3.72-2-.86,1.37-3.89,1.37-3.89-2.91,1.84-3.56,1.07-4.63,3.16,0-1.37.18-2.91,1.67-3.25S84.84,126.86,84.84,126.86Z"/><path class="cls-25" d="M99.38,128.49h.19c.3.07.62.25.87-.1s.48-.83,1.06-.46a1.13,1.13,0,0,0,1.24.4,10.84,10.84,0,0,1,3.85.09,16.15,16.15,0,0,1,3.3,1,4.36,4.36,0,0,1,2,6.23,1.06,1.06,0,0,0-.18,1,6.35,6.35,0,0,1,.1,1.44,1.54,1.54,0,0,0,0,.3c.48,1.74.24,2-1.56,1.73-.16,0-.32,0-.56,0,.08-.53.78-.91.39-1.44-.27-.36-.75-.15-1.14-.15s-.23-.12-.08-.27.25,0,.09-.09a1.26,1.26,0,0,1-.37-.57c-.38-1.07-.44-1.08-1.26-.22a1.2,1.2,0,0,0-1.32-1.12,6.77,6.77,0,0,1-1.8-.51.46.46,0,0,1-.26.11c-1.13-.12-1.13-.12-1.28,1.13a3.79,3.79,0,0,0,0,1.64c.1.31.27.59.34.91s-.15.44-.28.63c-.29.25-.64.13-1,.15-.62,0-1.17,0-.55-.83a.77.77,0,0,0,0-.76,10.79,10.79,0,0,1-.7-3.69,3.51,3.51,0,0,0-.12-.78c-.07-.22-.2-.45-.46-.46s-.33.27-.4.48a5.89,5.89,0,0,0-.17,2.57c0,.34,0,.66-.27.73s-.39-.37-.45-.61a13.74,13.74,0,0,1-.29-1.66c0-.32,0-.62-.48-.58-.2-.17-.32-.06-.45.12s-.3.58-.71.54a8.22,8.22,0,0,0-.22-2.27c-.06-.57-.31-1.15,0-1.71a.91.91,0,0,1,.61-.49c.26-.21.17-.52.2-.79a.78.78,0,0,1,.13-.47c.18-.23.35-.48.68-.51l.59-.26a.26.26,0,0,1,.19-.07.22.22,0,0,0,.15-.13A.37.37,0,0,1,99.38,128.49Z"/><path class="cls-26" d="M102.59,136.89c-.12-.55-.19-1.24.17-1.55s.94.39,1.49.37c0,1.21-.27,2.44.41,3.58.28.46.07.76-.47.79l-1.39,0c.06-.21.13-.41.19-.62,0-.68-.44-1.25-.4-1.93C102.63,137.35,102.48,137.12,102.59,136.89Z"/><path class="cls-27" d="M107.37,137.34c0-.51.09-.83.74-.9s.72,0,.69.55.17,1.18,1,1.11c-.28.32-.6.1-.85.22a.11.11,0,0,0,0,.08s0,.06,0,.09,0,.13,0,.2c.27,1.24-.44,1.85-1.71,1.48-.24-.07-.39-.27-.21-.42C108,139,107.22,138.13,107.37,137.34Z"/><path class="cls-28" d="M97.78,135.09a4.84,4.84,0,0,1-.47,1.91,8.64,8.64,0,0,0-.56,2.75c-.83-1.13,0-2.34-.21-3.49a.3.3,0,0,1,0-.26C96.92,135.65,97.11,135,97.78,135.09Z"/><path class="cls-29" d="M97.78,135.09l-1.2,1a.28.28,0,0,1-.23-.23l.42-.52a2.79,2.79,0,0,0,.66-1c.09-.17.18-.41.42-.29s.11.39.08.6C97.75,134.77,97.81,135,97.78,135.09Z"/><path class="cls-30" d="M96.35,135.87l.23.23a1.24,1.24,0,0,1,0,.16,2.74,2.74,0,0,1-2,.2c0-.17,0-.29.22-.19A2.72,2.72,0,0,0,96.35,135.87Z"/><path class="cls-25" d="M29.71,135.68h.08c.12,0,.25.1.35,0s.2-.34.43-.19a.47.47,0,0,0,.51.16,4.6,4.6,0,0,1,1.57,0,5.87,5.87,0,0,1,1.35.42,1.78,1.78,0,0,1,.82,2.54.43.43,0,0,0-.08.41,2.31,2.31,0,0,1,0,.59s0,.08,0,.12c.2.71.1.82-.64.7l-.22,0c0-.21.31-.37.15-.58s-.3-.06-.46-.07-.1,0,0-.11.1,0,0,0a.51.51,0,0,1-.15-.24c-.15-.43-.18-.44-.51-.08a.49.49,0,0,0-.54-.46,2.76,2.76,0,0,1-.73-.21s-.07.05-.11,0c-.46,0-.46,0-.52.46a1.38,1.38,0,0,0,0,.67c0,.13.11.25.14.38s-.06.18-.12.26-.26.05-.39.05-.48,0-.22-.33a.31.31,0,0,0,0-.31,4.31,4.31,0,0,1-.29-1.51,1.25,1.25,0,0,0-.05-.32.2.2,0,0,0-.19-.18c-.12,0-.13.1-.16.19a2.34,2.34,0,0,0-.06,1.05c0,.14,0,.27-.12.3s-.15-.15-.18-.25a5.39,5.39,0,0,1-.12-.68c0-.13,0-.25-.19-.23s-.14,0-.19,0-.12.24-.29.22a3.16,3.16,0,0,0-.09-.92c0-.24-.12-.47,0-.7a.36.36,0,0,1,.25-.2c.11-.09.07-.21.08-.32a.46.46,0,0,1,.05-.2c.08-.09.15-.19.28-.2l.24-.11a.13.13,0,0,1,.08,0s.05,0,.06-.05A.16.16,0,0,1,29.71,135.68Z"/><path class="cls-26" d="M31,139.11c-.05-.22-.08-.5.07-.63s.38.16.61.15a2.36,2.36,0,0,0,.16,1.46c.12.19,0,.31-.19.32l-.57,0,.08-.26c0-.28-.18-.51-.16-.79C31,139.3,31,139.2,31,139.11Z"/><path class="cls-27" d="M33,139.3c0-.21,0-.34.3-.37s.3,0,.28.22.07.49.43.46c-.12.13-.25,0-.35.09s0,0,0,0,0,0,0,0a.28.28,0,0,0,0,.09c.11.5-.18.75-.7.6-.1,0-.16-.11-.09-.17C33.22,140,32.91,139.62,33,139.3Z"/><path class="cls-28" d="M29.05,138.38a2,2,0,0,1-.19.78,3.55,3.55,0,0,0-.23,1.12c-.33-.46,0-1-.08-1.43a.12.12,0,0,1,0-.1C28.71,138.6,28.78,138.36,29.05,138.38Z"/><path class="cls-29" d="M29.05,138.38l-.48.41a.11.11,0,0,1-.1-.09l.17-.22a1,1,0,0,0,.27-.39c0-.07.08-.17.18-.12s0,.16,0,.25S29.07,138.32,29.05,138.38Z"/><path class="cls-30" d="M28.47,138.7l.1.09s0,0,0,.06a1.11,1.11,0,0,1-.8.09c0-.07,0-.12.09-.08A1.16,1.16,0,0,0,28.47,138.7Z"/><polygon class="cls-33" points="255.25 26.93 236.23 26.93 234.19 35.36 232.9 35.36 232.9 37.68 234.88 37.68 234.88 40.39 231.71 40.39 231.71 43.16 234.49 43.16 234.49 46.09 232.5 46.09 229.73 46.09 229.73 50.13 226.95 50.13 226.95 52.27 225.29 52.27 225.29 50.37 224.26 50.37 224.26 52.27 222.67 52.27 222.12 51.72 221.51 51.72 221.51 140.45 255.25 140.45 255.25 26.93"/><line class="cls-34" x1="221.51" y1="138.65" x2="255.25" y2="138.65"/><line class="cls-34" x1="221.51" y1="136.6" x2="255.25" y2="136.6"/><line class="cls-34" x1="221.51" y1="134.56" x2="255.25" y2="134.56"/><line class="cls-34" x1="221.51" y1="132.52" x2="255.25" y2="132.52"/><line class="cls-34" x1="221.51" y1="130.47" x2="255.25" y2="130.47"/><line class="cls-34" x1="221.51" y1="126.39" x2="255.25" y2="126.39"/><line class="cls-34" x1="221.51" y1="128.43" x2="255.25" y2="128.43"/><line class="cls-34" x1="221.51" y1="120.26" x2="255.25" y2="120.26"/><line class="cls-34" x1="221.51" y1="122.3" x2="255.25" y2="122.3"/><line class="cls-34" x1="221.51" y1="124.34" x2="255.25" y2="124.34"/><line class="cls-34" x1="221.51" y1="118.21" x2="255.25" y2="118.21"/><line class="cls-34" x1="221.51" y1="116.17" x2="255.25" y2="116.17"/><line class="cls-34" x1="221.51" y1="114.13" x2="255.25" y2="114.13"/><line class="cls-34" x1="221.51" y1="112.08" x2="255.25" y2="112.08"/><line class="cls-34" x1="221.51" y1="110.04" x2="255.25" y2="110.04"/><line class="cls-34" x1="221.51" y1="107.99" x2="255.25" y2="107.99"/><line class="cls-34" x1="221.51" y1="105.95" x2="255.25" y2="105.95"/><line class="cls-34" x1="221.51" y1="103.91" x2="255.25" y2="103.91"/><line class="cls-34" x1="221.51" y1="101.86" x2="255.25" y2="101.86"/><line class="cls-34" x1="221.51" y1="99.82" x2="255.25" y2="99.82"/><line class="cls-34" x1="221.51" y1="97.78" x2="255.25" y2="97.78"/><line class="cls-34" x1="221.51" y1="95.73" x2="255.25" y2="95.73"/><line class="cls-34" x1="221.51" y1="93.69" x2="255.25" y2="93.69"/><line class="cls-34" x1="221.51" y1="91.65" x2="255.25" y2="91.65"/><line class="cls-34" x1="221.51" y1="89.6" x2="255.25" y2="89.6"/><line class="cls-34" x1="221.51" y1="87.56" x2="255.25" y2="87.56"/><line class="cls-34" x1="221.51" y1="85.52" x2="255.25" y2="85.52"/><line class="cls-34" x1="221.51" y1="83.47" x2="255.25" y2="83.47"/><line class="cls-34" x1="221.51" y1="81.43" x2="255.25" y2="81.43"/><line class="cls-34" x1="221.51" y1="79.39" x2="255.25" y2="79.39"/><line class="cls-34" x1="221.51" y1="77.34" x2="255.25" y2="77.34"/><line class="cls-34" x1="221.51" y1="75.3" x2="255.25" y2="75.3"/><line class="cls-34" x1="221.51" y1="73.26" x2="255.25" y2="73.26"/><line class="cls-34" x1="221.51" y1="71.21" x2="255.25" y2="71.21"/><line class="cls-34" x1="221.51" y1="69.17" x2="255.25" y2="69.17"/><line class="cls-34" x1="221.51" y1="67.13" x2="255.25" y2="67.13"/><line class="cls-34" x1="221.51" y1="63.04" x2="255.25" y2="63.04"/><line class="cls-34" x1="221.51" y1="65.08" x2="255.25" y2="65.08"/><line class="cls-34" x1="221.51" y1="61" x2="255.25" y2="61"/><line class="cls-34" x1="221.51" y1="58.95" x2="255.25" y2="58.95"/><line class="cls-34" x1="221.51" y1="56.91" x2="255.25" y2="56.91"/><line class="cls-34" x1="221.51" y1="54.86" x2="255.25" y2="54.86"/><line class="cls-34" x1="221.51" y1="52.82" x2="255.25" y2="52.82"/><line class="cls-34" x1="255.25" y1="46.69" x2="239.29" y2="46.69"/><line class="cls-34" x1="255.25" y1="50.78" x2="239.29" y2="50.78"/><line class="cls-34" x1="255.25" y1="44.65" x2="239.29" y2="44.65"/><line class="cls-34" x1="255.25" y1="42.6" x2="239.29" y2="42.6"/><line class="cls-34" x1="255.25" y1="40.56" x2="239.29" y2="40.56"/><line class="cls-34" x1="255.25" y1="38.52" x2="239.29" y2="38.52"/><line class="cls-34" x1="255.25" y1="36.47" x2="239.29" y2="36.47"/><line class="cls-34" x1="255.25" y1="34.43" x2="239.29" y2="34.43"/><line class="cls-34" x1="255.25" y1="32.39" x2="239.29" y2="32.39"/><line class="cls-34" x1="255.25" y1="30.34" x2="239.29" y2="30.34"/><line class="cls-34" x1="255.25" y1="28.3" x2="239.29" y2="28.3"/><line class="cls-34" x1="255.25" y1="48.73" x2="239.29" y2="48.73"/><line class="cls-34" x1="253.67" y1="26.93" x2="253.67" y2="140.45"/><line class="cls-34" x1="252.05" y1="26.93" x2="252.05" y2="140.45"/><line class="cls-34" x1="250.42" y1="26.71" x2="250.42" y2="140.24"/><line class="cls-34" x1="248.8" y1="26.71" x2="248.8" y2="140.24"/><line class="cls-34" x1="247.18" y1="26.71" x2="247.18" y2="140.24"/><line class="cls-34" x1="245.56" y1="26.71" x2="245.56" y2="140.24"/><line class="cls-34" x1="243.93" y1="26.71" x2="243.93" y2="140.24"/><line class="cls-34" x1="240.69" y1="48.92" x2="240.69" y2="140.24"/><line class="cls-34" x1="239.07" y1="48.92" x2="239.07" y2="140.24"/><line class="cls-34" x1="237.44" y1="48.92" x2="237.44" y2="140.24"/><line class="cls-34" x1="235.82" y1="48.92" x2="235.82" y2="140.24"/><line class="cls-34" x1="234.2" y1="56.57" x2="234.2" y2="140.24"/><line class="cls-34" x1="232.58" y1="56.57" x2="232.58" y2="140.24"/><line class="cls-34" x1="230.95" y1="56.57" x2="230.95" y2="140.24"/><line class="cls-34" x1="229.33" y1="56.57" x2="229.33" y2="140.24"/><line class="cls-34" x1="227.71" y1="56.57" x2="227.71" y2="140.24"/><line class="cls-34" x1="226.09" y1="56.57" x2="226.09" y2="140.24"/><line class="cls-34" x1="224.47" y1="56.57" x2="224.47" y2="140.24"/><line class="cls-34" x1="222.84" y1="56.57" x2="222.84" y2="140.24"/><line class="cls-34" x1="242.31" y1="26.71" x2="242.31" y2="140.24"/><polygon class="cls-35" points="255.25 73.99 251.03 73.99 251.03 75.61 247.75 75.61 247.75 77.61 245.32 77.61 239.4 77.61 241.25 79.46 241.25 80.67 239.85 82.07 239.85 83.69 238.35 85.19 236.12 85.19 236.12 86.91 238.38 86.91 238.38 89.65 234.64 89.65 230.63 89.65 230.63 92.4 229.46 93.56 227.88 93.56 227.88 94.51 227.88 97.47 226.61 97.47 224.18 97.47 224.18 99.58 223.18 100.58 222.17 101.58 221.51 103.48 223.82 103.48 225.72 103.48 225.72 101.85 228.5 101.85 228.5 102.96 229.73 102.96 229.73 101.73 231.55 101.73 231.55 99.11 234.6 99.11 236.97 99.11 236.97 101.27 240.03 101.27 240.03 95.67 242.78 95.67 244 94.45 244 92.4 245.03 91.37 245.03 88.07 246.97 86.13 248.08 85.02 250.92 85.02 250.92 89.65 252.06 88.51 252.06 85.11 254.13 83.04 255.25 83.04 255.25 73.99"/><polygon class="cls-36" points="255.25 73.99 255.25 75.5 253.35 75.5 253.35 76.56 251.92 76.56 251.21 77.27 249.92 77.27 248.66 78.52 246.53 78.52 242.04 78.52 243.25 79.73 242.15 80.83 242.91 81.6 241.59 82.92 240.69 83.82 239.85 83.82 239.85 82.07 241.25 80.67 241.25 79.46 239.4 77.61 247.75 77.61 247.75 75.61 251.03 75.61 251.03 73.99 255.25 73.99"/><polygon class="cls-36" points="230.63 92.4 233.45 92.4 233.45 91.23 234.99 91.23 235.81 92.05 236.74 91.12 239.29 91.12 239.29 89.04 239.29 86.8 238.54 86.05 238.35 85.19 236.12 85.19 236.12 86.91 238.38 86.91 238.38 89.65 230.63 89.65 230.63 92.4"/><rect class="cls-36" x="230.63" y="95.43" width="4.97" height="1.82"/><rect class="cls-37" x="225.66" y="99.99" width="2.48" height="0.91"/><rect class="cls-37" x="228.14" y="97.89" width="2.48" height="0.91"/><rect class="cls-37" x="236.92" y="97.65" width="2.48" height="0.91"/><rect class="cls-37" x="241.05" y="89.27" width="2.48" height="0.91"/><rect class="cls-37" x="244.21" y="80.33" width="2.48" height="0.91"/><rect class="cls-37" x="249.41" y="82.91" width="2.48" height="0.91"/><rect class="cls-37" x="250.66" y="78.9" width="2.48" height="0.91"/><rect class="cls-37" x="243.71" y="83.69" width="2.48" height="0.91"/><rect class="cls-36" x="237.84" y="92.4" width="4.97" height="1.82"/><rect class="cls-36" x="241.72" y="84.28" width="4.97" height="1.82"/><rect class="cls-36" x="248.17" y="79.87" width="4.97" height="1.82"/><polygon class="cls-35" points="221.51 58.6 229.38 58.6 229.38 57.42 234.96 57.42 234.96 53.77 231.65 53.77 231.65 51.11 237.84 51.11 240.42 53.68 242.96 51.14 242.96 46.36 245.45 46.36 245.45 36.54 245.45 30.31 240.99 26.93 236.23 26.93 234.19 35.36 232.9 35.36 232.84 37.68 234.82 37.68 234.82 40.39 231.65 40.39 231.65 43.16 234.42 43.16 234.42 46.09 229.73 46.09 229.73 50.13 226.95 50.13 226.95 52.27 225.29 52.27 225.29 50.37 224.26 50.37 224.26 52.27 222.67 52.27 222.12 51.72 221.51 51.72 221.51 58.6"/><polygon class="cls-36" points="232.84 37.68 234.82 37.68 234.82 40.39 231.65 40.39 231.65 43.16 234.42 43.16 234.42 46.09 236.85 47.52 236.85 45.05 238.1 45.05 238.1 42.55 238.1 38.75 240.99 38.75 240.99 35.36 237.78 35.36 237.78 32.31 240.99 32.31 240.99 26.93 236.23 26.93 234.19 35.36 232.9 35.36 232.84 37.68"/><polygon class="cls-36" points="229.73 50.13 229.73 54.73 226.64 54.73 226.64 57.42 224.5 57.42 224.5 55.75 222.51 55.75 221.51 55.75 221.51 51.72 222.12 51.72 222.67 52.27 224.26 52.27 224.26 50.37 225.29 50.37 225.29 52.27 226.95 52.27 226.95 50.13 229.73 50.13"/><rect class="cls-37" x="241.59" y="30.23" width="2.48" height="0.91"/><rect class="cls-37" x="242.39" y="34.79" width="2.48" height="0.91"/><rect class="cls-37" x="239.11" y="49.68" width="2.48" height="0.91"/><rect class="cls-37" x="230.41" y="47.06" width="2.48" height="0.91"/><rect class="cls-37" x="232.89" y="48.65" width="2.48" height="0.91"/><rect class="cls-37" x="230.99" y="54.74" width="2.48" height="0.91"/><rect class="cls-37" x="227.24" y="55.66" width="2.48" height="0.91"/><rect class="cls-36" x="240.35" y="42.5" width="3.73" height="1.27"/><rect class="cls-36" x="236.94" y="48.92" width="3.73" height="1.27"/><rect class="cls-36" x="241.14" y="39.12" width="3.73" height="1.27"/><rect class="cls-36" x="238.49" y="33.05" width="3.73" height="1.27"/><rect class="cls-36" x="238.49" y="45.46" width="3.73" height="1.27"/><rect class="cls-38" x="241.72" y="26.93" width="13.53" height="114.16"/><rect class="cls-39" x="130.01" y="126.39" width="85.82" height="14.07"/><rect class="cls-40" x="135.48" y="129.15" width="2.14" height="6.73"/><rect class="cls-40" x="211.58" y="129.15" width="2.14" height="6.73"/><rect class="cls-40" x="208.56" y="129.15" width="2.14" height="6.73"/><rect class="cls-40" x="205.23" y="129.15" width="2.14" height="6.73"/><polygon class="cls-39" points="194.47 100.9 194.47 83.47 151.89 83.47 134.85 83.47 134.85 101.86 134.85 126.39 151.89 126.39 151.89 101.86 169.08 101.86 169.08 126.39 184.06 126.39 184.06 101.86 190.75 101.86 190.75 126.39 205.23 126.39 205.23 100.9 194.47 100.9"/><circle class="cls-41" cx="190.3" cy="90.46" r="1.68"/><rect class="cls-41" x="185.34" y="81.24" width="2.38" height="17.11"/><rect class="cls-42" x="193.86" y="99.39" width="14.43" height="2.1"/><rect class="cls-41" x="135.92" y="84.49" width="2.08" height="2.08"/><rect class="cls-41" x="135.92" y="88.3" width="2.08" height="2.08"/><rect class="cls-41" x="135.92" y="92.12" width="2.08" height="2.08"/><rect class="cls-41" x="135.92" y="95.93" width="2.08" height="2.08"/><rect class="cls-41" x="135.92" y="101.86" width="2.08" height="2.08"/><rect class="cls-41" x="135.92" y="105.27" width="2.08" height="2.08"/><rect class="cls-41" x="135.92" y="111.16" width="2.08" height="2.08"/><rect class="cls-41" x="135.92" y="115.13" width="2.08" height="2.08"/><rect class="cls-41" x="139.15" y="84.49" width="2.08" height="2.08"/><rect class="cls-41" x="139.15" y="92.12" width="2.08" height="2.08"/><rect class="cls-41" x="139.15" y="95.93" width="2.08" height="2.08"/><rect class="cls-41" x="142.47" y="84.49" width="2.08" height="2.08"/><rect class="cls-41" x="142.47" y="88.3" width="2.08" height="2.08"/><rect class="cls-41" x="142.47" y="92.12" width="2.08" height="2.08"/><rect class="cls-41" x="142.47" y="95.93" width="2.08" height="2.08"/><rect class="cls-41" x="142.47" y="101.49" width="2.08" height="2.08"/><rect class="cls-41" x="142.47" y="114.36" width="2.08" height="2.08"/><rect class="cls-41" x="145.7" y="84.49" width="2.08" height="2.08"/><rect class="cls-41" x="145.7" y="88.3" width="2.08" height="2.08"/><rect class="cls-41" x="145.7" y="92.12" width="2.08" height="2.08"/><rect class="cls-41" x="145.7" y="95.93" width="2.08" height="2.08"/><rect class="cls-41" x="145.7" y="101.49" width="2.08" height="2.08"/><rect class="cls-41" x="145.7" y="110.93" width="2.08" height="2.08"/><rect class="cls-41" x="148.78" y="84.49" width="2.08" height="2.08"/><rect class="cls-41" x="148.78" y="88.3" width="2.08" height="2.08"/><rect class="cls-41" x="148.78" y="92.12" width="2.08" height="2.08"/><rect class="cls-41" x="148.78" y="95.93" width="2.08" height="2.08"/><rect class="cls-41" x="152.01" y="84.49" width="2.08" height="2.08"/><rect class="cls-41" x="152.01" y="92.12" width="2.08" height="2.08"/><rect class="cls-41" x="155.33" y="84.49" width="2.08" height="2.08"/><rect class="cls-41" x="155.33" y="88.3" width="2.08" height="2.08"/><rect class="cls-41" x="155.33" y="92.12" width="2.08" height="2.08"/><rect class="cls-41" x="158.56" y="84.49" width="2.08" height="2.08"/><rect class="cls-41" x="158.56" y="88.3" width="2.08" height="2.08"/><rect class="cls-41" x="158.56" y="92.12" width="2.08" height="2.08"/><rect class="cls-41" x="161.23" y="84.5" width="2.08" height="2.08"/><rect class="cls-41" x="161.23" y="92.13" width="2.08" height="2.08"/><rect class="cls-41" x="164.47" y="84.5" width="2.08" height="2.08"/><rect class="cls-41" x="164.47" y="88.32" width="2.08" height="2.08"/><rect class="cls-41" x="164.47" y="92.13" width="2.08" height="2.08"/><rect class="cls-41" x="167.79" y="84.5" width="2.08" height="2.08"/><rect class="cls-41" x="167.79" y="88.32" width="2.08" height="2.08"/><rect class="cls-41" x="167.79" y="92.13" width="2.08" height="2.08"/><rect class="cls-41" x="167.79" y="95.95" width="2.08" height="2.08"/><rect class="cls-41" x="171.02" y="84.5" width="2.08" height="2.08"/><rect class="cls-41" x="171.02" y="88.32" width="2.08" height="2.08"/><rect class="cls-41" x="171.02" y="92.13" width="2.08" height="2.08"/><rect class="cls-41" x="174.1" y="84.5" width="2.08" height="2.08"/><rect class="cls-41" x="174.1" y="88.32" width="2.08" height="2.08"/><rect class="cls-41" x="174.1" y="92.13" width="2.08" height="2.08"/><rect class="cls-41" x="177.33" y="84.5" width="2.08" height="2.08"/><rect class="cls-41" x="177.33" y="88.32" width="2.08" height="2.08"/><rect class="cls-41" x="177.33" y="92.13" width="2.08" height="2.08"/><rect class="cls-41" x="180.65" y="84.5" width="2.08" height="2.08"/><rect class="cls-41" x="180.65" y="88.32" width="2.08" height="2.08"/><rect class="cls-41" x="180.65" y="92.13" width="2.08" height="2.08"/><rect class="cls-41" x="180.65" y="102.53" width="2.08" height="2.08"/><rect class="cls-41" x="192.32" y="102.53" width="2.08" height="2.08"/><rect class="cls-41" x="196.03" y="106.24" width="2.08" height="2.08"/><rect class="cls-41" x="200.23" y="106.24" width="2.08" height="2.08"/><rect class="cls-41" x="200.23" y="109.97" width="2.08" height="2.08"/><rect class="cls-41" x="180.65" y="106.15" width="2.08" height="2.08"/><rect class="cls-41" x="180.65" y="109.78" width="2.08" height="2.08"/><rect class="cls-41" x="180.65" y="113.4" width="2.08" height="2.08"/><rect class="cls-41" x="180.65" y="117.03" width="2.08" height="2.08"/><rect class="cls-41" x="180.65" y="120.65" width="2.08" height="2.08"/><rect class="cls-41" x="172.56" y="106.15" width="2.08" height="2.08"/><rect class="cls-41" x="172.56" y="109.97" width="2.08" height="2.08"/><rect class="cls-41" x="172.56" y="113.4" width="2.08" height="2.08"/><rect class="cls-41" x="175.64" y="106.15" width="2.08" height="2.08"/><rect class="cls-41" x="175.64" y="109.97" width="2.08" height="2.08"/><rect class="cls-41" x="196.03" y="113.53" width="2.08" height="2.08"/><rect class="cls-41" x="192.32" y="113.53" width="2.08" height="2.08"/><rect class="cls-41" x="192.32" y="119.96" width="2.08" height="2.08"/><rect class="cls-41" x="196.03" y="119.96" width="2.08" height="2.08"/><rect class="cls-41" x="200.23" y="119.96" width="2.08" height="2.08"/><rect class="cls-41" x="200.23" y="116.73" width="2.08" height="2.08"/><rect class="cls-43" x="171.22" y="123.71" width="15.91" height="2.68"/><rect class="cls-43" x="134.85" y="123.71" width="18.11" height="2.68"/></g></g></g></svg>