<svg xmlns="http://www.w3.org/2000/svg" viewBox="0 0 264.08 144.62"><defs><style>.cls-1{fill:#fcb514;}.cls-2{fill:#efcc7a;}.cls-3{fill:#fff;}.cls-24,.cls-4{fill:none;}.cls-4{stroke:#fefefd;}.cls-24,.cls-26,.cls-4,.cls-48{stroke-miterlimit:10;}.cls-26,.cls-4{stroke-width:1.48px;}.cls-5{fill:#664b00;}.cls-6{fill:#937f5c;}.cls-7{fill:#661212;}.cls-8{fill:#300404;}.cls-9{fill:#725316;}.cls-10{fill:#209133;}.cls-11{fill:#9ebc51;}.cls-12{fill:#c91f1f;}.cls-13{fill:#3420c6;}.cls-14{fill:#cdc79b;}.cls-15{fill:#069599;}.cls-16{fill:#b0c396;}.cls-17{fill:#2caf9c;}.cls-18{fill:#000400;}.cls-19{fill:#d0d8a1;}.cls-20{fill:#bbb684;}.cls-21{fill:#895502;}.cls-22,.cls-26{fill:#aa8144;}.cls-23{fill:#6b3f00;}.cls-24{stroke:#664110;stroke-width:0.59px;}.cls-25{fill:#664110;}.cls-26{stroke:#846030;}.cls-27{fill:#4d6c66;}.cls-28{fill:#f2ebb7;}.cls-29{opacity:0.4;}.cls-30{opacity:0.2;}.cls-31{fill:#ab8429;}.cls-32{fill:#edbd50;}.cls-33{fill:#ffe29e;}.cls-34{fill:#e6b43e;}.cls-35{fill:#bd942d;}.cls-36{fill:#ab8528;}.cls-37{fill:#cfa63c;}.cls-38,.cls-43,.cls-48{fill:#7e6519;}.cls-39{fill:#cfa834;}.cls-40{fill:#be962e;}.cls-41{fill:#f2c059;}.cls-42{fill:#82671f;}.cls-43{opacity:0.6;}.cls-44{fill:#a27e2a;}.cls-45,.cls-46{fill:#856a1f;}.cls-46{opacity:0.8;}.cls-47{fill:#eab744;}.cls-48{stroke:#d6a330;stroke-width:1.1px;}</style></defs><title>Philippines PostCard</title><g id="Layer_2" data-name="Layer 2"><g id="Landing_page_Home" data-name="Landing page // Home"><g id="Philippines_PostCard" data-name="Philippines PostCard"><g id="Background"><rect id="BackGround-2" data-name="BackGround" class="cls-1" width="264.08" height="144.62"/><path class="cls-2" d="M79.92,78.24h8.92c0,11.38,57.48,56.08,64.26,61H6.74c6.77-5,64.25-49.65,64.25-61h8.93"/><path class="cls-3" d="M105.06,57.44A6.2,6.2,0,0,0,93.67,54,6.23,6.23,0,0,0,92,53.82,6.11,6.11,0,0,0,88.36,55a2.47,2.47,0,0,0-.94-.19,2.59,2.59,0,0,0-2.59,2.59c0,.06,0,.13,0,.19A2.57,2.57,0,0,0,83.47,59l-.21,0a2.58,2.58,0,0,0-2.58,2.54,3.71,3.71,0,0,0-.47,4.95,2.56,2.56,0,0,0-.54,1.58,2.49,2.49,0,0,0,.08.61,2.53,2.53,0,0,0-.38,2.83,2.58,2.58,0,1,0,3.79,2.89A2.57,2.57,0,0,0,84.83,72v-.06A2.59,2.59,0,0,0,86.76,70a2.56,2.56,0,0,0,4.12-1.21H91a6.17,6.17,0,0,0,1.36-.16,2.62,2.62,0,0,0,.85.16,2.57,2.57,0,0,0,2.54-2.23l.07-.08a2.58,2.58,0,0,0,4.8-1.31,3.13,3.13,0,0,0,0-.44,2.57,2.57,0,0,0,1.76-2.22A6.18,6.18,0,0,0,105.06,57.44Z"/><rect class="cls-4" x="6.08" y="6.84" width="251.93" height="133.18"/><rect class="cls-5" x="34.41" y="139.04" width="5.89" height="0.24"/><rect class="cls-5" x="33.38" y="139.04" width="0.59" height="0.22"/><polygon class="cls-6" points="37.22 132.44 31.91 135.86 42.87 135.86 37.22 132.44"/><rect class="cls-7" x="32.94" y="135.86" width="0.44" height="3.42"/><rect class="cls-7" x="41.32" y="135.86" width="0.44" height="3.42"/><rect class="cls-8" x="40.29" y="135.86" width="0.44" height="3.42"/><rect class="cls-8" x="33.97" y="135.86" width="0.44" height="3.42"/><rect class="cls-5" x="34.41" y="137.78" width="5.89" height="0.24"/><rect class="cls-5" x="34.76" y="138.02" width="0.21" height="1.02"/><rect class="cls-5" x="33.46" y="138.07" width="0.13" height="1.02"/><rect class="cls-5" x="33.71" y="138.02" width="0.13" height="1.02"/><rect class="cls-5" x="35.18" y="138.02" width="0.21" height="1.02"/><rect class="cls-5" x="36" y="138.02" width="0.21" height="1.02"/><rect class="cls-5" x="35.59" y="138.02" width="0.21" height="1.02"/><rect class="cls-5" x="36.83" y="138.02" width="0.21" height="1.02"/><rect class="cls-5" x="36.42" y="138.02" width="0.21" height="1.02"/><rect class="cls-5" x="38.07" y="138.02" width="0.21" height="1.02"/><rect class="cls-5" x="38.48" y="138.02" width="0.21" height="1.02"/><rect class="cls-5" x="38.9" y="138.02" width="0.21" height="1.02"/><rect class="cls-5" x="39.72" y="138.02" width="0.21" height="1.02"/><rect class="cls-5" x="39.31" y="138.02" width="0.21" height="1.02"/><rect class="cls-5" x="37.66" y="138.02" width="0.21" height="1.02"/><rect class="cls-5" x="37.24" y="138.02" width="0.21" height="1.02"/><polygon class="cls-5" points="33.97 137.78 33.38 138.01 33.38 138.26 33.97 138.01 33.97 137.78"/><rect class="cls-5" x="41.1" y="138.08" width="0.13" height="1.02" transform="translate(82.34 277.18) rotate(-180)"/><rect class="cls-5" x="40.85" y="138.02" width="0.13" height="1.02" transform="translate(81.84 277.07) rotate(-180)"/><polygon class="cls-5" points="40.73 137.78 41.32 138.02 41.32 138.27 40.73 138.02 40.73 137.78"/><rect class="cls-5" x="40.73" y="139.05" width="0.59" height="0.22" transform="translate(82.06 278.32) rotate(-180)"/><rect class="cls-5" x="51.18" y="139.24" width="2.7" height="0.11"/><rect class="cls-5" x="50.71" y="139.24" width="0.27" height="0.1"/><polygon class="cls-6" points="52.47 136.22 50.04 137.79 55.06 137.79 52.47 136.22"/><rect class="cls-7" x="50.51" y="137.79" width="0.2" height="1.56"/><rect class="cls-7" x="54.35" y="137.79" width="0.2" height="1.56"/><rect class="cls-8" x="53.88" y="137.79" width="0.2" height="1.56"/><rect class="cls-8" x="50.98" y="137.79" width="0.2" height="1.56"/><rect class="cls-5" x="51.18" y="138.66" width="2.7" height="0.11"/><rect class="cls-5" x="51.34" y="138.77" width="0.1" height="0.47"/><rect class="cls-5" x="50.75" y="138.8" width="0.06" height="0.47"/><rect class="cls-5" x="50.86" y="138.77" width="0.06" height="0.47"/><rect class="cls-5" x="51.53" y="138.77" width="0.1" height="0.47"/><rect class="cls-5" x="51.91" y="138.77" width="0.1" height="0.47"/><rect class="cls-5" x="51.72" y="138.77" width="0.1" height="0.47"/><rect class="cls-5" x="52.29" y="138.77" width="0.1" height="0.47"/><rect class="cls-5" x="52.1" y="138.77" width="0.1" height="0.47"/><rect class="cls-5" x="52.86" y="138.77" width="0.1" height="0.47"/><rect class="cls-5" x="53.05" y="138.77" width="0.1" height="0.47"/><rect class="cls-5" x="53.24" y="138.77" width="0.1" height="0.47"/><rect class="cls-5" x="53.62" y="138.77" width="0.1" height="0.47"/><rect class="cls-5" x="53.43" y="138.77" width="0.1" height="0.47"/><rect class="cls-5" x="52.67" y="138.77" width="0.1" height="0.47"/><rect class="cls-5" x="52.48" y="138.77" width="0.1" height="0.47"/><polygon class="cls-5" points="50.98 138.66 50.71 138.77 50.71 138.88 50.98 138.77 50.98 138.66"/><rect class="cls-5" x="54.25" y="138.8" width="0.06" height="0.47" transform="translate(108.56 278.07) rotate(180)"/><rect class="cls-5" x="54.13" y="138.78" width="0.06" height="0.47" transform="translate(108.33 278.02) rotate(180)"/><polygon class="cls-5" points="54.08 138.67 54.35 138.78 54.35 138.89 54.08 138.78 54.08 138.67"/><rect class="cls-5" x="54.08" y="139.25" width="0.27" height="0.1" transform="translate(108.43 278.59) rotate(-180)"/><path class="cls-9" d="M22,139.27c9.23-6.3,3.89-19.41,3.89-19.41,4.86,3.15,6.31,19.41,6.31,19.41Z"/><path class="cls-10" d="M25,120.1c-4.25-2.37-3.71-7.71-3.71-7.71,2.13.85,3.71,3.85,3.71,3.85,1.15-3.25.48-6.16,1.94-6.46,1.34,2.36,2.79,5.58,1.64,6.31,2.73-1.58,3.83-3.22,7.47-1.58s2.85,1.64,2.85,1.64c-4.37.31-10.81,1-11.35,2.07,5.1-.55,10-.91,11.66,1.27,0,0-13-.4-12.09.06,2.19,1.16,6.38,1.76,5.59,4.5-2.86.18-5.65-1.22-6.5-2.8-.85,2.19-4.86,2.25-3.4,5.29C20,125.32,24.74,121,24.74,121c-4.13,2.61-5,1.52-6.56,4.49-.06-1.94.25-4.13,2.37-4.61S25,120.1,25,120.1Z"/><path class="cls-9" d="M41.06,139.27c7.79-5.32,3.28-16.39,3.28-16.39,4.1,2.66,5.33,16.39,5.33,16.39Z"/><path class="cls-10" d="M43.62,123.08c-3.59-2-3.13-6.51-3.13-6.51,1.8.72,3.13,3.26,3.13,3.26,1-2.75.41-5.21,1.64-5.47,1.13,2,2.36,4.72,1.39,5.34,2.3-1.34,3.23-2.72,6.3-1.34s2.41,1.39,2.41,1.39c-3.69.26-9.12.87-9.59,1.74,4.31-.46,8.47-.77,9.85,1.08,0,0-10.94-.34-10.2.05,1.84,1,5.38,1.49,4.71,3.8-2.41.15-4.77-1-5.48-2.36-.72,1.84-4.11,1.89-2.88,4.46-2.41-1,1.65-4.67,1.65-4.67-3.49,2.21-4.26,1.28-5.54,3.8-.05-1.64.2-3.49,2-3.9S43.62,123.08,43.62,123.08Z"/><path class="cls-9" d="M55.53,139.27c4.61-3.14,1.94-9.69,1.94-9.69,2.43,1.58,3.15,9.69,3.15,9.69Z"/><path class="cls-10" d="M57.05,129.7a4.15,4.15,0,0,1-1.85-3.85,4.76,4.76,0,0,1,1.85,1.93c.57-1.62.24-3.08,1-3.23.66,1.18,1.39,2.79.82,3.15,1.36-.78,1.91-1.6,3.72-.78s1.43.81,1.43.81c-2.18.16-5.4.52-5.67,1,2.55-.27,5-.45,5.82.64,0,0-6.47-.2-6,0,1.09.58,3.18.88,2.79,2.24a3.64,3.64,0,0,1-3.25-1.39c-.42,1.09-2.42,1.12-1.69,2.64-1.43-.61,1-2.76,1-2.76-2.06,1.3-2.52.76-3.28,2.24,0-1,.12-2.06,1.19-2.3S57.05,129.7,57.05,129.7Z"/><path class="cls-9" d="M93.75,139.27C103.88,132.37,98,118,98,118c5.32,3.47,6.92,21.29,6.92,21.29Z"/><path class="cls-10" d="M97.08,118.25c-4.66-2.6-4.06-8.46-4.06-8.46,2.33.93,4.06,4.23,4.06,4.23,1.27-3.56.54-6.76,2.13-7.09,1.47,2.6,3.07,6.12,1.8,6.92,3-1.73,4.2-3.53,8.19-1.73s3.13,1.8,3.13,1.8c-4.79.33-11.85,1.13-12.45,2.26,5.59-.59,11-1,12.79,1.4,0,0-14.21-.44-13.26.07,2.4,1.26,7,1.93,6.13,4.93-3.13.2-6.19-1.33-7.12-3.07-.94,2.4-5.33,2.47-3.73,5.8-3.13-1.33,2.13-6.06,2.13-6.06-4.53,2.86-5.53,1.66-7.19,4.93-.07-2.14.26-4.53,2.59-5.07S97.08,118.25,97.08,118.25Z"/><path class="cls-9" d="M72.79,139.27c7.66-5.22,3.23-16.11,3.23-16.11,4,2.62,5.24,16.11,5.24,16.11Z"/><path class="cls-10" d="M75.31,123.37c-3.52-2-3.07-6.4-3.07-6.4,1.76.7,3.07,3.2,3.07,3.2,1-2.7.41-5.12,1.62-5.37,1.1,2,2.31,4.63,1.36,5.24,2.26-1.31,3.17-2.67,6.19-1.31s2.37,1.36,2.37,1.36c-3.63.25-9,.86-9.42,1.71,4.23-.45,8.31-.75,9.67,1.06,0,0-10.75-.33-10,0,1.81,1,5.29,1.46,4.63,3.73-2.37.15-4.68-1-5.39-2.32-.71,1.82-4,1.87-2.82,4.39-2.37-1,1.61-4.59,1.61-4.59-3.43,2.17-4.18,1.26-5.44,3.73,0-1.61.2-3.43,2-3.83S75.31,123.37,75.31,123.37Z"/><rect class="cls-5" x="83.83" y="138.75" width="14.59" height="0.59"/><rect class="cls-5" x="81.28" y="138.75" width="1.46" height="0.55"/><polygon class="cls-6" points="90.8 122.39 77.63 130.87 104.8 130.87 90.8 122.39"/><rect class="cls-7" x="80.18" y="130.87" width="1.09" height="8.47"/><rect class="cls-7" x="100.97" y="130.87" width="1.09" height="8.47"/><rect class="cls-8" x="98.42" y="130.87" width="1.09" height="8.47"/><rect class="cls-8" x="82.74" y="130.87" width="1.09" height="8.47"/><rect class="cls-5" x="83.83" y="135.62" width="14.59" height="0.59"/><rect class="cls-5" x="84.71" y="136.21" width="0.53" height="2.54"/><rect class="cls-5" x="81.49" y="136.34" width="0.33" height="2.54"/><rect class="cls-5" x="82.11" y="136.21" width="0.33" height="2.54"/><rect class="cls-5" x="85.73" y="136.21" width="0.53" height="2.54"/><rect class="cls-5" x="87.78" y="136.21" width="0.53" height="2.54"/><rect class="cls-5" x="86.76" y="136.21" width="0.53" height="2.54"/><rect class="cls-5" x="89.83" y="136.21" width="0.53" height="2.54"/><rect class="cls-5" x="88.81" y="136.21" width="0.53" height="2.54"/><rect class="cls-5" x="92.91" y="136.21" width="0.53" height="2.54"/><rect class="cls-5" x="93.93" y="136.21" width="0.53" height="2.54"/><rect class="cls-5" x="94.96" y="136.21" width="0.53" height="2.54"/><rect class="cls-5" x="97.01" y="136.21" width="0.53" height="2.54"/><rect class="cls-5" x="95.98" y="136.21" width="0.53" height="2.54"/><rect class="cls-5" x="91.88" y="136.21" width="0.53" height="2.54"/><rect class="cls-5" x="90.86" y="136.21" width="0.53" height="2.54"/><polygon class="cls-5" points="82.73 135.62 81.28 136.21 81.28 136.81 82.73 136.21 82.73 135.62"/><rect class="cls-5" x="100.43" y="136.36" width="0.33" height="2.54" transform="translate(201.19 275.26) rotate(-180)"/><rect class="cls-5" x="99.8" y="136.23" width="0.33" height="2.54" transform="translate(199.94 275) rotate(-180)"/><polygon class="cls-5" points="99.51 135.64 100.97 136.23 100.97 136.83 99.51 136.23 99.51 135.64"/><rect class="cls-5" x="99.51" y="138.77" width="1.46" height="0.55" transform="translate(200.48 278.09) rotate(-180)"/><rect class="cls-5" x="65.29" y="138.95" width="8.16" height="0.33"/><rect class="cls-5" x="63.87" y="138.95" width="0.82" height="0.31"/><polygon class="cls-6" points="69.19 129.8 61.83 134.54 77.03 134.54 69.19 129.8"/><rect class="cls-7" x="63.25" y="134.54" width="0.61" height="4.74"/><rect class="cls-7" x="74.88" y="134.54" width="0.61" height="4.74"/><rect class="cls-8" x="73.46" y="134.54" width="0.61" height="4.74"/><rect class="cls-8" x="64.68" y="134.54" width="0.61" height="4.74"/><rect class="cls-5" x="65.29" y="137.2" width="8.16" height="0.33"/><rect class="cls-5" x="65.79" y="137.53" width="0.3" height="1.42"/><rect class="cls-5" x="63.98" y="137.6" width="0.18" height="1.42"/><rect class="cls-5" x="64.33" y="137.53" width="0.18" height="1.42"/><rect class="cls-5" x="66.36" y="137.53" width="0.3" height="1.42"/><rect class="cls-5" x="67.51" y="137.53" width="0.3" height="1.42"/><rect class="cls-5" x="66.93" y="137.53" width="0.3" height="1.42"/><rect class="cls-5" x="68.65" y="137.53" width="0.3" height="1.42"/><rect class="cls-5" x="68.08" y="137.53" width="0.3" height="1.42"/><rect class="cls-5" x="70.37" y="137.53" width="0.3" height="1.42"/><rect class="cls-5" x="70.95" y="137.53" width="0.3" height="1.42"/><rect class="cls-5" x="71.52" y="137.53" width="0.3" height="1.42"/><rect class="cls-5" x="72.67" y="137.53" width="0.3" height="1.42"/><rect class="cls-5" x="72.09" y="137.53" width="0.3" height="1.42"/><rect class="cls-5" x="69.8" y="137.53" width="0.3" height="1.42"/><rect class="cls-5" x="69.23" y="137.53" width="0.3" height="1.42"/><polygon class="cls-5" points="64.68 137.19 63.87 137.53 63.87 137.86 64.68 137.53 64.68 137.19"/><rect class="cls-5" x="74.58" y="137.61" width="0.18" height="1.42" transform="translate(149.34 276.65) rotate(-180)"/><rect class="cls-5" x="74.23" y="137.54" width="0.18" height="1.42" transform="translate(148.65 276.5) rotate(-180)"/><polygon class="cls-5" points="74.07 137.21 74.88 137.54 74.88 137.88 74.07 137.54 74.07 137.21"/><rect class="cls-5" x="74.07" y="138.96" width="0.82" height="0.31" transform="translate(148.95 278.23) rotate(-180)"/><rect class="cls-5" x="114" y="138.75" width="14.59" height="0.59"/><rect class="cls-5" x="111.45" y="138.75" width="1.46" height="0.55"/><polygon class="cls-6" points="120.97 122.4 107.8 130.88 134.97 130.88 120.97 122.4"/><rect class="cls-7" x="110.35" y="130.88" width="1.09" height="8.47"/><rect class="cls-7" x="131.14" y="130.88" width="1.09" height="8.47"/><rect class="cls-8" x="128.59" y="130.88" width="1.09" height="8.47"/><rect class="cls-8" x="112.91" y="130.88" width="1.09" height="8.47"/><rect class="cls-5" x="114" y="135.62" width="14.59" height="0.59"/><rect class="cls-5" x="114.88" y="136.21" width="0.53" height="2.54"/><rect class="cls-5" x="111.66" y="136.35" width="0.33" height="2.54"/><rect class="cls-5" x="112.28" y="136.21" width="0.33" height="2.54"/><rect class="cls-5" x="115.9" y="136.21" width="0.53" height="2.54"/><rect class="cls-5" x="117.95" y="136.21" width="0.53" height="2.54"/><rect class="cls-5" x="116.93" y="136.21" width="0.53" height="2.54"/><rect class="cls-5" x="120" y="136.21" width="0.53" height="2.54"/><rect class="cls-5" x="118.98" y="136.21" width="0.53" height="2.54"/><rect class="cls-5" x="123.08" y="136.21" width="0.53" height="2.54"/><rect class="cls-5" x="124.1" y="136.21" width="0.53" height="2.54"/><rect class="cls-5" x="125.13" y="136.21" width="0.53" height="2.54"/><rect class="cls-5" x="127.18" y="136.21" width="0.53" height="2.54"/><rect class="cls-5" x="126.15" y="136.21" width="0.53" height="2.54"/><rect class="cls-5" x="122.05" y="136.21" width="0.53" height="2.54"/><rect class="cls-5" x="121.03" y="136.21" width="0.53" height="2.54"/><polygon class="cls-5" points="112.91 135.62 111.45 136.21 111.45 136.82 112.91 136.21 112.91 135.62"/><rect class="cls-5" x="130.6" y="136.37" width="0.33" height="2.54" transform="translate(261.53 275.28) rotate(-180)"/><rect class="cls-5" x="129.98" y="136.24" width="0.33" height="2.54" transform="translate(260.28 275.01) rotate(-180)"/><polygon class="cls-5" points="129.68 135.64 131.14 136.24 131.14 136.84 129.68 136.24 129.68 135.64"/><rect class="cls-5" x="129.68" y="138.78" width="1.46" height="0.55" transform="translate(260.82 278.1) rotate(-180)"/></g><path class="cls-11" d="M14,14.49h7.58c2.64,0,4.56.71,5.76,2.15s1.79,3.53,1.79,6.3a8.19,8.19,0,0,1-1.93,5.81,7.24,7.24,0,0,1-5.58,2.07H18.25V45.05H14Zm6.23,13.28a8.06,8.06,0,0,0,2.92-.42,2.62,2.62,0,0,0,1.49-1.43A7.54,7.54,0,0,0,25.08,23a12.5,12.5,0,0,0-.34-3.44A2.37,2.37,0,0,0,23.4,18a8.09,8.09,0,0,0-3.15-.46h-2V27.77Z"/><path class="cls-11" d="M32.1,14.49h4.26v13.2h7.85V14.49h4.26V45.05H44.21V30.75H36.36v14.3H32.1Z"/><path class="cls-11" d="M53.49,14.49h4.19V45.05H53.49Z"/><path class="cls-11" d="M62.62,14.49h4.26V42h7.81v3.06H62.62Z"/><path class="cls-11" d="M77.82,14.49H82V45.05H77.82Z"/><path class="cls-11" d="M87,14.49h7.58c2.64,0,4.56.71,5.76,2.15s1.79,3.53,1.79,6.3a8.19,8.19,0,0,1-1.93,5.81,7.24,7.24,0,0,1-5.58,2.07H91.21V45.05H87Zm6.23,13.28a8.06,8.06,0,0,0,2.92-.42,2.62,2.62,0,0,0,1.49-1.43A7.54,7.54,0,0,0,98,23a12.5,12.5,0,0,0-.34-3.44A2.37,2.37,0,0,0,96.36,18a8.09,8.09,0,0,0-3.15-.46h-2V27.77Z"/><path class="cls-11" d="M105.06,14.49h7.58c2.64,0,4.56.71,5.76,2.15s1.79,3.53,1.79,6.3a8.19,8.19,0,0,1-1.93,5.81,7.24,7.24,0,0,1-5.58,2.07h-3.36V45.05h-4.26Zm6.22,13.28a8.08,8.08,0,0,0,2.93-.42,2.62,2.62,0,0,0,1.49-1.43,7.54,7.54,0,0,0,.45-2.94,12.5,12.5,0,0,0-.34-3.44A2.4,2.4,0,0,0,114.47,18a8.16,8.16,0,0,0-3.15-.46h-2V27.77Z"/><path class="cls-11" d="M123.39,14.49h4.19V45.05h-4.19Z"/><path class="cls-11" d="M132.52,14.49h2.91l8.67,20.29V14.49h3.55V45.05h-2.71l-8.8-20.87V45.05h-3.62Z"/><path class="cls-11" d="M152.44,14.49h11.85v3.17h-7.58V27.77h6.15v3h-6.15V42h7.65v3.06H152.44Z"/><path class="cls-11" d="M169.14,43a10.67,10.67,0,0,1-2.25-6.53l3.77-1a11.7,11.7,0,0,0,1.16,4.76A3.32,3.32,0,0,0,175,42a3.22,3.22,0,0,0,2.51-.93,3.76,3.76,0,0,0,.85-2.66,5.73,5.73,0,0,0-.79-3.13A13.51,13.51,0,0,0,175,32.56L169.91,28a8.48,8.48,0,0,1-2.24-2.92,9.29,9.29,0,0,1-.7-3.83,6.91,6.91,0,0,1,1.92-5.21,8.55,8.55,0,0,1,10.72.08q1.84,1.92,2.22,6l-3.62,1a9.62,9.62,0,0,0-1-4.13,3.21,3.21,0,0,0-3-1.45,3.36,3.36,0,0,0-2.48.85,3.33,3.33,0,0,0-.87,2.5,5.22,5.22,0,0,0,.45,2.29A6,6,0,0,0,172.78,25L178,29.54a15.38,15.38,0,0,1,3.18,3.85,9.22,9.22,0,0,1,1.19,4.72,7,7,0,0,1-2,5.31A8.25,8.25,0,0,1,169.14,43Z"/><path class="cls-3" d="M16.86,43.83H11.34V12h8.21c2.82,0,4.92.8,6.23,2.38s1.94,3.8,1.94,6.7a8.86,8.86,0,0,1-2.09,6.24,7.86,7.86,0,0,1-6,2.27H16.86Zm-4.27-1.26h3V28.35h4a6.65,6.65,0,0,0,5.12-1.88,7.66,7.66,0,0,0,1.75-5.38c0-2.6-.55-4.59-1.64-5.9S22,13.27,19.55,13.27h-7Zm5.6-16H15.6V15.07h2.63a8.47,8.47,0,0,1,3.41.51,3,3,0,0,1,1.68,1.93,12.91,12.91,0,0,1,.37,3.62,8.06,8.06,0,0,1-.51,3.2,3.29,3.29,0,0,1-1.83,1.76A8.65,8.65,0,0,1,18.19,26.55Zm-1.33-1.26h1.33a7.49,7.49,0,0,0,2.69-.37A2,2,0,0,0,22,23.82a7.07,7.07,0,0,0,.4-2.69,12.45,12.45,0,0,0-.31-3.25,1.82,1.82,0,0,0-1-1.16,7.69,7.69,0,0,0-2.89-.4H16.86Z"/><path class="cls-3" d="M47.08,43.83H41.55V29.53H35v14.3H29.44V12H35V25.22h6.58V12h5.53Zm-4.27-1.26h3V13.27h-3v13.2h-9.1V13.27h-3v29.3h3V28.27h9.1Z"/><path class="cls-3" d="M56.28,43.83H50.84V12h5.44Zm-4.19-1.26H55V13.27H52.09Z"/><path class="cls-3" d="M73.29,43.83H60V12h5.53v27.5h7.8ZM61.22,42.57H72v-1.8H64.23V13.27h-3Z"/><path class="cls-3" d="M80.61,43.83H75.17V12h5.44Zm-4.18-1.26h2.93V13.27H76.43Z"/><path class="cls-3" d="M89.82,43.83H84.3V12h8.21c2.82,0,4.92.8,6.24,2.38s1.93,3.8,1.93,6.7a8.86,8.86,0,0,1-2.09,6.24,7.86,7.86,0,0,1-6,2.27H89.82Zm-4.27-1.26h3V28.35h4a6.65,6.65,0,0,0,5.12-1.88,7.66,7.66,0,0,0,1.76-5.38c0-2.6-.56-4.59-1.65-5.9s-2.84-1.92-5.27-1.92h-7Zm5.6-16H88.56V15.07h2.63a8.47,8.47,0,0,1,3.41.51,3,3,0,0,1,1.68,1.93,12.91,12.91,0,0,1,.37,3.62,8.06,8.06,0,0,1-.51,3.2,3.26,3.26,0,0,1-1.83,1.76A8.65,8.65,0,0,1,91.15,26.55Zm-1.33-1.26h1.33a7.49,7.49,0,0,0,2.69-.37A2,2,0,0,0,95,23.82a7.07,7.07,0,0,0,.4-2.69,12.45,12.45,0,0,0-.31-3.25,1.82,1.82,0,0,0-1-1.16,7.69,7.69,0,0,0-2.89-.4H89.82Z"/><path class="cls-3" d="M107.93,43.83H102.4V12h8.22c2.82,0,4.92.8,6.23,2.38s1.94,3.8,1.94,6.7a8.86,8.86,0,0,1-2.09,6.24,7.87,7.87,0,0,1-6,2.27h-2.72Zm-4.27-1.26h3V28.35h4a6.68,6.68,0,0,0,5.13-1.88,7.66,7.66,0,0,0,1.75-5.38c0-2.6-.55-4.59-1.64-5.9s-2.84-1.92-5.27-1.92h-7Zm5.6-16h-2.59V15.07h2.63a8.5,8.5,0,0,1,3.41.51,3,3,0,0,1,1.68,1.93,13.38,13.38,0,0,1,.36,3.62,8.08,8.08,0,0,1-.5,3.2,3.29,3.29,0,0,1-1.83,1.76A8.69,8.69,0,0,1,109.26,26.55Zm-1.33-1.26h1.33a7.49,7.49,0,0,0,2.69-.37,2.07,2.07,0,0,0,1.15-1.1,7.07,7.07,0,0,0,.4-2.69,12.45,12.45,0,0,0-.31-3.25,1.82,1.82,0,0,0-1-1.16,7.69,7.69,0,0,0-2.89-.4h-1.37Z"/><path class="cls-3" d="M126.19,43.83h-5.45V12h5.45ZM122,42.57h2.93V13.27H122Z"/><path class="cls-3" d="M146.26,43.83h-3.77l-7.74-18.38V43.83h-4.88V12h3.95l7.63,17.86V12h4.81Zm-2.93-1.26H145V13.27h-2.29V36L133,13.27h-1.86v29.3h2.36V19.22Z"/><path class="cls-3" d="M163,43.83H149.79V12h13.1v4.43h-7.58v8.85h6.15v4.28h-6.15v9.94H163Zm-11.92-1.26h10.66v-1.8h-7.66V28.31h6.15V26.55h-6.15V15.18h7.58V13.27H151.05Z"/><path class="cls-3" d="M173,44.17a7.92,7.92,0,0,1-6.35-2.6h0a11.4,11.4,0,0,1-2.39-6.9l0-.51,5-1.35.05.77a11.13,11.13,0,0,0,1.08,4.49A2.7,2.7,0,0,0,173,39.55a2.62,2.62,0,0,0,2-.72,3.19,3.19,0,0,0,.69-2.23,5.19,5.19,0,0,0-.7-2.8,13,13,0,0,0-2.41-2.62l-5.13-4.53a9.13,9.13,0,0,1-2.4-3.13,10.05,10.05,0,0,1-.76-4.09,7.54,7.54,0,0,1,2.12-5.66,9.18,9.18,0,0,1,11.6.09,10.34,10.34,0,0,1,2.4,6.34l0,.53-4.87,1.32-.05-.76a9,9,0,0,0-1-3.86,2.61,2.61,0,0,0-2.49-1.14,2.8,2.8,0,0,0-2.05.67,2.77,2.77,0,0,0-.68,2.05,4.56,4.56,0,0,0,.39,2,5.46,5.46,0,0,0,1.39,1.67l5.17,4.53a15.86,15.86,0,0,1,3.32,4,9.9,9.9,0,0,1,1.28,5A7.68,7.68,0,0,1,178.7,42,8,8,0,0,1,173,44.17Zm-7.45-9.06a9.76,9.76,0,0,0,2.06,5.64h0a7.63,7.63,0,0,0,10.23.37,6.33,6.33,0,0,0,1.85-4.86,8.7,8.7,0,0,0-1.11-4.41,14.91,14.91,0,0,0-3.06-3.69l-5.16-4.52a6.67,6.67,0,0,1-1.7-2.07,5.84,5.84,0,0,1-.52-2.56,4,4,0,0,1,1.06-3,4,4,0,0,1,2.93-1,3.82,3.82,0,0,1,3.58,1.76,9.19,9.19,0,0,1,1.05,3.65l2.38-.65a8.76,8.76,0,0,0-2-5.06,7.94,7.94,0,0,0-9.83-.05,6.24,6.24,0,0,0-1.73,4.75,8.69,8.69,0,0,0,.65,3.57,7.83,7.83,0,0,0,2.08,2.71l5.13,4.53a13.64,13.64,0,0,1,2.64,2.89A6.37,6.37,0,0,1,177,36.6a4.41,4.41,0,0,1-1,3.08,3.85,3.85,0,0,1-3,1.13,3.94,3.94,0,0,1-3.75-2.15,11.53,11.53,0,0,1-1.15-4.24Z"/><rect class="cls-12" x="190.96" y="13.8" width="56.53" height="29.06"/><rect class="cls-13" x="190.96" y="13.8" width="56.53" height="14.53"/><polygon class="cls-3" points="214.49 28.34 190.96 13.8 190.96 42.87 214.49 28.34"/><polygon class="cls-1" points="193.96 17.06 192.99 17.1 192.73 18.03 192.4 17.13 191.43 17.17 192.19 16.57 191.85 15.66 192.65 16.19 193.41 15.59 193.15 16.52 193.96 17.06"/><polygon class="cls-1" points="193.15 41.27 192.5 40.56 191.62 40.95 192.1 40.11 191.46 39.4 192.4 39.6 192.88 38.76 192.99 39.72 193.93 39.92 193.05 40.31 193.15 41.27"/><polygon class="cls-1" points="212.12 29.59 211.47 28.88 210.59 29.27 211.07 28.43 210.43 27.72 211.37 27.92 211.85 27.08 211.96 28.04 212.9 28.24 212.02 28.63 212.12 29.59"/><polygon class="cls-1" points="197.89 24.49 198.04 26.32 198.07 26.32 197.96 24.36 197.89 24.49"/><polygon class="cls-1" points="198.26 24.05 197.97 24.51 198.11 24.29 198.11 26.32 198.43 26.32 198.43 24.31 198.26 24.05"/><polygon class="cls-1" points="198.58 24.36 198.47 26.32 198.5 26.32 198.66 24.49 198.58 24.36"/><polygon class="cls-1" points="195.28 25.89 196.69 27.07 196.71 27.05 195.24 25.74 195.28 25.89"/><polygon class="cls-1" points="195.23 25.31 195.35 25.84 195.3 25.59 196.73 27.03 196.96 26.8 195.54 25.37 195.23 25.31"/><polygon class="cls-1" points="195.67 25.31 196.99 26.78 197.01 26.75 195.83 25.34 195.67 25.31"/><polygon class="cls-1" points="194.42 28.72 196.26 28.57 196.26 28.53 194.29 28.65 194.42 28.72"/><polygon class="cls-1" points="193.99 28.35 194.45 28.64 194.23 28.5 196.26 28.5 196.26 28.18 194.25 28.18 193.99 28.35"/><polygon class="cls-1" points="194.29 28.03 196.26 28.14 196.26 28.1 194.43 27.95 194.29 28.03"/><polygon class="cls-1" points="195.82 31.33 197.01 29.92 196.99 29.9 195.68 31.37 195.82 31.33"/><polygon class="cls-1" points="195.25 31.38 195.78 31.25 195.53 31.31 196.97 29.88 196.74 29.65 195.31 31.07 195.25 31.38"/><polygon class="cls-1" points="195.24 30.93 196.71 29.62 196.69 29.59 195.28 30.78 195.24 30.93"/><polygon class="cls-1" points="198.66 32.19 198.5 30.35 198.47 30.35 198.58 32.32 198.66 32.19"/><polygon class="cls-1" points="198.28 32.62 198.58 32.16 198.44 32.38 198.44 30.35 198.11 30.35 198.11 32.36 198.28 32.62"/><polygon class="cls-1" points="197.97 32.32 198.08 30.35 198.04 30.35 197.89 32.18 197.97 32.32"/><polygon class="cls-1" points="201.27 30.79 199.86 29.6 199.84 29.62 201.31 30.93 201.27 30.79"/><polygon class="cls-1" points="201.31 31.36 201.19 30.83 201.25 31.08 199.81 29.64 199.58 29.87 201.01 31.3 201.31 31.36"/><polygon class="cls-1" points="200.87 31.36 199.56 29.89 199.53 29.92 200.72 31.33 200.87 31.36"/><polygon class="cls-1" points="202.12 27.95 200.29 28.11 200.29 28.14 202.25 28.03 202.12 27.95"/><polygon class="cls-1" points="202.56 28.32 202.1 28.03 202.32 28.17 200.29 28.17 200.29 28.5 202.3 28.5 202.56 28.32"/><polygon class="cls-1" points="202.25 28.64 200.29 28.53 200.29 28.57 202.12 28.72 202.25 28.64"/><polygon class="cls-1" points="200.72 25.34 199.53 26.75 199.56 26.77 200.87 25.3 200.72 25.34"/><polygon class="cls-1" points="201.3 25.3 200.76 25.42 201.01 25.36 199.58 26.8 199.81 27.03 201.24 25.6 201.3 25.3"/><polygon class="cls-1" points="201.3 25.74 199.83 27.05 199.86 27.08 201.26 25.89 201.3 25.74"/><circle class="cls-1" cx="198.27" cy="28.34" r="2.01"/><polygon class="cls-14" points="159.08 139.38 159.08 57.44 191.97 57.44 191.97 139.31 159.08 139.38"/><rect class="cls-15" x="161.15" y="58.19" width="28.74" height="81.15"/><rect class="cls-16" x="159.25" y="57.44" width="13.34" height="10.95"/><rect class="cls-17" x="161.6" y="58.8" width="4.32" height="8.59"/><rect class="cls-16" x="159.08" y="69.49" width="32.89" height="1.26"/><rect class="cls-16" x="159.08" y="73.59" width="32.89" height="1.26"/><rect class="cls-16" x="159.08" y="75.63" width="32.89" height="1.26"/><rect class="cls-16" x="159.08" y="81.78" width="32.89" height="1.26"/><rect class="cls-16" x="159.08" y="87.93" width="32.89" height="1.26"/><rect class="cls-16" x="159.08" y="85.88" width="32.89" height="1.26"/><rect class="cls-16" x="159.08" y="89.98" width="32.89" height="1.26"/><rect class="cls-16" x="159.08" y="83.83" width="32.89" height="1.26"/><rect class="cls-16" x="159.08" y="92.03" width="32.89" height="1.26"/><rect class="cls-16" x="159.08" y="96.13" width="32.89" height="1.26"/><rect class="cls-16" x="159.08" y="102.27" width="32.89" height="1.26"/><rect class="cls-16" x="159.08" y="98.18" width="32.89" height="1.26"/><rect class="cls-16" x="159.08" y="94.08" width="32.89" height="1.26"/><rect class="cls-16" x="159.08" y="100.22" width="32.89" height="1.26"/><rect class="cls-16" x="159.08" y="104.32" width="32.89" height="1.26"/><rect class="cls-16" x="159.08" y="106.37" width="32.89" height="1.26"/><rect class="cls-16" x="159.08" y="108.42" width="32.89" height="1.26"/><rect class="cls-16" x="159.08" y="110.47" width="32.89" height="1.26"/><rect class="cls-16" x="159.08" y="112.52" width="32.89" height="1.26"/><rect class="cls-16" x="159.08" y="114.57" width="32.89" height="1.26"/><rect class="cls-16" x="159.08" y="116.62" width="32.89" height="1.26"/><rect class="cls-16" x="159.08" y="122.77" width="32.89" height="1.26"/><rect class="cls-16" x="159.08" y="128.91" width="32.89" height="1.26"/><rect class="cls-16" x="159.08" y="120.72" width="32.89" height="1.26"/><rect class="cls-16" x="159.08" y="118.67" width="32.89" height="1.26"/><rect class="cls-16" x="159.08" y="126.86" width="32.89" height="1.26"/><rect class="cls-16" x="159.08" y="124.81" width="32.89" height="1.26"/><rect class="cls-16" x="159.08" y="130.96" width="32.89" height="1.26"/><rect class="cls-16" x="159.08" y="133.01" width="32.89" height="1.26"/><rect class="cls-16" x="159.08" y="135.06" width="32.89" height="1.26"/><rect class="cls-16" x="159.08" y="137.11" width="32.89" height="1.26"/><rect class="cls-16" x="159.08" y="71.54" width="32.89" height="1.26"/><rect class="cls-16" x="159.08" y="77.68" width="32.89" height="1.26"/><rect class="cls-16" x="159.08" y="79.73" width="32.89" height="1.26"/><rect class="cls-18" x="172.59" y="57.44" width="3.67" height="10.95"/><rect class="cls-19" x="159.08" y="66.76" width="32.89" height="0.63"/><rect class="cls-19" x="159.08" y="65.54" width="32.89" height="0.63"/><rect class="cls-19" x="159.08" y="64.32" width="32.89" height="0.63"/><rect class="cls-19" x="159.08" y="63.1" width="32.89" height="0.63"/><rect class="cls-19" x="159.08" y="61.88" width="32.89" height="0.63"/><rect class="cls-19" x="159.08" y="60.66" width="32.89" height="0.63"/><rect class="cls-19" x="159.08" y="59.44" width="32.89" height="0.63"/><rect class="cls-20" x="159.08" y="53.61" width="32.89" height="3.83"/><rect class="cls-21" x="125.8" y="116.51" width="2.21" height="22.84"/><rect class="cls-2" x="128.01" y="94.87" width="13.92" height="21.64"/><rect class="cls-21" x="141.83" y="116.51" width="2.21" height="22.84"/><rect class="cls-22" x="128.01" y="116.51" width="13.82" height="22.76"/><rect class="cls-21" x="129.31" y="134.83" width="3.14" height="0.84"/><rect class="cls-21" x="136.64" y="129.01" width="2.36" height="0.68"/><rect class="cls-21" x="138.06" y="130.56" width="2.83" height="0.64"/><rect class="cls-21" x="128.99" y="118.64" width="3.46" height="0.63"/><rect class="cls-21" x="128.37" y="119.85" width="2.36" height="0.43"/><rect class="cls-21" x="128.01" y="94.87" width="1.23" height="21.51"/><rect class="cls-21" x="140.7" y="94.87" width="1.23" height="21.51"/><rect class="cls-21" x="126.42" y="114.4" width="3.31" height="1"/><path class="cls-23" d="M125.8,116.51c0-2.16,4.56-2.05,4.56,0"/><rect class="cls-22" x="126.01" y="113.89" width="4.09" height="0.51" rx="0.18" ry="0.18"/><path class="cls-23" d="M126.42,113.89v-.27c0-.53,3.31-.51,3.31,0v.27Z"/><polyline class="cls-22" points="126.87 113.31 126.87 112.96 129.24 112.96 129.24 113.37 126.87 113.37"/><rect class="cls-22" x="127.98" y="111.42" width="0.2" height="0.86"/><path class="cls-23" d="M127.24,113a.82.82,0,0,1,1.63,0Z"/><rect class="cls-23" x="127.72" y="111.25" width="0.7" height="0.17" rx="0.06" ry="0.06"/><rect class="cls-21" x="130.99" y="114.4" width="3.31" height="1"/><path class="cls-23" d="M130.36,116.51c0-2.16,4.56-2.05,4.56,0"/><rect class="cls-22" x="130.57" y="113.89" width="4.09" height="0.51" rx="0.18" ry="0.18"/><path class="cls-23" d="M131,113.89v-.27c0-.53,3.31-.51,3.31,0v.27Z"/><polyline class="cls-22" points="131.43 113.31 131.43 112.96 133.8 112.96 133.8 113.37 131.43 113.37"/><rect class="cls-22" x="132.54" y="111.42" width="0.2" height="0.86"/><path class="cls-23" d="M131.8,113a.82.82,0,0,1,1.63,0Z"/><rect class="cls-23" x="132.29" y="111.25" width="0.7" height="0.17" rx="0.06" ry="0.06"/><rect class="cls-21" x="135.55" y="114.4" width="3.31" height="1"/><path class="cls-23" d="M134.92,116.51c0-2.16,4.56-2.05,4.56,0"/><rect class="cls-22" x="135.13" y="113.89" width="4.09" height="0.51" rx="0.18" ry="0.18"/><path class="cls-23" d="M135.55,113.89v-.27c0-.53,3.31-.51,3.31,0v.27Z"/><polyline class="cls-22" points="135.99 113.31 135.99 112.96 138.36 112.96 138.36 113.37 135.99 113.37"/><rect class="cls-22" x="137.1" y="111.42" width="0.2" height="0.86"/><path class="cls-23" d="M136.36,113a.82.82,0,0,1,1.63,0Z"/><rect class="cls-23" x="136.85" y="111.25" width="0.7" height="0.17" rx="0.06" ry="0.06"/><rect class="cls-21" x="140.18" y="114.4" width="3.31" height="1"/><path class="cls-23" d="M139.55,116.51c0-2.16,4.56-2.05,4.56,0"/><rect class="cls-22" x="139.76" y="113.89" width="4.09" height="0.51" rx="0.18" ry="0.18"/><path class="cls-23" d="M140.18,113.89v-.27c0-.53,3.31-.51,3.31,0v.27Z"/><polyline class="cls-22" points="140.62 113.31 140.62 112.96 142.99 112.96 142.99 113.37 140.62 113.37"/><rect class="cls-22" x="141.73" y="111.42" width="0.2" height="0.86"/><path class="cls-23" d="M141,113a.82.82,0,0,1,1.63,0Z"/><rect class="cls-23" x="141.48" y="111.25" width="0.7" height="0.17" rx="0.06" ry="0.06"/><rect class="cls-22" x="129.24" y="101.08" width="11.47" height="4.26"/><rect class="cls-21" x="129.24" y="102.18" width="11.47" height="1.89"/><rect class="cls-22" x="129.78" y="95.78" width="1.89" height="0.39" rx="0.14" ry="0.14"/><rect class="cls-22" x="130.65" y="96.68" width="1.73" height="0.24" rx="0.08" ry="0.08"/><rect class="cls-22" x="137.31" y="99.68" width="2.53" height="0.31" rx="0.11" ry="0.11"/><rect class="cls-22" x="130.4" y="99.99" width="2.93" height="0.33" rx="0.11" ry="0.11"/><rect class="cls-22" x="130.09" y="106.53" width="3.7" height="0.47" rx="0.16" ry="0.16"/><rect class="cls-22" x="134.66" y="109.36" width="3.7" height="0.58" rx="0.2" ry="0.2"/><rect class="cls-22" x="137.54" y="106.77" width="2.63" height="0.5" rx="0.17" ry="0.17"/><rect class="cls-22" x="130.99" y="109.65" width="2.81" height="0.29" rx="0.1" ry="0.1"/><path class="cls-24" d="M133.16,123.61v4.24h3.53v-4.24C136.69,120.32,133.16,120.3,133.16,123.61Z"/><rect class="cls-25" x="126.82" y="94.17" width="16.31" height="0.71"/><rect class="cls-21" x="125.31" y="93.54" width="19.32" height="0.63"/><rect class="cls-2" x="128.62" y="81.98" width="12.69" height="11.55"/><rect class="cls-21" x="128.62" y="81.98" width="0.37" height="11.55"/><rect class="cls-21" x="140.95" y="81.98" width="0.37" height="11.55"/><path class="cls-26" d="M132.5,87v6h4.94V87C137.44,82.33,132.5,82.31,132.5,87Z"/><rect class="cls-22" x="127.31" y="81.33" width="15.33" height="0.65" rx="0.23" ry="0.23"/><rect class="cls-22" x="127.31" y="79.89" width="15.33" height="0.65" rx="0.23" ry="0.23"/><rect class="cls-2" x="126.22" y="80.54" width="17.63" height="0.79" rx="0.27" ry="0.27"/><path class="cls-22" d="M129,79.89c0-9.38,12-9.72,12,0"/><rect class="cls-27" x="210.65" y="61.88" width="39.9" height="77.39"/><rect class="cls-28" x="210.65" y="65.56" width="39.9" height="2.41"/><rect class="cls-28" x="210.65" y="71.47" width="39.9" height="2.41"/><rect class="cls-28" x="210.65" y="77.39" width="39.9" height="2.41"/><rect class="cls-28" x="210.65" y="83.3" width="39.9" height="2.41"/><rect class="cls-28" x="210.65" y="89.22" width="39.9" height="2.41"/><rect class="cls-28" x="210.65" y="95.13" width="39.9" height="2.41"/><rect class="cls-28" x="210.65" y="101.04" width="39.9" height="2.41"/><rect class="cls-28" x="210.65" y="106.96" width="39.9" height="2.41"/><rect class="cls-28" x="210.65" y="112.87" width="39.9" height="2.41"/><rect class="cls-28" x="210.65" y="118.79" width="39.9" height="2.41"/><rect class="cls-28" x="210.65" y="124.7" width="39.9" height="2.41"/><rect class="cls-28" x="210.65" y="130.62" width="39.9" height="2.41"/><rect class="cls-29" x="234.57" y="61.88" width="15.98" height="77.4"/><rect class="cls-28" x="221.77" y="60.66" width="22.86" height="1.22"/><polygon class="cls-27" points="217.83 60.66 246.04 60.66 250.84 59.44 217.83 59.44 217.83 60.66"/><rect class="cls-30" x="181.42" y="53.61" width="10.55" height="85.77"/><rect class="cls-21" x="157.6" y="110.45" width="5.89" height="0.32"/><polyline class="cls-31" points="157.54 112.59 157.54 110.78 163.54 110.78 163.54 112.59"/><polygon class="cls-31" points="157.6 110.45 157.97 109.67 162.98 109.67 163.49 110.45 157.6 110.45"/><rect class="cls-21" x="158.3" y="108.04" width="4.49" height="0.25"/><rect class="cls-31" x="158.26" y="108.28" width="4.57" height="1.38"/><polygon class="cls-31" points="158.3 108.04 158.58 107.44 162.4 107.44 162.79 108.04 158.3 108.04"/><rect class="cls-21" x="159.23" y="105.82" width="2.63" height="0.25"/><rect class="cls-31" x="159.21" y="106.07" width="2.67" height="1.38"/><polygon class="cls-31" points="159.23 105.82 159.4 105.23 161.63 105.23 161.86 105.82 159.23 105.82"/><circle class="cls-21" cx="160.54" cy="104.64" r="0.58"/><rect class="cls-21" x="207.88" y="110.45" width="5.89" height="0.32"/><polyline class="cls-31" points="207.83 112.59 207.83 110.78 213.83 110.78 213.83 112.59"/><polygon class="cls-31" points="207.88 110.45 208.26 109.67 213.27 109.67 213.78 110.45 207.88 110.45"/><rect class="cls-21" x="208.58" y="108.04" width="4.49" height="0.25"/><rect class="cls-31" x="208.54" y="108.28" width="4.57" height="1.38"/><polygon class="cls-31" points="208.58 108.04 208.87 107.44 212.69 107.44 213.07 108.04 208.58 108.04"/><rect class="cls-21" x="209.52" y="105.82" width="2.63" height="0.25"/><rect class="cls-31" x="209.49" y="106.07" width="2.67" height="1.38"/><polygon class="cls-31" points="209.52 105.82 209.68 105.23 211.92 105.23 212.14 105.82 209.52 105.82"/><circle class="cls-21" cx="210.83" cy="104.64" r="0.58"/><rect class="cls-21" x="164.69" y="111.45" width="1.2" height="0.07"/><polyline class="cls-31" points="164.68 111.88 164.68 111.51 165.9 111.51 165.9 111.88"/><polygon class="cls-31" points="164.69 111.44 164.76 111.29 165.78 111.29 165.88 111.44 164.69 111.44"/><rect class="cls-21" x="164.83" y="110.95" width="0.91" height="0.05"/><rect class="cls-31" x="164.82" y="111" width="0.93" height="0.28"/><polygon class="cls-31" points="164.83 110.95 164.89 110.83 165.66 110.83 165.74 110.95 164.83 110.95"/><rect class="cls-21" x="165.02" y="110.5" width="0.53" height="0.05"/><rect class="cls-31" x="165.01" y="110.55" width="0.54" height="0.28"/><polygon class="cls-31" points="165.02 110.5 165.05 110.38 165.51 110.38 165.55 110.5 165.02 110.5"/><circle class="cls-21" cx="165.29" cy="110.26" r="0.12"/><rect class="cls-21" x="165.63" y="110.5" width="1.2" height="0.07"/><polyline class="cls-31" points="165.62 110.93 165.62 110.56 166.84 110.56 166.84 110.93"/><polygon class="cls-31" points="165.63 110.5 165.71 110.34 166.73 110.34 166.83 110.5 165.63 110.5"/><rect class="cls-21" x="165.78" y="110.01" width="0.91" height="0.05"/><rect class="cls-31" x="165.77" y="110.06" width="0.93" height="0.28"/><polygon class="cls-31" points="165.78 110 165.84 109.88 166.61 109.88 166.69 110 165.78 110"/><rect class="cls-21" x="165.97" y="109.55" width="0.53" height="0.05"/><rect class="cls-31" x="165.96" y="109.6" width="0.54" height="0.28"/><polygon class="cls-31" points="165.97 109.55 166 109.43 166.46 109.43 166.5 109.55 165.97 109.55"/><circle class="cls-21" cx="166.23" cy="109.31" r="0.12"/><rect class="cls-21" x="166.72" y="109.41" width="1.2" height="0.07"/><polyline class="cls-31" points="166.71 109.85 166.71 109.48 167.93 109.48 167.93 109.85"/><polygon class="cls-31" points="166.72 109.42 166.79 109.26 167.81 109.26 167.92 109.42 166.72 109.42"/><rect class="cls-21" x="166.86" y="108.92" width="0.91" height="0.05"/><rect class="cls-31" x="166.85" y="108.97" width="0.93" height="0.28"/><polygon class="cls-31" points="166.86 108.92 166.92 108.8 167.69 108.8 167.77 108.92 166.86 108.92"/><rect class="cls-21" x="167.05" y="108.47" width="0.53" height="0.05"/><rect class="cls-31" x="167.04" y="108.52" width="0.54" height="0.28"/><polygon class="cls-31" points="167.05 108.47 167.08 108.35 167.54 108.35 167.58 108.47 167.05 108.47"/><circle class="cls-21" cx="167.32" cy="108.23" r="0.12"/><rect class="cls-21" x="167.75" y="108.38" width="1.2" height="0.07"/><polyline class="cls-31" points="167.74 108.81 167.74 108.44 168.96 108.44 168.96 108.81"/><polygon class="cls-31" points="167.75 108.38 167.83 108.22 168.85 108.22 168.95 108.38 167.75 108.38"/><rect class="cls-21" x="167.9" y="107.89" width="0.91" height="0.05"/><rect class="cls-31" x="167.89" y="107.94" width="0.93" height="0.28"/><polygon class="cls-31" points="167.9 107.89 167.95 107.76 168.73 107.76 168.81 107.89 167.9 107.89"/><rect class="cls-21" x="168.09" y="107.44" width="0.53" height="0.05"/><rect class="cls-31" x="168.08" y="107.49" width="0.54" height="0.28"/><polygon class="cls-31" points="168.09 107.44 168.12 107.31 168.57 107.31 168.62 107.44 168.09 107.44"/><circle class="cls-21" cx="168.35" cy="107.19" r="0.12"/><rect class="cls-21" x="168.79" y="107.34" width="1.2" height="0.07"/><polyline class="cls-31" points="168.78 107.78 168.78 107.41 170 107.41 170 107.78"/><polygon class="cls-31" points="168.79 107.34 168.87 107.18 169.89 107.18 169.99 107.34 168.79 107.34"/><rect class="cls-21" x="168.93" y="106.85" width="0.91" height="0.05"/><rect class="cls-31" x="168.93" y="106.9" width="0.93" height="0.28"/><polygon class="cls-31" points="168.93 106.85 168.99 106.73 169.77 106.73 169.85 106.85 168.93 106.85"/><rect class="cls-21" x="169.12" y="106.4" width="0.53" height="0.05"/><rect class="cls-31" x="169.12" y="106.45" width="0.54" height="0.28"/><polygon class="cls-31" points="169.12 106.4 169.16 106.28 169.61 106.28 169.66 106.4 169.12 106.4"/><circle class="cls-21" cx="169.39" cy="106.16" r="0.12"/><rect class="cls-21" x="169.87" y="106.26" width="1.2" height="0.07"/><polyline class="cls-31" points="169.86 106.7 169.86 106.33 171.08 106.33 171.08 106.7"/><polygon class="cls-31" points="169.87 106.26 169.94 106.11 170.96 106.11 171.07 106.26 169.87 106.26"/><rect class="cls-21" x="170.01" y="105.77" width="0.91" height="0.05"/><rect class="cls-31" x="170" y="105.82" width="0.93" height="0.28"/><polygon class="cls-31" points="170.01 105.77 170.07 105.65 170.84 105.65 170.92 105.77 170.01 105.77"/><rect class="cls-21" x="170.2" y="105.32" width="0.53" height="0.05"/><rect class="cls-31" x="170.19" y="105.37" width="0.54" height="0.28"/><polygon class="cls-31" points="170.2 105.32 170.23 105.2 170.69 105.2 170.73 105.32 170.2 105.32"/><circle class="cls-21" cx="170.47" cy="105.08" r="0.12"/><rect class="cls-21" x="170.93" y="105.2" width="1.2" height="0.07"/><polyline class="cls-31" points="170.92 105.64 170.92 105.27 172.14 105.27 172.14 105.64"/><polygon class="cls-31" points="170.93 105.2 171 105.04 172.03 105.04 172.13 105.2 170.93 105.2"/><rect class="cls-21" x="171.07" y="104.71" width="0.91" height="0.05"/><rect class="cls-31" x="171.06" y="104.76" width="0.93" height="0.28"/><polygon class="cls-31" points="171.07 104.71 171.13 104.59 171.91 104.59 171.99 104.71 171.07 104.71"/><rect class="cls-21" x="171.26" y="104.26" width="0.53" height="0.05"/><rect class="cls-31" x="171.26" y="104.31" width="0.54" height="0.28"/><polygon class="cls-31" points="171.26 104.26 171.29 104.14 171.75 104.14 171.8 104.26 171.26 104.26"/><circle class="cls-21" cx="171.53" cy="104.02" r="0.12"/><rect class="cls-21" x="171.99" y="104.14" width="1.2" height="0.07"/><polyline class="cls-31" points="171.98 104.58 171.98 104.21 173.2 104.21 173.2 104.58"/><polygon class="cls-31" points="171.99 104.14 172.06 103.98 173.08 103.98 173.19 104.14 171.99 104.14"/><rect class="cls-21" x="172.13" y="103.65" width="0.91" height="0.05"/><rect class="cls-31" x="172.12" y="103.7" width="0.93" height="0.28"/><polygon class="cls-31" points="172.13 103.65 172.19 103.53 172.97 103.53 173.04 103.65 172.13 103.65"/><rect class="cls-21" x="172.32" y="103.2" width="0.53" height="0.05"/><rect class="cls-31" x="172.31" y="103.25" width="0.54" height="0.28"/><polygon class="cls-31" points="172.32 103.2 172.35 103.08 172.81 103.08 172.85 103.2 172.32 103.2"/><circle class="cls-21" cx="172.59" cy="102.96" r="0.12"/><rect class="cls-21" x="173.07" y="103.06" width="1.2" height="0.07"/><polyline class="cls-31" points="173.06 103.5 173.06 103.13 174.28 103.13 174.28 103.5"/><polygon class="cls-31" points="173.07 103.06 173.15 102.9 174.17 102.9 174.27 103.06 173.07 103.06"/><rect class="cls-21" x="173.21" y="102.57" width="0.91" height="0.05"/><rect class="cls-31" x="173.2" y="102.62" width="0.93" height="0.28"/><polygon class="cls-31" points="173.21 102.57 173.27 102.45 174.05 102.45 174.13 102.57 173.21 102.57"/><rect class="cls-21" x="173.4" y="102.12" width="0.53" height="0.05"/><rect class="cls-31" x="173.4" y="102.17" width="0.54" height="0.28"/><polygon class="cls-31" points="173.4 102.12 173.44 102 173.89 102 173.94 102.12 173.4 102.12"/><circle class="cls-21" cx="173.67" cy="101.88" r="0.12"/><rect class="cls-21" x="174.13" y="102" width="1.2" height="0.07"/><polyline class="cls-31" points="174.12 102.43 174.12 102.06 175.34 102.06 175.34 102.43"/><polygon class="cls-31" points="174.13 102 174.21 101.84 175.23 101.84 175.33 102 174.13 102"/><rect class="cls-21" x="174.27" y="101.51" width="0.91" height="0.05"/><rect class="cls-31" x="174.27" y="101.56" width="0.93" height="0.28"/><polygon class="cls-31" points="174.28 101.51 174.33 101.39 175.11 101.39 175.19 101.51 174.28 101.51"/><rect class="cls-21" x="174.46" y="101.06" width="0.53" height="0.05"/><rect class="cls-31" x="174.46" y="101.11" width="0.54" height="0.28"/><polygon class="cls-31" points="174.47 101.06 174.5 100.94 174.95 100.94 175 101.06 174.47 101.06"/><circle class="cls-21" cx="174.73" cy="100.82" r="0.12"/><rect class="cls-21" x="175.19" y="100.94" width="1.2" height="0.07"/><polyline class="cls-31" points="175.18 101.37 175.18 101 176.41 101 176.41 101.37"/><polygon class="cls-31" points="175.19 100.94 175.27 100.78 176.29 100.78 176.39 100.94 175.19 100.94"/><rect class="cls-21" x="175.34" y="100.44" width="0.91" height="0.05"/><rect class="cls-31" x="175.33" y="100.49" width="0.93" height="0.28"/><polygon class="cls-31" points="175.34 100.44 175.4 100.32 176.17 100.32 176.25 100.44 175.34 100.44"/><rect class="cls-21" x="175.53" y="99.99" width="0.53" height="0.05"/><rect class="cls-31" x="175.52" y="100.04" width="0.54" height="0.28"/><polygon class="cls-31" points="175.53 99.99 175.56 99.87 176.02 99.87 176.06 99.99 175.53 99.99"/><circle class="cls-21" cx="175.79" cy="99.75" r="0.12"/><rect class="cls-21" x="176.31" y="99.83" width="1.2" height="0.07"/><polyline class="cls-31" points="176.29 100.26 176.29 99.89 177.51 99.89 177.51 100.26"/><polygon class="cls-31" points="176.31 99.83 176.38 99.67 177.4 99.67 177.5 99.83 176.31 99.83"/><rect class="cls-21" x="176.45" y="99.33" width="0.91" height="0.05"/><rect class="cls-31" x="176.44" y="99.38" width="0.93" height="0.28"/><polygon class="cls-31" points="176.45 99.33 176.51 99.21 177.28 99.21 177.36 99.33 176.45 99.33"/><rect class="cls-21" x="176.64" y="98.88" width="0.53" height="0.05"/><rect class="cls-31" x="176.63" y="98.93" width="0.54" height="0.28"/><polygon class="cls-31" points="176.64 98.88 176.67 98.76 177.13 98.76 177.17 98.88 176.64 98.88"/><circle class="cls-21" cx="176.9" cy="98.64" r="0.12"/><rect class="cls-21" x="177.37" y="98.76" width="1.2" height="0.07"/><polyline class="cls-31" points="177.36 99.2 177.36 98.83 178.58 98.83 178.58 99.2"/><polygon class="cls-31" points="177.37 98.76 177.44 98.6 178.46 98.6 178.57 98.76 177.37 98.76"/><rect class="cls-21" x="177.51" y="98.27" width="0.91" height="0.05"/><rect class="cls-31" x="177.5" y="98.32" width="0.93" height="0.28"/><polygon class="cls-31" points="177.51 98.27 177.57 98.15 178.35 98.15 178.42 98.27 177.51 98.27"/><rect class="cls-21" x="177.7" y="97.82" width="0.53" height="0.05"/><rect class="cls-31" x="177.7" y="97.87" width="0.54" height="0.28"/><polygon class="cls-31" points="177.7 97.82 177.73 97.7 178.19 97.7 178.24 97.82 177.7 97.82"/><circle class="cls-21" cx="177.97" cy="97.58" r="0.12"/><rect class="cls-21" x="178.46" y="97.68" width="1.2" height="0.07"/><polyline class="cls-31" points="178.44 98.11 178.44 97.74 179.67 97.74 179.67 98.11"/><polygon class="cls-31" points="178.46 97.67 178.53 97.52 179.55 97.52 179.66 97.67 178.46 97.67"/><rect class="cls-21" x="178.6" y="97.18" width="0.91" height="0.05"/><rect class="cls-31" x="178.59" y="97.23" width="0.93" height="0.28"/><polygon class="cls-31" points="178.6 97.18 178.66 97.06 179.43 97.06 179.51 97.18 178.6 97.18"/><rect class="cls-21" x="178.79" y="96.73" width="0.53" height="0.05"/><rect class="cls-31" x="178.78" y="96.78" width="0.54" height="0.28"/><polygon class="cls-31" points="178.79 96.73 178.82 96.61 179.28 96.61 179.32 96.73 178.79 96.73"/><circle class="cls-21" cx="179.06" cy="96.49" r="0.12"/><rect class="cls-21" x="192.68" y="97.68" width="1.2" height="0.07"/><polyline class="cls-31" points="192.66 98.11 192.66 97.74 193.88 97.74 193.88 98.11"/><polygon class="cls-31" points="192.68 97.67 192.75 97.52 193.77 97.52 193.88 97.67 192.68 97.67"/><rect class="cls-21" x="192.82" y="97.18" width="0.91" height="0.05"/><rect class="cls-31" x="192.81" y="97.23" width="0.93" height="0.28"/><polygon class="cls-31" points="192.82 97.18 192.88 97.06 193.65 97.06 193.73 97.18 192.82 97.18"/><rect class="cls-21" x="193.01" y="96.73" width="0.53" height="0.05"/><rect class="cls-31" x="193" y="96.78" width="0.54" height="0.28"/><polygon class="cls-31" points="193.01 96.73 193.04 96.61 193.5 96.61 193.54 96.73 193.01 96.73"/><circle class="cls-21" cx="193.27" cy="96.49" r="0.12"/><rect class="cls-21" x="179.81" y="97.11" width="1.2" height="0.07"/><polyline class="cls-31" points="179.8 97.54 179.8 97.17 181.03 97.17 181.03 97.54"/><polygon class="cls-31" points="179.81 97.11 179.89 96.95 180.91 96.95 181.01 97.11 179.81 97.11"/><rect class="cls-21" x="179.96" y="96.61" width="0.91" height="0.05"/><rect class="cls-31" x="179.95" y="96.66" width="0.93" height="0.28"/><polygon class="cls-31" points="179.96 96.61 180.01 96.49 180.79 96.49 180.87 96.61 179.96 96.61"/><rect class="cls-21" x="180.15" y="96.16" width="0.53" height="0.05"/><rect class="cls-31" x="180.14" y="96.21" width="0.54" height="0.28"/><polygon class="cls-31" points="180.15 96.16 180.18 96.04 180.64 96.04 180.68 96.16 180.15 96.16"/><circle class="cls-21" cx="180.41" cy="95.92" r="0.12"/><rect class="cls-21" x="181.45" y="97.11" width="1.2" height="0.07"/><polyline class="cls-31" points="181.44 97.54 181.44 97.17 182.66 97.17 182.66 97.54"/><polygon class="cls-31" points="181.45 97.11 181.53 96.95 182.55 96.95 182.65 97.11 181.45 97.11"/><rect class="cls-21" x="181.6" y="96.61" width="0.91" height="0.05"/><rect class="cls-31" x="181.59" y="96.66" width="0.93" height="0.28"/><polygon class="cls-31" points="181.6 96.61 181.65 96.49 182.43 96.49 182.51 96.61 181.6 96.61"/><rect class="cls-21" x="181.79" y="96.16" width="0.53" height="0.05"/><rect class="cls-31" x="181.78" y="96.21" width="0.54" height="0.28"/><polygon class="cls-31" points="181.79 96.16 181.82 96.04 182.27 96.04 182.32 96.16 181.79 96.16"/><circle class="cls-21" cx="182.05" cy="95.92" r="0.12"/><rect class="cls-21" x="183.09" y="97.11" width="1.2" height="0.07"/><polyline class="cls-31" points="183.08 97.54 183.08 97.17 184.3 97.17 184.3 97.54"/><polygon class="cls-31" points="183.09 97.11 183.17 96.95 184.19 96.95 184.29 97.11 183.09 97.11"/><rect class="cls-21" x="183.23" y="96.61" width="0.91" height="0.05"/><rect class="cls-31" x="183.23" y="96.66" width="0.93" height="0.28"/><polygon class="cls-31" points="183.23 96.61 183.29 96.49 184.07 96.49 184.15 96.61 183.23 96.61"/><rect class="cls-21" x="183.42" y="96.16" width="0.53" height="0.05"/><rect class="cls-31" x="183.42" y="96.21" width="0.54" height="0.28"/><polygon class="cls-31" points="183.42 96.16 183.46 96.04 183.91 96.04 183.96 96.16 183.42 96.16"/><circle class="cls-21" cx="183.69" cy="95.92" r="0.12"/><rect class="cls-21" x="184.73" y="97.11" width="1.2" height="0.07"/><polyline class="cls-31" points="184.72 97.54 184.72 97.17 185.94 97.17 185.94 97.54"/><polygon class="cls-31" points="184.73 97.11 184.81 96.95 185.83 96.95 185.93 97.11 184.73 97.11"/><rect class="cls-21" x="184.87" y="96.61" width="0.91" height="0.05"/><rect class="cls-31" x="184.86" y="96.66" width="0.93" height="0.28"/><polygon class="cls-31" points="184.87 96.61 184.93 96.49 185.71 96.49 185.79 96.61 184.87 96.61"/><rect class="cls-21" x="185.06" y="96.16" width="0.53" height="0.05"/><rect class="cls-31" x="185.06" y="96.21" width="0.54" height="0.28"/><polygon class="cls-31" points="185.06 96.16 185.1 96.04 185.55 96.04 185.6 96.16 185.06 96.16"/><circle class="cls-21" cx="185.33" cy="95.92" r="0.12"/><rect class="cls-21" x="186.37" y="97.11" width="1.2" height="0.07"/><polyline class="cls-31" points="186.36 97.54 186.36 97.17 187.58 97.17 187.58 97.54"/><polygon class="cls-31" points="186.37 97.11 186.44 96.95 187.47 96.95 187.57 97.11 186.37 97.11"/><rect class="cls-21" x="186.51" y="96.61" width="0.91" height="0.05"/><rect class="cls-31" x="186.5" y="96.66" width="0.93" height="0.28"/><polygon class="cls-31" points="186.51 96.61 186.57 96.49 187.35 96.49 187.43 96.61 186.51 96.61"/><rect class="cls-21" x="186.7" y="96.16" width="0.53" height="0.05"/><rect class="cls-31" x="186.7" y="96.21" width="0.54" height="0.28"/><polygon class="cls-31" points="186.7 96.16 186.74 96.04 187.19 96.04 187.24 96.16 186.7 96.16"/><circle class="cls-21" cx="186.97" cy="95.92" r="0.12"/><rect class="cls-21" x="188.01" y="97.11" width="1.2" height="0.07"/><polyline class="cls-31" points="188 97.54 188 97.17 189.22 97.17 189.22 97.54"/><polygon class="cls-31" points="188.01 97.11 188.08 96.95 189.1 96.95 189.21 97.11 188.01 97.11"/><rect class="cls-21" x="188.15" y="96.61" width="0.91" height="0.05"/><rect class="cls-31" x="188.14" y="96.66" width="0.93" height="0.28"/><polygon class="cls-31" points="188.15 96.61 188.21 96.49 188.99 96.49 189.06 96.61 188.15 96.61"/><rect class="cls-21" x="188.34" y="96.16" width="0.53" height="0.05"/><rect class="cls-31" x="188.33" y="96.21" width="0.54" height="0.28"/><polygon class="cls-31" points="188.34 96.16 188.37 96.04 188.83 96.04 188.87 96.16 188.34 96.16"/><circle class="cls-21" cx="188.61" cy="95.92" r="0.12"/><rect class="cls-21" x="189.65" y="97.11" width="1.2" height="0.07"/><polyline class="cls-31" points="189.63 97.54 189.63 97.17 190.86 97.17 190.86 97.54"/><polygon class="cls-31" points="189.65 97.11 189.72 96.95 190.74 96.95 190.84 97.11 189.65 97.11"/><rect class="cls-21" x="189.79" y="96.61" width="0.91" height="0.05"/><rect class="cls-31" x="189.78" y="96.66" width="0.93" height="0.28"/><polygon class="cls-31" points="189.79 96.61 189.85 96.49 190.62 96.49 190.7 96.61 189.79 96.61"/><rect class="cls-21" x="189.98" y="96.16" width="0.53" height="0.05"/><rect class="cls-31" x="189.97" y="96.21" width="0.54" height="0.28"/><polygon class="cls-31" points="189.98 96.16 190.01 96.04 190.47 96.04 190.51 96.16 189.98 96.16"/><circle class="cls-21" cx="190.25" cy="95.92" r="0.12"/><rect class="cls-21" x="191.28" y="97.11" width="1.2" height="0.07"/><polyline class="cls-31" points="191.27 97.54 191.27 97.17 192.49 97.17 192.49 97.54"/><polygon class="cls-31" points="191.28 97.11 191.36 96.95 192.38 96.95 192.48 97.11 191.28 97.11"/><rect class="cls-21" x="191.43" y="96.61" width="0.91" height="0.05"/><rect class="cls-31" x="191.42" y="96.66" width="0.93" height="0.28"/><polygon class="cls-31" points="191.43 96.61 191.49 96.49 192.26 96.49 192.34 96.61 191.43 96.61"/><rect class="cls-21" x="191.62" y="96.16" width="0.53" height="0.05"/><rect class="cls-31" x="191.61" y="96.21" width="0.54" height="0.28"/><polygon class="cls-31" points="191.62 96.16 191.65 96.04 192.1 96.04 192.15 96.16 191.62 96.16"/><circle class="cls-21" cx="191.88" cy="95.92" r="0.12"/><rect class="cls-21" x="205.52" y="110.82" width="1.2" height="0.07" transform="translate(412.25 221.71) rotate(-180)"/><polyline class="cls-31" points="206.73 111.26 206.73 110.89 205.51 110.89 205.51 111.26"/><polygon class="cls-31" points="206.72 110.82 206.65 110.66 205.63 110.66 205.52 110.82 206.72 110.82"/><rect class="cls-21" x="205.67" y="110.33" width="0.91" height="0.05" transform="translate(412.25 220.71) rotate(-180)"/><rect class="cls-31" x="205.66" y="110.38" width="0.93" height="0.28"/><polygon class="cls-31" points="206.58 110.33 206.52 110.21 205.75 110.21 205.67 110.33 206.58 110.33"/><rect class="cls-21" x="205.86" y="109.88" width="0.53" height="0.05" transform="translate(412.25 219.81) rotate(-180)"/><rect class="cls-31" x="205.85" y="109.93" width="0.54" height="0.28"/><polygon class="cls-31" points="206.39 109.88 206.36 109.76 205.9 109.76 205.86 109.88 206.39 109.88"/><circle class="cls-21" cx="206.12" cy="109.64" r="0.12"/><rect class="cls-21" x="204.57" y="109.87" width="1.2" height="0.07" transform="translate(410.35 219.81) rotate(-180)"/><polyline class="cls-31" points="205.78 110.31 205.78 109.94 204.56 109.94 204.56 110.31"/><polygon class="cls-31" points="205.78 109.87 205.7 109.72 204.68 109.72 204.57 109.87 205.78 109.87"/><rect class="cls-21" x="204.72" y="109.38" width="0.91" height="0.05" transform="translate(410.35 218.81) rotate(-180)"/><rect class="cls-31" x="204.71" y="109.43" width="0.93" height="0.28"/><polygon class="cls-31" points="205.63 109.38 205.57 109.26 204.8 109.26 204.72 109.38 205.63 109.38"/><rect class="cls-21" x="204.91" y="108.93" width="0.53" height="0.05" transform="translate(410.35 217.91) rotate(-180)"/><rect class="cls-31" x="204.9" y="108.98" width="0.54" height="0.28"/><polygon class="cls-31" points="205.44 108.93 205.41 108.81 204.95 108.81 204.91 108.93 205.44 108.93"/><circle class="cls-21" cx="205.17" cy="108.69" r="0.12"/><rect class="cls-21" x="203.49" y="108.79" width="1.2" height="0.07" transform="translate(408.19 217.65) rotate(-180)"/><polyline class="cls-31" points="204.7 109.23 204.7 108.86 203.48 108.86 203.48 109.23"/><polygon class="cls-31" points="204.69 108.79 204.62 108.63 203.6 108.63 203.49 108.79 204.69 108.79"/><rect class="cls-21" x="203.64" y="108.3" width="0.91" height="0.05" transform="translate(408.19 216.65) rotate(-180)"/><rect class="cls-31" x="203.63" y="108.35" width="0.93" height="0.28"/><polygon class="cls-31" points="204.55 108.3 204.49 108.18 203.71 108.18 203.63 108.3 204.55 108.3"/><rect class="cls-21" x="203.83" y="107.85" width="0.53" height="0.05" transform="translate(408.19 215.75) rotate(-180)"/><rect class="cls-31" x="203.82" y="107.9" width="0.54" height="0.28"/><polygon class="cls-31" points="204.36 107.85 204.33 107.73 203.87 107.73 203.82 107.85 204.36 107.85"/><circle class="cls-21" cx="204.09" cy="107.61" r="0.12"/><rect class="cls-21" x="202.46" y="107.75" width="1.2" height="0.07" transform="translate(406.11 215.58) rotate(-180)"/><polyline class="cls-31" points="203.67 108.19 203.67 107.82 202.44 107.82 202.44 108.19"/><polygon class="cls-31" points="203.66 107.75 203.58 107.59 202.56 107.59 202.46 107.75 203.66 107.75"/><rect class="cls-21" x="202.6" y="107.26" width="0.91" height="0.05" transform="translate(406.11 214.58) rotate(-180)"/><rect class="cls-31" x="202.59" y="107.31" width="0.93" height="0.28"/><polygon class="cls-31" points="203.51 107.26 203.46 107.14 202.68 107.14 202.6 107.26 203.51 107.26"/><rect class="cls-21" x="202.79" y="106.81" width="0.53" height="0.05" transform="translate(406.11 213.67) rotate(-180)"/><rect class="cls-31" x="202.78" y="106.86" width="0.54" height="0.28"/><polygon class="cls-31" points="203.32 106.81 203.29 106.69 202.83 106.69 202.79 106.81 203.32 106.81"/><circle class="cls-21" cx="203.06" cy="106.57" r="0.12"/><rect class="cls-21" x="201.42" y="106.72" width="1.2" height="0.07" transform="translate(404.04 213.5) rotate(-180)"/><polyline class="cls-31" points="202.63 107.15 202.63 106.78 201.41 106.78 201.41 107.15"/><polygon class="cls-31" points="202.62 106.72 202.54 106.56 201.52 106.56 201.42 106.72 202.62 106.72"/><rect class="cls-21" x="201.56" y="106.23" width="0.91" height="0.05" transform="translate(404.04 212.5) rotate(-180)"/><rect class="cls-31" x="201.55" y="106.28" width="0.93" height="0.28"/><polygon class="cls-31" points="202.47 106.23 202.42 106.1 201.64 106.1 201.56 106.23 202.47 106.23"/><rect class="cls-21" x="201.75" y="105.77" width="0.53" height="0.05" transform="translate(404.04 211.6) rotate(-180)"/><rect class="cls-31" x="201.75" y="105.83" width="0.54" height="0.28"/><polygon class="cls-31" points="202.29 105.78 202.25 105.65 201.8 105.65 201.75 105.78 202.29 105.78"/><circle class="cls-21" cx="202.02" cy="105.53" r="0.12"/><rect class="cls-21" x="200.34" y="105.64" width="1.2" height="0.07" transform="translate(401.88 211.35) rotate(-180)"/><polyline class="cls-31" points="201.55 106.08 201.55 105.71 200.33 105.71 200.33 106.08"/><polygon class="cls-31" points="201.54 105.64 201.47 105.48 200.45 105.48 200.34 105.64 201.54 105.64"/><rect class="cls-21" x="200.49" y="105.15" width="0.91" height="0.05" transform="translate(401.88 210.35) rotate(-180)"/><rect class="cls-31" x="200.48" y="105.2" width="0.93" height="0.28"/><polygon class="cls-31" points="201.4 105.15 201.34 105.03 200.56 105.03 200.49 105.15 201.4 105.15"/><rect class="cls-21" x="200.67" y="104.7" width="0.53" height="0.05" transform="translate(401.88 209.45) rotate(-180)"/><rect class="cls-31" x="200.67" y="104.75" width="0.54" height="0.28"/><polygon class="cls-31" points="201.21 104.7 201.18 104.58 200.72 104.58 200.68 104.7 201.21 104.7"/><circle class="cls-21" cx="200.94" cy="104.46" r="0.12"/><rect class="cls-21" x="199.28" y="104.58" width="1.2" height="0.07" transform="translate(399.76 209.22) rotate(-180)"/><polyline class="cls-31" points="200.49 105.02 200.49 104.64 199.27 104.64 199.27 105.02"/><polygon class="cls-31" points="200.48 104.58 200.4 104.42 199.38 104.42 199.28 104.58 200.48 104.58"/><rect class="cls-21" x="199.42" y="104.09" width="0.91" height="0.05" transform="translate(399.76 208.23) rotate(-180)"/><rect class="cls-31" x="199.41" y="104.14" width="0.93" height="0.28"/><polygon class="cls-31" points="200.34 104.09 200.28 103.97 199.5 103.97 199.42 104.09 200.34 104.09"/><rect class="cls-21" x="199.61" y="103.64" width="0.53" height="0.05" transform="translate(399.76 207.32) rotate(-180)"/><rect class="cls-31" x="199.61" y="103.69" width="0.54" height="0.28"/><polygon class="cls-31" points="200.15 103.64 200.11 103.52 199.66 103.52 199.61 103.64 200.15 103.64"/><circle class="cls-21" cx="199.88" cy="103.4" r="0.12"/><rect class="cls-21" x="198.22" y="103.52" width="1.2" height="0.07" transform="translate(397.64 207.11) rotate(-180)"/><polyline class="cls-31" points="199.43 103.96 199.43 103.59 198.21 103.59 198.21 103.96"/><polygon class="cls-31" points="199.42 103.52 199.34 103.36 198.32 103.36 198.22 103.52 199.42 103.52"/><rect class="cls-21" x="198.36" y="103.03" width="0.91" height="0.05" transform="translate(397.64 206.11) rotate(-180)"/><rect class="cls-31" x="198.36" y="103.08" width="0.93" height="0.28"/><polygon class="cls-31" points="199.28 103.03 199.22 102.91 198.44 102.91 198.37 103.03 199.28 103.03"/><rect class="cls-21" x="198.55" y="102.58" width="0.53" height="0.05" transform="translate(397.64 205.21) rotate(-180)"/><rect class="cls-31" x="198.55" y="102.63" width="0.54" height="0.28"/><polygon class="cls-31" points="199.09 102.58 199.06 102.46 198.6 102.46 198.56 102.58 199.09 102.58"/><circle class="cls-21" cx="198.82" cy="102.34" r="0.12"/><rect class="cls-21" x="197.14" y="102.44" width="1.2" height="0.07" transform="translate(395.48 204.94) rotate(-180)"/><polyline class="cls-31" points="198.35 102.87 198.35 102.5 197.13 102.5 197.13 102.87"/><polygon class="cls-31" points="198.34 102.44 198.26 102.28 197.24 102.28 197.14 102.44 198.34 102.44"/><rect class="cls-21" x="197.28" y="101.95" width="0.91" height="0.05" transform="translate(395.48 203.94) rotate(-180)"/><rect class="cls-31" x="197.27" y="102" width="0.93" height="0.28"/><polygon class="cls-31" points="198.2 101.95 198.14 101.83 197.36 101.83 197.28 101.95 198.2 101.95"/><rect class="cls-21" x="197.47" y="101.5" width="0.53" height="0.05" transform="translate(395.48 203.04) rotate(-180)"/><rect class="cls-31" x="197.47" y="101.55" width="0.54" height="0.28"/><polygon class="cls-31" points="198.01 101.5 197.97 101.37 197.52 101.37 197.47 101.5 198.01 101.5"/><circle class="cls-21" cx="197.74" cy="101.25" r="0.12"/><rect class="cls-21" x="196.08" y="101.38" width="1.2" height="0.07" transform="translate(393.35 202.82) rotate(-180)"/><polyline class="cls-31" points="197.29 101.81 197.29 101.44 196.07 101.44 196.07 101.81"/><polygon class="cls-31" points="197.28 101.38 197.2 101.22 196.18 101.22 196.08 101.38 197.28 101.38"/><rect class="cls-21" x="196.22" y="100.88" width="0.91" height="0.05" transform="translate(393.35 201.82) rotate(-180)"/><rect class="cls-31" x="196.21" y="100.93" width="0.93" height="0.28"/><polygon class="cls-31" points="197.13 100.88 197.07 100.76 196.3 100.76 196.22 100.88 197.13 100.88"/><rect class="cls-21" x="196.41" y="100.43" width="0.53" height="0.05" transform="translate(393.35 200.92) rotate(-180)"/><rect class="cls-31" x="196.4" y="100.48" width="0.54" height="0.28"/><polygon class="cls-31" points="196.94 100.43 196.91 100.31 196.46 100.31 196.41 100.43 196.94 100.43"/><circle class="cls-21" cx="196.68" cy="100.19" r="0.12"/><rect class="cls-21" x="195.01" y="100.31" width="1.2" height="0.07" transform="translate(391.23 200.69) rotate(-180)"/><polyline class="cls-31" points="196.22 100.75 196.22 100.38 195 100.38 195 100.75"/><polygon class="cls-31" points="196.21 100.31 196.14 100.15 195.12 100.15 195.01 100.31 196.21 100.31"/><rect class="cls-21" x="195.16" y="99.82" width="0.91" height="0.05" transform="translate(391.23 199.69) rotate(-180)"/><rect class="cls-31" x="195.15" y="99.87" width="0.93" height="0.28"/><polygon class="cls-31" points="196.07 99.82 196.01 99.7 195.24 99.7 195.16 99.82 196.07 99.82"/><rect class="cls-21" x="195.35" y="99.37" width="0.53" height="0.05" transform="translate(391.23 198.79) rotate(-180)"/><rect class="cls-31" x="195.34" y="99.42" width="0.54" height="0.28"/><polygon class="cls-31" points="195.88 99.37 195.85 99.25 195.39 99.25 195.35 99.37 195.88 99.37"/><circle class="cls-21" cx="195.61" cy="99.13" r="0.12"/><rect class="cls-21" x="193.9" y="99.2" width="1.2" height="0.07" transform="translate(389.01 198.47) rotate(-180)"/><polyline class="cls-31" points="195.11 99.64 195.11 99.27 193.89 99.27 193.89 99.64"/><polygon class="cls-31" points="195.1 99.2 195.03 99.04 194.01 99.04 193.9 99.2 195.1 99.2"/><rect class="cls-21" x="194.05" y="98.71" width="0.91" height="0.05" transform="translate(389.01 197.47) rotate(-180)"/><rect class="cls-31" x="194.04" y="98.76" width="0.93" height="0.28"/><polygon class="cls-31" points="194.96 98.71 194.9 98.59 194.13 98.59 194.05 98.71 194.96 98.71"/><rect class="cls-21" x="194.24" y="98.26" width="0.53" height="0.05" transform="translate(389.01 196.57) rotate(-180)"/><rect class="cls-31" x="194.23" y="98.31" width="0.54" height="0.28"/><polygon class="cls-31" points="194.77 98.26 194.74 98.14 194.28 98.14 194.24 98.26 194.77 98.26"/><circle class="cls-21" cx="194.5" cy="98.02" r="0.12"/><rect class="cls-31" x="160.34" y="113.35" width="1.21" height="4.6"/><rect class="cls-31" x="210.65" y="113.35" width="1.21" height="4.6"/><polygon class="cls-31" points="206.19 114.14 192.25 100.27 185.97 100.27 185.94 100.27 179.65 100.27 165.71 114.54 158.56 114.59 158.56 115.68 160.32 115.68 166.59 115.68 179.55 102.06 192.35 102.11 205.31 115.68 211.58 115.68 213.34 115.68 213.34 114.34 206.19 114.14"/><polygon class="cls-32" points="206.89 113.01 192.37 99.14 185.82 99.14 185.79 99.14 179.25 99.14 164.73 113.41 157.28 113.46 157.28 114.55 159.12 114.55 165.65 114.55 179.14 100.93 192.47 100.98 205.97 114.55 212.49 114.55 214.33 114.55 214.33 113.21 206.89 113.01"/><polygon class="cls-33" points="206.1 111.59 192.96 97.28 186.1 97.28 186.07 97.28 179.22 97.28 164.44 112.2 156.21 111.6 156.21 113.41 158.14 113.41 165.53 113.41 179.44 99.14 192.09 99.11 205.93 113.01 214.04 113.15 215.96 113.15 215.96 111.35 206.1 111.59"/><polygon class="cls-34" points="210.65 120.27 210.65 115.68 205.31 115.68 192.35 102.11 179.55 102.11 166.59 115.68 161.55 115.68 161.55 120.27 210.65 120.27"/><polygon class="cls-35" points="172.32 113.89 178.56 113.89 178.56 119.15 172.3 119.15 172.32 113.89"/><polygon class="cls-35" points="193.56 113.89 199.94 113.89 199.94 119.15 193.54 119.15 193.56 113.89"/><polygon class="cls-35" points="180.83 113.89 191.38 113.89 191.38 119.15 180.8 119.15 180.83 113.89"/><rect class="cls-3" x="179.96" y="119.15" width="15.09" height="0.37"/><rect class="cls-36" x="179.96" y="119.9" width="15.09" height="0.36" transform="translate(375 240.17) rotate(-180)"/><rect class="cls-37" x="179.96" y="119.52" width="15.09" height="0.39" transform="translate(375 239.42) rotate(-180)"/><rect class="cls-38" x="166.4" y="120.58" width="1.05" height="18.79"/><polygon class="cls-39" points="143.82 139.31 143.82 137.74 158.81 137.74 158.81 139.34 143.82 139.31"/><rect class="cls-21" x="143.47" y="137.19" width="15.34" height="0.55"/><rect class="cls-2" x="143.11" y="136.64" width="15.69" height="0.55"/><path class="cls-39" d="M158.81,136.64v-6H145.89c-1.17,1.6,0,3.4-1.41,4.14s-1,1.85-.13,1.85Z"/><rect class="cls-21" x="146.82" y="131.24" width="3.15" height="0.77"/><rect class="cls-21" x="148.4" y="132.8" width="3.15" height="0.77"/><rect class="cls-21" x="152.64" y="134.82" width="3.15" height="0.77"/><rect class="cls-21" x="151.44" y="138.29" width="3.15" height="0.77"/><rect class="cls-21" x="145.48" y="138.15" width="3.15" height="0.77"/><rect class="cls-21" x="152.9" y="131.24" width="3.15" height="0.77"/><path class="cls-39" d="M158.81,129.54v-6h-9.13c-.82,1.61,0,3.41-1,4.14s-.73,1.86-.09,1.86Z"/><rect class="cls-21" x="150.34" y="124.14" width="2.23" height="0.77"/><rect class="cls-21" x="151.46" y="125.69" width="2.23" height="0.77"/><rect class="cls-21" x="154.45" y="127.71" width="2.23" height="0.77"/><rect class="cls-21" x="154.64" y="124.14" width="2.23" height="0.77"/><rect class="cls-21" x="145.77" y="130.1" width="13.03" height="0.55"/><rect class="cls-21" x="149.52" y="123" width="9.29" height="0.55"/><rect class="cls-21" x="151.11" y="120.31" width="5.89" height="0.32"/><rect class="cls-2" x="145.48" y="129.55" width="13.33" height="0.55"/><rect class="cls-2" x="149.28" y="122.45" width="9.55" height="0.55"/><rect class="cls-31" x="151.06" y="120.63" width="6" height="1.82"/><polygon class="cls-31" points="151.11 120.31 151.49 119.53 156.5 119.53 157.01 120.31 151.11 120.31"/><rect class="cls-21" x="151.81" y="117.9" width="4.49" height="0.25"/><rect class="cls-31" x="151.78" y="118.14" width="4.57" height="1.38"/><polygon class="cls-31" points="151.81 117.9 152.1 117.3 155.92 117.3 156.31 117.9 151.81 117.9"/><rect class="cls-21" x="152.75" y="115.68" width="2.63" height="0.25"/><rect class="cls-31" x="152.72" y="115.93" width="2.67" height="1.38"/><polygon class="cls-31" points="152.75 115.68 152.91 115.08 155.15 115.08 155.37 115.68 152.75 115.68"/><circle class="cls-21" cx="154.06" cy="114.5" r="0.58"/><polygon class="cls-40" points="158.84 121.54 161.27 121.54 161.27 139.34 158.81 139.34 158.84 121.54"/><rect class="cls-3" x="165.05" y="118.77" width="5.63" height="0.5"/><rect class="cls-36" x="165.29" y="119.79" width="5.15" height="0.48"/><rect class="cls-37" x="165.05" y="119.27" width="5.63" height="0.52"/><polygon class="cls-40" points="167.48 120.58 169.91 120.58 169.91 139.38 167.45 139.38 167.48 120.58"/><polygon class="cls-41" points="161.27 120.81 161.27 119.45 166.4 119.45 166.4 139.34 161.27 139.34 161.27 120.81"/><rect class="cls-38" x="158.82" y="120.23" width="2.44" height="1.31"/><polygon class="cls-40" points="172.38 121.58 178.39 121.58 178.39 139.38 172.3 139.38 172.38 121.58"/><rect class="cls-38" x="172.34" y="120.27" width="6.01" height="1.31"/><rect class="cls-3" x="158.42" y="118.73" width="2.84" height="0.5"/><rect class="cls-42" x="161.27" y="119.45" width="5.12" height="0.3"/><rect class="cls-42" x="166.4" y="120.27" width="3.52" height="0.3"/><rect class="cls-43" x="166.4" y="120.58" width="3.52" height="1.07"/><rect class="cls-36" x="158.67" y="119.75" width="2.59" height="0.48"/><rect class="cls-3" x="171.85" y="119.16" width="7" height="0.37"/><rect class="cls-36" x="171.85" y="119.91" width="7" height="0.36" transform="translate(350.69 240.18) rotate(-180)"/><rect class="cls-37" x="171.85" y="119.53" width="7" height="0.39" transform="translate(350.69 239.44) rotate(-180)"/><rect class="cls-37" x="158.42" y="119.23" width="2.84" height="0.52"/><rect class="cls-3" x="160.43" y="117.95" width="6.81" height="0.5"/><rect class="cls-36" x="161.07" y="118.97" width="5.54" height="0.48"/><rect class="cls-37" x="160.84" y="118.45" width="6.03" height="0.52"/><polygon class="cls-41" points="169.27 120.81 169.27 119.45 172.87 119.45 172.87 139.38 169.27 139.38 169.27 120.81"/><rect class="cls-42" x="169.27" y="119.45" width="3.59" height="0.3"/><rect class="cls-3" x="168.68" y="117.95" width="4.78" height="0.5"/><rect class="cls-36" x="169.13" y="118.97" width="3.89" height="0.48"/><rect class="cls-37" x="168.97" y="118.45" width="4.23" height="0.52"/><polygon class="cls-41" points="177.83 120.81 177.83 119.45 181.43 119.45 181.43 139.38 177.83 139.38 177.83 120.81"/><rect class="cls-42" x="177.83" y="119.45" width="3.59" height="0.3"/><rect class="cls-3" x="177.24" y="117.95" width="4.78" height="0.5"/><rect class="cls-36" x="177.68" y="118.97" width="3.89" height="0.48"/><rect class="cls-37" x="177.53" y="118.45" width="4.23" height="0.52"/><rect class="cls-40" x="204.44" y="120.58" width="1.25" height="18.79"/><polygon class="cls-39" points="228.27 139.31 228.27 137.74 213.28 137.74 213.28 139.34 228.27 139.31"/><rect class="cls-21" x="213.28" y="137.19" width="15.34" height="0.55" transform="translate(441.9 274.93) rotate(-180)"/><rect class="cls-2" x="213.28" y="136.64" width="15.69" height="0.55" transform="translate(442.25 273.83) rotate(-180)"/><path class="cls-39" d="M213.28,136.64v-6H226.2c1.17,1.6,0,3.4,1.41,4.14s1,1.85.13,1.85Z"/><rect class="cls-21" x="222.11" y="131.24" width="3.15" height="0.77" transform="translate(447.38 263.25) rotate(-180)"/><rect class="cls-21" x="220.54" y="132.8" width="3.15" height="0.77" transform="translate(444.23 266.37) rotate(-180)"/><rect class="cls-21" x="216.3" y="134.82" width="3.15" height="0.77" transform="translate(435.75 270.41) rotate(-180)"/><rect class="cls-21" x="217.5" y="138.29" width="3.15" height="0.77" transform="translate(438.15 277.35) rotate(-180)"/><rect class="cls-21" x="223.19" y="138.15" width="3.15" height="0.77" transform="translate(449.53 277.08) rotate(-180)"/><rect class="cls-21" x="216.03" y="131.24" width="3.15" height="0.77" transform="translate(435.22 263.25) rotate(-180)"/><path class="cls-39" d="M213.28,129.54v-6h9.13c.82,1.61,0,3.41,1,4.14s.73,1.86.09,1.86Z"/><rect class="cls-21" x="219.52" y="124.14" width="2.23" height="0.77" transform="translate(441.27 249.05) rotate(-180)"/><rect class="cls-21" x="218.4" y="125.69" width="2.23" height="0.77" transform="translate(439.04 252.16) rotate(-180)"/><rect class="cls-21" x="215.41" y="127.71" width="2.23" height="0.77" transform="translate(433.05 256.2) rotate(-180)"/><rect class="cls-21" x="215.22" y="124.14" width="2.23" height="0.77" transform="translate(432.67 249.05) rotate(-180)"/><rect class="cls-21" x="213.28" y="130.1" width="13.03" height="0.55" transform="translate(439.6 260.75) rotate(-180)"/><rect class="cls-21" x="213.28" y="123" width="9.29" height="0.55" transform="translate(435.84 246.54) rotate(-180)"/><rect class="cls-21" x="215.08" y="120.31" width="5.89" height="0.32" transform="translate(436.06 240.95) rotate(-180)"/><rect class="cls-2" x="213.28" y="129.55" width="13.33" height="0.55" transform="translate(439.89 259.65) rotate(-180)"/><rect class="cls-2" x="213.25" y="122.45" width="9.55" height="0.55" transform="translate(436.06 245.45) rotate(-180)"/><rect class="cls-31" x="215.03" y="120.63" width="6" height="1.82"/><polygon class="cls-31" points="220.97 120.31 220.6 119.53 215.59 119.53 215.08 120.31 220.97 120.31"/><rect class="cls-21" x="215.78" y="117.9" width="4.49" height="0.25" transform="translate(436.06 236.04) rotate(-180)"/><rect class="cls-31" x="215.74" y="118.14" width="4.57" height="1.38"/><polygon class="cls-31" points="220.28 117.9 219.99 117.3 216.17 117.3 215.78 117.9 220.28 117.9"/><rect class="cls-21" x="216.71" y="115.68" width="2.63" height="0.25" transform="translate(436.06 231.61) rotate(-180)"/><rect class="cls-31" x="216.69" y="115.93" width="2.67" height="1.38"/><polygon class="cls-31" points="219.34 115.68 219.17 115.08 216.94 115.08 216.72 115.68 219.34 115.68"/><circle class="cls-21" cx="218.03" cy="114.5" r="0.58"/><polygon class="cls-40" points="213.25 121.54 210.81 121.54 210.81 139.34 213.28 139.34 213.25 121.54"/><rect class="cls-3" x="201.41" y="118.77" width="5.63" height="0.5"/><rect class="cls-36" x="201.65" y="119.79" width="5.15" height="0.48" transform="translate(408.45 240.06) rotate(-180)"/><rect class="cls-37" x="201.41" y="119.27" width="5.63" height="0.52" transform="translate(408.45 239.05) rotate(-180)"/><polygon class="cls-40" points="204.61 120.58 202.17 120.58 202.17 139.38 204.64 139.38 204.61 120.58"/><polygon class="cls-41" points="210.81 120.81 210.81 119.45 205.69 119.45 205.69 139.34 210.81 139.34 210.81 120.81"/><rect class="cls-38" x="210.83" y="120.23" width="2.44" height="1.31"/><polygon class="cls-40" points="199.71 121.58 193.7 121.58 193.7 139.38 199.78 139.38 199.71 121.58"/><rect class="cls-38" x="193.74" y="120.27" width="6.01" height="1.31"/><rect class="cls-3" x="210.83" y="118.73" width="2.84" height="0.5"/><rect class="cls-42" x="205.69" y="119.45" width="5.12" height="0.3" transform="translate(416.51 239.2) rotate(-180)"/><rect class="cls-38" x="194.32" y="120.58" width="1.05" height="18.79"/><rect class="cls-38" x="172.87" y="120.58" width="1.05" height="18.79"/><rect class="cls-42" x="202.17" y="120.27" width="3.52" height="0.3" transform="translate(407.87 240.84) rotate(-180)"/><rect class="cls-43" x="202.17" y="120.58" width="3.52" height="1.07" transform="translate(407.87 242.24) rotate(-180)"/><rect class="cls-36" x="210.83" y="119.75" width="2.59" height="0.48" transform="translate(424.25 239.98) rotate(-180)"/><rect class="cls-3" x="193.24" y="119.16" width="7" height="0.37"/><rect class="cls-36" x="193.24" y="119.91" width="7" height="0.36"/><rect class="cls-37" x="193.24" y="119.53" width="7" height="0.39"/><rect class="cls-37" x="210.83" y="119.23" width="2.84" height="0.52" transform="translate(424.49 238.97) rotate(-180)"/><rect class="cls-3" x="204.85" y="117.95" width="6.81" height="0.5"/><rect class="cls-36" x="205.48" y="118.97" width="5.54" height="0.48" transform="translate(416.51 238.43) rotate(-180)"/><rect class="cls-37" x="205.22" y="118.45" width="6.03" height="0.52" transform="translate(416.47 237.42) rotate(-180)"/><polygon class="cls-41" points="202.82 120.81 202.82 119.45 199.22 119.45 199.22 139.38 202.82 139.38 202.82 120.81"/><rect class="cls-42" x="199.22" y="119.45" width="3.59" height="0.3" transform="translate(402.04 239.2) rotate(-180)"/><rect class="cls-3" x="198.63" y="117.95" width="4.78" height="0.5"/><rect class="cls-36" x="199.08" y="118.97" width="3.89" height="0.48" transform="translate(402.04 238.43) rotate(-180)"/><rect class="cls-37" x="198.89" y="118.45" width="4.23" height="0.52" transform="translate(402.01 237.42) rotate(-180)"/><polygon class="cls-41" points="194.26 120.81 194.26 119.45 190.66 119.45 190.66 139.38 194.26 139.38 194.26 120.81"/><rect class="cls-42" x="190.66" y="119.45" width="3.59" height="0.3" transform="translate(384.92 239.2) rotate(-180)"/><rect class="cls-3" x="190.07" y="117.95" width="4.78" height="0.5"/><rect class="cls-36" x="190.52" y="118.97" width="3.89" height="0.48" transform="translate(384.92 238.43) rotate(-180)"/><rect class="cls-37" x="190.33" y="118.45" width="4.23" height="0.52" transform="translate(384.9 237.42) rotate(-180)"/><rect class="cls-34" x="181.42" y="120.31" width="9.24" height="19.03"/><rect class="cls-44" x="181.42" y="120.27" width="1.05" height="19.07"/><rect class="cls-38" x="210.83" y="120.58" width="1.05" height="18.79"/><rect class="cls-38" x="202.82" y="120.58" width="1.05" height="18.79"/><path class="cls-38" d="M183.92,139.34V135.2c0-3.54,5.79-3.59,5.79,0v4.18Z"/><path class="cls-38" d="M183.21,110.65v-4.14c0-3.54,5.78-3.59,5.78,0v4.18Z"/><rect class="cls-42" x="175.2" y="113.43" width="22.07" height="0.07" transform="translate(372.48 226.93) rotate(-180)"/><rect class="cls-3" x="171.57" y="113.05" width="29.33" height="0.12"/><rect class="cls-36" x="174.31" y="113.31" width="23.87" height="0.12" transform="translate(372.48 226.74) rotate(-180)"/><rect class="cls-37" x="173.16" y="113.18" width="25.99" height="0.13" transform="translate(372.32 226.49) rotate(-180)"/><rect class="cls-42" x="175.2" y="113.43" width="22.07" height="0.07" transform="translate(372.48 226.93) rotate(-180)"/><rect class="cls-3" x="171.57" y="113.05" width="29.33" height="0.12"/><rect class="cls-36" x="174.31" y="113.31" width="23.87" height="0.12" transform="translate(372.48 226.74) rotate(-180)"/><rect class="cls-37" x="173.16" y="113.18" width="25.99" height="0.13" transform="translate(372.32 226.49) rotate(-180)"/><rect class="cls-42" x="175.2" y="113.43" width="22.07" height="0.07" transform="translate(372.48 226.93) rotate(-180)"/><rect class="cls-3" x="171.57" y="113.05" width="29.33" height="0.12"/><rect class="cls-36" x="174.31" y="113.31" width="23.87" height="0.12" transform="translate(372.48 226.74) rotate(-180)"/><rect class="cls-37" x="173.16" y="113.18" width="25.99" height="0.13" transform="translate(372.32 226.49) rotate(-180)"/><rect class="cls-42" x="175.2" y="113.43" width="22.07" height="0.07" transform="translate(372.48 226.93) rotate(-180)"/><rect class="cls-3" x="171.57" y="113.05" width="29.33" height="0.12"/><rect class="cls-36" x="174.31" y="113.31" width="23.87" height="0.12" transform="translate(372.48 226.74) rotate(-180)"/><rect class="cls-37" x="173.16" y="113.18" width="25.99" height="0.13" transform="translate(372.32 226.49) rotate(-180)"/><rect class="cls-42" x="175.2" y="113.43" width="22.07" height="0.07" transform="translate(372.48 226.93) rotate(-180)"/><rect class="cls-3" x="171.57" y="113.05" width="29.33" height="0.12"/><rect class="cls-36" x="174.31" y="113.31" width="23.87" height="0.12" transform="translate(372.48 226.74) rotate(-180)"/><rect class="cls-37" x="173.16" y="113.18" width="25.99" height="0.13" transform="translate(372.32 226.49) rotate(-180)"/><rect class="cls-42" x="171.57" y="113.43" width="29.33" height="0.07" transform="translate(372.48 226.93) rotate(-180)"/><rect class="cls-3" x="171.57" y="113.05" width="29.33" height="0.12"/><rect class="cls-36" x="171.57" y="113.31" width="29.33" height="0.12" transform="translate(372.48 226.74) rotate(-180)"/><rect class="cls-37" x="171.57" y="113.18" width="29.33" height="0.13" transform="translate(372.48 226.49) rotate(-180)"/><polygon class="cls-41" points="172.32 113.34 172.32 113 170.15 113 170.15 117.96 172.32 117.96 172.32 113.34"/><rect class="cls-42" x="170.15" y="113" width="2.17" height="0.07" transform="translate(342.48 226.07) rotate(-180)"/><rect class="cls-3" x="169.8" y="112.62" width="2.88" height="0.12"/><rect class="cls-36" x="170.07" y="112.88" width="2.34" height="0.12" transform="translate(342.48 225.88) rotate(-180)"/><rect class="cls-37" x="169.95" y="112.75" width="2.55" height="0.13" transform="translate(342.46 225.63) rotate(-180)"/><polygon class="cls-41" points="180.72 113.34 180.72 113 178.56 113 178.56 117.96 180.72 117.96 180.72 113.34"/><rect class="cls-42" x="178.56" y="113" width="2.17" height="0.07" transform="translate(359.28 226.07) rotate(-180)"/><rect class="cls-3" x="178.2" y="112.62" width="2.88" height="0.12"/><rect class="cls-36" x="178.47" y="112.88" width="2.34" height="0.12" transform="translate(359.28 225.88) rotate(-180)"/><rect class="cls-37" x="178.36" y="112.75" width="2.55" height="0.13" transform="translate(359.27 225.63) rotate(-180)"/><polygon class="cls-41" points="193.54 113.34 193.54 113 191.38 113 191.38 117.96 193.54 117.96 193.54 113.34"/><rect class="cls-42" x="191.38" y="113" width="2.17" height="0.07" transform="translate(384.92 226.07) rotate(-180)"/><rect class="cls-3" x="191.02" y="112.62" width="2.88" height="0.12"/><rect class="cls-36" x="191.29" y="112.88" width="2.34" height="0.12" transform="translate(384.92 225.88) rotate(-180)"/><rect class="cls-37" x="191.18" y="112.75" width="2.55" height="0.13" transform="translate(384.91 225.63) rotate(-180)"/><polygon class="cls-41" points="202.09 113.34 202.09 113 199.92 113 199.92 117.96 202.09 117.96 202.09 113.34"/><rect class="cls-42" x="199.92" y="113" width="2.17" height="0.07" transform="translate(402.01 226.07) rotate(-180)"/><rect class="cls-3" x="199.57" y="112.62" width="2.88" height="0.12"/><rect class="cls-36" x="199.83" y="112.88" width="2.34" height="0.12" transform="translate(402.01 225.88) rotate(-180)"/><rect class="cls-37" x="199.72" y="112.75" width="2.55" height="0.13" transform="translate(402 225.63) rotate(-180)"/><rect class="cls-45" x="172.32" y="113.5" width="6.24" height="0.39"/><rect class="cls-45" x="193.54" y="113.5" width="6.39" height="0.39"/><rect class="cls-46" x="180.72" y="113.5" width="10.65" height="0.39"/><path class="cls-38" d="M173.68,119.15v-1.86c0-1.53,2.85-1.59,2.85,0v1.86Z"/><path class="cls-38" d="M195.32,119.15v-1.86c0-1.53,2.85-1.59,2.85,0v1.86Z"/><rect class="cls-47" x="182.06" y="90.19" width="8.19" height="7.16"/><path class="cls-48" d="M183.57,96.7V92.92c0-2.78,5.16-2.73,5.16,0v3.66Z"/><polygon class="cls-38" points="182.06 90.19 186.09 86.13 190.25 90.19 182.06 90.19"/></g></g></g></svg>