<svg xmlns="http://www.w3.org/2000/svg" viewBox="0 0 578.85 218.13"><defs><style>.cls-1{fill:#ea0029;}.cls-2{fill:#ffb71b;}</style></defs><title>LogoH</title><g id="Layer_2" data-name="Layer 2"><g id="Landing_page_Home" data-name="Landing page // Home"><g id="Colored_Logo" data-name="Colored Logo"><path d="M249.41,142.49H239.17V91.31h20.49a19.81,19.81,0,0,1,5.42.73A20.3,20.3,0,0,1,270,94.11a20.66,20.66,0,0,1,9.42,12.26,20.52,20.52,0,0,1-.87,13.37,20.9,20.9,0,0,1-4.4,6.51,20.48,20.48,0,0,1-6.51,4.39,19.88,19.88,0,0,1-7.94,1.61H249.41Zm0-40.94V122h10.25a10,10,0,0,0,4-.8,10.43,10.43,0,0,0,3.25-2.2,10.21,10.21,0,0,0,2.19-3.27,10.18,10.18,0,0,0,0-8,10.17,10.17,0,0,0-2.19-3.26,10.43,10.43,0,0,0-3.25-2.2,10,10,0,0,0-4-.8Z"/><path d="M326.48,142.49H316.24V132.25H295.75v10.24H285.54v-30.7a19.91,19.91,0,0,1,1.6-8,20.78,20.78,0,0,1,4.38-6.52A20.56,20.56,0,0,1,298,92.91a20.7,20.7,0,0,1,16,0,20.54,20.54,0,0,1,10.9,10.91,19.92,19.92,0,0,1,1.61,8ZM316.24,122V111.79a9.94,9.94,0,0,0-.81-4,10.17,10.17,0,0,0-2.19-3.26,10.4,10.4,0,0,0-3.27-2.2,10.3,10.3,0,0,0-8,0,10.23,10.23,0,0,0-5.46,5.46,9.93,9.93,0,0,0-.8,4V122Z"/><path d="M371.21,142.49H335.37V91.31h10.24v40.94h25.6Z"/><path d="M416.9,142.49H406.65V132.25H386.16v10.24H376v-30.7a19.92,19.92,0,0,1,1.61-8,20.92,20.92,0,0,1,4.37-6.52,20.6,20.6,0,0,1,6.5-4.39,20.68,20.68,0,0,1,15.95,0,20.51,20.51,0,0,1,10.91,10.91,19.92,19.92,0,0,1,1.61,8ZM406.65,122V111.79a10.11,10.11,0,0,0-.8-4,10.36,10.36,0,0,0-2.2-3.26,10.25,10.25,0,0,0-3.26-2.2,10.3,10.3,0,0,0-8,0,10.4,10.4,0,0,0-3.27,2.2,10.17,10.17,0,0,0-2.19,3.26,9.94,9.94,0,0,0-.81,4V122Z"/><path d="M466.8,116.9a25.19,25.19,0,0,1-3.5,12.9,26.44,26.44,0,0,1-4,5.18,24.87,24.87,0,0,1-5.17,4,25.38,25.38,0,0,1-6.13,2.59,25,25,0,0,1-6.79.91H425.78V91.31h15.43a25,25,0,0,1,6.79.91,25.76,25.76,0,0,1,6.13,2.58,25.26,25.26,0,0,1,5.17,4,26.38,26.38,0,0,1,4,5.17,25.47,25.47,0,0,1,2.59,6.11A25.08,25.08,0,0,1,466.8,116.9Zm-10.25,0a14.86,14.86,0,0,0-1.19-6,15.29,15.29,0,0,0-3.29-4.87,15.48,15.48,0,0,0-4.89-3.31,14.82,14.82,0,0,0-6-1.21H436.1v30.7h5.11a15,15,0,0,0,6-1.2,15.29,15.29,0,0,0,8.18-8.17A15,15,0,0,0,456.55,116.9Z"/><path d="M483.83,142.49H473.58V91.31h10.25Z"/><path d="M534.26,142.49h-11L503.57,108.8v33.69H493.32V91.31h11L524,125V91.31h10.24Z"/><path d="M578.85,142.49H543.76V91.31h35.09v10.24H554v10.24h16.82V122H554v10.21h24.85Z"/><circle cx="109.07" cy="109.07" r="109.07"/><path class="cls-1" d="M169.16,173.53l7,11.23h3A103.17,103.17,0,1,0,29.05,174.19a58.06,58.06,0,0,1,6.44-3.54c3-1.46,6.59-3,10.65-4.57l2.25-.88,1,.3,22.72-41.37,23-10.78c-4.62-10.47-8.75-20.19-10.22-24.75-11.65,2-25.29-6.93-32.31-22-8-17.14-.11-37.72,8.07-41.53s29,3.38,37,20.51c7,15,5.08,31.23-3.93,38.88,2.73,4.36,8.06,14.88,13.51,26l2.25,1.09c5.57-11.4,11-22.18,13.74-26.44-7.13-7.2-7.81-22.51-1-37.23,5.92-12.69,11-23.6,21.15-24.72-2.8,4.94-6.68,13.06-8.19,16.29-2.27,4.88-7.84,16.58-5,17.92l2.32,1.08c2.88,1.35,8.27-10.44,10.54-15.31,1.76-3.78,11.27-18,13-17.23S153.1,43.25,151.34,47c-2.28,4.88-7.85,16.58-5,17.92L148.7,66c2.88,1.35,8.26-10.44,10.54-15.32,1.5-3.23,5.22-11.42,7.21-16.74,5.65,8.49.58,19.39-5.34,32.09-6.87,14.72-19,24-29.13,23.21-1.53,4.83-6.31,16-11.48,27.64l24.42,11.74.63,3.57c2.5,13.95,10,34.73,18.91,37.24Z"/><path class="cls-2" d="M167.09,183.56l-1.69-2.7-25.8,1.67-8.5.54-2.3.94-14.53,5.88,11.5-11.33,2.34-2.3h34.42c-17.21-4.86-23.95-42.82-23.95-42.82l-21-10.08-13.45-6.46L98,119.81l-20.73,9.74L57.81,164.91l18.67-6.16,7.18,8.08,4,4.57-5-2.4-8.12-3.93L55.9,174.8l-7.2-2.13c-3,1.18-6.76,2.72-10.14,4.35-1.74.84-3.38,1.71-4.79,2.57a103.15,103.15,0,0,0,138,11.42Z"/></g></g></g></svg>