<svg xmlns="http://www.w3.org/2000/svg" viewBox="0 0 288.08 255.47"><defs><style>.cls-1{fill:#ea0029;}.cls-2{fill:#ffb71b;}</style></defs><title>LogoV</title><g id="Layer_2" data-name="Layer 2"><g id="Landing_page_Home" data-name="Landing page // Home"><g id="Colored_Logo" data-name="Colored Logo"><path d="M8.69,255.47H0V212.06H17.38a16.74,16.74,0,0,1,4.6.62,17.39,17.39,0,0,1,4.13,1.75,17.79,17.79,0,0,1,3.51,2.73,17.35,17.35,0,0,1,2.73,3.53,17.64,17.64,0,0,1,1.75,4.14,17.38,17.38,0,0,1-.74,11.34,17.35,17.35,0,0,1-9.25,9.25,16.8,16.8,0,0,1-6.73,1.36H8.69Zm0-34.72v17.37h8.69a8.27,8.27,0,0,0,3.36-.68,8.57,8.57,0,0,0,2.75-1.86,8.65,8.65,0,0,0,1.86-2.77,8.6,8.6,0,0,0,0-6.75,8.65,8.65,0,0,0-1.86-2.77,8.57,8.57,0,0,0-2.75-1.86,8.27,8.27,0,0,0-3.36-.68Z"/><path d="M74.05,255.47H65.36v-8.69H48v8.69H39.33v-26a16.87,16.87,0,0,1,1.36-6.76,17.68,17.68,0,0,1,3.71-5.53,17.39,17.39,0,0,1,5.51-3.72,17.51,17.51,0,0,1,13.53,0,17.44,17.44,0,0,1,9.25,9.25,17,17,0,0,1,1.36,6.76Zm-8.69-17.35v-8.69a8.53,8.53,0,0,0-.68-3.37,9,9,0,0,0-1.86-2.77,8.65,8.65,0,0,0-2.77-1.86,8.72,8.72,0,0,0-6.75,0,8.55,8.55,0,0,0-2.77,1.86,8.85,8.85,0,0,0-1.87,2.77,8.53,8.53,0,0,0-.68,3.37v8.69Z"/><path d="M112,255.47H81.59V212.06h8.69v34.72H112Z"/><path d="M150.73,255.47H142v-8.69H124.67v8.69H116v-26a16.87,16.87,0,0,1,1.36-6.76,17.68,17.68,0,0,1,3.71-5.53,17.39,17.39,0,0,1,5.51-3.72,17.51,17.51,0,0,1,13.53,0,17.35,17.35,0,0,1,9.25,9.25,16.87,16.87,0,0,1,1.36,6.76ZM142,238.12v-8.69a8.35,8.35,0,0,0-.68-3.37,8.65,8.65,0,0,0-4.63-4.63,8.72,8.72,0,0,0-6.75,0,8.65,8.65,0,0,0-4.63,4.63,8.35,8.35,0,0,0-.68,3.37v8.69Z"/><path d="M193.05,233.76a21.47,21.47,0,0,1-3,11,22.57,22.57,0,0,1-3.39,4.39,21.7,21.7,0,0,1-9.59,5.6,21.47,21.47,0,0,1-5.76.77H158.27V212.06h13.08a21.47,21.47,0,0,1,5.76.77,21.45,21.45,0,0,1,9.59,5.6,22.57,22.57,0,0,1,3.39,4.39,21.47,21.47,0,0,1,3,10.94Zm-8.68,0a12.59,12.59,0,0,0-1-5,13.07,13.07,0,0,0-2.78-4.13,13.21,13.21,0,0,0-4.15-2.8,12.59,12.59,0,0,0-5.07-1H167v26h4.33a12.93,12.93,0,0,0,5.07-1,13.18,13.18,0,0,0,4.15-2.79,13,13,0,0,0,2.78-4.15A12.69,12.69,0,0,0,184.37,233.76Z"/><path d="M207.49,255.47h-8.68V212.06h8.68Z"/><path d="M250.27,255.47H241l-16.74-28.58v28.58h-8.69V212.06h9.29l16.74,28.61V212.06h8.69Z"/><path d="M288.08,255.47H258.32V212.06h29.76v8.69H267v8.68h14.26v8.69H267v8.66h21.07Z"/><circle cx="144.04" cy="92.5" r="92.5"/><path class="cls-1" d="M195,147.17l6,9.52h2.53a87.5,87.5,0,1,0-127.31-9,48.54,48.54,0,0,1,5.46-3c2.55-1.24,5.59-2.54,9-3.88l1.91-.74.86.25,19.28-35.09,19.46-9.14c-3.92-8.88-7.42-17.12-8.67-21-9.88,1.69-21.45-5.87-27.4-18.64C89.34,42,96,24.51,103,21.27s24.6,2.87,31.38,17.41c5.95,12.76,4.31,26.48-3.33,33,2.31,3.7,6.83,12.63,11.46,22.09l1.91.91C149.1,85,153.73,75.84,156,72.22c-6-6.1-6.62-19.09-.8-31.57,5-10.77,9.34-20,17.94-21-2.37,4.19-5.67,11.07-6.95,13.81-1.93,4.14-6.65,14.06-4.2,15.2l2,.92c2.44,1.14,7-8.86,8.93-13,1.5-3.21,9.56-15.31,11.06-14.61s-2.59,14.66-4.08,17.86c-1.93,4.13-6.65,14.06-4.21,15.2l2,.91c2.45,1.14,7-8.85,8.94-13,1.28-2.74,4.43-9.69,6.12-14.2,4.79,7.2.49,16.45-4.53,27.21C182.36,68.5,172,76.41,163.48,75.7c-1.3,4.1-5.35,13.57-9.74,23.44l20.71,10,.53,3c2.12,11.83,8.49,29.45,16,31.58Z"/><path class="cls-2" d="M193.25,155.68l-1.43-2.29-21.88,1.41-7.21.47-2,.79-12.32,5,9.76-9.6,2-1.95h29.19c-14.59-4.13-20.3-36.32-20.3-36.32l-17.79-8.55-11.41-5.48-5.26,2.47L117,109.87l-16.47,30,15.83-5.23,6.09,6.86,3.43,3.87-4.21-2L114.82,140,99,148.25l-6.11-1.81c-2.57,1-5.73,2.31-8.59,3.69a45.93,45.93,0,0,0-4.07,2.18,87.49,87.49,0,0,0,117,9.69Z"/></g></g></g></svg>